<?xml version="1.0" encoding="UTF-8"?>
<svg xmlns="http://www.w3.org/2000/svg" xmlns:xlink="http://www.w3.org/1999/xlink" viewBox="0 0 1924 1080">
  <defs>
    <style>
      .cls-1 {
        fill: #fff;
      }

      .cls-2 {
        fill: url(#radial-gradient);
      }

      .cls-3 {
        opacity: .26;
      }

      .cls-4 {
        fill: url(#linear-gradient);
      }
    </style>
    <linearGradient id="linear-gradient" x1="961.16" y1="-2.91" x2="962.2" y2="1081.22" gradientUnits="userSpaceOnUse">
      <stop offset="0" stop-color="#3fffec"/>
      <stop offset="0" stop-color="#ffc96a"/>
      <stop offset="0" stop-color="#ffefbf"/>
      <stop offset="0" stop-color="#ffefbf"/>
      <stop offset="0" stop-color="#ffe7a8"/>
      <stop offset=".03" stop-color="#ffd475"/>
      <stop offset=".43" stop-color="#ffd27f"/>
      <stop offset=".65" stop-color="#ffd57d"/>
      <stop offset=".88" stop-color="#fff36a"/>
    </linearGradient>
    <radialGradient id="radial-gradient" cx="231.5" cy="214.5" fx="231.5" fy="214.5" r="114.13" gradientUnits="userSpaceOnUse">
      <stop offset="0" stop-color="#ffab15"/>
      <stop offset="0" stop-color="#ffac2a"/>
      <stop offset="0" stop-color="#ffefbf"/>
      <stop offset="0" stop-color="#ffefbe"/>
      <stop offset="0" stop-color="#ffecb7"/>
      <stop offset=".05" stop-color="#ffc96a"/>
      <stop offset=".3" stop-color="#ffd87f"/>
      <stop offset=".92" stop-color="#ffd215"/>
    </radialGradient>
  </defs>
  <g id="background">
    <g>
      <rect class="cls-4" x="-.19" y=".15" width="1923.75" height="1079.75"/>
      <path d="M1923.43,.27V1079.77H-.07V.27H1923.43m.25-.25H-.32V1080.02H1923.68V.02h0Z"/>
    </g>
  </g>
  <g id="skygge">
    <g class="cls-3">
      <path class="cls-1" d="M1461.38,111.91c.88,1.93,2.57,3.38,4.67,3.81,2.46,.5,4.66-.51,6.98-1.17,4.68-1.32,8.52,2.52,12.72,3.91,2.27,.75,4.59,.68,6.85-.12,2.33-.82,4.46-2.18,6.86-2.79,2.8-.71,5.62,.34,8.23,1.32,2.78,1.04,5.58,2.04,8.41,2.93,2.88,.91,5.79,1.72,8.73,2.43,2.53,.61,5.29,1.48,7.91,1.02,2.7-.48,4.13-2.47,5.77-4.45s3.4-2.84,5.91-2.7c2.33,.13,4.6,.98,6.8,1.69,2.91,.94,5.88,1.7,8.89,2.24,2.94,.53,5.91,.87,8.89,1.01,2.19,.1,5.68,.76,6.8-1.72,.95-2.11-.43-4.74-1.91-6.24-2.05-2.09-4.61-3.86-7.17-5.27-4.89-2.7-10.48-4.09-16.07-3.59-1.26,.11-2.02,1.57-1.06,2.56,2.59,2.66,5.71,4.81,9.27,5.94,1.6,.51,3.29,.78,4.97,.82,.87,.02,2.57-.1,2.73,1.1l1.1-1.45c-2.34,.98-4.65,.42-6.9-.53-2.32-.98-4.51-2.24-6.79-3.31-4.51-2.12-9.3-4.31-14.16-5.51-2.37-.59-4.36-.16-6.25,1.38s-3.62,3.28-5.25,5.02c-1.43,1.51-2.37,3.87-.89,5.69,1.18,1.44,3.43,2.13,5.23,2.01,2.38-.17,4.27-1.5,5.7-3.35,.93-1.2,2.99-5.4,4.95-4.09l.36-2.74c-2.84,.39-5.66,.92-8.46,1.58-1.63,.39-1.3,3.02,.4,2.95,11.69-.52,23.31,1.11,34.46,4.63l.4-2.95c-2.75,.29-5.06-1.53-7.07-3.18-2.3-1.88-4.53-4.05-7.26-5.3-3.44-1.57-7.4-.77-10.79-2.35-3.08-1.44-5.33-4.3-8.68-5.23-2.97-.82-5.88,.29-8.59,1.45-2.42,1.03-5.36,2.57-7.98,1.29-1.55-.76-2.76-2.11-4.11-3.16-1.47-1.13-3.13-1.88-4.96-2.18-3.45-.56-7.13,.43-10.48-.67-1.8-.59-3.2-1.94-4.71-3.04-1.41-1.02-3-1.79-4.72-2.09-3.49-.61-6.9,.34-10.28,1.09-1.68,.37-3.38,.7-5.11,.66-2.02-.04-3.94-.72-5.84-1.34-3.37-1.08-6.7-1.58-10.18-.69-3.38,.87-6.43,2.87-8.79,5.42-2.42,2.62-4.18,5.77-6.6,8.39-1.22,1.32-2.58,2.35-4.22,3.09-1.74,.79-3.61,1.25-5.39,1.96-2.88,1.15-5.41,3.38-4.89,6.79,.48,3.16,3.65,4.98,6.57,3.66,1.58-.71,2.82-1.99,4.38-2.74,1.21-.58,2.56-.89,3.88-1.03,5.58-.62,11.68,1.12,16.82-1.86,1.29-.75,2.4-1.77,3.32-2.93,.6-.76,.59-2.33-.66-2.51-10.15-1.42-20.26,.38-29.39,5.01l1.82,2.36c5.35-5.22,12.61-6.46,19.5-8.52,1.46-.44,3.17-.81,4.4-1.76,1.37-1.05,1.8-2.8,1.48-4.45-.6-3.03-3.51-5.29-6.6-4.47-3.55,.94-5.32,4.8-5.57,8.16-.06,.81,.74,1.49,1.5,1.5,4.18,.04,7.96-1.57,11.16-4.19-.84-.49-1.67-.97-2.51-1.46-1.28,3.58-2.6,9.08,1.01,11.81,1.75,1.32,4.2,1.34,6.28,1.08,2.52-.31,4.88-1.25,7-2.65,1.02-.67,.9-1.9,0-2.59-1.18-.9-2.62-.13-3.22,1.05-.67,1.31-.51,2.91,.4,4.06,.95,1.21,2.38,1.55,3.83,1.74,2.05,.27,4.09,.29,6.14,.06,.76-.09,1.57-.62,1.5-1.5-.24-3.24-2.34-5.57-5.25-6.83-3.8-1.66-7.98-2.47-12.12-2.55v3c3.67-.09,7.16-.93,10.52-2.38,1.01-.43,.96-2.14,0-2.59-3.78-1.78-7.84-2.33-11.92-1.33l1.46,2.51c1.12-1.38,1.86-2.91,2.27-4.64,.18-.74-.23-1.69-1.05-1.85-2.94-.54-5.88-1.08-8.83-1.62v2.89c6.72-2.4,13.85-2.97,20.85-1.54l-1.1-1.45c-.1,.84-1,1.25-1.65,1.59-1.22,.64-2.44,1.27-3.66,1.91-2.44,1.27-4.88,2.55-7.31,3.82-1.33,.69-.7,2.82,.76,2.8,3.2-.05,5.35-2.55,6.38-5.36,.37-1-.56-1.81-1.45-1.9-3.63-.35-6.63,2.2-8.19,5.27-.37,.73-.19,1.62,.54,2.05,3.69,2.21,7.82,.13,9.59-3.48,.52-1.06-.12-2.17-1.3-2.26-3.4-.24-6.81,.79-9.57,2.78-1.34,.97-3.11,2.06-2.59,3.96,.37,1.34,1.62,2.16,2.91,2.43,6.86,1.42,13.83-1.53,18.75-6.22,.72-.69,.49-1.85-.3-2.36-2.23-1.41-4.92-1.68-7.33-.54-1.17,.56-2.18,1.25-2.05,2.65,.1,1.13,.64,2.11,1.49,2.84,1.9,1.63,4.88,1.67,7.24,1.93,3.14,.34,6.29,.39,9.44,.18l-1.06-2.56c-1.5,1.18-3,2.36-4.5,3.55-.8,.63-.42,1.89,.3,2.36,2.6,1.68,5.77,2.16,8.66,.95,1.44-.6,1.44-2.98-.4-2.95-3.74,.07-7.38-.47-10.95-1.58-1.35-.42-2.21,1.09-1.69,2.2,1.67,3.58,5.05,6.17,9.07,6.25,4.77,.1,8.78-3.37,12.22-6.24,.59-.49,.58-1.63,0-2.12-5.32-4.48-11.92-6.94-18.89-5.84l1.16,2.74c3.55-1.69,7.1-3.38,10.65-5.07,1.25-.6,.76-2.36-.36-2.74-3.64-1.26-7.61-1.39-11.28-.16-1.52,.51-2.83,1.25-3.18,2.94-.3,1.47,.36,2.96,1.27,4.09,1.98,2.45,5.65,3.13,8.64,3.19,3.63,.08,7.16-1.09,10.16-3.1,.83-.56,.97-1.61,.3-2.36-2.26-2.53-6.14-4.44-9.01-1.64-2.57,2.51-2.75,6.82-.62,9.65,1.73,2.31,5.91,4.96,8.73,3.1,2.43-1.61,2.64-5.75,1.29-8.09-.84-1.44-2.44-2.34-4.11-1.98-1.75,.38-2.9,1.86-3.33,3.53-.21,.81,.26,1.6,1.05,1.85,8.02,2.53,16.45,3.1,24.72,1.59,1.42-.26,1.27-2.05,.36-2.74-3.28-2.47-7.35-4.01-11.49-3.71-1.43,.1-4.34,1.41-4.71-.74-.14-.81,.13-.74,.81-.57,1.14,.29,2.26,.69,3.39,1.04,2.16,.66,4.45,1.18,6.54,2.03,1.24,.5,2.52,1.6,2.03,3.1s-2.69,1.83-3.98,2.17c-2.3,.61-4.63,1.1-6.98,1.46-1.57,.25-1.28,2.48,0,2.89,3.85,1.25,7.77,2.3,11.75,3.09,1.92,.39,3.86,.71,5.8,.99,1.61,.22,3.68,.81,5.02-.45,1.89-1.79,1.34-5.43-.24-7.23-2.39-2.71-6.81-1.69-9.96-1.52-4.77,.25-9.54,.5-14.31,.75-1.66,.09-2.07,2.46-.4,2.95,6.24,1.8,12.73,2.16,19.19,2.24,5.4,.07,11.06,.35,15.34-3.52-.85-.35-1.71-.71-2.56-1.06-.34,2.82-1.62,5.89-4.01,7.57-1.89,1.33-5.02,1.49-5.69-1.31-.56-2.37,3.37-4.2,4.92-5.36,2.21-1.66,3.89-3.67,4.46-6.44,.23-1.12-.69-2.14-1.85-1.85-4.28,1.07-8.1,3.22-11.46,6.05-1.37,1.15,.37,3.09,1.82,2.36,2.16-1.09,4.32-2.19,6.48-3.28,1.15-.58,2.3-1.17,3.46-1.75,.43-.22,.86-.44,1.3-.66l.86-.44c-.17-.37-.21-.41-.11-.13-.09,.38,.06,.66-.15,1.04-.17,.3-.45,.52-.72,.73-.94,.72-2.03,1.31-3.06,1.91-1.91,1.11-3.89,2.12-5.92,3-2.1,.91-4.34,1.75-6.63,1.93-2.37,.19-4.6-.48-6.81-1.27-4.61-1.66-9.18-3.44-13.76-5.16l1.05,1.85c.22-.57,.44-1.14,.66-1.71,.7-1.8-2.2-2.58-2.89-.8-.22,.57-.44,1.14-.66,1.71-.31,.8,.35,1.58,1.05,1.85,4.44,1.67,8.87,3.36,13.32,4.99,2.01,.74,4.05,1.39,6.2,1.55,2.22,.16,4.48-.3,6.57-1,4.2-1.4,8.23-3.52,11.92-5.93,1.52-.99,2.75-2.22,2.86-4.13,.09-1.58-.73-3.38-2.49-3.52-1.21-.1-2.41,.76-3.44,1.28-1.15,.58-2.3,1.17-3.46,1.75-2.38,1.2-4.75,2.4-7.13,3.61l1.82,2.36c2.97-2.49,6.37-4.33,10.14-5.28-.62-.62-1.23-1.23-1.85-1.85-.7,3.4-3.47,4.82-6.03,6.76-1.47,1.11-3,2.39-3.41,4.28s.35,3.76,1.65,5.08c2.47,2.53,6.23,2.09,8.89,.11,3.14-2.33,4.67-6.1,5.13-9.88,.17-1.39-1.7-1.84-2.56-1.06-3.76,3.41-9.47,2.7-14.16,2.63-5.89-.1-11.76-.48-17.45-2.12l-.4,2.95c4.28-.23,8.55-.45,12.83-.68,2.09-.11,4.18-.26,6.27-.33,1.51-.05,2.95,.13,3.42,1.77,.14,.49,.27,1.21,.08,1.71-.24,.61-.82,.27-1.55,.17-2.04-.26-4.08-.6-6.1-.99-4.13-.81-8.21-1.89-12.21-3.19v2.89c2.51-.39,4.99-.92,7.44-1.59,1.67-.46,3.39-.95,4.58-2.29,2.6-2.94,.75-6.96-2.47-8.39-2.12-.94-4.48-1.46-6.69-2.14-1.79-.55-4.17-1.78-6.1-1.34-1.93,.45-2.66,2.46-2.29,4.25s1.69,3.3,3.58,3.54c1.24,.15,2.43-.27,3.66-.4s2.38-.09,3.54,.11c2.53,.45,4.79,1.62,6.83,3.15l.36-2.74c-7.74,1.41-15.64,.77-23.13-1.59l1.05,1.85c.15-.58,.53-1.53,1.3-1.41,.82,.13,1.02,1.48,1.05,2.12,.03,.73-.03,1.91-.64,2.43-.8,.69-2.41-.36-3.15-.82-2.03-1.28-3.16-3.68-2.12-6,1.33-2.96,3.99-1.38,5.61,.43l.3-2.36c-2.11,1.41-4.47,2.41-7.02,2.64-2.21,.2-5.1,0-7.04-1.2-.67-.42-1.37-1.19-1.53-1.99-.22-1.13,1.5-1.27,2.32-1.47,2.81-.68,5.66-.4,8.37,.54l-.36-2.74c-3.55,1.69-7.1,3.38-10.65,5.07-1.66,.79-.39,2.99,1.16,2.74,5.82-.92,11.56,1.35,15.97,5.06v-2.12c-2.73,2.27-6.03,5.3-9.8,5.36-3.14,.05-5.51-2.04-6.78-4.77l-1.69,2.2c3.81,1.18,7.76,1.76,11.74,1.68l-.4-2.95c-2.22,.93-4.34,.64-6.35-.65l.3,2.36c1.5-1.18,3-2.36,4.5-3.55,1.02-.8,.17-2.64-1.06-2.56-3.07,.2-6.14,.16-9.2-.16-1.44-.15-2.94-.3-4.34-.66-.87-.23-1.64-.68-1.65-1.65l-.74,1.3c1.79-1.36,3.72-1.51,5.63-.3l-.3-2.36c-2.44,2.32-5.32,4.14-8.59,5.04-1.49,.41-3.01,.62-4.56,.62-.62,0-3.53,.14-3.48-.77l-.44,1.06c2.65-2.55,5.97-4.04,9.69-3.77l-1.3-2.26c-1.04,2.12-3.17,3.79-5.49,2.4l.54,2.05c1.12-2.2,2.97-4.04,5.6-3.79l-1.45-1.9c-.56,1.52-1.72,3.13-3.49,3.16l.76,2.8c3.01-1.57,6.02-3.14,9.04-4.72,2.39-1.25,4.73-2.23,5.07-5.19,.07-.61-.51-1.33-1.1-1.45-7.51-1.54-15.22-1.05-22.45,1.54-1.26,.45-1.58,2.6,0,2.89,2.94,.54,5.88,1.08,8.83,1.62l-1.05-1.85c-.29,1.2-.72,2.36-1.5,3.32-.92,1.13-.09,2.89,1.46,2.51,3.26-.8,6.58-.4,9.61,1.03v-2.59c-2.85,1.23-5.9,1.89-9.01,1.97-1.93,.05-1.93,2.96,0,3,3.35,.07,6.62,.69,9.77,1.84,2.13,.78,4.4,2.02,4.59,4.55l1.5-1.5c-1.88,.21-3.79,.25-5.67,0-.56-.07-1.4-.11-1.84-.53-.19-.18-.21-.38-.28-.6,0-.11,.02-.21,.06-.31,.26-.43-.05-.39-.94,.12v-2.59c-1.61,1.06-3.34,1.86-5.25,2.19-1.39,.24-3.47,.48-4.68-.41-2.43-1.79-.74-6.42,.05-8.64,.56-1.55-1.47-2.31-2.51-1.46-2.58,2.11-5.69,3.34-9.03,3.31l1.5,1.5c.14-1.96,2.08-6.7,4.88-5.1,1.05,.6,2.08,2.64,.9,3.56-.54,.42-1.36,.56-2,.77-.86,.28-1.72,.53-2.58,.77-7.03,1.98-14.12,3.65-19.53,8.92-1.26,1.23,.34,3.11,1.82,2.36,8.34-4.24,17.78-6.01,27.08-4.71l-.66-2.51c-3.71,4.69-9.43,3.81-14.76,3.78-2.74-.01-5.52,.22-8.06,1.31-1.39,.6-2.51,1.51-3.77,2.33-1.13,.74-2.52,1.23-3.18-.36-1.35-3.23,3.83-4.39,5.8-5.06,3.33-1.14,6.1-2.73,8.4-5.44s3.9-5.53,6.24-7.97c2.27-2.35,5.18-4.11,8.45-4.61,3.6-.55,6.76,.94,10.16,1.84,3.41,.9,6.69,.47,10.08-.29,2.99-.67,6.19-1.64,9.24-.79,3.36,.94,5.47,4.09,8.88,5.04,3.32,.92,6.74,.07,10.09,.55,1.69,.24,3.11,.96,4.42,2.03s2.56,2.34,4.11,3.09c2.59,1.26,5.38,.82,7.98-.18,2.48-.95,5.05-2.54,7.78-2.53,3.49,.02,6.1,3.42,8.99,4.94,1.79,.94,3.71,1.29,5.71,1.5,1.93,.2,3.92,.29,5.7,1.15,5.16,2.49,9.17,9.42,15.56,8.76,1.63-.17,2.1-2.41,.4-2.95-11.38-3.59-23.33-5.26-35.26-4.73l.4,2.95c2.79-.66,5.61-1.19,8.46-1.58,1.39-.19,1.31-2.11,.36-2.74-3.77-2.52-6.67,1.94-8.59,4.54-1.07,1.45-2.52,2.71-4.45,2.48-.58-.07-1.85-.38-2.09-.99-.33-.83,1.04-1.88,1.54-2.36,1.53-1.48,3.01-3.29,4.79-4.47,1.84-1.23,4.17-.04,6.03,.6,4.37,1.51,8.64,3.32,12.78,5.39s8.92,4.97,13.62,2.99c.55-.23,1.19-.75,1.1-1.45-.22-1.7-1.01-2.98-2.64-3.64-1.52-.61-3.14-.36-4.73-.58-4.08-.56-7.65-2.86-10.48-5.76l-1.06,2.56c4.51-.41,9.01,.45,13.09,2.42,2.23,1.08,4.34,2.42,6.25,4,.77,.63,1.63,1.28,2.22,2.08,.29,.39,1.25,1.85,.85,2.37-.21,.28-2.68,0-3.13-.02-1.42-.04-2.84-.13-4.25-.27-2.8-.27-5.57-.75-8.31-1.4-2.5-.59-4.92-1.39-7.37-2.15-2.09-.65-4.29-1.23-6.5-1.17-2.13,.06-4.14,.78-5.76,2.17s-2.64,3.92-4.66,4.8c-2.18,.94-5.07-.14-7.22-.66-2.63-.63-5.23-1.34-7.82-2.13s-5.35-1.72-7.99-2.7c-2.48-.92-4.95-1.94-7.61-2.2-2.36-.23-4.54,.42-6.69,1.35-2.01,.88-4.07,2.13-6.31,2.28-2.35,.16-4.53-1.07-6.55-2.13-2.02-1.06-4.1-2.2-6.38-2.55-2.74-.42-5.03,.74-7.62,1.37-2.17,.52-3.98-.24-4.92-2.3-.8-1.75-3.39-.23-2.59,1.51h0Z"/>
    </g>
    <g class="cls-3">
      <path class="cls-1" d="M680.89,249.41c4.84,5.29,12.59,7.73,19.59,6.16,5-1.12,9.63-4.1,14.74-3.99,4.55,.1,8.63,2.62,12.78,4.47,4.16,1.85,9.25,3,13.07,.52,1.66-1.08,2.87-2.72,4.37-4.01,5.02-4.32,12.52-4.08,18.94-2.47s12.69,4.38,19.32,4.33c1.93-.01,3.9-.28,5.61-1.18,1.87-.98,3.28-2.64,4.91-3.98,2.96-2.43,6.74-3.84,10.57-3.93,3.9-.09,7.96,1.1,11.59-.31,5.92-2.3,8.89-10.83,15.23-10.6,2.03,.08,4.43,1.01,5.85-.44,1.34-1.38,.51-3.72-.7-5.21-3.16-3.91-8.51-5.91-13.46-5.05-6.31,1.1-11.76,6.42-18.14,5.76-4.39-.46-7.93-3.67-11.9-5.61-7.13-3.49-15.51-2.82-23.41-2.02-3.83,.39-7.77,.78-11.48-.25-3.86-1.08-7.15-3.61-10.94-4.93-5-1.74-10.75-1.17-15.3,1.52-3.33,1.97-6.13,5.02-9.88,5.97-3.97,1-8.09-.58-11.88-2.14-3.46-1.42-6.99-2.85-10.71-3.1s-7.75,.86-10.1,3.76c-2.15,2.65-2.89,6.64-5.94,8.17-2.31,1.16-5.07,.42-7.66,.33-4.92-.17-9.85,2.31-12.65,6.36-1.76,2.55-3.02,5.91-5.97,6.86-1.27,.41-2.63,.28-3.96,.26-8.59-.14-16.47,4.39-23.85,8.79-1.35,.8-2.88,1.94-2.74,3.51,.16,1.82,2.57,2.59,4.32,2.07,1.75-.52,3.18-1.82,4.88-2.48,6.07-2.33,12.04,4.05,18.52,4.5,4.92,.34,9.33-2.74,13.46-5.43,4.13-2.69,9.12-5.21,13.8-3.66"/>
      <path class="cls-1" d="M679.83,250.47c5.12,5.48,12.94,8.05,20.31,6.7,4.2-.77,7.96-2.96,12.14-3.81,4.33-.89,8.23,.77,12.06,2.62s7.4,3.51,11.53,3.52c1.95,0,3.94-.43,5.63-1.42s2.91-2.46,4.28-3.78c5.95-5.76,15.07-3.77,22.14-1.65,7.64,2.29,17.58,6.06,24.52,.22,1.62-1.36,3.04-2.87,4.9-3.93,1.73-.99,3.64-1.65,5.61-1.95,4.32-.65,8.71,.96,12.99-.23,3.15-.88,5.51-3.23,7.69-5.55,1.83-1.96,3.82-4.49,6.56-5.14,3.06-.73,7.31,1.78,9.1-2.12,1.59-3.47-1.79-7.04-4.35-8.9-2.97-2.16-6.84-3.27-10.51-2.95-3.94,.35-7.41,2.25-10.92,3.89-3.49,1.64-7.04,2.77-10.81,1.38s-6.86-4.13-10.59-5.61c-8.18-3.25-16.99-1.68-25.47-1.08-2.31,.17-4.68,.22-6.95-.27-2.15-.47-4.1-1.43-6.03-2.45-3.7-1.94-7.32-3.61-11.58-3.74-3.98-.12-7.99,.97-11.34,3.11-3.17,2.03-6.07,5.19-9.99,5.62-4.52,.5-8.9-2.02-13-3.56-4.01-1.51-8.31-2.53-12.59-1.59-3.65,.8-6.46,3.01-8.25,6.26-.76,1.38-1.38,2.91-2.37,4.15-1.3,1.62-3.08,1.9-5.06,1.78-2.08-.12-4.07-.41-6.16-.12-1.82,.25-3.57,.82-5.21,1.64-3.43,1.72-5.62,4.48-7.56,7.69-.83,1.37-1.76,3.01-3.31,3.68-1.89,.82-4.41,.22-6.43,.4-4.25,.38-8.28,1.73-12.14,3.51-1.94,.89-3.83,1.9-5.69,2.95s-3.69,1.98-5.34,3.21c-1.41,1.06-2.58,2.57-2.27,4.43,.25,1.53,1.46,2.6,2.89,3.06,3.84,1.24,6.23-2.4,9.75-2.84,3.46-.43,6.86,1.76,9.9,3.08,3.54,1.54,7.1,2.45,10.94,1.44,4.08-1.08,7.47-3.68,11-5.86,3.43-2.11,7.48-4.07,11.56-2.82,1.85,.57,2.64-2.33,.8-2.89-8.47-2.6-14.89,4.86-21.97,7.92-3.6,1.56-6.95,1.25-10.49-.24-3.13-1.31-6.14-3.12-9.55-3.56-1.61-.21-3.23-.07-4.74,.53-1.66,.66-3.2,2.18-4.98,2.47-.9,.15-2.68-.23-1.94-1.45,.36-.6,1.07-1.01,1.65-1.36,.92-.57,1.86-1.11,2.79-1.65,3.62-2.1,7.33-4.12,11.31-5.46,1.91-.64,3.88-1.16,5.89-1.39s4.09,.03,6.13-.19c3.75-.41,5.61-3.4,7.4-6.35,1.88-3.1,4.51-5.47,8.03-6.53,1.76-.53,3.52-.65,5.35-.5,1.99,.16,4.02,.48,5.98-.08,3.42-.97,4.82-4.12,6.38-6.98,1.73-3.2,4.53-5.01,8.19-5.27,4.25-.29,8.31,1.38,12.17,2.96s8.13,3.21,12.45,2.33c3.71-.75,6.5-3.45,9.53-5.5,3.19-2.14,6.88-3.21,10.72-3.01,4.16,.22,7.55,2.31,11.19,4.1,3.93,1.94,7.9,2.64,12.27,2.39,4.15-.24,8.27-.86,12.44-.97s8.24,.2,12.13,1.59c3.7,1.32,6.72,3.92,10.3,5.47,3.43,1.49,6.96,1.55,10.48,.33,3.5-1.21,6.65-3.26,10.18-4.39,3.47-1.11,7.15-.87,10.37,.88,1.5,.82,2.95,1.93,3.95,3.33,.72,1.01,1.62,3.13-.29,3.34-1.67,.18-3.33-.5-5.02-.3-1.37,.16-2.67,.65-3.83,1.38-2.47,1.57-4.3,3.91-6.32,5.96-.98,1-2.01,1.96-3.22,2.68-1.62,.97-3.41,1.23-5.28,1.21-4.2-.06-8.15-.82-12.26,.5-1.81,.58-3.56,1.42-5.11,2.52-1.66,1.18-3.01,2.71-4.63,3.93-3.29,2.47-7.92,1.96-11.72,1.2-7.86-1.59-15.31-5.37-23.51-4.75-3.53,.27-6.96,1.32-9.76,3.55-1.49,1.19-2.64,2.79-4.18,3.92s-3.33,1.49-5.18,1.43c-4.03-.14-7.61-2.19-11.18-3.84-3.61-1.67-7.34-2.95-11.37-2.42-4.06,.54-7.69,2.49-11.6,3.59-3.52,.99-7.19,.95-10.69-.09-3.34-.99-6.32-2.84-8.69-5.38-1.32-1.41-3.44,.71-2.12,2.12h0Z"/>
    </g>
    <g class="cls-3">
      <path class="cls-1" d="M1654.32,385.78c5.94-3.64,11.89-7.27,17.83-10.91,4.02-2.46,8.46-5.02,13.25-4.6,4.53,.4,8.27,3.38,12.56,4.77,8.5,2.77,17.7-.93,25.89-4.44,8.19-3.5,17.62-6.92,25.91-3.64,6.14,2.43,10.55,8.22,17.09,9.42,10.38,1.9,20.03-8.66,30.35-6.49,5.43,1.15,9.34,5.57,14.43,7.67,6.09,2.51,13.08,1.46,19.74,1.31,7.9-.17,15.84,1.03,23.28,3.52,2.2,.74,4.65,1.89,5.11,4.03,.36,1.66-.63,3.28-1.58,4.72-1.18,1.78-2.35,3.55-3.53,5.33-.45,.68-.97,1.41-1.79,1.63-1.42,.38-2.65-.91-3.57-1.99-2.11-2.46-4.91-4.57-8.22-5.18s-7.15,.6-8.73,3.38c-1.03,1.8-1.01,3.96-1.74,5.88-2.17,5.77-10,7.67-16.56,7.28-6.55-.38-13.31-2.13-19.54-.18-6.2,1.94-10.63,7.19-16.72,9.42-6.8,2.49-14.52,.81-21.33-1.68-6.8-2.49-13.41-5.79-20.67-6.6-9.37-1.04-19.09,2.2-28.17-.17-6.07-1.58-11.16-5.52-17.2-7.21-3.86-1.08-7.95-1.19-11.97-1.17-12.18,.06-24.36,1.25-36.29,3.54-3.15,.61-7.26,.9-8.76-1.75-1.06-1.88,.01-4.28,1.74-5.65,1.73-1.37,3.98-2.01,6.09-2.81,5.9-2.24,11.12-6.03,14.89-10.82"/>
      <path class="cls-1" d="M1655.08,387.08c4.1-2.51,8.21-5.02,12.31-7.53,3.78-2.31,7.56-5.04,11.7-6.69,1.94-.77,3.99-1.25,6.09-1.1,1.97,.14,3.87,.9,5.64,1.73,3.68,1.73,7.11,3.49,11.22,3.91,8.77,.9,16.98-3.26,24.86-6.45,7.52-3.04,16.45-5.82,24.13-1.73,3.19,1.7,5.92,4.09,8.99,5.98s6.38,3.05,9.96,2.93c7.07-.25,13.06-4.53,19.73-6.33,3.28-.89,6.64-.96,9.8,.44,3.39,1.5,6.22,3.99,9.47,5.74,7.77,4.18,16.6,2.28,25,2.42,4.53,.07,9.04,.6,13.46,1.58,2.23,.49,4.43,1.1,6.59,1.82,1.39,.46,3.39,1.09,4.1,2.51,.9,1.78-1.29,4.16-2.2,5.53-.63,.96-1.27,1.91-1.9,2.87-.36,.55-1,2.01-1.8,1.97-.7-.04-1.47-1.15-1.88-1.61-.65-.74-1.33-1.45-2.08-2.09-1.46-1.25-3.07-2.27-4.88-2.94-3.24-1.2-7.18-.99-10.05,1.06-1.4,1-2.38,2.33-2.96,3.95-.63,1.76-.65,3.72-1.53,5.39-1.43,2.71-4.37,4.14-7.21,4.88-3.49,.91-7.03,.79-10.59,.43-4.4-.45-8.83-1.18-13.25-.64-3.95,.49-7.39,2.11-10.68,4.29-3.14,2.09-6.17,4.58-9.75,5.89-4.09,1.5-8.53,1.41-12.75,.57-8.62-1.71-16.3-6.38-24.87-8.25-8.73-1.91-17.36,.41-26.13,.03-4.35-.19-8.27-1.47-12.15-3.37-3.69-1.8-7.32-3.82-11.33-4.82-4.37-1.09-8.93-1.09-13.41-1.03-4.63,.06-9.26,.29-13.87,.68-4.66,.39-9.31,.95-13.93,1.66-2.32,.36-4.64,.76-6.95,1.2-1.57,.3-3.24,.57-4.84,.34-1.31-.19-2.75-.86-2.67-2.39,.09-1.9,2.01-3.13,3.55-3.84,1.84-.86,3.81-1.41,5.67-2.23,1.81-.8,3.55-1.74,5.2-2.83,3.13-2.06,5.94-4.59,8.28-7.52,1.19-1.49-.92-3.63-2.12-2.12-2.53,3.17-5.57,5.85-9.06,7.91-1.77,1.05-3.63,1.95-5.57,2.66-1.95,.72-4,1.35-5.72,2.56-2.89,2.05-4.65,6.38-1.65,9.17,2.49,2.31,6.45,1.79,9.49,1.23,9.61-1.78,19.3-2.95,29.07-3.34,4.72-.19,9.55-.4,14.26,.15,4.46,.52,8.39,2.31,12.37,4.3,3.87,1.93,7.75,3.72,12.07,4.32,4.52,.63,9.05,.23,13.57-.15s9.21-.77,13.75,.05,8.72,2.46,12.92,4.13c8.19,3.26,17.25,6.75,26.16,4.29,7.89-2.18,13.2-9.67,21.54-10.6,8.22-.91,16.35,2.34,24.52,.07,3.12-.87,6.11-2.47,8.04-5.14,1.07-1.48,1.54-3.19,1.91-4.96,.39-1.85,.87-3.56,2.56-4.62,3.29-2.06,7.33-1,10.25,1.19,2.49,1.87,5.54,7.29,9.16,4.17,1.6-1.38,2.67-3.66,3.83-5.41s2.65-3.66,2.79-5.88c.27-4.14-4.16-5.85-7.39-6.86-4.49-1.42-9.12-2.34-13.8-2.84-4.64-.49-9.25-.37-13.91-.15-4.4,.21-8.94,.37-13.17-1.09-3.69-1.27-6.68-3.92-10.02-5.84-3.22-1.86-6.76-2.87-10.49-2.47-3.6,.39-6.94,1.72-10.24,3.11s-6.6,2.91-10.14,3.56c-3.62,.66-7.01-.15-10.16-2s-6.02-4.39-9.3-6.17c-3.7-2.01-7.85-2.79-12.03-2.5-9.1,.64-17,5.34-25.47,8.2-4.22,1.43-8.68,2.46-13.16,1.99-4.29-.45-7.83-2.8-11.75-4.39-4.04-1.64-8.18-1.59-12.21,.04-4.25,1.72-8.1,4.39-12,6.78-4.17,2.55-8.35,5.11-12.52,7.66-1.64,1.01-.14,3.6,1.51,2.59h0Z"/>
    </g>
    <g class="cls-3">
      <path class="cls-1" d="M399.98,698.62c4.25,4.24,11.05,6.19,17.19,4.94,4.38-.89,8.45-3.29,12.94-3.2,3.99,.08,7.57,2.1,11.21,3.58s8.11,2.4,11.46,.42c1.46-.86,2.51-2.18,3.83-3.21,4.41-3.46,10.98-3.27,16.62-1.98,5.64,1.29,11.14,3.5,16.95,3.47,1.69-.01,3.43-.23,4.92-.95,1.64-.79,2.87-2.11,4.3-3.19,2.6-1.95,5.92-3.08,9.28-3.15,3.42-.08,6.98,.88,10.17-.25,5.19-1.84,7.8-8.68,13.37-8.49,1.78,.06,3.89,.81,5.13-.35,1.18-1.1,.44-2.98-.62-4.17-2.77-3.13-7.47-4.73-11.81-4.04-5.54,.88-10.32,5.14-15.91,4.61-3.86-.37-6.96-2.94-10.44-4.49-6.26-2.8-13.61-2.26-20.54-1.62-3.36,.31-6.82,.63-10.07-.2-3.38-.86-6.28-2.89-9.6-3.95-4.38-1.39-9.43-.94-13.43,1.22-2.93,1.57-5.38,4.02-8.67,4.78-3.48,.8-7.09-.47-10.42-1.71-3.03-1.13-6.13-2.28-9.4-2.48-3.27-.2-6.8,.69-8.87,3.01-1.89,2.12-2.53,5.31-5.21,6.54-2.03,.93-4.45,.34-6.72,.27-4.32-.13-8.64,1.85-11.1,5.09-1.55,2.04-2.65,4.73-5.23,5.5-1.11,.33-2.31,.22-3.48,.21-7.53-.11-14.45,3.52-20.93,7.04-1.18,.64-2.53,1.56-2.4,2.81,.14,1.46,2.25,2.07,3.79,1.65,1.54-.42,2.79-1.46,4.28-1.98,5.33-1.86,10.56,3.24,16.25,3.6,4.32,.28,8.18-2.19,11.81-4.35s8-4.17,12.11-2.93"/>
      <path class="cls-1" d="M398.92,699.68c4.68,4.56,11.49,6.49,17.9,5.46,3.61-.58,6.92-2.29,10.5-3.02,3.77-.76,7.21,.49,10.62,1.98,3.21,1.41,6.46,2.81,10.02,2.89,1.68,.04,3.37-.26,4.9-.98,1.57-.74,2.76-1.99,4.03-3.13,5.24-4.71,13.16-3.09,19.28-1.42,6.64,1.81,15.46,5.01,21.6,.3,1.37-1.05,2.6-2.23,4.12-3.08,1.52-.85,3.2-1.4,4.91-1.68,3.72-.59,7.48,.61,11.2-.12,2.85-.56,5.08-2.44,7.11-4.41,1.71-1.66,3.54-3.85,6.02-4.3,2.7-.49,6.41,1.47,8-1.86,1.43-2.99-1.63-5.98-3.87-7.48-2.7-1.8-6.13-2.68-9.36-2.42s-6.29,1.7-9.3,3c-3.08,1.34-6.24,2.35-9.57,1.27-3.33-1.08-6.14-3.35-9.44-4.54-7.11-2.58-14.75-1.41-22.09-.89-1.92,.14-3.89,.22-5.8-.09-1.91-.3-3.68-1.02-5.42-1.84-3.32-1.57-6.52-3.02-10.25-3.21-3.46-.17-6.99,.61-10.03,2.29-2.95,1.63-5.6,4.37-9.11,4.69-3.98,.37-7.82-1.65-11.49-2.9-3.47-1.18-7.12-1.93-10.78-1.26-3.13,.57-5.72,2.27-7.41,4.96-.71,1.13-1.25,2.4-2.13,3.42-1.16,1.34-2.73,1.5-4.42,1.41s-3.43-.32-5.17-.11c-1.63,.2-3.18,.63-4.68,1.3-3,1.34-5.03,3.56-6.81,6.26-.75,1.14-1.58,2.42-2.93,2.92-1.63,.61-3.72,.14-5.44,.28-3.7,.29-7.25,1.35-10.67,2.79-3.27,1.38-6.76,2.92-9.71,4.92-1.17,.79-2.26,1.91-2.26,3.42,0,1.44,1.01,2.54,2.3,3.06,1.34,.54,2.81,.46,4.14-.06,1.55-.61,2.91-1.72,4.58-2.01,2.95-.51,5.99,1.19,8.62,2.28,3.16,1.3,6.33,2.1,9.75,1.35,3.57-.78,6.62-2.88,9.75-4.66,3.07-1.75,6.64-3.34,10.22-2.35,1.86,.51,2.66-2.38,.8-2.89-3.51-.97-7.01-.07-10.22,1.44-3.12,1.47-5.89,3.64-9.12,4.89s-6.13,.97-9.3-.24c-2.78-1.07-5.45-2.51-8.46-2.82-1.43-.15-2.89,.02-4.23,.54-1.38,.54-2.72,1.73-4.21,1.91-.9,.11-2.16-.18-1.08-1.07,1.2-.99,2.85-1.65,4.22-2.36,3.19-1.67,6.46-3.21,9.94-4.19,1.62-.45,3.27-.79,4.95-.93,1.87-.15,3.81,.18,5.65-.23,2.91-.64,4.41-3.17,5.96-5.46,1.72-2.53,4.31-4.2,7.29-4.89,3.24-.74,6.66,.63,9.83-.46,2.76-.95,3.93-3.47,5.34-5.78,3.91-6.4,12.41-3.41,17.94-1.36,3.5,1.3,7.25,2.5,11,1.63,3.16-.73,5.61-2.93,8.33-4.54,2.91-1.72,6.3-2.43,9.67-2.13,3.53,.31,6.5,2.1,9.68,3.48,6.84,2.96,13.99,1.07,21.15,.91,3.61-.08,7.25,.15,10.7,1.29,3.16,1.04,5.84,3.09,8.91,4.33,3,1.22,6.12,1.27,9.21,.32,3-.92,5.74-2.53,8.74-3.46s6.16-.87,9.04,.47c1.33,.62,2.65,1.5,3.59,2.64,.87,1.06,1.24,2.29-.51,2.26-1.41-.03-2.75-.4-4.16-.22-1.23,.16-2.38,.59-3.44,1.23-2.23,1.36-3.92,3.41-5.86,5.13-.83,.74-1.74,1.43-2.75,1.9-1.67,.77-3.53,.76-5.32,.66-3.51-.19-6.87-.49-10.27,.67-1.42,.48-2.8,1.13-4.05,1.96-1.49,.99-2.71,2.33-4.24,3.26-2.98,1.81-7.12,1.22-10.37,.57-6.68-1.33-13.11-4.17-20.05-3.7-3.14,.21-6.27,1.06-8.8,2.99-1.22,.93-2.21,2.13-3.48,2.99-1.44,.97-3.12,1.23-4.82,1.14-3.39-.18-6.47-1.78-9.53-3.07-3.23-1.37-6.52-2.36-10.07-1.91-3.45,.44-6.59,1.94-9.93,2.82-3.03,.8-6.18,.82-9.22,.04s-5.61-2.18-7.78-4.29c-1.38-1.35-3.51,.77-2.12,2.12h0Z"/>
    </g>
    <g class="cls-3">
      <path class="cls-1" d="M1224.96,529.5c3.94,4.29,10.25,6.27,15.95,5,4.07-.91,7.84-3.33,12-3.24,3.7,.08,7.02,2.13,10.4,3.63s7.53,2.43,10.64,.42c1.35-.87,2.33-2.21,3.56-3.26,4.09-3.5,10.19-3.31,15.42-2,5.23,1.31,10.33,3.55,15.72,3.51,1.57-.01,3.18-.23,4.57-.96,1.52-.8,2.67-2.14,3.99-3.23,2.41-1.97,5.49-3.12,8.6-3.19,3.17-.08,6.48,.89,9.44-.25,4.82-1.86,7.23-8.79,12.4-8.6,1.65,.06,3.61,.82,4.76-.36,1.09-1.12,.41-3.02-.57-4.23-2.57-3.17-6.93-4.8-10.96-4.1-5.14,.9-9.57,5.21-14.76,4.67-3.58-.37-6.45-2.97-9.68-4.55-5.8-2.83-12.62-2.29-19.06-1.64-3.12,.32-6.33,.63-9.35-.21-3.14-.87-5.82-2.93-8.9-4-4.07-1.41-8.75-.95-12.46,1.23-2.71,1.6-4.99,4.08-8.04,4.85-3.23,.81-6.58-.47-9.67-1.73-2.81-1.15-5.69-2.31-8.72-2.52-3.03-.21-6.31,.7-8.22,3.05-1.75,2.15-2.35,5.38-4.83,6.63-1.88,.94-4.13,.34-6.23,.27-4-.14-8.02,1.88-10.29,5.16-1.43,2.07-2.46,4.79-4.86,5.57-1.03,.33-2.14,.23-3.22,.21-6.99-.11-13.41,3.57-19.41,7.13-1.1,.65-2.34,1.58-2.23,2.84,.13,1.48,2.09,2.1,3.52,1.68s2.58-1.48,3.97-2.01c4.94-1.89,9.8,3.28,15.08,3.65,4,.28,7.59-2.22,10.96-4.4,3.36-2.18,7.42-4.23,11.23-2.97"/>
      <path class="cls-1" d="M1223.9,530.56c4.31,4.58,10.87,6.68,17.04,5.47,3.39-.67,6.44-2.46,9.83-3.09,3.54-.66,6.72,.84,9.84,2.34s6.26,2.88,9.7,2.67c1.42-.09,2.82-.43,4.06-1.14,1.53-.87,2.61-2.26,3.89-3.43,4.82-4.38,12.19-2.57,17.73-.91,6.43,1.94,14.45,4.8,20.2-.18,1.23-1.07,2.34-2.19,3.78-2.99s3-1.33,4.62-1.53c3.41-.43,6.85,.76,10.24-.13,2.65-.7,4.65-2.64,6.48-4.58,1.47-1.57,3.09-3.69,5.32-4.15,1.32-.27,2.62,.24,3.94,.22,1.44-.02,2.8-.61,3.5-1.92,1.45-2.72-1.01-5.73-3.03-7.33-2.44-1.92-5.57-3-8.68-2.89s-5.95,1.49-8.72,2.82c-2.71,1.3-5.61,2.62-8.67,1.76s-5.62-3.17-8.56-4.46c-6.66-2.92-13.91-1.9-20.91-1.3-1.71,.15-3.46,.24-5.17,.04-1.95-.23-3.72-.97-5.45-1.86-3.04-1.56-5.94-3.06-9.41-3.33-3.42-.27-6.97,.59-9.89,2.4-2.64,1.64-5.03,4.31-8.28,4.66-3.63,.39-7.2-1.69-10.49-2.91s-6.52-1.96-9.9-1.35c-3.06,.55-5.57,2.3-7.13,4.98-.62,1.07-1.1,2.23-1.81,3.26-1,1.46-2.32,1.82-4.04,1.74-1.5-.07-2.98-.33-4.49-.19-1.65,.15-3.22,.59-4.72,1.29-2.78,1.3-4.75,3.46-6.31,6.05-.67,1.11-1.34,2.43-2.47,3.13-1.51,.93-3.84,.35-5.54,.51-3.46,.32-6.73,1.4-9.87,2.83-3.06,1.4-6.32,3.02-9.03,5.01-1.16,.85-2.14,2.03-2.07,3.54,.06,1.37,1.02,2.43,2.24,2.94,1.29,.54,2.66,.43,3.93-.1,1.47-.61,2.73-1.79,4.34-2.03,2.77-.42,5.55,1.37,7.99,2.43,2.85,1.24,5.7,2.01,8.8,1.29,3.28-.75,6.06-2.78,8.85-4.55,2.86-1.81,6.25-3.62,9.72-2.58,1.85,.55,2.65-2.34,.8-2.89-6.89-2.06-12.09,3.73-17.82,6.33-2.92,1.33-5.6,1.14-8.52-.06-2.51-1.04-4.92-2.49-7.65-2.9-1.25-.19-2.54-.16-3.76,.23-1.53,.48-2.77,1.74-4.3,2.13-.77,.19-2.13-.02-1.27-.95,1.04-1.14,2.85-1.85,4.18-2.6,2.94-1.67,5.96-3.23,9.21-4.2,1.52-.45,3.08-.79,4.67-.9,1.77-.13,3.64,.23,5.36-.31,2.71-.85,3.95-3.46,5.37-5.68,1.56-2.43,3.98-4.13,6.8-4.76,3.04-.69,6.25,.73,9.19-.54,2.56-1.11,3.51-3.69,4.82-5.94,3.6-6.22,11.47-3.14,16.61-1.07,3.17,1.28,6.61,2.43,10.04,1.56,2.99-.75,5.21-2.95,7.73-4.58,2.7-1.75,5.92-2.54,9.13-2.16,3.32,.39,6.04,2.29,9.01,3.63,6.51,2.94,13.47,.82,20.3,.78,3.28-.02,6.62,.31,9.67,1.58,2.88,1.19,5.29,3.26,8.2,4.39s5.76,.91,8.57-.14,5.32-2.66,8.17-3.5c2.77-.81,5.7-.49,8.2,.97,1.13,.66,2.24,1.54,2.95,2.65,.24,.37,.61,1.01,.53,1.49-.13,.77-1.01,.6-1.62,.54-1.28-.12-2.46-.37-3.75-.13-1.13,.21-2.19,.73-3.12,1.39-1.94,1.39-3.41,3.28-5.1,4.93-.78,.76-1.61,1.47-2.58,1.98-1.45,.76-3.1,.78-4.69,.69-3.29-.18-6.39-.54-9.57,.59-1.4,.5-2.74,1.16-3.94,2.03-1.3,.93-2.36,2.15-3.64,3.1-2.73,2.02-6.61,1.5-9.72,.84-6.25-1.34-12.22-4.27-18.76-3.78-2.86,.21-5.65,1.02-7.94,2.79-1.17,.9-2.07,2.05-3.19,3-1.24,1.05-2.71,1.47-4.32,1.44-3.15-.06-5.98-1.63-8.77-2.93-2.94-1.38-6.03-2.56-9.34-2.2-3.32,.36-6.29,1.88-9.45,2.83-2.81,.85-5.72,.94-8.56,.18-2.84-.76-5.37-2.27-7.38-4.41-1.33-1.41-3.44,.72-2.12,2.12h0Z"/>
    </g>
    <ellipse class="cls-2" cx="231.5" cy="214.5" rx="119.5" ry="108.5"/>
  </g>
</svg>