<?xml version="1.0" encoding="UTF-8"?>
<svg id="fald" xmlns="http://www.w3.org/2000/svg" viewBox="0 0 164 131">
  <defs>
    <style>
      .cls-1 {
        fill: #b58c52;
      }
    </style>
  </defs>
  <g>
    <path class="cls-1" d="M57.55,40.57c-12.02,4.67-24.87,10-31.66,20.97-4.9,7.92-5.81,18.18-2.36,26.84,3.44,8.65,11.15,15.49,20.16,17.87,6.84,1.81,14.09,1.15,21.09,.1,3.86-.58,7.8-1.3,11.16-3.28,3.11-1.84,5.52-4.65,7.78-7.47,5.37-6.72,10.51-15.14,8.18-23.41,2.4,6.22,2.57,13.34,6.23,18.9,3.21,4.87,8.59,7.79,13.76,10.5,4.42,2.32,9.1,4.7,14.09,4.57,6.74-.17,12.75-5.16,15.45-11.34s2.53-13.3,.96-19.85c-3.58-14.9-13.84-27.32-25.14-37.67-7.18-6.58-15.66-12.85-25.4-13.11-14.99-.4-26.47,13.17-40.75,17.77"/>
    <path d="M57.15,39.13c-9.66,3.75-19.74,7.77-27.29,15.12-7.94,7.74-11.53,18.99-9.19,29.89,2.19,10.22,9.78,18.7,19.43,22.52,5.72,2.26,12.02,2.52,18.08,2,3.2-.27,6.4-.7,9.56-1.27,2.82-.51,5.63-1.26,8.18-2.6,2.84-1.49,5.18-3.77,7.25-6.19,2.19-2.57,4.27-5.27,6.06-8.13,3.48-5.56,5.85-12.11,4.1-18.68l-2.89,.8c2.57,6.81,2.7,14.58,7.31,20.53,2.19,2.83,5.07,5.01,8.11,6.85,3.22,1.95,6.61,3.76,10.05,5.28s7.17,2.7,10.98,2.36c3.31-.3,6.44-1.57,9.08-3.57,5.92-4.47,8.77-11.49,9.03-18.78,.54-14.92-7.91-28.94-17.48-39.72-4.89-5.51-10.31-10.75-16.24-15.15-5.85-4.34-12.74-7.74-20.18-7.71-13.65,.06-24.08,10.53-35.79,16-1.51,.7-3.04,1.31-4.62,1.83-1.83,.6-1.04,3.5,.8,2.89,6.02-1.98,11.42-5.32,16.77-8.65s10.43-6.54,16.34-8.16c6.48-1.77,12.97-.73,18.87,2.37,6.18,3.25,11.46,8.03,16.41,12.89,9.66,9.5,18.29,20.88,21.25,34.36,1.53,6.96,1.38,14.81-2.69,20.91-3.57,5.35-9.76,8.58-16.19,7.15-3.68-.82-7.02-2.62-10.33-4.37-2.94-1.55-5.93-3.15-8.5-5.27s-4.63-4.76-5.87-7.92-1.89-6.69-2.74-10.05c-.42-1.66-.89-3.29-1.49-4.89-.67-1.77-3.4-1.1-2.89,.8,1.44,5.4-.47,10.78-3.22,15.42-1.43,2.41-3.08,4.68-4.83,6.86-1.61,2-3.3,3.99-5.31,5.6-4.36,3.49-10.23,4.18-15.59,4.85-5.89,.73-11.99,1.01-17.77-.6-9-2.51-16.6-9.71-19.43-18.63-3.07-9.65-.72-20.42,6.02-27.96,7.23-8.08,17.76-12.26,27.63-16.09,1.78-.69,1.01-3.59-.8-2.89h0Z"/>
  </g>
  <path d="M49.54,77.01c-4.09,3.38-7.71,7.26-10.85,11.53-.48,.65-.11,1.67,.54,2.05,.76,.45,1.57,.12,2.05-.54,2.99-4.05,6.5-7.72,10.38-10.93,.62-.52,.53-1.59,0-2.12-.62-.62-1.5-.52-2.12,0h0Z"/>
  <path d="M61.24,78.58c-.56,3.56-.67,7.15-.23,10.73,.1,.8,.62,1.5,1.5,1.5,.73,0,1.6-.69,1.5-1.5-.4-3.29-.39-6.66,.12-9.93,.13-.8-.2-1.61-1.05-1.85-.71-.2-1.72,.24-1.85,1.05h0Z"/>
  <path d="M71.41,70.43c1.82,3.49,3.37,7.11,4.63,10.85,.26,.77,1.03,1.27,1.85,1.05,.75-.21,1.31-1.07,1.05-1.85-1.34-3.97-2.99-7.85-4.93-11.56-.37-.72-1.38-.93-2.05-.54-.73,.43-.91,1.33-.54,2.05h0Z"/>
  <path d="M45.88,58.54c-5.8,3.92-11.85,8.24-14.37,15.07-.28,.76,.31,1.64,1.05,1.85,.84,.23,1.56-.28,1.85-1.05,2.21-6,7.92-9.85,12.99-13.28,.67-.45,.97-1.32,.54-2.05-.39-.67-1.38-.99-2.05-.54h0Z"/>
  <path d="M56.59,62.87l-.41,2.29c-.06,.2-.07,.4-.03,.6,0,.2,.07,.39,.18,.56,.18,.31,.54,.61,.9,.69,.38,.09,.81,.07,1.16-.15,.31-.2,.62-.52,.69-.9l.41-2.29c.06-.2,.07-.4,.03-.6,0-.2-.07-.39-.18-.56-.18-.31-.54-.61-.9-.69-.38-.09-.81-.07-1.16,.15-.31,.2-.62,.52-.69,.9h0Z"/>
  <path d="M108.47,85.03l4.83,8.13c.4,.67,1.37,.98,2.05,.54s.97-1.33,.54-2.05l-4.83-8.13c-.4-.67-1.37-.98-2.05-.54s-.97,1.33-.54,2.05h0Z"/>
  <path d="M118.94,84.63c2.57,2.54,5.13,5.08,7.7,7.62,.56,.55,1.57,.6,2.12,0s.6-1.53,0-2.12c-2.57-2.54-5.13-5.08-7.7-7.62-.56-.55-1.57-.6-2.12,0s-.6,1.53,0,2.12h0Z"/>
  <path d="M125.78,76.42c2.77,1.72,5.54,3.44,8.31,5.17,.67,.41,1.68,.16,2.05-.54s.17-1.61-.54-2.05c-2.77-1.72-5.54-3.44-8.31-5.17-.67-.41-1.68-.16-2.05,.54s-.17,1.61,.54,2.05h0Z"/>
  <path d="M118.6,57.51c3.43,2.31,7.11,4.2,10.96,5.71,.75,.29,1.65-.32,1.85-1.05,.23-.85-.29-1.55-1.05-1.85-3.6-1.41-7.04-3.24-10.25-5.41-.67-.45-1.66-.13-2.05,.54-.43,.74-.14,1.6,.54,2.05h0Z"/>
  <path d="M101.29,48.7v8.81c0,.78,.69,1.54,1.5,1.5s1.5-.66,1.5-1.5v-8.81c0-.78-.69-1.54-1.5-1.5s-1.5,.66-1.5,1.5h0Z"/>
  <path d="M86.65,44.43c-1.34,4.49-2.68,8.97-4.02,13.46-.55,1.85,2.34,2.65,2.89,.8,1.34-4.49,2.68-8.97,4.02-13.46,.55-1.85-2.34-2.65-2.89-.8h0Z"/>
  <path d="M73.69,39.69c-5.26-.08-10.82,.1-15.09,3.56-.63,.51-.53,1.59,0,2.12,.62,.62,1.49,.51,2.12,0,3.55-2.88,8.66-2.75,12.97-2.68,1.93,.03,1.93-2.97,0-3h0Z"/>
  <path d="M69.48,28.98c-6.77,.37-13.55,.74-20.32,1.12-1.92,.11-1.93,3.11,0,3,6.77-.37,13.55-.74,20.32-1.12,1.92-.11,1.93-3.11,0-3h0Z"/>
  <path d="M48.79,39.19c-4.98-.19-9.97-.11-14.94,.24-.81,.06-1.5,.65-1.5,1.5,0,.77,.69,1.56,1.5,1.5,4.97-.35,9.96-.43,14.94-.24,1.93,.07,1.93-2.93,0-3h0Z"/>
  <path d="M26.93,58.19c-2.65,2.81-6.28,4.26-9.49,6.27-3.1,1.94-5.94,4.5-7.06,8.09-.58,1.85,2.32,2.64,2.89,.8,.98-3.14,3.82-5.21,6.53-6.81,3.21-1.89,6.65-3.47,9.25-6.23,1.32-1.4-.79-3.53-2.12-2.12h0Z"/>
  <path d="M21.59,89.06c-2.82,4.24-4.43,9.19-4.73,14.27-.05,.81,.72,1.5,1.5,1.5,.85,0,1.45-.69,1.5-1.5,.27-4.56,1.79-8.95,4.32-12.76,1.07-1.61-1.53-3.12-2.59-1.51h0Z"/>
  <path d="M30.87,103.34c-.26,3.67-.15,7.35,.34,10.99,.11,.8,.61,1.5,1.5,1.5,.73,0,1.61-.69,1.5-1.5-.49-3.64-.6-7.32-.34-10.99,.06-.81-.73-1.5-1.5-1.5-.86,0-1.44,.69-1.5,1.5h0Z"/>
  <path d="M47.02,108.57c.13,.44,.25,.88,.35,1.33,.05,.24,.1,.48,.14,.73,.02,.1,.03,.21,.05,.31,.01,.07,.02,.14,.03,.21-.03-.21-.03-.25-.02-.14,.1,.93,.15,1.86,.11,2.8-.03,.78,.71,1.54,1.5,1.5,.84-.04,1.46-.66,1.5-1.5,.08-2.03-.18-4.09-.76-6.03-.23-.75-1.06-1.3-1.85-1.05s-1.29,1.04-1.05,1.85h0Z"/>
  <path d="M113.78,35.95c1.9,.96,3.81,1.91,5.8,2.67s3.92,1.14,5.99,1.43c3.81,.53,7.17,2.07,9.84,4.88,1.33,1.4,3.45-.72,2.12-2.12-2.66-2.79-6.18-4.77-9.98-5.46-2.11-.38-4.19-.58-6.24-1.28s-4.05-1.72-6.02-2.71c-1.72-.87-3.24,1.72-1.51,2.59h0Z"/>
  <path d="M132.98,59.11c4.13,2.9,8.15,5.95,12.05,9.16,.63,.51,1.51,.61,2.12,0,.53-.53,.63-1.6,0-2.12-4.1-3.36-8.32-6.58-12.66-9.62-.66-.47-1.67-.12-2.05,.54-.44,.75-.13,1.59,.54,2.05h0Z"/>
  <path d="M141.52,81.06c1.33,4.6,1.84,9.34,1.53,14.12-.05,.81,.73,1.5,1.5,1.5,.86,0,1.45-.69,1.5-1.5,.32-5.02-.24-10.09-1.64-14.92-.54-1.85-3.43-1.06-2.89,.8h0Z"/>
  <path d="M135.11,102.82c.27,4,.24,8.01-.08,12.01-.06,.81,.74,1.5,1.5,1.5,.87,0,1.44-.69,1.5-1.5,.32-4,.34-8.01,.08-12.01-.05-.81-.65-1.5-1.5-1.5-.77,0-1.55,.69-1.5,1.5h0Z"/>
</svg>