<?xml version="1.0" encoding="UTF-8"?>
<svg xmlns="http://www.w3.org/2000/svg" xmlns:xlink="http://www.w3.org/1999/xlink" viewBox="0 0 1926.88 1081">
  <defs>
    <style>
      .cls-1 {
        fill: url(#linear-gradient-2);
      }

      .cls-2 {
        fill: #fff;
      }

      .cls-3 {
        fill: #8cc63f;
      }

      .cls-4 {
        fill: gray;
      }

      .cls-5 {
        stroke: #000;
        stroke-miterlimit: 10;
        stroke-width: 3px;
      }

      .cls-5, .cls-6 {
        fill: #e28d24;
      }

      .cls-7 {
        opacity: .3;
      }

      .cls-8 {
        fill: #8c8f3f;
      }

      .cls-9 {
        opacity: .26;
      }

      .cls-10 {
        opacity: .16;
      }

      .cls-11 {
        opacity: .53;
      }

      .cls-12 {
        fill: url(#linear-gradient-3);
      }

      .cls-13 {
        fill: url(#linear-gradient);
      }

      .cls-14 {
        opacity: .17;
      }
    </style>
    <linearGradient id="linear-gradient" x1="964.48" y1="1.07" x2="965.52" y2="1085.2" gradientUnits="userSpaceOnUse">
      <stop offset="0" stop-color="#3fffec"/>
      <stop offset="0" stop-color="#ffc96a"/>
      <stop offset="0" stop-color="#ffefbf"/>
      <stop offset="0" stop-color="#ffefbf"/>
      <stop offset="0" stop-color="#ffe7a8"/>
      <stop offset=".03" stop-color="#ffd475"/>
      <stop offset=".43" stop-color="#ffd27f"/>
      <stop offset=".65" stop-color="#ffd57d"/>
      <stop offset=".88" stop-color="#fff36a"/>
    </linearGradient>
    <linearGradient id="linear-gradient-2" x1="502.1" y1="1254.36" x2="2151.03" y2="1254.36" gradientTransform="translate(300.79 -336.11) rotate(9.93)" gradientUnits="userSpaceOnUse">
      <stop offset=".29" stop-color="#e9b000"/>
      <stop offset=".5" stop-color="#e6b000"/>
      <stop offset=".66" stop-color="#ccb000"/>
      <stop offset=".93" stop-color="#a6b100"/>
    </linearGradient>
    <linearGradient id="linear-gradient-3" x1="-353.32" y1="1260.21" x2="1295.62" y2="1260.21" gradientTransform="translate(1864.53 940.28) rotate(99.93)" xlink:href="#linear-gradient-2"/>
  </defs>
  <g id="baggrund-2" data-name="baggrund">
    <g>
      <rect class="cls-13" x="3.12" y="4.12" width="1923.75" height="1079.75"/>
      <path d="M1926.75,4.25V1083.75H3.25V4.25H1926.75m.25-.25H3V1084H1927V4h0Z"/>
    </g>
    <ellipse class="cls-1" cx="1391.17" cy="1128.21" rx="835" ry="328" transform="translate(-202.85 311.31) rotate(-11.91)"/>
    <ellipse class="cls-12" cx="541.95" cy="1187.06" rx="328" ry="835" transform="translate(-740.97 1425.67) rotate(-76)"/>
    <g class="cls-7">
      <path class="cls-3" d="M128.26,937.32c.8,10.68,2.29,21.31,4.48,31.8,.3,1.43,2.6,1.43,2.89,0,2.68-12.93,5.73-27.08,15.88-36.37-.79-.61-1.57-1.21-2.36-1.82-7.54,10.27-15.34,21.33-16.09,34.49-.07,1.21,1.76,2.1,2.56,1.06,9.54-12.31,23.3-20.93,38.55-24.1,1.89-.39,1.09-3.28-.8-2.89-15.69,3.25-30.06,12.2-39.87,24.87l2.56,1.06c.72-12.55,8.5-23.21,15.68-32.98,1.05-1.43-1.16-2.92-2.36-1.82-10.55,9.66-13.87,24.25-16.65,37.7h2.89c-2.13-10.23-3.6-20.58-4.37-31-.14-1.91-3.14-1.93-3,0h0Z"/>
    </g>
    <g class="cls-7">
      <path class="cls-3" d="M398.77,974.18c10.37,12.98,20.73,25.96,31.1,38.95,.82,1.03,2.6,.16,2.56-1.06-.14-3.97-1.59-7.6-3.15-11.21-1.62-3.74-3.17-7.52-4.58-11.35-2.83-7.7-5.19-15.59-7.04-23.58-1.04-4.49-1.92-9.02-2.65-13.58l-2.89,.8c4.34,16.21,9.93,32.06,16.69,47.42,.59,1.35,2.93,.68,2.8-.76-1.48-16.35,7.25-31.26,9.68-47.08,.29-1.89-2.6-2.7-2.89-.8-2.47,16.09-11.29,31.23-9.78,47.87l2.8-.76c-6.65-15.12-12.11-30.75-16.38-46.7-.51-1.91-3.19-1.07-2.89,.8,2.53,15.82,6.97,31.3,13.21,46.06,1.74,4.12,3.95,8.29,4.11,12.85,.85-.35,1.71-.71,2.56-1.06-10.37-12.98-20.73-25.96-31.1-38.95-1.2-1.51-3.31,.63-2.12,2.12h0Z"/>
    </g>
    <g class="cls-7">
      <path class="cls-3" d="M664.43,1024.53c5.33,6.72,10.66,13.45,16,20.17,.78,.99,2.69,.19,2.56-1.06-.9-8.57-3.14-16.87-6.68-24.73-.86,.5-1.73,1.01-2.59,1.51,4.33,8.69,8.67,17.37,13,26.06,.58,1.16,2.44,.85,2.74-.36,1.89-7.55,2.44-15.38,1.6-23.12l-1.9,1.45c4.96,1.64,8.74,5.83,9.96,10.89,.33,1.34,2.05,1.36,2.74,.36,2.91-4.21,3.91-9.38,2.97-14.39l-2.89,.8c1.75,7.1,5.25,13.63,10.15,19.06,1.3,1.44,3.41-.69,2.12-2.12-4.55-5.05-7.75-11.14-9.37-17.74-.47-1.89-3.24-1.08-2.89,.8,.79,4.24-.23,8.55-2.67,12.08,.91,.12,1.83,.24,2.74,.36-1.48-6.09-6.13-11.03-12.06-12.99-.85-.28-2,.49-1.9,1.45,.82,7.49,.34,15.02-1.49,22.32,.91-.12,1.83-.24,2.74-.36-4.33-8.69-8.67-17.37-13-26.06-.87-1.75-3.37-.22-2.59,1.51,3.3,7.34,5.43,15.21,6.27,23.22l2.56-1.06c-5.33-6.72-10.66-13.45-16-20.17-1.2-1.51-3.31,.62-2.12,2.12h0Z"/>
    </g>
    <g class="cls-7">
      <path class="cls-3" d="M1284.64,1025.86c4.89,5.74,10.6,10.85,16.93,14.96,1.48,.96,3.14,1.82,4.96,1.61,1.55-.18,2.78-1.1,3.7-2.32,1.03-1.36,1.63-3,2.22-4.58,.7-1.87,1.32-3.78,1.84-5.71,1.18-4.37,1.88-8.85,2.15-13.37,.12-1.94-2.83-1.9-3,0-.98,11.06-1.78,22.96,3.97,32.96,.75,1.3,2.78,.72,2.8-.76,.14-16.53,2.84-32.94,7.98-48.65l-2.95-.4c.44,5.8-.34,11.55-1.54,17.21-.58,2.72-1.22,5.43-1.89,8.12-.53,2.13-1.13,4.4-2.55,6.12-2.76,3.34-7.78,2.93-11.22,.95-4.03-2.32-6.48-6.66-8.67-10.59-2.59-4.66-5.18-9.35-9.57-12.56-1.56-1.14-3.06,1.46-1.51,2.59,8.3,6.08,9.31,18.66,18.87,23.49,3.93,1.99,9.07,2.38,12.75-.38,4.23-3.17,4.96-9.29,6.06-14.08,1.57-6.84,2.81-13.84,2.28-20.88-.13-1.67-2.41-2.05-2.95-.4-5.21,15.95-7.94,32.67-8.08,49.44,.93-.25,1.86-.5,2.8-.76-5.46-9.5-4.49-20.97-3.56-31.45h-3c-.27,4.48-1.01,8.91-2.23,13.24-.62,2.21-1.34,4.43-2.24,6.55-.52,1.21-1.32,3.09-2.85,3.24-1.8,.18-3.84-1.76-5.21-2.72-1.8-1.27-3.54-2.62-5.22-4.05-3.22-2.74-6.2-5.74-8.94-8.96-1.25-1.47-3.37,.66-2.12,2.12h0Z"/>
    </g>
    <g class="cls-7">
      <path class="cls-3" d="M1484.75,898.16c5.36,6.91,11.68,13.01,18.75,18.16,1.75,1.28,3.55,2.63,5.46,3.66,1.88,1.02,3.86,1.07,5.59-.28,3.1-2.43,4.25-7.06,4.56-10.79,.39-4.78-.59-9.6-1.61-14.24l-2.74,1.16c6.99,14.1,13.98,28.2,20.97,42.3,.64,1.3,2.94,.72,2.8-.76-1.14-11.93-2.29-23.86-3.43-35.8l-2.95,.4c4.58,12.29,9.17,24.58,13.75,36.87,.55,1.47,3.08,1.41,2.95-.4-1.5-20.42-4.73-40.71-9.72-60.56-1.42-5.65-2.98-11.26-4.67-16.83-.56-1.84-3.46-1.06-2.89,.8,5.9,19.4,10.16,39.31,12.61,59.45,.7,5.7,1.25,11.42,1.67,17.14l2.95-.4c-4.58-12.29-9.17-24.58-13.75-36.87-.54-1.46-3.12-1.41-2.95,.4,1.14,11.93,2.29,23.86,3.43,35.8l2.8-.76c-6.99-14.1-13.98-28.2-20.97-42.3-.79-1.58-3.09-.44-2.74,1.16,.79,3.63,1.54,7.3,1.58,11.03,.04,3.43-.53,7.41-2.78,10.16-.44,.54-1.05,1.13-1.79,1.13-.88,0-1.85-.82-2.56-1.28-1.61-1.04-3.19-2.14-4.73-3.28-3.09-2.3-6.02-4.81-8.79-7.49-3.12-3.02-6-6.26-8.66-9.69-1.18-1.52-3.29,.61-2.12,2.12h0Z"/>
    </g>
    <g class="cls-7">
      <path class="cls-3" d="M1748.34,967.67c3.52,11.79,9.71,22.65,18.05,31.69,.62,.67,1.94,.55,2.36-.3,4.35-9.06,6.36-19.09,5.72-29.12-.12-1.91-3.03-1.95-3,0,.13,9.37,.26,18.74,.39,28.1,.02,1.76,2.38,1.95,2.95,.4,5.39-14.82,3.71-30.81,6.12-46.15,.68-4.32,1.7-8.58,3.26-12.68l-2.74,.36c1.69,3.69,2.23,7.85,1.55,11.85-.32,1.89,2.57,2.7,2.89,.8,.83-4.86,.2-9.68-1.85-14.16-.59-1.29-2.33-.72-2.74,.36-5.59,14.75-3.96,30.76-6.25,46.1-.65,4.33-1.63,8.61-3.13,12.73l2.95,.4c-.13-9.37-.26-18.74-.39-28.1h-3c.6,9.49-1.19,19.02-5.31,27.61l2.36-.3c-7.99-8.66-13.92-19.08-17.28-30.37-.55-1.85-3.45-1.06-2.89,.8h0Z"/>
    </g>
    <g class="cls-7">
      <path class="cls-3" d="M558.28,892.88c7.24,6.63,13.75,14.01,19.37,22.05,.94,1.35,3.2,.57,2.74-1.16-2.31-8.74-3.56-17.7-3.74-26.74-.04-1.93-2.98-1.93-3,0-.06,6.93,1.62,13.75,4.86,19.87,.58,1.1,2.49,.9,2.74-.36,1.87-9.26,2.48-18.74,1.73-28.16-.15-1.9-3.02-1.96-3,0,.14,11.59,.28,23.17,.42,34.76,.02,1.75,2.39,1.96,2.95,.4,4.9-13.77,9.8-27.54,14.7-41.31,.65-1.82-2.25-2.61-2.89-.8-4.9,13.77-9.8,27.54-14.7,41.31l2.95,.4c-.14-11.59-.28-23.17-.42-34.76h-3c.72,9.16,.2,18.36-1.62,27.37l2.74-.36c-3-5.66-4.51-11.95-4.45-18.35h-3c.19,9.3,1.48,18.55,3.85,27.54l2.74-1.16c-5.77-8.25-12.41-15.86-19.84-22.66-1.42-1.3-3.55,.81-2.12,2.12h0Z"/>
    </g>
  </g>
  <g id="gravsten">
    <g>
      <path class="cls-4" d="M1621.99,740.79c1.04-12.06,2.51-25.12,10.86-33.88,2.34-2.46,5.14-4.46,7.3-7.08,3.8-4.61,5.26-10.67,6.33-16.55,7.52-41.54,.54-84.12-1.86-126.27-2.4-42.15,.66-87.19,25.05-121.65,9.72-13.73,22.38-25.1,35.47-35.67,19.37-15.64,41.14-30.28,65.91-32.83,10.75-1.11,21.61,.14,32.3,1.75,13.1,1.97,26.12,4.5,39.01,7.57,6.61,1.57,13.34,3.37,18.9,7.27,12.46,8.75,15.86,25.45,18.12,40.51,13.22,88.13,21.04,179.36-2.22,265.39,6.53-1.17,13.01,3.5,16,9.43,3,5.92,3.27,12.81,3.3,19.45,.07,18.18-1.26,36.36-3.98,54.33-20.35-2.49-40.83-4.98-61.29-3.69-10.09,.64-20.22,2.2-30.27,1.01-8.58-1.02-16.79-4-25.21-5.94-49.74-11.41-100.97,14.61-151.84,10.55-2.07-.16-4.4-.53-5.57-2.25-.87-1.27-.83-2.94-.76-4.48,.79-17.01,1.58-34.03,2.38-51.04"/>
      <path d="M1623.49,740.79c1.01-11.68,2.31-24.86,11.14-33.54,2.25-2.22,4.8-4.14,6.79-6.62,1.89-2.36,3.25-5.05,4.26-7.89,2.22-6.24,3.03-13.07,3.86-19.61,3.77-29.64,1-59.58-1.45-89.21-2.2-26.71-4.09-53.58-.96-80.3,2.94-25.11,10.56-50.05,25.96-70.42,8.26-10.93,18.41-20.31,28.92-29.04,10.22-8.48,20.83-16.6,32.39-23.17,11.52-6.54,24.16-11.49,37.43-12.72,14.83-1.37,29.89,1.35,44.45,3.97,7.43,1.34,14.83,2.86,22.19,4.55,6.68,1.54,13.65,2.99,19.66,6.43,10.2,5.85,14.84,17.08,17.4,28.03,3.08,13.16,4.47,26.83,6.26,40.21,1.93,14.46,3.64,28.94,5.02,43.46,2.76,28.95,4.25,58.05,3.54,87.13-.71,28.99-3.63,57.95-9.68,86.33-1.47,6.89-3.12,13.74-4.96,20.55-.32,1.2,.75,2.01,1.85,1.85,6.77-1.03,12.65,4.45,15.03,10.31,2.83,6.97,2.43,14.95,2.35,22.33-.17,16.31-1.48,32.59-3.91,48.72l1.45-1.1c-11.52-1.41-23.05-2.82-34.64-3.54-11.31-.71-22.54-.55-33.83,.41-5.57,.48-11.15,.98-16.74,.87s-11.25-1.09-16.78-2.51c-10.09-2.59-19.9-5.36-30.32-6.27-41.09-3.59-80.7,12.46-121.55,13.36-2.76,.06-5.52,.05-8.29-.03s-5.72,0-8.37-.62c-3.72-.87-2.97-4.37-2.82-7.39,.15-3.24,.3-6.48,.45-9.72,.6-12.96,1.21-25.93,1.81-38.89,.09-1.93-2.91-1.93-3,0-.55,11.88-1.11,23.77-1.66,35.65-.13,2.7-.25,5.4-.38,8.1-.14,3.04-.59,6.26-.34,9.3,.37,4.66,4.12,5.92,8.2,6.24,21.03,1.67,42.1-1.86,62.72-5.62s41.48-8.05,62.59-7.88c10.5,.09,20.81,1.45,30.95,4.16,5.4,1.44,10.76,3.08,16.27,4.07s11.23,1.2,16.89,.93c6.4-.3,12.76-1.07,19.16-1.42,6.72-.36,13.47-.32,20.19-.02,13.22,.59,26.36,2.2,39.48,3.8,.58,.07,1.36-.51,1.45-1.1,2.11-14.01,3.42-28.14,3.86-42.3,.21-6.73,.48-13.58-.13-20.29-.52-5.69-1.93-11.44-5.59-15.96-3.73-4.61-9.35-7.4-15.31-6.49l1.85,1.85c7.65-28.41,12.01-57.62,13.84-86.96,1.85-29.62,1.18-59.36-1.03-88.94-2.22-29.72-5.97-59.3-10.37-88.76-1.68-11.26-3.57-23.1-9.7-32.92-3-4.81-7.04-8.9-12.01-11.68-5.95-3.33-12.71-4.86-19.29-6.39-14.69-3.41-29.58-6.25-44.55-8.07-14.31-1.74-28.45-1.38-42.23,3.18-12.52,4.14-24.04,10.83-34.76,18.43-11.09,7.85-21.77,16.53-31.62,25.9-9.69,9.22-18.34,19.51-24.92,31.2-6.23,11.07-10.68,23.09-13.7,35.42-6.17,25.2-6.62,51.49-5.13,77.26,1.76,30.46,5.87,60.83,5.15,91.39-.18,7.61-.66,15.21-1.56,22.77-.83,6.97-1.65,14.39-4.17,21-1.23,3.23-3.06,6.03-5.55,8.42-2.31,2.23-4.82,4.21-6.85,6.73-3.66,4.56-5.88,10.06-7.23,15.71-1.36,5.69-1.93,11.54-2.43,17.35-.17,1.92,2.83,1.91,3,0h0Z"/>
    </g>
    <g>
      <path class="cls-4" d="M1388.8,784.5c-2.51-10.37-.23-22.04,5.91-30.29,2.02-2.71,4.43-5.09,6.05-8.12,1.52-2.85,2.25-6.13,2.8-9.39,3.44-20.37,.49-41.52,3.46-61.98,1.49-10.29,4.46-20.22,7.42-30.1,4.4-14.72,8.93-29.72,17.16-42.21,7.27-11.04,17.12-19.62,27.43-27.02,7.38-5.29,15.19-10.11,23.73-12.27,8.54-2.16,17.96-1.4,25.36,3.85,11.3,8.03,15.34,24.04,18.49,38.62,8.3,38.43,16.67,77.62,14.12,117.06-.11,1.76-.24,3.57,.23,5.25,1.11,3.89,4.92,5.74,8.03,7.87,8.11,5.57,13.25,16.18,13,26.84-.03,1.36-.16,2.78-.84,3.9-.91,1.53-2.6,2.18-4.18,2.69-27.29,8.91-56.39,6.37-84.62,10.03-28.33,3.68-55.81,13.62-84.19,16.81-1.17,.13-2.45,.22-3.41-.54-1.56-1.23-1.37-3.84-.98-5.93,1.2-6.36,2.75-12.64,4.63-18.78"/>
      <path d="M1390.25,784.11c-2.31-9.78-.4-20.65,5.53-28.82,1.56-2.15,3.41-4.08,4.94-6.26,1.59-2.27,2.67-4.82,3.37-7.5,1.51-5.72,2.03-11.8,2.4-17.69,.77-12.21,.21-24.45,.85-36.66,.32-6.11,.99-12.18,2.18-18.18,1.18-5.93,2.77-11.77,4.46-17.58,3.2-10.99,6.35-22.1,10.76-32.67,4.29-10.28,10.12-19.62,17.91-27.6,7.55-7.74,16.38-14.58,25.67-20.12,9.1-5.43,19.86-9.35,30.52-6.66,9.64,2.44,15.84,10.09,19.69,18.85,4.11,9.33,5.93,19.56,8.06,29.47,5.19,24.17,10.15,48.48,12.16,73.16,1,12.33,1.23,24.7,.45,37.05-.16,2.62-.14,5.24,1.22,7.57,1.13,1.94,2.91,3.36,4.73,4.6s3.8,2.42,5.49,3.95,3.3,3.4,4.6,5.39c2.69,4.1,4.44,8.84,5.02,13.71,.26,2.19,.71,5.25-.23,7.32-1,2.21-4.55,2.72-6.61,3.32-11.36,3.34-23.14,4.83-34.92,5.71s-23.67,1.18-35.48,2.17c-11.92,1-23.66,3-35.33,5.59-11.76,2.61-23.42,5.65-35.2,8.19-5.87,1.26-11.77,2.4-17.7,3.29-1.43,.21-2.86,.41-4.29,.59-1.29,.16-3.03,.66-4.31,.3-2.14-.61-.99-4.57-.7-6.03,1.15-5.85,2.61-11.65,4.35-17.35,.56-1.85-2.33-2.64-2.89-.8-1.86,6.09-3.41,12.28-4.58,18.54-.4,2.16-.76,4.68,.47,6.65,1.59,2.57,4.65,2.05,7.2,1.74,12.23-1.5,24.26-4.17,36.23-7.01s24.32-5.95,36.64-8.12,24.24-2.99,36.45-3.63,24.52-1.2,36.66-3.01c5.99-.9,11.93-2.11,17.75-3.79,2.45-.71,5.32-1.3,7.34-2.96s2.38-4.43,2.38-6.98c-.01-10.03-4.54-20.33-12.57-26.48-3.67-2.81-8.71-4.68-8.8-10.04-.05-3.07,.33-6.18,.43-9.25,.11-3.17,.15-6.35,.14-9.52-.14-25.58-4.25-50.97-9.28-75.99-2.35-11.65-4.59-23.4-7.58-34.91-2.41-9.27-5.73-18.94-12.43-26.04-7.36-7.8-18.09-10.33-28.45-8.47-11.22,2.01-21.12,8.73-30.06,15.46-8.88,6.69-17.11,14.29-23.49,23.45-6.61,9.49-10.87,20.39-14.44,31.32-1.84,5.62-3.51,11.3-5.19,16.97-1.78,6.02-3.49,12.08-4.79,18.22-2.62,12.37-2.92,24.91-3,37.5-.04,6.27-.06,12.55-.42,18.81-.35,6.09-.83,12.39-2.47,18.29-.8,2.88-2.14,5.39-3.99,7.73-1.65,2.09-3.44,4.07-4.89,6.32-2.82,4.37-4.64,9.41-5.42,14.54-.77,5.06-.61,10.17,.56,15.16,.44,1.88,3.34,1.08,2.89-.8h0Z"/>
    </g>
    <g>
      <path d="M1745.56,501.8c-.29,1.28-1.28,2.06-2.98,2.35-1.57,.29-3.06,.11-4.46-.53-1.57-.67-2.26-1.62-2.06-2.83-.19-1.86,.78-5.89,2.93-12.1,3.2-9.31,6.4-15.97,9.6-19.97,.83-1.02,1.54-1.69,2.14-1.99,.59-.3,1.27-.58,2.04-.84,.77-.26,1.57-.5,2.4-.72,1.66-.45,3.24-.76,4.73-.94,1.49-.18,2.82,0,4.01,.53,1.18,.53,2.1,1.3,2.76,2.33,.66,1.02,1.06,2.23,1.22,3.62s.11,2.85-.14,4.37c-.26,1.52-.72,3.06-1.39,4.61-.67,1.55-1.52,3-2.54,4.34-2.24,2.94-4.86,4.85-7.87,5.71l.48,.82c.42,.64,.92,1.34,1.51,2.11s1.18,1.55,1.78,2.35c.59,.8,1.13,1.6,1.61,2.4,.48,.8,.83,1.55,1.06,2.26,.51,1.57,.11,2.7-1.2,3.41-1.06,.64-1.89,.8-2.5,.48-.26-.16-.51-.36-.77-.6-.26-.24-.61-.44-1.06-.6-1.89,.54-3.33,.06-4.32-1.44-.61-.96-1.07-1.84-1.39-2.64-.32-.8-.59-1.47-.82-2.02-.58-1.18-1.23-2.21-1.97-3.07-.35,.86-.75,1.97-1.2,3.31-.54,1.7-1.15,3.46-1.82,5.28h.24Zm9.7-27.94c-.61,1.38-1.02,2.34-1.25,2.88-.45,1.09-.94,2.29-1.49,3.6-.1,.7-.18,1.2-.24,1.49l.67-.67,.82-.38c.58-.32,1.1-.61,1.58-.86,.48-.26,.91-.58,1.3-.96,.74-.74,1.38-1.94,1.92-3.6,0-.32,.06-.64,.17-.96,.11-.32,.18-.64,.22-.96,.13-.7-.16-1.2-.86-1.49-.64-.06-1.44,.46-2.4,1.58-.19,.22-.34,.34-.43,.34Z"/>
      <path d="M1773.57,505.52c-.75,.59-1.5,1.01-2.26,1.25-.75,.24-1.26,.36-1.51,.36s-.91-.08-1.97-.24h-.05s-.08-.03-.14-.1c-1.66-.77-2.5-1.81-2.5-3.12,0-1.15,.59-2.3,1.78-3.46,1.6-1.54,3.33-2.24,5.18-2.11,.22,.03,.75,.16,1.58,.38,.1,.1,.16,.14,.19,.14,1.82,1.41,2.29,3.02,1.39,4.85-.38,.77-.95,1.45-1.7,2.04Z"/>
      <path d="M1796.68,469.21c-1.12,3.49-2.15,6.64-3.1,9.46-.94,2.82-1.81,5.41-2.59,7.78-.79,2.37-1.51,4.55-2.18,6.55-.67,2-1.3,3.91-1.87,5.74-.32,2.11-1.36,3.6-3.12,4.46-1.03,.48-2.24,.72-3.65,.72s-2.46-.15-3.17-.46c-.7-.3-1.16-.74-1.37-1.32-.21-.58-.21-1.27,0-2.09,.21-.82,.57-1.94,1.08-3.36s1.16-3.35,1.94-5.78c.78-2.43,1.61-4.9,2.47-7.39,2.14-6.24,3.84-10.56,5.09-12.96,.48-.9,.96-1.5,1.44-1.8,.48-.3,.94-.53,1.39-.67s.86-.31,1.25-.5,.73-.67,1.03-1.44c.3-.77,.86-1.3,1.68-1.58,.82-.29,1.58-.31,2.3-.07,.72,.24,1.26,.75,1.63,1.54,.37,.78,.28,1.85-.26,3.19Z"/>
      <path d="M1802.46,505.52c-.75,.59-1.5,1.01-2.26,1.25-.75,.24-1.26,.36-1.51,.36s-.91-.08-1.97-.24h-.05s-.08-.03-.14-.1c-1.66-.77-2.5-1.81-2.5-3.12,0-1.15,.59-2.3,1.78-3.46,1.6-1.54,3.33-2.24,5.18-2.11,.22,.03,.75,.16,1.58,.38,.1,.1,.16,.14,.19,.14,1.82,1.41,2.29,3.02,1.39,4.85-.38,.77-.95,1.45-1.7,2.04Z"/>
      <path d="M1829.9,491.39c-1.28,.96-2.62,1.66-4.01,2.09-1.39,.43-2.78,.55-4.15,.36-1.38-.19-2.56-.78-3.55-1.78-.9,2.85-1.5,5.66-1.82,8.45-.13,.51-.35,.98-.67,1.39-.58,1.7-1.84,2.83-3.79,3.41-1.92,.54-3.71,.45-5.38-.29-.77-.35-1.41-.86-1.92-1.54-.51-.67-.77-1.49-.77-2.45,2.21-7.65,4.34-13.92,6.38-18.82,.45-1.02,.81-1.86,1.08-2.5,.27-.64,.52-1.18,.74-1.63,.22-.45,.42-.84,.6-1.18,.18-.34,.39-.71,.65-1.13,.58-.96,1.24-2.09,1.99-3.38s1.39-2.26,1.92-2.9c.53-.64,1.09-1.19,1.68-1.66,.59-.46,1.25-.9,1.97-1.32,.72-.42,1.62-.96,2.71-1.63s2.25-1.08,3.48-1.22,2.41-.04,3.53,.31c2.37,.74,4.11,2.38,5.23,4.94,.96,2.37,1.12,5.55,.48,9.55-.99,6.11-3.12,10.42-6.38,12.91Zm-10.03-4.27c2.62-.58,4.45-2.29,5.47-5.14,.86-2.4,1.04-5.12,.53-8.16-.74,1.25-1.4,2.54-1.99,3.89-.59,1.34-1.13,2.54-1.61,3.6-1.06,2.37-1.86,4.3-2.4,5.81Z"/>
      <path d="M1711.1,524.22c.32,.86,.5,1.44,.53,1.73,.06,.61-.16,1.12-.67,1.54,0,.03-.03,.08-.1,.14,.29,1.5,.35,2.91,.19,4.22-.16,1.31-.37,2.58-.62,3.79,1.73-2.94,3.1-5.1,4.13-6.48,2.11-2.85,4.08-4.88,5.9-6.1,.61-.35,1.35-.62,2.23-.79,.88-.18,1.72-.2,2.52-.07,.8,.13,1.46,.45,1.99,.96,.53,.51,.76,1.28,.7,2.3-.9,6.24-1.86,12.06-2.88,17.45-1.02,5.39-2.35,10.54-3.98,15.43v.1h-.05c-.38,1.15-1.34,1.97-2.88,2.45-1.5,.45-2.85,.48-4.03,.1-1.44-.42-2.1-1.18-1.97-2.3l.05-1.1v-.1c.13-.77,.2-1.29,.22-1.56,.02-.27,.04-.47,.07-.6,.06-.83,.2-1.61,.41-2.33,.21-.72,.36-1.3,.46-1.75,.1-.45,.19-.87,.29-1.27,.1-.4,.16-.71,.19-.94-1.22,1.67-2.08,2.67-2.59,3.02-1.28,.9-2.77,1.31-4.46,1.25-1.06-.06-1.66-.3-1.82-.72-.32-.9-.54-1.42-.67-1.58-.19-.26-.35-.69-.48-1.3-.83,3.68-1.65,6.29-2.45,7.82-.32,.61-.64,1.15-.96,1.63-.45,1.06-1.47,1.79-3.07,2.21-1.5,.42-2.94,.38-4.32-.1-1.41-.45-2.08-1.25-2.02-2.4,.06-1.15,.3-2.6,.7-4.34s.87-3.59,1.42-5.54c1.63-6.18,2.79-10.19,3.48-12.05,.69-1.86,1.27-3.31,1.75-4.37,1.15-2.46,2.18-4.26,3.07-5.38,.99-2.02,2.64-3.23,4.94-3.65,1.82-.35,3.42-.13,4.8,.67Z"/>
      <path d="M1732.29,536.77c.82-.59,1.6-.96,2.35-1.1,.75-.14,1.38-.06,1.87,.26,.5,.32,.66,.82,.5,1.49,.61-.61,1.49-1.17,2.64-1.68,1.15-.51,2.06-.86,2.74-1.06,.67-.19,1.25-.29,1.73-.29,1.06,.06,1.36,.64,.91,1.73,.54,.1,.94,.45,1.2,1.06,.26,.61,.29,1.28,.1,2.02-.19,.74-.62,1.46-1.3,2.16-.67,.71-1.58,1.18-2.71,1.44-1.14,.26-2.08,.84-2.83,1.75s-1.42,2.04-1.99,3.38c-.96,2.27-1.82,5.49-2.59,9.65-.26,1.5-1.3,2.77-3.12,3.79-1.73,.99-3.31,1.28-4.75,.86-1.63-.45-2.35-1.65-2.16-3.6,.06-1.38,.48-3.21,1.25-5.5,.77-2.29,1.36-4.02,1.78-5.18,.42-1.17,.7-2.05,.86-2.66l1.63-5.9c.45-1.15,1.08-2.02,1.9-2.62Z"/>
      <path d="M1752.93,563.12c-.75,.59-1.5,1.01-2.26,1.25-.75,.24-1.26,.36-1.51,.36s-.91-.08-1.97-.24h-.05s-.08-.03-.14-.1c-1.66-.77-2.5-1.81-2.5-3.12,0-1.15,.59-2.3,1.78-3.46,1.6-1.54,3.33-2.24,5.18-2.11,.22,.03,.75,.16,1.58,.38,.1,.1,.16,.14,.19,.14,1.82,1.41,2.29,3.02,1.39,4.85-.38,.77-.95,1.45-1.7,2.04Z"/>
      <path d="M1792.26,535.36c0-.96-.34-1.44-1.01-1.44-.26,0-.56,.06-.91,.19-.35,.13-.69,.24-1.01,.34-1.18,.64-2.1,1.34-2.76,2.09-.66,.75-1.32,1.59-1.99,2.52-.67,.93-1.25,1.92-1.73,2.98-.48,1.06-.85,2.05-1.1,2.98-.93,3.42-.58,5.73,1.06,6.91,.67,.48,1.38,.71,2.14,.7,.75-.02,1.36-.17,1.82-.46,.46-.29,.92-.56,1.37-.82,.45-.26,.97-.44,1.56-.55,.59-.11,1.33-.03,2.21,.24,.88,.27,1.35,.63,1.42,1.08,.06,.45,.06,.91,0,1.39-.06,.48-.07,.91-.02,1.3s.39,.62,1.03,.72c.61,.77,.22,1.7-1.15,2.78-.35,.29-.69,.56-1.01,.82-2.75,1.76-5.68,2.74-8.78,2.93-1.95,.13-4.03-.22-6.24-1.06-3.3-1.25-5.15-4.05-5.57-8.4-.54-4.03-.03-8.21,1.54-12.53,1.31-3.65,3.29-7.02,5.95-10.13,2.4-2.85,4.77-4.7,7.1-5.57,2.78-1.44,5.79-2,9.02-1.68,3.42,.45,5.66,1.9,6.72,4.37,1.06,2.46,.88,5.42-.53,8.88-.48,1.22-1.39,2.18-2.74,2.88-1.15,.64-2.4,.96-3.74,.96s-2.21-.42-2.59-1.27c-.38-.85-.4-1.9-.05-3.14Z"/>
      <path d="M1824.23,554.12c0,1.7,.21,3.17,.62,4.42,0,1.02-.24,1.75-.72,2.18-.48,.43-1.08,.66-1.8,.67-.72,.02-1.48-.13-2.28-.43-.8-.3-1.48-.68-2.04-1.13-.56-.45-.92-.81-1.08-1.08-.16-.27-.42-.68-.77-1.22-.54-2.53-.8-4.18-.77-4.94,.03-.77,.1-1.42,.19-1.97-1.6,.83-2.7,1.55-3.31,2.16-1.12,1.12-2.06,2.56-2.83,4.32-.26,1.41-.46,2.15-.62,2.23-.16,.08-.37,.14-.62,.17-.26,.03-.53,.14-.82,.34-.29,.19-.56,.35-.82,.48s-.51,.26-.77,.38c-.61,.35-1.01,.53-1.2,.53-1.82,.58-3.57,.32-5.23-.77-.71-.48-1.25-1.1-1.63-1.85-.38-.75-.48-1.56-.29-2.42,1.38-5.92,3.26-11.95,5.66-18.1,1.47-3.74,2.88-6.7,4.22-8.88,.32-.51,.64-1.06,.96-1.63,.67-1.15,1.14-1.94,1.39-2.35-.32-.83-.31-1.56,.02-2.18s.85-1.12,1.54-1.49c.69-.37,1.48-.62,2.38-.74,.9-.13,1.74-.14,2.54-.05,1.92,.29,2.94,1.04,3.07,2.26-.19,.58-.46,1.26-.79,2.06s-.67,1.61-1.01,2.42-.66,1.58-.96,2.28c-.3,.7-.53,1.22-.67,1.56-.14,.34-.35,.91-.62,1.73-.27,.82-.56,1.7-.86,2.64-.3,.94-.58,1.82-.84,2.62l-.58,1.68c-.13,.45-.34,1.13-.62,2.04-.29,.91-.59,2.04-.91,3.38,.42-.32,.76-.7,1.03-1.13,.27-.43,.67-.92,1.2-1.46,.53-.54,1.22-1.08,2.06-1.61,.85-.53,1.75-.87,2.71-1.03,2.08-.35,3.97,.32,5.66,2.02,1.28,1.28,1.68,3.2,1.2,5.76-.19,1.05-.42,2.12-.7,3.19-.27,1.07-.38,2.06-.31,2.95Z"/>
      <path d="M1832.92,538.48c.42-1.06,1.41-1.78,2.98-2.16,1.47-.38,2.85-.34,4.13,.14,1.31,.51,1.9,1.34,1.78,2.5-.35,1.12-.79,2.49-1.32,4.1-.53,1.62-1.03,3.27-1.51,4.97-1.28,4.35-2.02,7.42-2.21,9.22-.48,2.88-1.28,4.43-2.4,4.66-.32,.06-.62,.11-.91,.14-.7,.03-1.15,.22-1.34,.58-.19,.35-.51,.62-.96,.79-.45,.17-.94,.26-1.46,.24-.53-.02-1.06-.14-1.61-.38-.54-.24-1.01-.58-1.39-1.03-.9-1.09-1.07-2.54-.53-4.37,.51-3.49,1.81-7.92,3.89-13.3,.99-2.66,1.95-4.69,2.88-6.1Zm9.07-7.2c-1.57,.32-2.84,.22-3.82-.29-.98-.51-1.54-1.13-1.7-1.85-.16-.72,.06-1.46,.67-2.23,.7-.96,1.76-1.58,3.17-1.87,.64-.06,1.1-.1,1.39-.1s.64,.06,1.06,.19c1.06,.1,1.74,.56,2.06,1.39,.45,.7,.49,1.5,.12,2.4-.37,.9-1.35,1.68-2.95,2.35Z"/>
      <path d="M1853.56,539.63c1.6-2.4,3.82-3.84,6.67-4.32,.93-.16,2.07-.27,3.43-.34,1.36-.06,2.53,.24,3.5,.91,.98,.67,1.7,1.54,2.18,2.59,.83,1.89,.96,4.21,.38,6.96-.32,1.5-.7,3.16-1.15,4.97-.45,1.81-1.12,3.59-2.02,5.35-.9,1.76-2.06,3.41-3.5,4.94-1.44,1.54-3.31,2.75-5.62,3.65-1.38,.54-2.58,.74-3.62,.6-1.04-.14-1.82-.36-2.33-.65s-.86-.7-1.06-1.25c-.64,1.82-1.24,3.67-1.8,5.54-.56,1.87-1.3,3.66-2.23,5.35-.64,.42-1.42,.73-2.35,.94-.93,.21-1.84,.16-2.74-.14-.9-.3-1.54-.85-1.94-1.63-.4-.78-.6-1.64-.6-2.57,0-1.25,.3-2.77,.91-4.56,.9-2.66,1.62-4.7,2.18-6.14,.56-1.44,.92-2.38,1.08-2.81,.16-.43,.32-.89,.48-1.37,.7-1.86,1.22-3.37,1.56-4.54s.65-2.18,.94-3.05v-.05c.32-1.41,.82-2.9,1.51-4.49,.69-1.58,1.16-2.55,1.42-2.9,.54-.54,1.1-.88,1.68-1.01,.58-.13,1.23-.21,1.97-.24h.14l.91,.24Zm3.65,8.02c-.38,.67-1.02,1.3-1.92,1.87l-.43,1.01c-.32,.83-.62,1.68-.91,2.54-.29,.86-.61,1.71-.96,2.54,.32,.32,.56,.62,.72,.91,1.79-1.57,3.42-3.63,4.9-6.19,.58-1.06,.95-2.11,1.13-3.17,.17-1.06,.22-1.73,.12-2.02-.1-.29-.25-.43-.46-.43s-.42,.06-.62,.17c-.21,.11-.37,.22-.48,.34s-.1,.12,.02,.02c-.35,.42-.61,.78-.77,1.08s-.27,.74-.34,1.32Z"/>
    </g>
    <g>
      <path d="M1458.13,655.01c-.14,.64-.64,1.03-1.49,1.18-.78,.14-1.53,.06-2.23-.26-.78-.34-1.13-.81-1.03-1.42-.1-.93,.39-2.94,1.46-6.05,1.6-4.66,3.2-7.98,4.8-9.98,.42-.51,.77-.84,1.07-1,.3-.15,.64-.29,1.02-.42s.78-.25,1.2-.36c.83-.22,1.62-.38,2.36-.47s1.41,0,2,.26c.59,.26,1.05,.65,1.38,1.16,.33,.51,.53,1.12,.61,1.81,.08,.7,.06,1.42-.07,2.18-.13,.76-.36,1.53-.7,2.3-.34,.78-.76,1.5-1.27,2.17-1.12,1.47-2.43,2.42-3.94,2.86l.24,.41c.21,.32,.46,.67,.76,1.06,.3,.38,.59,.78,.89,1.18,.3,.4,.56,.8,.8,1.2,.24,.4,.42,.78,.53,1.13,.26,.78,.06,1.35-.6,1.7-.53,.32-.94,.4-1.25,.24-.13-.08-.26-.18-.38-.3s-.3-.22-.53-.3c-.94,.27-1.66,.03-2.16-.72-.3-.48-.54-.92-.7-1.32-.16-.4-.3-.74-.41-1.01-.29-.59-.62-1.1-.98-1.54-.18,.43-.38,.98-.6,1.66-.27,.85-.58,1.73-.91,2.64h.12Zm4.85-13.97c-.3,.69-.51,1.17-.62,1.44-.22,.54-.47,1.14-.74,1.8-.05,.35-.09,.6-.12,.74l.34-.34,.41-.19c.29-.16,.55-.3,.79-.43,.24-.13,.46-.29,.65-.48,.37-.37,.69-.97,.96-1.8,0-.16,.03-.32,.08-.48,.06-.16,.09-.32,.11-.48,.06-.35-.08-.6-.43-.74-.32-.03-.72,.23-1.2,.79-.1,.11-.17,.17-.22,.17Z"/>
      <path d="M1472.13,656.87c-.38,.3-.75,.5-1.13,.62-.38,.12-.63,.18-.76,.18s-.46-.04-.98-.12h-.02s-.04-.02-.07-.05c-.83-.38-1.25-.9-1.25-1.56,0-.58,.3-1.15,.89-1.73,.8-.77,1.66-1.12,2.59-1.06,.11,.02,.38,.08,.79,.19,.05,.05,.08,.07,.1,.07,.91,.7,1.14,1.51,.7,2.42-.19,.38-.48,.72-.85,1.02Z"/>
      <path d="M1483.69,638.71c-.56,1.74-1.08,3.32-1.55,4.73-.47,1.41-.9,2.7-1.3,3.89-.39,1.18-.76,2.28-1.09,3.28s-.65,1.96-.94,2.87c-.16,1.06-.68,1.8-1.56,2.23-.51,.24-1.12,.36-1.82,.36s-1.23-.08-1.58-.23c-.35-.15-.58-.37-.68-.66-.1-.29-.1-.64,0-1.04,.1-.41,.28-.97,.54-1.68,.26-.71,.58-1.68,.97-2.89,.39-1.22,.8-2.45,1.24-3.7,1.07-3.12,1.92-5.28,2.54-6.48,.24-.45,.48-.75,.72-.9,.24-.15,.47-.26,.7-.34,.22-.07,.43-.16,.62-.25s.36-.34,.52-.72c.15-.38,.43-.65,.84-.79,.41-.14,.79-.16,1.15-.04,.36,.12,.63,.38,.82,.77,.18,.39,.14,.92-.13,1.6Z"/>
      <path d="M1486.58,656.87c-.38,.3-.75,.5-1.13,.62-.38,.12-.63,.18-.76,.18s-.46-.04-.98-.12h-.02s-.04-.02-.07-.05c-.83-.38-1.25-.9-1.25-1.56,0-.58,.3-1.15,.89-1.73,.8-.77,1.66-1.12,2.59-1.06,.11,.02,.38,.08,.79,.19,.05,.05,.08,.07,.1,.07,.91,.7,1.14,1.51,.7,2.42-.19,.38-.48,.72-.85,1.02Z"/>
      <path d="M1500.3,649.8c-.64,.48-1.31,.83-2,1.04-.7,.22-1.39,.28-2.08,.18-.69-.1-1.28-.39-1.78-.89-.45,1.42-.75,2.83-.91,4.22-.06,.26-.18,.49-.34,.7-.29,.85-.92,1.42-1.9,1.7-.96,.27-1.86,.22-2.69-.14-.38-.18-.7-.43-.96-.77s-.38-.74-.38-1.22c1.1-3.82,2.17-6.96,3.19-9.41,.22-.51,.4-.93,.54-1.25s.26-.59,.37-.82c.11-.22,.21-.42,.3-.59s.2-.36,.32-.56c.29-.48,.62-1.04,1-1.69,.38-.65,.7-1.13,.96-1.45,.26-.32,.54-.6,.84-.83,.3-.23,.62-.45,.98-.66,.36-.21,.81-.48,1.36-.82s1.12-.54,1.74-.61,1.2-.02,1.76,.16c1.18,.37,2.06,1.19,2.62,2.47,.48,1.18,.56,2.78,.24,4.78-.5,3.06-1.56,5.21-3.19,6.46Zm-5.02-2.14c1.31-.29,2.22-1.14,2.74-2.57,.43-1.2,.52-2.56,.26-4.08-.37,.62-.7,1.27-1,1.94-.3,.67-.56,1.27-.8,1.8-.53,1.18-.93,2.15-1.2,2.9Z"/>
      <path d="M1434.75,671.78c0-.48-.17-.72-.5-.72-.13,0-.28,.03-.46,.1-.18,.06-.34,.12-.5,.17-.59,.32-1.05,.67-1.38,1.04s-.66,.8-1,1.26c-.34,.46-.62,.96-.86,1.49-.24,.53-.42,1.02-.55,1.49-.46,1.71-.29,2.86,.53,3.46,.34,.24,.69,.36,1.07,.35,.38,0,.68-.08,.91-.23,.23-.14,.46-.28,.68-.41,.22-.13,.48-.22,.78-.28,.3-.06,.66-.02,1.1,.12,.44,.14,.68,.32,.71,.54,.03,.22,.03,.46,0,.7s-.04,.46-.01,.65c.02,.19,.2,.31,.52,.36,.3,.38,.11,.85-.58,1.39-.18,.14-.34,.28-.5,.41-1.38,.88-2.84,1.37-4.39,1.46-.98,.06-2.02-.11-3.12-.53-1.65-.62-2.58-2.02-2.78-4.2-.27-2.02-.02-4.1,.77-6.26,.66-1.82,1.65-3.51,2.98-5.06,1.2-1.42,2.38-2.35,3.55-2.78,1.39-.72,2.9-1,4.51-.84,1.71,.22,2.83,.95,3.36,2.18,.53,1.23,.44,2.71-.26,4.44-.24,.61-.7,1.09-1.37,1.44-.58,.32-1.2,.48-1.87,.48s-1.1-.21-1.3-.64c-.19-.42-.2-.95-.02-1.57Z"/>
      <path d="M1450.74,681.17c0,.85,.1,1.58,.31,2.21,0,.51-.12,.88-.36,1.09-.24,.22-.54,.33-.9,.34-.36,0-.74-.06-1.14-.22-.4-.15-.74-.34-1.02-.56-.28-.22-.46-.4-.54-.54-.08-.14-.21-.34-.38-.61-.27-1.26-.4-2.09-.38-2.47s.05-.71,.1-.98c-.8,.42-1.35,.78-1.66,1.08-.56,.56-1.03,1.28-1.42,2.16-.13,.7-.23,1.08-.31,1.12s-.18,.07-.31,.08c-.13,.02-.26,.07-.41,.17s-.28,.18-.41,.24c-.13,.06-.26,.13-.38,.19-.3,.18-.5,.26-.6,.26-.91,.29-1.78,.16-2.62-.38-.35-.24-.62-.55-.82-.92-.19-.38-.24-.78-.14-1.21,.69-2.96,1.63-5.98,2.83-9.05,.74-1.87,1.44-3.35,2.11-4.44,.16-.25,.32-.53,.48-.82,.34-.58,.57-.97,.7-1.18-.16-.42-.16-.78,.01-1.09,.17-.31,.42-.56,.77-.74,.34-.18,.74-.31,1.19-.37,.45-.06,.87-.07,1.27-.02,.96,.14,1.47,.52,1.54,1.13-.1,.29-.23,.63-.4,1.03-.17,.4-.34,.8-.5,1.21s-.33,.79-.48,1.14c-.15,.35-.26,.61-.34,.78s-.18,.46-.31,.86c-.14,.41-.28,.85-.43,1.32-.15,.47-.29,.91-.42,1.31l-.29,.84c-.06,.22-.17,.56-.31,1.02-.14,.46-.3,1.02-.46,1.69,.21-.16,.38-.35,.52-.56,.14-.22,.34-.46,.6-.73,.26-.27,.61-.54,1.03-.8,.42-.26,.88-.44,1.36-.52,1.04-.18,1.98,.16,2.83,1.01,.64,.64,.84,1.6,.6,2.88-.1,.53-.21,1.06-.35,1.6s-.19,1.03-.16,1.48Z"/>
      <path d="M1455.08,673.34c.21-.53,.7-.89,1.49-1.08,.74-.19,1.42-.17,2.06,.07,.66,.26,.95,.67,.89,1.25-.18,.56-.4,1.24-.66,2.05-.26,.81-.52,1.64-.76,2.48-.64,2.18-1.01,3.71-1.1,4.61-.24,1.44-.64,2.22-1.2,2.33-.16,.03-.31,.06-.46,.07-.35,.02-.58,.11-.67,.29-.1,.18-.26,.31-.48,.4-.22,.09-.47,.13-.73,.12-.26,0-.53-.07-.8-.19-.27-.12-.5-.29-.7-.52-.45-.54-.54-1.27-.26-2.18,.26-1.74,.9-3.96,1.94-6.65,.5-1.33,.98-2.34,1.44-3.05Zm4.54-3.6c-.78,.16-1.42,.11-1.91-.14s-.77-.56-.85-.92c-.08-.36,.03-.73,.34-1.12,.35-.48,.88-.79,1.58-.94,.32-.03,.55-.05,.7-.05s.32,.03,.53,.1c.53,.05,.87,.28,1.03,.7,.22,.35,.24,.75,.06,1.2s-.68,.84-1.48,1.18Z"/>
      <path d="M1465.4,673.92c.8-1.2,1.91-1.92,3.34-2.16,.46-.08,1.04-.14,1.72-.17,.68-.03,1.26,.12,1.75,.46,.49,.34,.85,.77,1.09,1.3,.42,.94,.48,2.1,.19,3.48-.16,.75-.35,1.58-.58,2.48-.22,.9-.56,1.8-1.01,2.68-.45,.88-1.03,1.7-1.75,2.47-.72,.77-1.66,1.38-2.81,1.82-.69,.27-1.29,.37-1.81,.3-.52-.07-.91-.18-1.16-.32-.26-.14-.43-.35-.53-.62-.32,.91-.62,1.84-.9,2.77-.28,.94-.65,1.83-1.12,2.68-.32,.21-.71,.36-1.18,.47-.46,.1-.92,.08-1.37-.07-.45-.15-.77-.42-.97-.82s-.3-.82-.3-1.28c0-.62,.15-1.38,.46-2.28,.45-1.33,.81-2.35,1.09-3.07,.28-.72,.46-1.19,.54-1.4,.08-.22,.16-.44,.24-.68,.35-.93,.61-1.68,.78-2.27,.17-.58,.32-1.09,.47-1.52v-.02c.16-.7,.41-1.45,.76-2.24,.34-.79,.58-1.28,.71-1.45,.27-.27,.55-.44,.84-.5,.29-.06,.62-.1,.98-.12h.07l.46,.12Zm1.82,4.01c-.19,.34-.51,.65-.96,.94l-.22,.5c-.16,.42-.31,.84-.46,1.27-.14,.43-.3,.86-.48,1.27,.16,.16,.28,.31,.36,.46,.9-.78,1.71-1.82,2.45-3.1,.29-.53,.48-1.06,.56-1.58s.11-.86,.06-1.01c-.05-.14-.12-.22-.23-.22s-.21,.03-.31,.08c-.1,.06-.18,.11-.24,.17-.06,.06-.05,.06,.01,.01-.18,.21-.3,.39-.38,.54-.08,.15-.14,.37-.17,.66Z"/>
      <path d="M1477.74,673.34c1.07-.43,1.79-.44,2.16-.02,.19,.22,.29,.54,.29,.94v.12c.59-.69,1.62-1.26,3.1-1.73,1.55-.48,2.83-.62,3.84-.41,1.31,.27,2.05,1.13,2.21,2.57,.13,1.22-.15,2.76-.84,4.63-.22,.48-.4,.87-.52,1.16s-.23,.56-.32,.8c-.21,.45-.54,.98-.98,1.61-.26,.48-.65,.85-1.19,1.1s-1.06,.4-1.58,.44c-.52,.04-.95-.04-1.28-.24s-.43-.52-.29-.95c.37-.99,.67-1.9,.91-2.71,.24-.82,.49-1.51,.74-2.09,.24-.82,.27-1.33,.1-1.54-.14-.16-.39-.14-.74,.07-.3,.19-.52,.42-.65,.67-.29,.21-.83,1.04-1.63,2.5-.22,.4-.44,.8-.66,1.19-.22,.39-.42,.76-.6,1.09-.18,.34-.34,.62-.48,.84-.14,.22-.26,.37-.36,.44-.1,.07-.19,.12-.26,.14s-.13,.05-.18,.08c-.05,.03-.09,.14-.12,.31-.06,.37-.45,.64-1.15,.82-1.14,.29-2.16,.24-3.07-.14-.3-.13-.54-.3-.72-.53-.37-.74,.26-3.24,1.9-7.51,.58-1.5,.95-2.4,1.13-2.69,.4-.61,.66-.95,.78-1.03,.12-.08,.28-.06,.49,.05Z"/>
      <path d="M1492.5,673.2c.45-.43,.95-.68,1.5-.76s1.04-.01,1.46,.18c.42,.19,.74,.5,.94,.92,.2,.42,.17,.91-.08,1.45-.54,.8-.98,1.67-1.3,2.59s-.62,1.86-.89,2.81c1.47-.93,2.7-2.31,3.7-4.15,.29-.54,.6-1.1,.94-1.66l.36-.67,.72-1.15c.1-.3,.26-.5,.5-.59s.5-.13,.78-.13,.56,0,.85,.01,.55-.07,.79-.23c.24-.16,.52-.22,.85-.18,.33,.04,.62,.15,.89,.32,.26,.18,.46,.39,.6,.64,.14,.25,.15,.49,.04,.73-.67,1.44-1.59,4.12-2.76,8.04-.27,.88-.53,1.62-.77,2.21-.4,.5-.9,.83-1.51,1.01-.61,.18-1.18,.23-1.72,.16-.54-.07-.96-.26-1.28-.55-.32-.3-.39-.67-.22-1.12-.45,.37-.91,.7-1.39,1.01-.48,.3-1.06,.5-1.74,.6s-1.33,.07-1.96-.08-1.16-.44-1.6-.88c-.44-.43-.68-1.01-.71-1.73-.1-2.53,.9-5.46,3-8.81Z"/>
      <path d="M1510.43,665.78l.02-.1,.22-.22c.18-.42,.37-.66,.58-.74,.11-.03,.26-.07,.43-.12s.41-.17,.7-.36c.11-.22,.34-.32,.7-.3,.35,.02,.7,.14,1.04,.34,.34,.2,.62,.48,.84,.83,.22,.35,.27,.72,.16,1.09-.11,.38-.2,.66-.28,.84-.07,.18-.14,.36-.22,.52-.07,.16-.16,.34-.26,.54-.1,.2-.24,.47-.4,.8l-.79,1.66c-.08,.21-.15,.33-.2,.36-.06,.03-.11,.09-.16,.17,.14-.03,.26-.06,.36-.07,.1-.02,.19-.03,.29-.05,.22-.03,.48-.06,.77-.1,.18,.03,.33,.05,.46,.05h.34c.19,0,.42,.05,.7,.16,.27,.1,.45,.28,.53,.54s.09,.52,.02,.78c-.06,.26-.19,.51-.38,.73-.19,.22-.44,.34-.74,.36-1.39,.38-2.38,.59-2.98,.62l-.14,.17v.02c-.16,.38-.33,.87-.52,1.45-.18,.58-.38,1.22-.6,1.9-.22,.68-.44,1.38-.66,2.11-.22,.73-.46,1.43-.7,2.1-.77,2.26-1.33,3.48-1.68,3.67-.13,.06-.26,.11-.4,.13-.14,.02-.21,.04-.23,.06-.56-.03-1.02-.14-1.39-.34-.37-.19-.62-.38-.74-.55-.13-.18-.16-.38-.1-.6,.3-2.78,.91-5.83,1.82-9.14-.32,0-.54,.03-.67,.1-.24,.13-.53,.2-.86,.22h-.02c-.26-.02-.49-.14-.7-.36-.21-.22-.34-.48-.38-.77s0-.58,.14-.89c.14-.3,.43-.54,.86-.72,.51-.14,.89-.26,1.13-.36,.46-.19,.85-.33,1.16-.41,.31-.08,.49-.13,.53-.16,.04-.02,.07-.04,.08-.06,.05-.03,.17-.05,.36-.05,.1-.46,.19-.94,.29-1.42,.1-.48,.22-.97,.36-1.46,.32-1.15,.76-2.14,1.32-2.98Z"/>
      <path d="M1523.07,684.31c-.62,.51-1.36,.9-2.22,1.16-.86,.26-1.72,.4-2.58,.42-.86,.02-1.67-.09-2.42-.31-.75-.22-1.34-.58-1.78-1.06-.51-.54-.69-1.09-.53-1.63,.08-.22,.22-.4,.42-.53s.44-.16,.73-.1c.19,.02,.33-.04,.42-.16,.09-.12,.16-.26,.23-.41,.06-.15,.14-.3,.22-.43s.21-.2,.38-.2c2.82,.08,4.28-.17,4.39-.74-.19-.18-.43-.33-.71-.46-.28-.13-.56-.26-.85-.38-.7-.32-1.18-.67-1.42-1.06-.3-.16-.54-.54-.7-1.15-.08-.27-.12-.55-.12-.84s.05-.55,.14-.79c-.05-.62,.34-1.31,1.15-2.06,.22-.21,.5-.43,.84-.67s.84-.47,1.51-.7c.67-.22,1.34-.39,2-.49,.66-.1,1.26-.14,1.8-.11,.54,.03,.92,.16,1.15,.38,.23,.22,.42,.5,.55,.84,.14,.34,.18,.67,.13,.98-.13,.72-.72,1.22-1.78,1.49-1.33,.19-1.97,.37-1.92,.53,0,.03-.06,.07-.17,.12,1.23,.85,2.09,1.68,2.57,2.5,.66,1.12,.75,2.37,.29,3.74,.08,.45-.32,1.01-1.2,1.68-.21,.16-.39,.3-.55,.43Z"/>
    </g>
    <path d="M1677.7,427.52c1.93,0,1.93-3,0-3s-1.93,3,0,3h0Z"/>
    <path d="M1642.15,697.76c7.77,1,15.58,2,23.42,1.75,7.82-.25,15.49-1.96,23.3-2.33,15.73-.75,31.37,2.24,47.04,3.21s31.71,.78,47.56,.45c15.7-.33,31.4-.64,47.08-1.35,8.91-.41,17.82-.95,26.71-1.72,7.97-.69,16.25-1.19,23.5-4.89,1.72-.88,.2-3.47-1.51-2.59-6.45,3.3-13.9,3.77-21,4.4-7.73,.69-15.48,1.2-23.24,1.59-15.68,.8-31.38,1.13-47.08,1.47s-31.39,.65-47.07-.09c-7.9-.37-15.75-1.11-23.61-1.95s-15.3-1.61-22.99-1.64c-4.41-.02-8.79,.27-13.17,.81s-8.37,1.18-12.59,1.49c-8.82,.64-17.62-.48-26.35-1.6-1.91-.25-1.89,2.76,0,3h0Z"/>
    <path d="M1400.56,750.7c19.6,2.3,39.07-1.96,58.28-5.3,9.82-1.7,19.66-3.06,29.62-3.47s19.67-.17,29.5-.33c10.88-.18,21.83-.87,32.43-3.45,1.87-.46,1.08-3.35-.8-2.89-18.99,4.63-38.72,3.02-58.07,3.57-9.76,.28-19.41,1.35-29.04,2.93s-19.41,3.56-29.18,4.95c-10.84,1.54-21.85,2.28-32.75,1-1.91-.22-1.9,2.78,0,3h0Z"/>
    <g class="cls-14">
      <path d="M1695.97,407.88c4.88,6.75,9.24,13.88,13.02,21.3,1.76,3.46,3.44,7.2,3.04,11.06-1.63-1.96-2.03-4.64-2.22-7.18-.78-10.49,.84-21,1.11-31.52,.06-2.46-.41-5.58-2.79-6.24"/>
      <path d="M1694.68,408.64c3.52,4.88,6.77,9.95,9.74,15.19,1.43,2.53,2.83,5.1,4.09,7.73,1.31,2.74,2.29,5.62,2.03,8.69l2.56-1.06c-1.17-1.49-1.53-3.48-1.71-5.32-.2-2.06-.26-4.14-.28-6.22-.03-4.52,.27-9.03,.59-13.54,.31-4.33,.77-8.7,.73-13.04-.02-2.92-.81-6.2-3.89-7.22-1.84-.61-2.62,2.29-.8,2.89,2.59,.86,1.65,6.35,1.56,8.25-.21,4.36-.59,8.7-.86,13.06-.27,4.26-.43,8.53-.24,12.8,.16,3.69,.42,7.45,2.79,10.46,.89,1.13,2.46,.08,2.56-1.06,.52-6.13-3.21-11.99-6.07-17.13-3.08-5.53-6.49-10.86-10.19-16-1.12-1.55-3.72-.06-2.59,1.51h0Z"/>
    </g>
    <g class="cls-10">
      <path d="M1808.95,371.45c-.74,4.99-4.06,9.16-5.88,13.86-3.56,9.16-1.19,19.44,1.2,28.97-.06-3.1,.16-6.21,.65-9.28,.91-5.64,2.73-11.09,4.55-16.5,1.15-3.43,2.33-6.9,4.36-9.89s5.07-5.48,8.64-6.04"/>
      <path d="M1807.51,371.05c-.6,3.66-2.48,6.8-4.15,10.05-1.73,3.37-2.92,6.83-3.37,10.6-.93,7.73,.96,15.52,2.83,22.97,.41,1.64,2.97,1.3,2.95-.4-.12-8.43,2.12-16.33,4.77-24.25,2.13-6.35,4.71-14.68,12.33-16.01,1.9-.33,1.09-3.22-.8-2.89-8.19,1.44-11.64,9.8-13.98,16.78-2.9,8.62-5.46,17.2-5.33,26.39l2.95-.4c-1.8-7.18-3.69-14.71-2.73-22.17,.47-3.68,1.83-6.96,3.55-10.21,1.62-3.08,3.3-6.18,3.86-9.64,.31-1.89-2.58-2.7-2.89-.8h0Z"/>
    </g>
    <g class="cls-14">
      <path d="M1636.87,774.11c12.61-14.3,19.76-33.31,19.7-52.37,1.49,6.79,2.72,13.65,3.67,20.54,.4,2.88,.75,5.78,.65,8.68-.3,8.35-4.31,16.06-8.23,23.45"/>
      <path d="M1637.93,775.17c10.01-11.42,16.73-25.65,19.12-40.66,.67-4.23,1.02-8.5,1.02-12.78l-2.95,.4c1,4.58,1.89,9.19,2.66,13.82,.74,4.46,1.57,9.01,1.63,13.55,.1,8.72-4.06,16.64-8.04,24.14-.9,1.7,1.68,3.22,2.59,1.51,4.15-7.83,8.42-16.09,8.45-25.17,.02-4.8-.89-9.63-1.66-14.35-.78-4.79-1.7-9.56-2.73-14.3-.37-1.67-2.95-1.27-2.95,.4,0,14.55-4.16,28.97-11.84,41.32-2.2,3.53-4.67,6.87-7.42,9.99-1.27,1.45,.85,3.58,2.12,2.12h0Z"/>
    </g>
    <g class="cls-14">
      <path d="M1439.39,596.7c8.18,6.06,12.73,16.7,11.44,26.8,1.15-5.81,2.3-11.62,3.45-17.43,.44-2.24,.89-4.52,.62-6.78-.2-1.66-.77-3.25-1.34-4.82-1.24-3.42-2.48-6.84-3.73-10.25"/>
      <path d="M1438.64,598c7.8,5.86,11.85,15.88,10.7,25.51-.2,1.67,2.62,2.05,2.95,.4,.67-3.39,1.34-6.78,2.01-10.17,.68-3.44,1.5-6.88,1.98-10.35s-.19-6.34-1.35-9.53c-1.21-3.34-2.43-6.68-3.64-10.02-.65-1.8-3.55-1.02-2.89,.8,1.13,3.11,2.26,6.21,3.39,9.32,.53,1.45,1.1,2.9,1.44,4.41,.39,1.7,.3,3.44,.02,5.15-1.05,6.56-2.56,13.08-3.85,19.6l2.95,.4c1.29-10.75-3.58-21.63-12.18-28.1-1.54-1.16-3.04,1.44-1.51,2.59h0Z"/>
    </g>
    <g class="cls-14">
      <path d="M1515.26,576.48c-2.18,8.88-3.6,17.94-4.27,27.06,3.24-6.97,6.47-13.95,9.71-20.92"/>
      <path d="M1513.82,576.08c-2.19,9.02-3.63,18.2-4.32,27.46-.11,1.45,2.17,2.1,2.8,.76,3.24-6.97,6.47-13.95,9.71-20.92,.81-1.74-1.78-3.27-2.59-1.51-3.24,6.97-6.47,13.95-9.71,20.92l2.8,.76c.67-8.99,2.08-17.9,4.21-26.66,.46-1.88-2.44-2.68-2.89-.8h0Z"/>
    </g>
  </g>
  <g id="grass-2" data-name="grass">
    <g>
      <path class="cls-8" d="M1379.78,787.82c.8-11.58,.84-23.24,.13-34.82,1.22,9.78,4.02,19.24,8.18,27.65,1.15,2.32,2.53,4.7,4.57,5.64,3.76,1.74,7.72-2.19,9.76-6.52,2.04-4.34,3.22-9.48,6.2-12.84-1.61,9.4,.21,19.65,4.87,27.29,6.56-5.78,12.11-13.37,16.13-22.07,.08,4.72,.97,9.42,2.59,13.68,1.04,2.73,3.02,5.65,5.36,4.97,1.27-.37,2.19-1.72,3.01-3,2.19-3.39,4.38-6.78,6.56-10.18,.53-.83,1.11-1.69,1.9-2.05,1.09-.5,2.31,.08,3.3,.83,2.55,1.93,4.42,4.98,6.73,7.33s5.52,4,8.24,2.47c1.41-.79,2.46-2.31,3.46-3.79,2.67-3.95,5.35-7.9,8.02-11.85,1.1,5.18,2.81,10.15,5.06,14.72,4.12-8.76,6.61-18.72,7.24-28.86,.46,5.71,.92,11.53-.02,17.14s-3.52,11.1-7.66,13.52c-3.4,1.99-7.33,1.69-11.08,1.58-30.86-.9-61.38,13.9-92.05,9.51,1.24-7.29,.79-15.02-1.28-22"/>
      <path class="cls-8" d="M1381.28,787.82c.79-11.59,.83-23.22,.13-34.82h-3c1.22,9.57,3.82,18.91,8,27.62,1.63,3.4,4.04,7.84,8.45,7.58,4-.23,7.03-4.01,8.68-7.32,2.1-4.22,3-9.25,6.14-12.9l-2.51-1.46c-1.6,9.67-.06,19.99,5.02,28.44,.52,.87,1.63,.94,2.36,.3,6.98-6.19,12.44-13.94,16.37-22.38l-2.8-.76c.07,3.18,.46,6.37,1.22,9.46,.65,2.68,1.47,5.6,3.09,7.89,1.34,1.9,3.43,3.53,5.86,2.63s3.84-3.95,5.17-6.02c1.73-2.68,3.4-5.41,5.19-8.04,.26-.38,.66-1.09,1.17-1.18,.62-.11,1.35,.49,1.79,.82,1.08,.83,1.99,1.9,2.87,2.94,3.04,3.61,7.38,9.45,12.9,7.18,2.97-1.22,4.65-4.58,6.35-7.1,2.12-3.13,4.24-6.26,6.36-9.4l-2.74-.36c1.13,5.22,2.87,10.27,5.21,15.08,.47,.97,2.13,.99,2.59,0,4.34-9.32,6.78-19.37,7.44-29.62h-3c.69,8.51,1.66,18.3-3.32,25.81-2.29,3.45-5.66,4.91-9.73,5.01-4.33,.11-8.63-.18-12.96,.06-17.91,1.02-35.23,6.06-52.91,8.69-9.9,1.47-20.04,2.13-29.99,.74,.35,.62,.7,1.23,1.05,1.85,1.25-7.6,.87-15.39-1.28-22.8-.54-1.85-3.43-1.06-2.89,.8,2,6.87,2.45,14.15,1.28,21.2-.12,.72,.18,1.72,1.05,1.85,18.61,2.61,37.06-1.53,55.24-5.14,9.19-1.83,18.43-3.55,27.79-4.13,4.56-.29,9.08,.01,13.63-.1,4.17-.11,8.07-1.35,10.87-4.57,6.87-7.92,5.98-19.53,5.19-29.24-.16-1.92-2.87-1.94-3,0-.62,9.69-2.93,19.29-7.03,28.11h2.59c-2.22-4.57-3.83-9.4-4.9-14.36-.29-1.35-2.07-1.36-2.74-.36-1.71,2.52-3.41,5.04-5.12,7.56-1.5,2.22-2.88,4.81-4.78,6.72-4.11,4.12-8.94-3.16-11.28-5.88-1.48-1.73-3.39-3.87-5.76-4.26-2.72-.44-4.11,1.97-5.37,3.93-1.58,2.44-3.15,4.88-4.73,7.33-.77,1.19-2.52,5.2-4.43,3.86-2.1-1.47-2.89-4.83-3.52-7.13-.88-3.2-1.32-6.47-1.4-9.79-.03-1.38-2.13-2.18-2.8-.76-3.83,8.23-9.09,15.73-15.9,21.77l2.36,.3c-4.64-7.73-6.18-17.27-4.71-26.13,.22-1.32-1.43-2.71-2.51-1.46-2.48,2.88-3.75,6.45-5.1,9.95-1.27,3.27-2.85,7.27-6.2,8.95-3.62,1.81-5.78-2.61-7.07-5.26-1.87-3.84-3.41-7.83-4.65-11.91-1.45-4.76-2.5-9.65-3.13-14.59-.24-1.86-3.12-1.97-3,0,.7,11.6,.66,23.23-.13,34.82-.13,1.93,2.87,1.92,3,0h0Z"/>
    </g>
    <g>
      <path class="cls-8" d="M1689.79,763.83c6.06-5.78,11.1-12.63,14.81-20.14-.62,6.27-.69,12.59-.22,18.87,.16,2.05,.61,4.46,2.48,5.31,2.12,.97,4.45-.74,6.1-2.39,5.99-6.03,11.1-12.93,15.1-20.43,.53,5.07-.77,10.21-.18,15.28s4.15,10.51,9.25,10.43c4.03-.06,7.13-3.46,9.49-6.72,5.77-7.97,10.34-16.81,13.51-26.13-4.85,9.03-7.09,19.44-6.39,29.66,11.93-14.49,10.44-35.98,19.66-52.33-5.2,18-7.62,36.79-7.13,55.52,6.54-2.59,11.41-8.97,12.18-15.97-.58,4.06-1.15,8.25-.14,12.22s4.01,7.74,8.06,8.36c4.17-12.95,8.35-25.89,12.52-38.84-.17,15.33,.33,32.43,11.12,43.33-15.09-3.78-30.19-7.56-45.28-11.35-8.75-2.19-17.6-4.4-26.61-4.4-4.97,0-9.92,.66-14.85,1.33-7.69,1.04-15.38,2.08-23.08,3.12-2.48,.33-5.07,.66-7.41-.21s-4.3-3.34-3.68-5.76"/>
      <path class="cls-8" d="M1690.85,764.89c6.15-5.89,11.25-12.82,15.04-20.44l-2.8-.76c-.43,4.5-.61,9.02-.49,13.54,.06,2.1,.11,4.23,.37,6.31,.2,1.57,.58,3.18,1.62,4.42,2.66,3.19,6.71,1.16,9.14-1.16,2.93-2.8,5.56-5.97,8.02-9.19,2.85-3.73,5.38-7.69,7.6-11.82l-2.8-.76c.52,5.61-1.08,11.3,.07,16.86,.81,3.94,3.24,8.02,7.06,9.65,4.43,1.89,8.81-.46,11.82-3.76,3.44-3.77,6.18-8.37,8.66-12.81,2.97-5.32,5.44-10.92,7.41-16.68,.55-1.61-1.95-2.65-2.74-1.16-4.95,9.31-7.28,19.89-6.6,30.42,.07,1.16,1.67,2.15,2.56,1.06,9.53-11.7,10.8-27.13,15.1-41.06,1.24-4.01,2.75-7.91,4.8-11.57l-2.74-1.16c-5.22,18.14-7.65,37.05-7.19,55.92,.02,.87,.96,1.83,1.9,1.45,7.27-2.96,12.35-9.62,13.28-17.41,.2-1.66-2.71-2.07-2.95-.4-.7,4.89-1.46,10.15,.48,14.87,1.49,3.65,4.48,6.85,8.49,7.56,.83,.15,1.58-.21,1.85-1.05,4.17-12.95,8.35-25.89,12.52-38.84l-2.95-.4c-.17,15.25,.19,32.76,11.55,44.39l1.46-2.51c-16.27-4.08-32.52-8.22-48.8-12.22-7.85-1.93-15.86-3.64-23.97-3.58s-16.29,1.59-24.34,2.68c-4.66,.63-9.32,1.31-13.98,1.89-2.04,.25-4.35,.53-6.28-.34-1.43-.64-2.83-2.17-2.49-3.85,.38-1.88-2.51-2.69-2.89-.8-.68,3.33,1.51,6.35,4.57,7.54,3.7,1.44,8.03,.32,11.81-.19,8.63-1.17,17.27-2.52,25.93-3.44,4.24-.45,8.48-.63,12.74-.31s8.51,1.09,12.7,2.02c8.49,1.87,16.89,4.14,25.32,6.25,9.63,2.41,19.27,4.83,28.9,7.24,1.45,.36,2.52-1.42,1.46-2.51-10.75-11-10.83-27.88-10.68-42.27,.02-1.73-2.44-1.98-2.95-.4-4.17,12.95-8.35,25.89-12.52,38.84l1.85-1.05c-3.22-.57-5.58-3.12-6.65-6.12-1.44-4.03-.81-8.48-.22-12.61l-2.95-.4c-.76,6.33-5.18,12.12-11.08,14.52l1.9,1.45c-.46-18.62,1.93-37.22,7.08-55.12,.47-1.62-1.91-2.65-2.74-1.16-7.21,12.9-7.82,28.05-13.35,41.57-1.53,3.73-3.52,7.32-6.07,10.46l2.56,1.06c-.64-10.01,1.48-20.04,6.19-28.91l-2.74-1.16c-3.1,9.05-7.52,17.63-13.1,25.41-2.11,2.94-5.27,6.91-9.38,6.29-3.6-.55-5.79-4.36-6.57-7.59-1.31-5.39,.44-11.11-.07-16.57-.13-1.37-2.03-2.18-2.8-.76-2.15,4-4.59,7.84-7.33,11.47-1.42,1.89-2.94,3.7-4.52,5.46-1.4,1.56-2.83,3.32-4.56,4.53-1.51,1.06-3.24,1.31-4-.64s-.63-4.36-.71-6.42c-.2-5-.04-10.01,.44-15,.14-1.48-2.15-2.05-2.8-.76-3.69,7.41-8.6,14.1-14.58,19.83-1.4,1.34,.73,3.46,2.12,2.12h0Z"/>
    </g>
    <g>
      <path class="cls-8" d="M1883.38,764.39c5.17-8.76,9.07-18.26,11.55-28.13-1.81,7.96-2.34,16.21-1.57,24.34,.14,1.5,1.1,3.5,2.49,2.95,.66-.26,.96-1.01,1.19-1.67,2.08-5.98,4.16-11.96,6.25-17.95,2.37,6.52-.21,13.69-.29,20.62-.06,5.11,1.29,10.23,3.85,14.64-10.87-2.64-21.84-4.87-32.87-6.67,5.44-1.33,10.2-4.88,13.54-9.38,3.34-4.5,5.34-9.89,6.38-15.4"/>
      <path class="cls-8" d="M1884.68,765.15c5.22-8.89,9.17-18.49,11.7-28.49l-2.89-.8c-1.08,4.82-1.73,9.73-1.92,14.67-.09,2.4-.06,4.8,.07,7.2,.11,1.96,.06,4.17,1.2,5.87,.99,1.48,2.91,2.11,4.37,.84,.67-.57,.98-1.37,1.28-2.17,.45-1.22,.85-2.46,1.28-3.68,1.65-4.75,3.31-9.51,4.96-14.26h-2.89c2.07,5.99,.13,12.31-.27,18.41-.4,6.01,1,11.99,3.99,17.21l1.69-2.2c-10.87-2.64-21.84-4.86-32.87-6.67v2.89c11.93-3.03,18.77-14.4,20.97-25.82,.36-1.89-2.53-2.69-2.89-.8-2,10.4-7.92,20.94-18.87,23.73-1.36,.34-1.5,2.65,0,2.89,11.04,1.81,22,4.03,32.87,6.67,1.27,.31,2.35-1.05,1.69-2.2-3-5.25-4.03-11.08-3.46-17.06,.57-5.94,2.07-12,.05-17.84-.49-1.42-2.4-1.42-2.89,0-1.33,3.83-2.67,7.67-4,11.5-.64,1.84-1.28,3.68-1.92,5.52-.14,.4-.36,.82-.44,1.24-.11,.59-.26,.21-.01,.33-.46-.23-.58-1.35-.64-1.76-.52-3.84-.41-7.89-.17-11.75,.25-4.03,.83-8.01,1.71-11.95,.42-1.88-2.42-2.68-2.89-.8-2.47,9.76-6.3,19.09-11.4,27.77-.98,1.67,1.61,3.18,2.59,1.51h0Z"/>
    </g>
    <path class="cls-3" d="M1615.66,772.2c1.93,0,1.93-3,0-3s-1.93,3,0,3h0Z"/>
    <g>
      <path class="cls-8" d="M1613.94,770.72c-1.97-.28-4.02,.01-5.84,.83,5.02-1.77,8.6-6.42,10.4-11.43,1.8-5.01,2.08-10.42,2.35-15.74-.33,6.73-.66,13.56,.82,20.14,1.47,6.58,5,12.99,10.78,16.45-9.29-3.17-18.59-6.35-27.88-9.52,4.77-1.11,9.65-1.77,14.54-1.98"/>
      <path class="cls-8" d="M1613.94,769.22c-2.3-.28-4.48,.13-6.6,1.04-1.55,.66-.44,3.33,1.16,2.74,4.92-1.81,8.58-5.82,10.67-10.56,2.51-5.68,2.87-11.94,3.17-18.05h-3c-.38,7.64-.75,15.54,1.51,22.95,1.84,6.03,5.39,11.6,10.83,14.94l1.16-2.74c-9.29-3.17-18.59-6.35-27.88-9.52v2.89c4.66-1.07,9.37-1.71,14.14-1.92,1.92-.09,1.93-3.09,0-3-5.03,.22-10.03,.9-14.94,2.03-1.53,.35-1.32,2.44,0,2.89,9.29,3.17,18.59,6.35,27.88,9.52,1.65,.56,2.57-1.87,1.16-2.74-11.88-7.29-11.45-23.14-10.85-35.3,.1-1.93-2.9-1.92-3,0-.46,9.18-1.44,21.96-11.64,25.72l1.16,2.74c1.62-.69,3.35-.84,5.08-.63,1.91,.23,1.9-2.77,0-3h0Z"/>
    </g>
    <g>
      <path class="cls-8" d="M1522.58,779.21c10.03-1.36,20.19-3.76,28.54-9.47s14.61-15.31,14.04-25.41c-.02,7.42-.04,14.85-.06,22.27,0,.81,0,1.65-.34,2.39-.93,2.12-3.76,2.4-6.08,2.43-10.26,.14-20.49,1.63-30.36,4.41"/>
      <path class="cls-8" d="M1522.98,780.65c16.02-2.2,33.85-7.87,41.13-23.77,1.81-3.94,2.77-8.21,2.56-12.56-.09-1.92-3-1.94-3,0-.01,4.21-.02,8.41-.03,12.62,0,2.14-.01,4.29-.02,6.43,0,.99,0,1.98,0,2.97,0,.82,.09,1.79-.48,2.46-.78,.91-2.35,1.02-3.47,1.09-1.92,.11-3.85,.09-5.77,.2-4.05,.22-8.1,.66-12.11,1.28-4.67,.73-9.3,1.74-13.85,3.02-1.86,.52-1.07,3.41,.8,2.89,8.6-2.4,17.44-3.85,26.36-4.25,3.12-.14,7.28,.43,9.84-1.8,1.38-1.2,1.66-2.89,1.68-4.63,.02-2.23,.01-4.45,.02-6.68,.01-5.2,.03-10.39,.04-15.59h-3c.35,7.25-2.84,14.09-7.73,19.32-5.38,5.75-12.61,9.24-20.09,11.38-4.47,1.28-9.05,2.1-13.65,2.74-.81,.11-1.23,1.14-1.05,1.85,.23,.87,1.05,1.16,1.85,1.05h0Z"/>
    </g>
  </g>
  <g id="lost">
    <rect class="cls-5" x="200.5" y="102.5" width="1121" height="686" rx="4.32" ry="4.32"/>
    <g>
      <path d="M431.15,231.29c-1.67-14.22-2.35-25.8-2.06-34.73-.2-4.22,1.52-8.24,5.15-12.07,3.43-3.63,7.01-5.64,10.74-6.03,4.12-.29,6.77,2.01,7.95,6.92,.78,2.75,1.77,5.94,2.94,9.57,1.18,3.63,2.3,7.46,3.38,11.48,1.08-1.47,2.8-4.07,5.15-7.8,2.35-3.73,4.56-7.06,6.62-10.01,5-7.16,9.42-12.16,13.24-15.01,3.73-1.47,6.94-1.89,9.64-1.25,2.7,.64,4.66,1.64,5.89,3.02,1.23,1.38,1.69,3.38,1.4,6.03-.2,6.18-4.91,15.89-14.13,29.14-2.16,3.04-4.34,6.57-6.55,10.6-2.21,4.02-4.76,8.51-7.65,13.47-2.89,4.96-5.67,9.88-8.31,14.79-6.08,11.09-10.84,21.63-14.27,31.64,.1-.2,.49,.03,1.18,.66,.69,.64,1.33,1.55,1.91,2.72,1.57,2.94,1.42,5.39-.44,7.36-4.71,4.9-10.55,7.65-17.51,8.24-6.38,.49-11.87-.69-16.48-3.53-4.61-2.65-6.13-5.94-4.56-9.86h-.44c2.16-5.59,4.61-10.86,7.36-15.82,2.75-4.95,5.59-10.08,8.54-15.38l6.62-11.77c-1.67,.39-3.04-.78-4.12-3.53-.79-2.26-1.18-5.2-1.18-8.83Z"/>
      <path d="M515.62,189.64c6.18-7.06,13.05-11.48,20.6-13.24,5.2-1.27,10.1-1.08,14.72,.59,3.63-3.83,8.34-5.2,14.13-4.12,5.3,.98,9.81,3.97,13.54,8.98,.2,.69,.61,1.72,1.25,3.09,.64,1.38,1.25,2.89,1.84,4.56,4.32,10.01,4.66,23.15,1.03,39.44-4.51,20.21-12.51,37.33-23.99,51.36-3.53,4.32-7.5,7.9-11.92,10.74-7.06,5.39-15.5,7.8-25.31,7.21-6.08-.29-11.18-1.82-15.3-4.56-16.38-8.14-21.73-25.11-16.04-50.92,4.71-21.19,13.19-38.9,25.46-53.12Zm1.77,78.14l-.15,.88,.29,1.62c.59,3.04,1.57,5.37,2.94,6.99,1.37,1.62,2.5,2.63,3.38,3.02,.98-.78,1.96-1.52,2.94-2.21,.98-.69,1.86-1.52,2.65-2.5,6.67-8.24,11.87-19.03,15.6-32.38,3.73-13.34,5.1-25.7,4.12-37.08-3.83,4.91-7.85,10.55-12.07,16.92-4.22,6.38-7.56,11.82-10.01,16.33-5.59,10.5-8.83,19.97-9.71,28.4Z"/>
      <path d="M630.25,180.52v.29c0,.1,.02,.15,.07,.15,.05,0,.07,.05,.07,.15v.29h.15l.88,2.35c.98,2.85-1.57,11.68-7.65,26.49-6.48,15.8-9.47,28.11-8.98,36.94,1.08,6.28,6.33,1.23,15.75-15.16,7.45-12.75,14.67-26.73,21.63-41.94,.88-2.06,1.81-4.19,2.8-6.4,.98-2.21,2.21-4.05,3.68-5.52,3.24-3.53,7.16-4.46,11.77-2.8,1.57-1.86,3.41-3.14,5.52-3.83,2.11-.69,4.12-.83,6.03-.44,1.91,.39,3.56,1.3,4.93,2.72,1.37,1.42,2.11,3.31,2.21,5.67,.29,1.96-.71,6.62-3.02,13.98-2.31,7.36-4.44,14.08-6.4,20.16-1.96,6.08-3.97,12.71-6.03,19.87-5,16.97-8.98,32.96-11.92,47.97-.1,3.14-1.45,5.74-4.05,7.8-2.6,2.06-5.5,3.41-8.68,4.05-3.19,.64-6.21,.52-9.05-.37-3.44-.98-5.25-3.44-5.45-7.36,0-1.08-.05-2.16-.15-3.24,.2,3.34-2.21,6.18-7.21,8.54-1.38,.69-2.65,1.32-3.83,1.91-6.87,2.06-14.08,1.62-21.63-1.32-3.53-1.47-6.7-3.46-9.49-5.96-2.8-2.5-4.73-5.47-5.81-8.9-3.44-10.99-2.8-25.41,1.91-43.27,1.96-7.65,4.36-15.11,7.21-22.37,2.84-7.26,4.93-12.51,6.25-15.75,1.33-3.24,2.28-5.47,2.87-6.7,.59-1.23,1.23-2.43,1.91-3.61,1.67-3.33,3.09-5.59,4.27-6.77l1.77-1.62c.2-.2,.39-.32,.59-.37,.2-.05,.44-.17,.74-.37,.78-.49,1.62-.83,2.5-1.03l2.06-.44h.88c2.84-.39,5.3,.2,7.36,1.77,0,.1,.1,.15,.29,.15l1.18,1.03,.44,.44,.44,.59c0,.1,.02,.15,.07,.15s.07,.05,.07,.15l.15,.15v.29c.1,0,.15,.05,.15,.15v.15c.1,.1,.2,.15,.29,.15v.15c0,.1,.02,.15,.07,.15,.05,0,.07,.03,.07,.07,0,.05,.05,.12,.15,.22v.15c0,.1,.05,.2,.15,.29Zm3.97,98.01v-.44c-.1,.1-.15,.49-.15,1.18,0-.29,.05-.49,.15-.59v-.15Z"/>
      <path d="M771.67,295.08c-1.86,.05-3.75,.12-5.67,.22-1.91,.1-4.54,.15-7.87,.15s-8.34-.1-15.01-.29c-1.57,.1-3.14,.15-4.71,.15s-3.04-.29-4.42-.88c-3.04-1.28-5.1-4.22-6.18-8.83-.49-2.16-1.06-3.68-1.69-4.56-.64-.88-1.15-1.72-1.54-2.5-.98-1.57-.91-4.17,.22-7.8,1.13-3.63,2.58-8.12,4.34-13.46,1.77-5.35,3.78-11.01,6.03-17,5.3-14.22,10.05-25.51,14.27-33.85,1.67-3.73,3.11-6.96,4.34-9.71,1.23-2.75,2.33-5.12,3.31-7.14,.98-2.01,1.47-3.06,1.47-3.16,.98-3.73,4.76-6.87,11.33-9.42,6.38-2.65,12.16-3.33,17.37-2.06,5.79,1.47,8.34,5.3,7.65,11.48-1.38,6.08-3.41,12.17-6.11,18.25-2.7,6.08-5.76,12.46-9.2,19.13-3.44,6.67-7.16,13.74-11.18,21.19-4.02,7.46-8,15.55-11.92,24.28-.1,.39,.1,.74,.59,1.03,1.27-.1,3.07-.49,5.37-1.18,2.3-.69,4.71-1.3,7.21-1.84,2.5-.54,4.98-.81,7.43-.81s4.51,.64,6.18,1.91c-.1,1.77,.34,3.16,1.32,4.19,.98,1.03,1.96,2.04,2.94,3.02,2.45,2.55,2.65,5.94,.59,10.15-1.96,4.12-5.5,6.92-10.6,8.39-2.06,.59-4.02,.91-5.89,.96Z"/>
      <path d="M825.09,189.64c6.18-7.06,13.05-11.48,20.6-13.24,5.2-1.27,10.1-1.08,14.72,.59,3.63-3.83,8.34-5.2,14.13-4.12,5.3,.98,9.81,3.97,13.54,8.98,.2,.69,.61,1.72,1.25,3.09,.64,1.38,1.25,2.89,1.84,4.56,4.32,10.01,4.66,23.15,1.03,39.44-4.51,20.21-12.51,37.33-23.99,51.36-3.53,4.32-7.5,7.9-11.92,10.74-7.06,5.39-15.5,7.8-25.31,7.21-6.08-.29-11.18-1.82-15.3-4.56-16.38-8.14-21.73-25.11-16.04-50.92,4.71-21.19,13.19-38.9,25.46-53.12Zm1.77,78.14l-.15,.88,.29,1.62c.59,3.04,1.57,5.37,2.94,6.99,1.37,1.62,2.5,2.63,3.38,3.02,.98-.78,1.96-1.52,2.94-2.21,.98-.69,1.86-1.52,2.65-2.5,6.67-8.24,11.87-19.03,15.6-32.38,3.73-13.34,5.1-25.7,4.12-37.08-3.83,4.91-7.85,10.55-12.07,16.92-4.22,6.38-7.56,11.82-10.01,16.33-5.59,10.5-8.83,19.97-9.71,28.4Z"/>
      <path d="M913.68,295.6c-5,.2-9.59-.42-13.76-1.84-4.17-1.42-7.56-3.36-10.15-5.81-2.6-2.45-4.24-5.32-4.93-8.61-.68-3.29-.1-6.65,1.77-10.08,2.55-4.12,7.65-5.35,15.3-3.68,5.79,1.18,9.79,1.82,11.99,1.91,2.21,.1,4.09-.2,5.67-.88,7.16-2.35,11.18-4.9,12.07-7.65,.59-2.06-.69-4.46-3.83-7.21-1.28-1.18-2.7-2.35-4.27-3.53-1.57-1.18-2.89-2.35-3.97-3.53-4.91-3.63-8.76-7.82-11.55-12.58-2.8-4.76-3.95-9.93-3.46-15.53,.49-5.59,1.42-10.23,2.8-13.91,1.37-3.68,3.09-6.94,5.15-9.79,3.63-5,8.34-9.07,14.13-12.21,6.67-3.43,12.02-5.64,16.04-6.62,7.95-1.77,15.99-1.91,24.13-.44,2.75,.49,5.1,1.42,7.06,2.8,1.96,1.38,3.92,2.8,5.89,4.27,3.43,3.44,4.27,6.92,2.5,10.45-.69,1.57-1.77,2.85-3.24,3.83-1.47,.98-3.04,1.52-4.71,1.62,.2,2.65-.29,4.61-1.47,5.89-2.26,2.26-6.18,3.73-11.77,4.42-8.05-.59-13.49-.15-16.33,1.32-3.34,1.77-4.56,5.59-3.68,11.48,.2,1.28,1,2.6,2.43,3.97,1.42,1.38,3.09,2.85,5,4.41,1.91,1.57,3.92,3.34,6.03,5.3,2.11,1.96,3.95,4.22,5.52,6.77,5.49,9.03,5.05,19.57-1.32,31.64-4.71,9.03-12.75,15.79-24.13,20.31-5.89,2.35-12.85,3.53-20.9,3.53Z"/>
      <path d="M1021.77,249.32c-2.7,7.7-5.42,15.08-8.17,22.15-2.75,7.06-5.03,12.44-6.84,16.11-1.82,3.68-3.41,6.2-4.78,7.58-1.38,1.37-2.77,2.3-4.19,2.8-1.42,.49-2.85,.69-4.27,.59-1.42-.1-2.87-.2-4.34-.29-8.24-1.28-10.79-7.21-7.65-17.81,2.06-8.44,3.73-15.33,5-20.68,1.27-5.35,2.33-9.76,3.16-13.24,.83-3.48,1.55-6.38,2.13-8.68,.59-2.3,1.23-4.58,1.91-6.84,.69-2.26,1.55-4.81,2.58-7.65,1.03-2.84,2.38-6.62,4.05-11.33-3.73,.49-7.06,.1-10.01-1.18-4.32-1.86-6.08-5.89-5.3-12.07,.39-2.84,1.91-5.49,4.56-7.95,1.37-1.27,2.99-2.65,4.86-4.12,3.83-3.04,11.43-6.28,22.81-9.71,11.77-3.53,21.88-5.2,30.32-5,2.25-.39,4.58-.12,6.99,.81,2.4,.93,4.34,2.18,5.81,3.75,1.47,1.57,2.23,3.29,2.28,5.15,.05,1.86-1.15,3.53-3.61,5-1.18,.79-2.01,2.09-2.5,3.9-.49,1.82-1.03,3.73-1.62,5.74-.59,2.01-1.45,3.85-2.58,5.52-1.13,1.67-2.92,2.65-5.37,2.94-1.28,.69-3.07,1.18-5.37,1.47-2.31,.29-3.83,.52-4.56,.66-.74,.15-1.15,.42-1.25,.81-1.77,5.2-3.88,11.5-6.33,18.91-2.45,7.41-5.03,14.96-7.73,22.66Zm-19.94-38.92c-.2,0-.29,.03-.29,.07s.1,.07,.29,.07v-.15Z"/>
      <path d="M1078.5,291.92c-1.08,4.02-3.31,7.04-6.7,9.05-3.38,2.01-6.99,3.09-10.82,3.24-3.83,.15-7.38-.59-10.67-2.21-3.29-1.62-5.35-4.12-6.18-7.5s-.29-6.28,1.62-8.68,4.19-3.97,6.84-4.71c2.65-.74,5.76-1.25,9.34-1.55,3.58-.29,6.84-.1,9.79,.59,2.94,.69,5.2,1.96,6.77,3.83,1.57,1.86,1.57,4.51,0,7.95Zm35.17-110.96c.39,1.18,.83,1.99,1.32,2.43,.49,.44,.83,.76,1.03,.96,.49,.49,.24,1.38-.74,2.65-.88,1.77-2.11,3.83-3.68,6.18-2.85,4.22-4.66,7.31-5.44,9.27-4.02,8.05-7.16,15.43-9.42,22.15-2.26,6.72-4.17,12.78-5.74,18.17-1.57,5.4-3.09,10.15-4.56,14.27-1.77,4.81-3.83,8.39-6.18,10.74-1.18,1.96-3.29,3.29-6.33,3.97-3.04,.69-6.13,.81-9.27,.37-3.14-.44-5.81-1.45-8.02-3.02-2.21-1.57-3.02-3.63-2.43-6.18,1.08-9.22,2.72-16.97,4.93-23.25,2.21-6.28,4.12-11.48,5.74-15.6,1.62-4.12,3.02-7.82,4.19-11.11,1.18-3.29,2.28-6.13,3.31-8.54,1.03-2.4,2.23-4.95,3.61-7.65,1.37-2.7,2.87-5.44,4.49-8.24,1.62-2.8,3.26-5.37,4.93-7.73,3.83-5.39,7.06-8.61,9.71-9.64,2.65-1.03,5.32-1.64,8.02-1.84,2.7-.2,5.05,.1,7.06,.88,2.01,.79,3.41,2.06,4.19,3.83,.78,1.77,.54,4.07-.74,6.92Z"/>
    </g>
  </g>
  <g id="skyer-2" data-name="skyer">
    <g class="cls-9">
      <path class="cls-2" d="M1673.58,193.38c4.84,5.29,12.59,7.73,19.59,6.16,5-1.12,9.63-4.1,14.74-3.99,4.55,.1,8.63,2.62,12.78,4.47,4.16,1.85,9.25,3,13.07,.52,1.66-1.08,2.87-2.72,4.37-4.01,5.02-4.32,12.52-4.08,18.94-2.47s12.69,4.38,19.32,4.33c1.93-.01,3.9-.28,5.61-1.18,1.87-.98,3.28-2.64,4.91-3.98,2.96-2.43,6.74-3.84,10.57-3.93,3.9-.09,7.96,1.1,11.59-.31,5.92-2.3,8.89-10.83,15.23-10.6,2.03,.08,4.43,1.01,5.85-.44,1.34-1.38,.51-3.72-.7-5.21-3.16-3.91-8.51-5.91-13.46-5.05-6.31,1.1-11.76,6.42-18.14,5.76-4.39-.46-7.93-3.67-11.9-5.61-7.13-3.49-15.51-2.82-23.41-2.02-3.83,.39-7.77,.78-11.48-.25-3.86-1.08-7.15-3.61-10.94-4.93-5-1.74-10.75-1.17-15.3,1.52-3.33,1.97-6.13,5.02-9.88,5.97-3.97,1-8.09-.58-11.88-2.14-3.46-1.42-6.99-2.85-10.71-3.1s-7.75,.86-10.1,3.76c-2.15,2.65-2.89,6.64-5.94,8.17-2.31,1.16-5.07,.42-7.66,.33-4.92-.17-9.85,2.31-12.65,6.36-1.76,2.55-3.02,5.91-5.97,6.86-1.27,.41-2.63,.28-3.96,.26-8.59-.14-16.47,4.39-23.85,8.79-1.35,.8-2.88,1.94-2.74,3.51,.16,1.82,2.57,2.59,4.32,2.07s3.18-1.82,4.88-2.48c6.07-2.33,12.04,4.05,18.52,4.5,4.92,.34,9.33-2.74,13.46-5.43s9.12-5.21,13.8-3.66"/>
      <path class="cls-2" d="M1672.52,194.44c5.12,5.48,12.94,8.05,20.31,6.7,4.2-.77,7.96-2.96,12.14-3.81s8.23,.77,12.06,2.62,7.4,3.51,11.53,3.52c1.95,0,3.94-.43,5.63-1.42s2.91-2.46,4.28-3.78c5.95-5.76,15.07-3.77,22.14-1.65,7.64,2.29,17.58,6.06,24.52,.22,1.62-1.36,3.04-2.87,4.9-3.93,1.73-.99,3.64-1.65,5.61-1.95,4.32-.65,8.71,.96,12.99-.23,3.15-.88,5.51-3.23,7.69-5.55,1.83-1.96,3.82-4.49,6.56-5.14,3.06-.73,7.31,1.78,9.1-2.12,1.59-3.47-1.79-7.04-4.35-8.9-2.97-2.16-6.84-3.27-10.51-2.95-3.94,.35-7.41,2.25-10.92,3.89s-7.04,2.77-10.81,1.38c-3.76-1.39-6.86-4.13-10.59-5.61-8.18-3.25-16.99-1.68-25.47-1.08-2.31,.17-4.68,.22-6.95-.27-2.15-.47-4.1-1.43-6.03-2.45-3.7-1.94-7.32-3.61-11.58-3.74-3.98-.12-7.99,.97-11.34,3.11-3.17,2.03-6.07,5.19-9.99,5.62-4.52,.5-8.9-2.02-13-3.56s-8.31-2.53-12.59-1.59c-3.65,.8-6.46,3.01-8.25,6.26-.76,1.38-1.38,2.91-2.37,4.15-1.3,1.62-3.08,1.9-5.06,1.78s-4.07-.41-6.16-.12c-1.82,.25-3.57,.82-5.21,1.64-3.43,1.72-5.62,4.48-7.56,7.69-.83,1.37-1.76,3.01-3.31,3.68-1.89,.82-4.41,.22-6.43,.4-4.25,.38-8.28,1.73-12.14,3.51-1.94,.89-3.83,1.9-5.69,2.95s-3.69,1.98-5.34,3.21c-1.41,1.06-2.58,2.57-2.27,4.43,.25,1.53,1.46,2.6,2.89,3.06,3.84,1.24,6.23-2.4,9.75-2.84s6.86,1.76,9.9,3.08c3.54,1.54,7.1,2.45,10.94,1.44,4.08-1.08,7.47-3.68,11-5.86s7.48-4.07,11.56-2.82c1.85,.57,2.64-2.33,.8-2.89-8.47-2.6-14.89,4.86-21.97,7.92-3.6,1.56-6.95,1.25-10.49-.24-3.13-1.31-6.14-3.12-9.55-3.56-1.61-.21-3.23-.07-4.74,.53-1.66,.66-3.2,2.18-4.98,2.47-.9,.15-2.68-.23-1.94-1.45,.36-.6,1.07-1.01,1.65-1.36,.92-.57,1.86-1.11,2.79-1.65,3.62-2.1,7.33-4.12,11.31-5.46,1.91-.64,3.88-1.16,5.89-1.39s4.09,.03,6.13-.19c3.75-.41,5.61-3.4,7.4-6.35,1.88-3.1,4.51-5.47,8.03-6.53,1.76-.53,3.52-.65,5.35-.5,1.99,.16,4.02,.48,5.98-.08,3.42-.97,4.82-4.12,6.38-6.98,1.73-3.2,4.53-5.01,8.19-5.27,4.25-.29,8.31,1.38,12.17,2.96s8.13,3.21,12.45,2.33c3.71-.75,6.5-3.45,9.53-5.5,3.19-2.14,6.88-3.21,10.72-3.01,4.16,.22,7.55,2.31,11.19,4.1,3.93,1.94,7.9,2.64,12.27,2.39s8.27-.86,12.44-.97,8.24,.2,12.13,1.59c3.7,1.32,6.72,3.92,10.3,5.47s6.96,1.55,10.48,.33c3.5-1.21,6.65-3.26,10.18-4.39s7.15-.87,10.37,.88c1.5,.82,2.95,1.93,3.95,3.33,.72,1.01,1.62,3.13-.29,3.34-1.67,.18-3.33-.5-5.02-.3-1.37,.16-2.67,.65-3.83,1.38-2.47,1.57-4.3,3.91-6.32,5.96-.98,1-2.01,1.96-3.22,2.68-1.62,.97-3.41,1.23-5.28,1.21-4.2-.06-8.15-.82-12.26,.5-1.81,.58-3.56,1.42-5.11,2.52-1.66,1.18-3.01,2.71-4.63,3.93-3.29,2.47-7.92,1.96-11.72,1.2-7.86-1.59-15.31-5.37-23.51-4.75-3.53,.27-6.96,1.32-9.76,3.55-1.49,1.19-2.64,2.79-4.18,3.92s-3.33,1.49-5.18,1.43c-4.03-.14-7.61-2.19-11.18-3.84-3.61-1.67-7.34-2.95-11.37-2.42s-7.69,2.49-11.6,3.59c-3.52,.99-7.19,.95-10.69-.09s-6.32-2.84-8.69-5.38c-1.32-1.41-3.44,.71-2.12,2.12h0Z"/>
    </g>
    <g class="cls-9">
      <path class="cls-2" d="M62.45,231.03c2.91,5.24,7.58,7.65,11.79,6.1,3.01-1.1,5.79-4.06,8.87-3.95,2.74,.1,5.19,2.59,7.69,4.43,2.5,1.83,5.56,2.97,7.86,.52,1-1.07,1.72-2.69,2.63-3.97,3.02-4.27,7.53-4.04,11.4-2.44,3.87,1.6,7.64,4.33,11.62,4.29,1.16-.01,2.35-.28,3.38-1.17,1.12-.97,1.97-2.61,2.95-3.94,1.78-2.41,4.06-3.8,6.36-3.9,2.34-.09,4.79,1.09,6.98-.31,3.56-2.27,5.35-10.72,9.17-10.49,1.22,.07,2.67,1,3.52-.43,.81-1.36,.3-3.68-.42-5.16-1.9-3.87-5.12-5.85-8.1-5-3.8,1.09-7.08,6.36-10.91,5.7-2.64-.45-4.77-3.63-7.16-5.55-4.29-3.46-9.33-2.79-14.09-2-2.31,.39-4.68,.77-6.91-.25-2.32-1.07-4.3-3.58-6.58-4.88-3.01-1.72-6.47-1.16-9.21,1.5-2.01,1.95-3.69,4.97-5.94,5.91-2.39,.99-4.87-.58-7.15-2.12-2.08-1.4-4.2-2.82-6.45-3.07s-4.66,.85-6.08,3.72c-1.3,2.62-1.74,6.57-3.57,8.08-1.39,1.15-3.05,.42-4.61,.33-2.96-.17-5.93,2.29-7.61,6.3-1.06,2.52-1.82,5.85-3.59,6.79-.76,.41-1.58,.28-2.38,.25-5.17-.14-9.91,4.35-14.35,8.7-.81,.79-1.73,1.92-1.65,3.47,.1,1.8,1.54,2.56,2.6,2.05s1.91-1.8,2.94-2.45c3.65-2.3,7.24,4,11.14,4.45,2.96,.34,5.61-2.71,8.1-5.37,2.49-2.66,5.49-5.16,8.3-3.62"/>
      <path class="cls-2" d="M61.81,232.08c3.08,5.43,7.78,7.96,12.22,6.63,2.52-.76,4.79-2.93,7.3-3.77s4.95,.77,7.26,2.59c2.19,1.73,4.45,3.47,6.94,3.48,1.17,0,2.37-.42,3.39-1.4,1-.97,1.75-2.43,2.58-3.75,3.58-5.7,9.07-3.74,13.32-1.64,4.6,2.27,10.58,6,14.76,.22,.98-1.35,1.83-2.84,2.95-3.89,1.04-.98,2.19-1.64,3.38-1.93,2.6-.64,5.24,.96,7.82-.23,1.89-.87,3.32-3.2,4.62-5.49,1.1-1.94,2.3-4.45,3.95-5.09,1.84-.72,4.4,1.76,5.48-2.1,.96-3.43-1.08-6.97-2.62-8.81-1.79-2.14-4.12-3.24-6.32-2.92-2.37,.34-4.46,2.22-6.57,3.85s-4.23,2.74-6.51,1.36-4.13-4.09-6.37-5.56c-4.92-3.22-10.22-1.67-15.33-1.07-1.39,.16-2.81,.22-4.18-.27-1.29-.46-2.47-1.42-3.63-2.42-2.23-1.92-4.41-3.58-6.97-3.71-2.39-.12-4.81,.96-6.82,3.08-1.91,2.01-3.65,5.13-6.01,5.56-2.72,.5-5.36-2-7.82-3.52s-5-2.51-7.57-1.58c-2.2,.79-3.89,2.98-4.96,6.2-.46,1.37-.83,2.88-1.43,4.11-.78,1.6-1.85,1.88-3.05,1.77s-2.45-.4-3.7-.12c-1.1,.25-2.15,.81-3.14,1.63-2.06,1.71-3.38,4.44-4.55,7.62-.5,1.36-1.06,2.98-1.99,3.64-1.13,.81-2.65,.22-3.87,.39-2.56,.38-4.98,1.72-7.31,3.47-1.17,.88-2.3,1.88-3.42,2.92s-2.22,1.96-3.21,3.18c-.85,1.05-1.55,2.54-1.37,4.38,.15,1.51,.88,2.57,1.74,3.03,2.31,1.23,3.75-2.38,5.87-2.81s4.13,1.74,5.96,3.05c2.13,1.53,4.27,2.43,6.58,1.42,2.46-1.07,4.49-3.65,6.62-5.8s4.5-4.03,6.96-2.79c1.11,.56,1.59-2.3,.48-2.86-5.1-2.57-8.96,4.82-13.22,7.84-2.17,1.54-4.18,1.23-6.31-.23-1.88-1.3-3.69-3.09-5.75-3.53-.97-.21-1.94-.07-2.85,.53-1,.65-1.93,2.15-3,2.45-.54,.15-1.62-.22-1.17-1.44,.22-.59,.65-1,.99-1.35,.55-.56,1.12-1.1,1.68-1.63,2.18-2.08,4.41-4.08,6.81-5.41,1.15-.64,2.34-1.14,3.54-1.38s2.46,.03,3.69-.19c2.25-.4,3.38-3.36,4.45-6.29,1.13-3.07,2.71-5.41,4.83-6.46,1.06-.53,2.12-.64,3.22-.49,1.2,.16,2.42,.47,3.6-.08,2.06-.96,2.9-4.07,3.84-6.91,1.04-3.16,2.72-4.96,4.93-5.21,2.55-.29,5,1.37,7.32,2.93s4.89,3.17,7.49,2.3c2.23-.75,3.91-3.42,5.74-5.44,1.92-2.12,4.14-3.18,6.45-2.98,2.5,.22,4.54,2.28,6.73,4.06,2.37,1.92,4.75,2.62,7.38,2.37s4.98-.85,7.48-.96,4.96,.2,7.3,1.57,4.04,3.88,6.2,5.42c2.06,1.47,4.19,1.53,6.31,.33s4-3.23,6.13-4.35c2.09-1.1,4.3-.86,6.24,.87,.9,.81,1.77,1.91,2.38,3.3,.44,1,.98,3.1-.18,3.3-1.01,.18-2-.49-3.02-.3-.82,.16-1.6,.64-2.3,1.37-1.49,1.55-2.58,3.87-3.81,5.9-.59,.99-1.21,1.94-1.94,2.65-.98,.96-2.05,1.22-3.18,1.19-2.52-.06-4.9-.81-7.37,.49-1.09,.57-2.14,1.41-3.08,2.49-1,1.16-1.81,2.68-2.79,3.89-1.98,2.45-4.77,1.94-7.05,1.18-4.73-1.57-9.21-5.32-14.15-4.7-2.13,.27-4.19,1.31-5.87,3.51-.9,1.18-1.59,2.76-2.51,3.88s-2,1.48-3.11,1.42c-2.43-.14-4.58-2.17-6.73-3.8s-4.42-2.92-6.84-2.39-4.63,2.46-6.98,3.55c-2.12,.98-4.32,.94-6.43-.09s-3.8-2.81-5.23-5.32c-.79-1.4-2.07,.7-1.28,2.1h0Z"/>
    </g>
    <g class="cls-9">
      <path class="cls-2" d="M804.58,852.38c4.84,5.29,12.59,7.73,19.59,6.16,5-1.12,9.63-4.1,14.74-3.99,4.55,.1,8.63,2.62,12.78,4.47,4.16,1.85,9.25,3,13.07,.52,1.66-1.08,2.87-2.72,4.37-4.01,5.02-4.32,12.52-4.08,18.94-2.47,6.42,1.61,12.69,4.38,19.32,4.33,1.93-.01,3.9-.28,5.61-1.18,1.87-.98,3.28-2.64,4.91-3.98,2.96-2.43,6.74-3.84,10.57-3.93,3.9-.09,7.96,1.1,11.59-.31,5.92-2.3,8.89-10.83,15.23-10.6,2.03,.08,4.43,1.01,5.85-.44,1.34-1.38,.51-3.72-.7-5.21-3.16-3.91-8.51-5.91-13.46-5.05-6.31,1.1-11.76,6.42-18.14,5.76-4.39-.46-7.93-3.67-11.9-5.61-7.13-3.49-15.51-2.82-23.41-2.02-3.83,.39-7.77,.78-11.48-.25-3.86-1.08-7.15-3.61-10.94-4.93-5-1.74-10.75-1.17-15.3,1.52-3.33,1.97-6.13,5.02-9.88,5.97-3.97,1-8.09-.58-11.88-2.14-3.46-1.42-6.99-2.85-10.71-3.1s-7.75,.86-10.1,3.76c-2.15,2.65-2.89,6.64-5.94,8.17-2.31,1.16-5.07,.42-7.66,.33-4.92-.17-9.85,2.31-12.65,6.36-1.76,2.55-3.02,5.91-5.97,6.86-1.27,.41-2.63,.28-3.96,.26-8.59-.14-16.47,4.39-23.85,8.79-1.35,.8-2.88,1.94-2.74,3.51,.16,1.82,2.57,2.59,4.32,2.07s3.18-1.82,4.88-2.48c6.07-2.33,12.04,4.05,18.52,4.5,4.92,.34,9.33-2.74,13.46-5.43s9.12-5.21,13.8-3.66"/>
      <path class="cls-2" d="M803.52,853.44c5.12,5.48,12.94,8.05,20.31,6.7,4.2-.77,7.96-2.96,12.14-3.81s8.23,.77,12.06,2.62,7.4,3.51,11.53,3.52c1.95,0,3.94-.43,5.63-1.42s2.91-2.46,4.28-3.78c5.95-5.76,15.07-3.77,22.14-1.65,7.64,2.29,17.58,6.06,24.52,.22,1.62-1.36,3.04-2.87,4.9-3.93,1.73-.99,3.64-1.65,5.61-1.95,4.32-.65,8.71,.96,12.99-.23,3.15-.88,5.51-3.23,7.69-5.55,1.83-1.96,3.82-4.49,6.56-5.14,3.06-.73,7.31,1.78,9.1-2.12,1.59-3.47-1.79-7.04-4.35-8.9-2.97-2.16-6.84-3.27-10.51-2.95-3.94,.35-7.41,2.25-10.92,3.89-3.49,1.64-7.04,2.77-10.81,1.38s-6.86-4.13-10.59-5.61c-8.18-3.25-16.99-1.68-25.47-1.08-2.31,.17-4.68,.22-6.95-.27-2.15-.47-4.1-1.43-6.03-2.45-3.7-1.94-7.32-3.61-11.58-3.74-3.98-.12-7.99,.97-11.34,3.11-3.17,2.03-6.07,5.19-9.99,5.62-4.52,.5-8.9-2.02-13-3.56s-8.31-2.53-12.59-1.59c-3.65,.8-6.46,3.01-8.25,6.26-.76,1.38-1.38,2.91-2.37,4.15-1.3,1.62-3.08,1.9-5.06,1.78s-4.07-.41-6.16-.12c-1.82,.25-3.57,.82-5.21,1.64-3.43,1.72-5.62,4.48-7.56,7.69-.83,1.37-1.76,3.01-3.31,3.68-1.89,.82-4.41,.22-6.43,.4-4.25,.38-8.28,1.73-12.14,3.51-1.94,.89-3.83,1.9-5.69,2.95s-3.69,1.98-5.34,3.21c-1.41,1.06-2.58,2.57-2.27,4.43,.25,1.53,1.46,2.6,2.89,3.06,3.84,1.24,6.23-2.4,9.75-2.84s6.86,1.76,9.9,3.08c3.54,1.54,7.1,2.45,10.94,1.44,4.08-1.08,7.47-3.68,11-5.86s7.48-4.07,11.56-2.82c1.85,.57,2.64-2.33,.8-2.89-8.47-2.6-14.89,4.86-21.97,7.92-3.6,1.56-6.95,1.25-10.49-.24-3.13-1.31-6.14-3.12-9.55-3.56-1.61-.21-3.23-.07-4.74,.53-1.66,.66-3.2,2.18-4.98,2.47-.9,.15-2.68-.23-1.94-1.45,.36-.6,1.07-1.01,1.65-1.36,.92-.57,1.86-1.11,2.79-1.65,3.62-2.1,7.33-4.12,11.31-5.46,1.91-.64,3.88-1.16,5.89-1.39s4.09,.03,6.13-.19c3.75-.41,5.61-3.4,7.4-6.35,1.88-3.1,4.51-5.47,8.03-6.53,1.76-.53,3.52-.65,5.35-.5,1.99,.16,4.02,.48,5.98-.08,3.42-.97,4.82-4.12,6.38-6.98,1.73-3.2,4.53-5.01,8.19-5.27,4.25-.29,8.31,1.38,12.17,2.96s8.13,3.21,12.45,2.33c3.71-.75,6.5-3.45,9.53-5.5,3.19-2.14,6.88-3.21,10.72-3.01,4.16,.22,7.55,2.31,11.19,4.1,3.93,1.94,7.9,2.64,12.27,2.39s8.27-.86,12.44-.97c4.1-.1,8.24,.2,12.13,1.59s6.72,3.92,10.3,5.47,6.96,1.55,10.48,.33,6.65-3.26,10.18-4.39,7.15-.87,10.37,.88c1.5,.82,2.95,1.93,3.95,3.33,.72,1.01,1.62,3.13-.29,3.34-1.67,.18-3.33-.5-5.02-.3-1.37,.16-2.67,.65-3.83,1.38-2.47,1.57-4.3,3.91-6.32,5.96-.98,1-2.01,1.96-3.22,2.68-1.62,.97-3.41,1.23-5.28,1.21-4.2-.06-8.15-.82-12.26,.5-1.81,.58-3.56,1.42-5.11,2.52-1.66,1.18-3.01,2.71-4.63,3.93-3.29,2.47-7.92,1.96-11.72,1.2-7.86-1.59-15.31-5.37-23.51-4.75-3.53,.27-6.96,1.32-9.76,3.55-1.49,1.19-2.64,2.79-4.18,3.92s-3.33,1.49-5.18,1.43c-4.03-.14-7.61-2.19-11.18-3.84-3.61-1.67-7.34-2.95-11.37-2.42s-7.69,2.49-11.6,3.59c-3.52,.99-7.19,.95-10.69-.09s-6.32-2.84-8.69-5.38c-1.32-1.41-3.44,.71-2.12,2.12h0Z"/>
    </g>
    <g class="cls-9">
      <path class="cls-2" d="M1438.56,396.03c3.18,5.24,8.28,7.65,12.89,6.1,3.29-1.1,6.33-4.06,9.7-3.95,2.99,.1,5.67,2.59,8.41,4.43s6.08,2.97,8.59,.52c1.09-1.07,1.88-2.69,2.87-3.97,3.3-4.27,8.23-4.04,12.46-2.44s8.35,4.33,12.7,4.29c1.27-.01,2.57-.28,3.69-1.17,1.23-.97,2.15-2.61,3.23-3.94,1.95-2.41,4.43-3.8,6.95-3.9,2.56-.09,5.24,1.09,7.62-.31,3.89-2.27,5.85-10.72,10.02-10.49,1.34,.07,2.91,1,3.85-.43,.88-1.36,.33-3.68-.46-5.16-2.08-3.87-5.6-5.85-8.85-5-4.15,1.09-7.73,6.36-11.93,5.7-2.89-.45-5.21-3.63-7.82-5.55-4.69-3.46-10.2-2.79-15.4-2-2.52,.39-5.11,.77-7.55-.25-2.54-1.07-4.7-3.58-7.19-4.88-3.29-1.72-7.07-1.16-10.07,1.5-2.19,1.95-4.03,4.97-6.5,5.91-2.61,.99-5.32-.58-7.81-2.12-2.27-1.4-4.6-2.82-7.05-3.07s-5.1,.85-6.65,3.72c-1.42,2.62-1.9,6.57-3.91,8.08-1.52,1.15-3.33,.42-5.03,.33-3.23-.17-6.48,2.29-8.32,6.3-1.16,2.52-1.98,5.85-3.92,6.79-.83,.41-1.73,.28-2.61,.25-5.65-.14-10.83,4.35-15.68,8.7-.89,.79-1.89,1.92-1.8,3.47,.11,1.8,1.69,2.56,2.84,2.05s2.09-1.8,3.21-2.45c3.99-2.3,7.92,4,12.18,4.45,3.23,.34,6.13-2.71,8.85-5.37,2.72-2.66,6-5.16,9.08-3.62"/>
      <path class="cls-2" d="M1437.86,397.08c3.37,5.43,8.51,7.96,13.36,6.63,2.76-.76,5.24-2.93,7.98-3.77s5.41,.77,7.93,2.59c2.4,1.73,4.87,3.47,7.58,3.48,1.28,0,2.59-.42,3.7-1.4s1.91-2.43,2.82-3.75c3.91-5.7,9.91-3.74,14.56-1.64,5.02,2.27,11.56,6,16.13,.22,1.07-1.35,2-2.84,3.22-3.89,1.14-.98,2.39-1.64,3.69-1.93,2.84-.64,5.73,.96,8.54-.23,2.07-.87,3.63-3.2,5.05-5.49,1.21-1.94,2.51-4.45,4.31-5.09,2.02-.72,4.81,1.76,5.98-2.1,1.05-3.43-1.18-6.97-2.86-8.81-1.95-2.14-4.5-3.24-6.91-2.92-2.59,.34-4.87,2.22-7.18,3.85s-4.63,2.74-7.11,1.36c-2.47-1.37-4.51-4.09-6.97-5.56-5.38-3.22-11.17-1.67-16.75-1.07-1.52,.16-3.08,.22-4.57-.27-1.41-.46-2.7-1.42-3.97-2.42-2.43-1.92-4.82-3.58-7.61-3.71-2.62-.12-5.25,.96-7.46,3.08-2.08,2.01-3.99,5.13-6.57,5.56-2.97,.5-5.86-2-8.55-3.52s-5.47-2.51-8.28-1.58c-2.4,.79-4.25,2.98-5.42,6.2-.5,1.37-.91,2.88-1.56,4.11-.86,1.6-2.02,1.88-3.33,1.77s-2.68-.4-4.05-.12c-1.2,.25-2.35,.81-3.43,1.63-2.25,1.71-3.69,4.44-4.97,7.62-.55,1.36-1.16,2.98-2.18,3.64-1.24,.81-2.9,.22-4.23,.39-2.79,.38-5.45,1.72-7.99,3.47-1.28,.88-2.52,1.88-3.74,2.92s-2.43,1.96-3.51,3.18c-.93,1.05-1.69,2.54-1.49,4.38,.16,1.51,.96,2.57,1.9,3.03,2.53,1.23,4.1-2.38,6.41-2.81s4.51,1.74,6.51,3.05c2.33,1.53,4.67,2.43,7.19,1.42,2.68-1.07,4.91-3.65,7.24-5.8,2.25-2.09,4.92-4.03,7.61-2.79,1.22,.56,1.74-2.3,.52-2.86-5.57-2.57-9.79,4.82-14.45,7.84-2.37,1.54-4.57,1.23-6.9-.23-2.06-1.3-4.04-3.09-6.28-3.53-1.06-.21-2.13-.07-3.12,.53-1.1,.65-2.11,2.15-3.28,2.45-.59,.15-1.77-.22-1.28-1.44,.24-.59,.71-1,1.09-1.35,.61-.56,1.22-1.1,1.84-1.63,2.38-2.08,4.82-4.08,7.44-5.41,1.26-.64,2.55-1.14,3.87-1.38s2.69,.03,4.03-.19c2.46-.4,3.69-3.36,4.86-6.29,1.23-3.07,2.96-5.41,5.28-6.46,1.16-.53,2.32-.64,3.52-.49,1.31,.16,2.64,.47,3.93-.08,2.25-.96,3.17-4.07,4.19-6.91,1.14-3.16,2.98-4.96,5.39-5.21,2.79-.29,5.47,1.37,8,2.93,2.59,1.59,5.34,3.17,8.19,2.3,2.44-.75,4.27-3.42,6.27-5.44,2.1-2.12,4.52-3.18,7.05-2.98,2.74,.22,4.97,2.28,7.36,4.06,2.59,1.92,5.2,2.62,8.07,2.37s5.44-.85,8.18-.96,5.42,.2,7.98,1.57,4.42,3.88,6.78,5.42c2.25,1.47,4.58,1.53,6.89,.33s4.38-3.23,6.7-4.35c2.28-1.1,4.7-.86,6.82,.87,.99,.81,1.94,1.91,2.6,3.3,.48,1,1.07,3.1-.19,3.3-1.1,.18-2.19-.49-3.3-.3-.9,.16-1.75,.64-2.52,1.37-1.62,1.55-2.83,3.87-4.16,5.9-.65,.99-1.32,1.94-2.12,2.65-1.07,.96-2.25,1.22-3.47,1.19-2.76-.06-5.36-.81-8.06,.49-1.19,.57-2.34,1.41-3.36,2.49-1.09,1.16-1.98,2.68-3.05,3.89-2.16,2.45-5.21,1.94-7.71,1.18-5.17-1.57-10.07-5.32-15.46-4.7-2.32,.27-4.58,1.31-6.42,3.51-.98,1.18-1.73,2.76-2.75,3.88-.99,1.09-2.19,1.48-3.4,1.42-2.65-.14-5-2.17-7.35-3.8s-4.83-2.92-7.48-2.39-5.06,2.46-7.63,3.55c-2.31,.98-4.73,.94-7.03-.09-2.19-.98-4.15-2.81-5.71-5.32-.87-1.4-2.26,.7-1.4,2.1h0Z"/>
    </g>
  </g>
  <g id="fugle">
    <g class="cls-11">
      <path d="M1460.18,142.28c14.74-2.4,30.4,4.5,38.61,16.96,.43,.66,1.32,.35,1.4-.38,1.71-15.35,14.47-28.46,29.7-30.79,.95-.15,.55-1.59-.4-1.45-8.24,1.22-16.33,4.52-22.41,10.33s-9.52,13.31-9.46,21.4l1.28-.53c-3.23-2.59-5.43-6.1-7.99-9.3-2.44-3.05-5.31-5.55-8.91-7.13-7.18-3.15-15.34-2.82-22.99-2.37-.96,.06-.97,1.47,0,1.5,3.43,.11,6.83,.51,10.2,1.19l.4-1.45c-5.41-.92-10.86-.97-16.29-.16-.86,.13-.61,1.45,.2,1.47,3.7,.12,7.41,.23,11.11,.35,.97,.03,.96-1.47,0-1.5-3.7-.12-7.41-.23-11.11-.35,.07,.49,.13,.98,.2,1.47,5.14-.77,10.37-.72,15.49,.16,.94,.16,1.35-1.25,.4-1.45-3.5-.71-7.03-1.12-10.6-1.24v1.5c7.47-.44,15.6-.86,22.58,2.31,3.58,1.63,6.3,4.22,8.7,7.29s4.51,6.31,7.56,8.75c.48,.39,1.29,.17,1.28-.53-.05-7.84,3.62-15.32,9.32-20.61,5.88-5.47,13.6-8.5,21.46-9.67l-.4-1.45c-12.36,1.89-23.18,10.72-28.12,22.13-1.4,3.23-2.29,6.61-2.68,10.11l1.4-.38c-6.68-10.15-18.01-16.74-30.06-17.98-3.42-.35-6.86-.22-10.25,.33-.95,.15-.55,1.6,.4,1.45h0Z"/>
    </g>
    <g class="cls-11">
      <path d="M1046.18,818.28c14.74-2.4,30.4,4.5,38.61,16.96,.43,.66,1.32,.35,1.4-.38,1.71-15.35,14.47-28.46,29.7-30.79,.95-.15,.55-1.59-.4-1.45-8.24,1.22-16.33,4.52-22.41,10.33s-9.52,13.31-9.46,21.4l1.28-.53c-3.23-2.59-5.43-6.1-7.99-9.3-2.44-3.05-5.31-5.55-8.91-7.13-7.18-3.15-15.34-2.82-22.99-2.37-.96,.06-.97,1.47,0,1.5,3.43,.11,6.83,.51,10.2,1.19l.4-1.45c-5.41-.92-10.86-.97-16.29-.16-.86,.13-.61,1.45,.2,1.47,3.7,.12,7.41,.23,11.11,.35,.97,.03,.96-1.47,0-1.5-3.7-.12-7.41-.23-11.11-.35,.07,.49,.13,.98,.2,1.47,5.14-.77,10.37-.72,15.49,.16,.94,.16,1.35-1.25,.4-1.45-3.5-.71-7.03-1.12-10.6-1.24v1.5c7.47-.44,15.6-.86,22.58,2.31,3.58,1.63,6.3,4.22,8.7,7.29s4.51,6.31,7.56,8.75c.48,.39,1.29,.17,1.28-.53-.05-7.84,3.62-15.32,9.32-20.61,5.88-5.47,13.6-8.5,21.46-9.67l-.4-1.45c-12.36,1.89-23.18,10.72-28.12,22.13-1.4,3.23-2.29,6.61-2.68,10.11l1.4-.38c-6.68-10.15-18.01-16.74-30.06-17.98-3.42-.35-6.86-.22-10.25,.33-.95,.15-.55,1.6,.4,1.45h0Z"/>
    </g>
  </g>
  <g id="button">
    <path class="cls-6" d="M1028.17,703.14c1.93,0,1.93-3,0-3s-1.93,3,0,3h0Z"/>
    <path class="cls-6" d="M1033.87,708.98c1.16,2.45,3.45,5.11,2.28,7.95l2.51-.66c-2.2-1.87-3.43-4.13-4.25-6.86-.87-2.91-2.81-4.89-5.08-6.81-.78-.65-2.29-.55-2.51,.66-.19,1.09-.01,2.05,.63,2.96,.68,.96,1.79,1.51,2.4,2.52,.56,.94,.85,2.04,1.26,3.05,.46,1.13,.96,2.25,1.51,3.34,1.05,2.06,2.27,4.03,3.66,5.88s3.27,3.44,4.08,5.52c.7,1.78,3.6,1,2.89-.8-.79-2.02-2.2-3.52-3.55-5.18-1.42-1.74-2.67-3.62-3.77-5.58s-1.9-3.88-2.68-5.92c-.39-1.03-.83-2.04-1.57-2.87-.41-.46-2.1-1.45-1.98-2.13l-2.51,.66c1.11,.94,2.28,1.89,3.15,3.06,.86,1.16,1.13,2.47,1.58,3.81,.89,2.64,2.48,4.99,4.6,6.8,.92,.78,2.06,.41,2.51-.66,1.52-3.71-1.07-7.07-2.58-10.26-.82-1.74-3.41-.22-2.59,1.51h0Z"/>
    <path class="cls-6" d="M1053.13,697.8c.99-8.52,3.01-17.06,2.44-25.69-.27-4.15-1.18-8.18-2.9-11.97-1.66-3.66-4.02-7.01-6.63-10.05-9.66-11.27-24.2-18.27-39.1-18.1-7.63,.09-15.24,1.96-22.02,5.46-7.27,3.75-12.99,9.5-18.16,15.74-2.6,3.14-5.21,6.33-7.19,9.91-2.09,3.77-3.19,7.85-3.48,12.14-.53,7.98,1.03,16.25,4.01,23.64,5.82,14.44,17.36,25.92,31.8,31.72,1.74,.7,3.51,1.3,5.31,1.82s2.65-2.35,.8-2.89c-13.91-4.04-25.83-13.62-32.65-26.4-3.54-6.65-5.71-14.07-6.23-21.59-.28-4.1-.19-8.3,1.01-12.26,1.14-3.73,3.31-7.06,5.66-10.13,4.65-6.1,9.84-12.24,16.26-16.53,5.95-3.98,12.9-6.5,20.01-7.31,14.12-1.6,28.26,3.54,38.46,13.35,5.38,5.18,9.92,11.59,11.44,19.01,1.64,8.02,.09,16.33-1.07,24.3-.28,1.95-.55,3.9-.78,5.85s2.78,1.9,3,0h0Z"/>
    <path class="cls-6" d="M996.59,732.48c2.46,.65,4.95,1.2,7.46,1.63,1.23,.21,2.46,.39,3.7,.55s2.38,.35,3.54-.05c2.04-.69,3.11-3.11,3.93-4.93,1-2.22,1.69-4.53,2.04-6.94,.1-.72-.17-1.72-1.05-1.85-3.01-.43-6-.9-8.62-2.54s-4.63-3.68-7.25-5.09-5.59-2.4-8.14-4.08-4.6-3.73-6.57-5.93-4.05-4.48-5.66-6.96c-1.7-2.62-2.15-5.65-2.68-8.67-.51-2.94-1.55-6.28-1.11-9.28,.21-1.43,.99-2.44,1.79-3.59,.87-1.25,1.4-2.6,1.73-4.08,.3-1.35,.45-2.77,.95-4.07s1.47-2.47,2.47-3.49c2.1-2.15,4.36-4.29,6.82-6.03,5.12-3.61,11.48-4.85,17.5-6.12,3.23-.68,6.55-1.2,9.86-.85s6.1,1.69,8.83,3.27c2.42,1.4,5.52,2.88,6.95,5.4,1.5,2.64,1.98,6.15,2.23,9.13,.31,3.62,.06,7.26-.12,10.88-.2,3.96-.4,7.91-.61,11.87-.09,1.81-.19,3.63-.28,5.44-.09,1.83-.44,3.83-.23,5.65s1.55,2.31,3.13,2.55c1.8,.27,3.59,.32,5.4,.16,1.91-.17,1.93-3.17,0-3-1.68,.15-3.38,.16-5.05-.13l-.45-.08c-.39-.14-.41-.09-.05,.14-.04-.24,.02-.64,.03-.85,.05-.99,.1-1.98,.15-2.97,.19-3.63,.37-7.25,.56-10.88,.36-7.02,1.24-14.24,.24-21.24-.44-3.07-1.07-6.54-2.94-9.09-1.78-2.43-4.7-3.98-7.25-5.47-2.86-1.67-5.92-3.1-9.21-3.62s-6.78-.2-10.12,.41c-6.25,1.15-13.07,2.49-18.57,5.81-2.81,1.69-5.25,3.94-7.61,6.2-2.2,2.09-4.16,4.28-4.91,7.3-.34,1.35-.49,2.75-.9,4.08-.5,1.58-1.68,2.67-2.42,4.12-1.46,2.87-.92,6.09-.39,9.12,.55,3.2,.9,6.55,1.89,9.65s2.9,5.42,4.9,7.85c2.2,2.66,4.44,5.31,7.07,7.56,2.71,2.33,5.69,3.86,8.93,5.32,1.65,.75,3.24,1.56,4.71,2.61,1.42,1.02,2.75,2.17,4.2,3.16,3.03,2.08,6.45,2.79,10.03,3.3l-1.05-1.85c-.28,1.9-.74,3.77-1.46,5.56-.53,1.32-1.52,4.3-3.2,4.34-1.97,.05-4.11-.49-6.04-.85-2.11-.39-4.21-.87-6.28-1.42-1.87-.49-2.67,2.4-.8,2.89h0Z"/>
    <path class="cls-6" d="M1050.19,702.75c.87-.64,1.78-1.28,2.46-2.12,.79-.98,1.33-2.08,1.39-3.36,.04-.78-.72-1.54-1.5-1.5-.84,.04-1.46,.66-1.5,1.5,0,.09-.01,.18-.02,.28l.05-.4c-.04,.32-.13,.63-.26,.93l.15-.36c-.16,.36-.36,.7-.6,1.01l.23-.3c-.43,.55-.95,1-1.5,1.43l.3-.23c-.24,.18-.48,.36-.72,.54-.33,.24-.58,.49-.69,.9-.1,.36-.05,.84,.15,1.16s.51,.6,.9,.69,.84,.08,1.16-.15h0Z"/>
    <path class="cls-6" d="M995.43,720.69c3.56,2.13,7.07,4.34,10.53,6.63l.76-2.8c-5.73-.65-10.92-3.44-15.85-6.25-1.69-.96-3.13,1.55-1.51,2.59,4.25,2.75,8.5,5.5,12.75,8.25v-2.59c-4.73,2.74-9.82-3.19-13.65-5.17l-1.16,2.74c2.81,.57,5.25,2.1,7.79,3.36,2.7,1.33,5.46,2.55,8.26,3.64,1.38,.54,2.77,1.05,4.17,1.53,1.2,.41,2.51,1,3.63,.08,.95-.78,1.66-2.09,2.25-3.16,.68-1.24,1.21-2.55,1.63-3.9,.32-1.04-.77-2.23-1.85-1.85-1.95,.69-3.11,2.17-4.24,3.82-.26,.38-.51,.77-.8,1.14-.03,.04-.39,.43-.38,.44l.63-.23-.18-.34c-.09-.58-.36-1.08-.38-1.69s.11-1.14,.3-1.71l-2.95-.4c-.21,2.94-.43,5.88-.64,8.82-.09,1.29,1.71,1.98,2.56,1.06,2.37-2.57,4.04-5.66,4.79-9.08l-2.74,.36,.66,1.35c.66,1.35,2.83,.68,2.8-.76-.11-4.04-4.29-5.07-7.32-6.4-3.62-1.6-7.09-3.52-10.37-5.73-1.42-.95-3.05,1.19-1.82,2.36,2.57,2.42,5.51,4.45,8.74,5.9,.82,.36,1.64,.71,2.48,1.01,.26,.09,2.18,.92,2.39,.74,.06-.89-.03-1.14-.26-.74-.1,.15-.22,.29-.35,.42-.26,.27-.54,.5-.85,.7-.73,.47-1.54,.69-2.41,.73-1.02,.04-1.65,.93-1.45,1.9,.25,1.2,.97,2.14,2.03,2.75l.36-2.74c-1.64,.62-3.24,.71-4.93,.21-.13,.98-.27,1.96-.4,2.95,3.05,.37,6.4,.79,9.45,.3,2.89-.46,4.27-2.76,4.45-5.55,.08-1.24-.41-2.59-1.65-3.06-.99-.38-2.21-.09-2.88,.75-.76,.96-.5,2.31,.48,3,.43,.3,.98,.44,1.51,.42,.77-.02,1.38-.57,2.11-.63,1.91-.14,1.93-3.14,0-3-.62,.04-1.41,.14-1.93,.54l-.29,.1c.6,1.42,.57,1.92-.1,1.52-.25-.21-.33-.15-.23,.17l-.03,.32c-.15,1.26-.56,2.21-1.88,2.45s-2.7,.11-4,.06c-1.67-.06-3.34-.2-5.01-.41s-1.96,2.48-.4,2.95c2.16,.64,4.42,.59,6.53-.21,1.16-.44,1.55-2.05,.36-2.74-.42-.24-.55-.48-.65-.95-.48,.63-.96,1.27-1.45,1.9,2.07-.07,4.09-.88,5.5-2.44,.69-.76,1.39-1.71,1.16-2.79s-1.25-1.55-2.2-1.82c-4.54-1.32-8.64-3.57-12.09-6.82l-1.82,2.36c2.79,1.87,5.71,3.55,8.74,4.98,1.46,.69,2.95,1.32,4.45,1.92,1.18,.47,2.98,1.12,3.02,2.64l2.8-.76-.66-1.35c-.56-1.15-2.47-.86-2.74,.36-.65,2.92-1.99,5.56-4.02,7.76l2.56,1.06c.21-2.94,.43-5.88,.64-8.82,.13-1.76-2.43-1.93-2.95-.4-.76,2.27-.45,7.63,2.96,7.62,2.86-.01,3.3-4.47,5.79-5.36l-1.85-1.85c-.34,1.11-.77,2.16-1.32,3.18-.31,.56-.65,1.11-1.01,1.63-.04,.06-.51,.64-.26,.52,.17-.09-.37-.16-.55-.22-2.46-.82-4.9-1.73-7.28-2.75s-4.55-2.04-6.76-3.19c-2.2-1.14-4.39-2.32-6.84-2.82-1.58-.32-2.75,1.91-1.16,2.74,2.86,1.49,5.2,3.83,8.15,5.15,2.73,1.22,5.85,1.57,8.53,.02,1.01-.58,.93-1.99,0-2.59-4.25-2.75-8.5-5.5-12.75-8.25-.5,.86-1.01,1.73-1.51,2.59,5.44,3.1,11.06,5.95,17.36,6.66,1.6,.18,1.87-2.06,.76-2.8-3.46-2.29-6.97-4.5-10.53-6.63-1.66-.99-3.17,1.6-1.51,2.59h0Z"/>
    <path class="cls-6" d="M1038.07,635.02c-8.27-2.29-16.65-4.3-25.22-4.95-4.04-.31-8.11-.27-12.14,.25-2.31,.29-4.55,.6-6.71,1.51-2.02,.85-3.73,2.17-5.26,3.73-3.33,3.4-6.5,6.97-9.74,10.45-1.6,1.72-1.83,4.68,0,6.36s4.65,1.84,6.36,0c3.37-3.62,6.63-7.44,10.18-10.89,.12-.12,1.38-1.16,.65-.63,.45-.33,.92-.62,1.42-.85-.74,.34,.8-.22,.97-.26,.56-.14,1.14-.25,1.71-.35,.3-.05,.6-.1,.9-.14-.41,.05-.33,.05,.23-.02,.63-.07,1.27-.13,1.9-.18,1.19-.09,2.38-.15,3.57-.16,2.46-.04,4.93,.08,7.38,.31,.64,.06,1.27,.14,1.9,.21,.56,.07,.63,.08,.23,.02,.32,.04,.63,.09,.95,.14,1.19,.18,2.38,.38,3.56,.6,4.98,.92,9.88,2.19,14.76,3.55,2.27,.63,5-.78,5.54-3.14,.54-2.38-.72-4.86-3.14-5.54h0Z"/>
  </g>
</svg>