<?xml version="1.0" encoding="UTF-8"?>
<svg id="fugle" xmlns="http://www.w3.org/2000/svg" viewBox="0 0 165 119">
  <defs>
    <style>
      .cls-1 {
        opacity: .53;
      }
    </style>
  </defs>
  <g class="cls-1">
    <path d="M45.18,63.28c14.74-2.4,30.4,4.5,38.61,16.96,.43,.66,1.32,.35,1.4-.38,1.71-15.35,14.47-28.46,29.7-30.79,.95-.15,.55-1.59-.4-1.45-8.24,1.22-16.33,4.52-22.41,10.33s-9.52,13.31-9.46,21.4l1.28-.53c-3.23-2.59-5.43-6.1-7.99-9.3-2.44-3.05-5.31-5.55-8.91-7.13-7.18-3.15-15.34-2.82-22.99-2.37-.96,.06-.97,1.47,0,1.5,3.43,.11,6.83,.51,10.2,1.19l.4-1.45c-5.41-.92-10.86-.97-16.29-.16-.86,.13-.61,1.45,.2,1.47,3.7,.12,7.41,.23,11.11,.35,.97,.03,.96-1.47,0-1.5-3.7-.12-7.41-.23-11.11-.35,.07,.49,.13,.98,.2,1.47,5.14-.77,10.37-.72,15.49,.16,.94,.16,1.35-1.25,.4-1.45-3.5-.71-7.03-1.12-10.6-1.24v1.5c7.47-.44,15.6-.86,22.58,2.31,3.58,1.63,6.3,4.22,8.7,7.29s4.51,6.31,7.56,8.75c.48,.39,1.29,.17,1.28-.53-.05-7.84,3.62-15.32,9.32-20.61,5.88-5.47,13.6-8.5,21.46-9.67l-.4-1.45c-12.36,1.89-23.18,10.72-28.12,22.13-1.4,3.23-2.29,6.61-2.68,10.11l1.4-.38c-6.68-10.15-18.01-16.74-30.06-17.98-3.42-.35-6.86-.22-10.25,.33-.95,.15-.55,1.6,.4,1.45h0Z"/>
  </g>
</svg>