<?xml version="1.0" encoding="UTF-8"?>
<svg xmlns="http://www.w3.org/2000/svg" viewBox="0 0 385 386">
  <defs>
    <style>
      .cls-1 {
        fill: #efaaff;
      }

      .cls-2 {
        fill: #7b4887;
      }
    </style>
  </defs>
  <g id="Layer_2" data-name="Layer 2">
    <path class="cls-1" d="m120.07,94.62c-5.66,10.38-11.14,20.86-16.45,31.43-1.05,2.1-1.84,4.43-1.84,6.81,0,3.01,1.08,5.83,2.9,8.18,1.47,1.91,3.18,3.22,5.4,4.16,2.62,1.1,6.03,1.67,8.79.68,7.71-2.77,14.96-6.49,21.93-10.77,6.05-3.71,11.93-7.7,18.09-11.24,3.5-2.01,7.09-3.87,10.81-5.44l-3.22,1.36c2.03-.84,4.14-1.76,6.3-2.2l-3.59.48c.44-.06.83-.08,1.28-.06l-3.59-.48c.28.03.56.09.83.2-2.69-6.61-5.38-13.22-8.07-19.83-1.34,1.98-2.75,3.91-4.21,5.8l2.11-2.73c-8.79,11.32-19.22,21.45-26.66,33.78-2.47,4.1-4.42,8.46-6.15,12.92-1.19,3.08-.24,7.67,1.36,10.4s4.85,5.47,8.07,6.2c3.46.79,7.33.62,10.4-1.36l2.73-2.11c1.67-1.68,2.83-3.67,3.47-5.96.24-.62.49-1.23.74-1.84l-1.36,3.22c2.6-6.05,6.21-11.56,10.21-16.77l-2.11,2.73c8.04-10.39,17.32-19.76,24.7-30.67,2.38-3.52,2.26-8.27.68-12.01s-4.67-6.56-8.75-7.82c-7.05-2.17-14.21,1.34-20.5,4.16-3.56,1.6-7,3.45-10.36,5.43-6.71,3.95-13.14,8.37-19.85,12.33-3.84,2.26-7.78,4.35-11.87,6.1l3.22-1.36c-1.26.53-2.54,1.03-3.83,1.49,5.08,6.61,10.16,13.22,15.25,19.83,5.3-10.57,10.78-21.05,16.45-31.43,1.71-3.13,2.32-6.92,1.36-10.4-.86-3.13-3.28-6.53-6.2-8.07-3.13-1.66-6.93-2.49-10.4-1.36-3.29,1.07-6.37,3.09-8.07,6.2h0Z"/>
    <path class="cls-1" d="m159.11,80.25c-15.29,9.06-29.55,20.11-42.14,32.66l19.09,19.09c4.31-5.45,8.25-11.05,11.33-17.3,3.05-6.2,5.6-12.71,7.28-19.41,1.06-4.24.23-8.34-2.42-11.77s-6.25-5.1-10.6-5.32c-2.4-.12-4.71.12-7.08.44s-4.67.67-6.96,1.39c-4.46,1.39-8.91,3.4-12.79,6.03-7.94,5.38-14.28,12.47-19.21,20.68-2.22,3.69-4.09,7.58-5.77,11.55h23.31l-.15-.34,1.36,3.22c-.93-2.23-1.56-4.54-1.9-6.93l.48,3.59c-.35-2.73-.32-5.47.05-8.2l-.48,3.59c.45-3.14,1.33-6.19,2.54-9.12l-1.36,3.22c1.46-3.44,3.36-6.66,5.63-9.64l-2.11,2.73c2.41-3.11,5.17-5.85,8.27-8.26l-2.73,2.11c4.77-3.65,10.05-6.51,15.57-8.85l-3.22,1.36c8.27-3.46,16.94-5.77,25.6-8.03,5.06-1.32,10.12-2.63,15.18-3.95s10.16-3.02,15.32-3.78l-3.59.48c1.27-.16,2.52-.2,3.79-.06l-3.59-.48c.87.13,1.68.35,2.49.7l-3.22-1.36c.65.31,1.24.66,1.82,1.09l-2.73-2.11c.45.37.85.77,1.22,1.23l-2.11-2.73c.34.47.61.94.84,1.47l-1.36-3.22c.15.44.26.87.32,1.33l13.02-17.09c-9.39.34-18.91,1.94-27.76,5.13-2.6.94-5.19,1.99-7.68,3.2s-4.68,2.89-6.87,4.65-3.88,3.93-5.28,6.2c-.9,1.46-1.5,3.13-2.12,4.71-.29.73-.51,1.48-.65,2.25-.68,3.94-.93,7.5.18,11.42.5,1.76,1.22,3.55,2.19,5.12s2.16,3.21,3.59,4.41c2.79,2.35,5.78,3.95,9.55,3.95,3.31,0,7.27-1.47,9.55-3.95s4.12-5.95,3.95-9.55c-.15-3.4-1.25-7.26-3.95-9.55-.42-.35-.78-.73-1.12-1.16l2.11,2.73c-.38-.52-.68-1.07-.93-1.66l1.36,3.22c-.23-.61-.39-1.22-.49-1.86l.48,3.59c-.11-.88-.11-1.75-.02-2.64l-.48,3.59c.14-1.01.4-1.97.79-2.91l-1.36,3.22c.38-.85.85-1.63,1.42-2.37l-2.11,2.73c.81-1,1.73-1.88,2.75-2.67l-2.73,2.11c1.68-1.25,3.52-2.21,5.44-3.04l-3.22,1.36c6.07-2.55,12.54-4.17,19.05-5.08l-3.59.48c2.65-.35,5.3-.58,7.97-.67,4.33-.16,7.96-1.9,10.6-5.32,1.19-1.3,2-2.83,2.42-4.59.64-2.39.64-4.79,0-7.18-.28-1.97-1.15-3.95-2.23-5.61-1.84-2.83-3.69-4.51-6.36-6.49-3.43-2.54-7.89-3.51-12.07-3.72-3.72-.19-7.54.71-11.13,1.64-2.74.71-5.47,1.42-8.21,2.13-10.16,2.64-20.4,5.08-30.45,8.1s-20.16,6.82-28.83,12.75c-8.79,6.01-16.58,13.88-21.01,23.69-1.41,3.12-2.77,6.3-3.61,9.63s-1.29,6.65-1.48,10,.27,6.7.83,9.99,1.91,6.46,3.28,9.61c1.2,2.03,2.81,3.64,4.84,4.84,2.11,1.22,4.38,1.84,6.81,1.84,2.44,0,4.71-.62,6.81-1.84,2.03-1.2,3.64-2.81,4.84-4.84,2.64-6.23,5.79-12.27,9.93-17.64l-2.11,2.73c2.41-3.08,5.12-5.89,8.21-8.29l-2.73,2.11c2.63-2.01,5.46-3.69,8.5-4.99l-3.22,1.36c2.65-1.1,5.39-1.87,8.23-2.27l-3.59.48c1.76-.22,3.52-.29,5.29-.2l-13.02-17.09c-1.02,4.05-2.34,8.01-3.95,11.87l1.36-3.22c-2.7,6.37-6.19,12.37-10.39,17.87l2.11-2.73c-.26.34-.53.68-.8,1.02-1.32,1.22-2.25,2.67-2.79,4.34-.85,1.61-1.23,3.34-1.16,5.2,0,3.31,1.47,7.27,3.95,9.55s5.95,4.12,9.55,3.95,6.96-1.37,9.55-3.95c6.01-5.99,12.39-11.59,19.1-16.78l-2.73,2.11c6.49-4.99,13.27-9.59,20.31-13.76,2.93-1.74,5.3-4.78,6.2-8.07s.49-7.53-1.36-10.4-4.63-5.42-8.07-6.2-7.22-.52-10.4,1.36h0Z"/>
    <path class="cls-1" d="m150.42,63c-6.66,1-13.33,2.01-19.84,3.75-7.34,1.96-14.56,4.88-21.05,8.86s-12.25,8.73-17.78,13.74-10.44,10.37-14.62,16.48c-8.15,11.89-10.98,26.85-10.42,41.06s3.76,27.61,6.84,41.16c3.63,16,7.26,32,10.89,48,.92,4.06,4.12,7.19,7.82,8.75,1.61.85,3.34,1.23,5.2,1.16,2.44,0,4.71-.62,6.81-1.84,1.44-1.08,2.97-2.12,4.24-3.41s2.42-2.87,3.49-4.38c1.55-2.17,2.53-4.79,3.5-7.23,1.3-3.29,1.96-6.78,2.69-10.22,1.68-8,3.2-16.05,4.39-24.14,2.53-17.17,4.07-34.58,2.09-51.89-1.16-10.19-3.04-20.21-6.53-29.87-1.02-2.84-2.41-5.14-4.84-7.01-2.28-1.76-5.22-3.03-8.18-2.9-2.4.11-4.69.72-6.81,1.84-3,1.58-5.24,4.91-6.2,8.07-5.29,17.38-5.09,35.87-3.32,53.77.48,4.81,1.05,9.6,1.64,14.4l26.52-3.59c-3.6-14.77-7.69-29.42-12.25-43.92l-26.04,7.18c6.24,15.75,11.53,31.86,15.82,48.25,1.23,4.69,2.37,9.41,3.43,14.14l1.36,3.22,2.11,2.73c2.11,2.11,4.83,3.32,7.75,3.71,2.47.33,4.7.05,7-.92,2.85-1.2,4.65-2.98,6.46-5.52,10.25-14.46,18.05-30.76,23.23-47.7,1.41-4.59,2.59-9.25,3.57-13.95l-26.04-7.18c-1.34,6.66-3.34,13.16-5.98,19.42l1.36-3.22c-2.2,5.16-4.82,10.13-7.84,14.86l24.67,3.22c-2.67-10.42-5.33-20.84-8-31.26s-5.36-20.4-7.72-30.68c-1.31-5.73-2.46-11.51-3.26-17.34l.48,3.59c-.68-5.1-1.09-10.23-1.11-15.38,0-3.01-1.08-5.83-2.9-8.18-1.72-2.23-4.19-4.19-7.01-4.84-2.37-.54-4.8-.54-7.18,0-3.49.8-6.1,3.41-8.07,6.2-6.25,8.89-10.6,19.29-13.35,29.77-2.93,11.16-4.16,22.85-4.41,34.37-.25,11.23.45,22.45,1.1,33.65.67,11.45,1.34,22.9,2,34.34.75,12.86,1.5,25.72,2.25,38.57h27c-2.17-23.55-6.29-46.87-10.95-70.04-1.26-6.26-2.55-12.52-3.84-18.78-.63-3.06-3.47-6.62-6.2-8.07s-5.54-2.01-8.61-1.6c-2.83.38-5.76,1.54-7.75,3.71-2.38,2.59-4.07,5.93-3.95,9.55.6,18.46,1.74,36.9,3.41,55.29.84,9.2,1.81,18.38,2.92,27.54,1.11,9.22,1.99,18.78,5.37,27.51,1.77,4.58,3.76,9.02,6.72,12.95,2.84,3.78,5.76,7.24,9.5,10.15,2.25,1.75,4.47,3.49,6.93,4.92s5.12,2.52,7.76,3.59c2.97,1.21,5.91,1.76,9.12,2.07,4.15.4,8.14-.76,11.84-2.55,5.01-2.42,8.88-7.3,11.56-12.04,2.38-4.21,4.3-8.8,5.66-13.44s2.1-9.64,2.43-14.5-.19-9.78-.93-14.67c-1.35-8.98-5.35-17.36-9.98-25.09s-8.87-14.69-12.53-22.51c-.92-1.97-1.8-3.95-2.64-5.96l1.36,3.22c-1.08-2.58-2.1-5.18-3.06-7.8-1.17-3.21-3.04-6.4-6.2-8.07-2.73-1.44-5.54-2.01-8.61-1.6-2.83.38-5.76,1.54-7.75,3.71l-2.11,2.73c-1.22,2.11-1.84,4.38-1.84,6.81-2.11,25.69-2.02,51.55.31,77.22.75,8.23,1.76,16.43,2.9,24.62.64,2.29,1.8,4.27,3.47,5.96,1.68,1.67,3.67,2.83,5.96,3.47,4.43,1.22,9.99.07,13.13-3.47,4.07-4.57,6.69-9.32,8.83-15.02,1.36-3.62,2.13-7.43,2.66-11.25,1.38-10,1.84-20.02.96-30.09-.55-6.22-1.43-12.44-2.7-18.56l-1.36-3.22c-.85-1.57-2.01-2.84-3.48-3.79-2.28-1.76-5.22-3.03-8.18-2.9-2.4.11-4.69.72-6.81,1.84-1.57.85-2.84,2.01-3.79,3.48-1.19,1.3-2,2.83-2.42,4.59-2.31,5.6-3.98,11.45-4.96,17.44-1.15,7.05-1.79,14.1-1.34,21.24.22,3.59,1.35,6.95,3.95,9.55,2.34,2.34,6.18,4.1,9.55,3.95s7.11-1.3,9.55-3.95,4.18-5.98,3.95-9.55c-.32-5.21-.13-10.43.55-15.6l-.48,3.59c.93-6.7,2.69-13.23,5.26-19.48h-26.04c.62,2.98,1.14,5.98,1.55,9l-.48-3.59c1.44,10.74,1.6,21.72.19,32.47l.48-3.59c-.59,4.29-1.51,8.54-3.18,12.55l1.36-3.22c-.95,2.21-2.11,4.29-3.56,6.21l2.11-2.73c-.41.53-.84,1.04-1.28,1.54l22.56,5.96c-.09-.65-.18-1.3-.27-1.95l.48,3.59c-3.33-24.9-4.59-50.06-3.7-75.16.25-7.05.67-14.1,1.24-21.14-8.84,1.2-17.68,2.39-26.52,3.59,3.4,9.32,7.44,18.45,12.24,27.14,4.2,7.6,9.38,14.69,12.77,22.72l-1.36-3.22c1.63,3.95,2.73,8.08,3.32,12.31l-.48-3.59c.58,4.5.58,9.04,0,13.54l.48-3.59c-.62,4.49-1.8,8.87-3.56,13.06l1.36-3.22c-1.22,2.83-2.63,5.61-4.49,8.07l2.11-2.73c-.8,1.02-1.66,1.94-2.67,2.75l2.73-2.11c-.71.53-1.45.97-2.26,1.32l3.22-1.36c-.65.25-1.29.42-1.97.54l3.59-.48c-.91.11-1.8.11-2.71.02l3.59.48c-2.05-.28-3.98-.95-5.89-1.74l3.22,1.36c-2.99-1.28-5.78-2.92-8.37-4.89l2.73,2.11c-2.67-2.07-5.07-4.45-7.15-7.11l2.11,2.73c-2.08-2.72-3.76-5.67-5.11-8.82l1.36,3.22c-2.54-6.13-3.74-12.68-4.64-19.23l.48,3.59c-3.07-22.87-5-45.94-6.23-68.97-.35-6.59-.63-13.18-.85-19.77l-26.52,3.59c3.58,17.33,7.16,34.66,10.01,52.13.82,5.01,1.57,10.03,2.25,15.06l-.48-3.59c.8,6,1.5,12.02,2.06,18.05-.07,1.86.32,3.59,1.16,5.2.54,1.67,1.47,3.12,2.79,4.34,2.34,2.34,6.18,4.1,9.55,3.95s7.11-1.3,9.55-3.95,4.16-5.97,3.95-9.55c-.95-16.26-1.9-32.52-2.84-48.78-.94-16.14-2.23-32.3-2.52-48.47-.16-8.86.11-17.73,1.28-26.52l-.48,3.59c1.21-8.85,3.34-17.58,6.79-25.84l-1.36,3.22c2.12-5.02,4.72-9.82,7.86-14.29l-25.16-6.81c.04,13.59,2.61,27.14,5.79,40.32,2.97,12.29,6.22,24.52,9.35,36.77,1.8,7.05,3.61,14.1,5.41,21.16.54,2.13,1.92,4.41,3.47,5.96,2.11,2.11,4.83,3.32,7.75,3.71,2.47.33,4.7.05,7-.92,2.76-1.16,4.82-2.96,6.46-5.52,3.94-6.18,7.04-12.73,9.79-19.51,2.36-5.81,4.15-11.84,5.38-17.99.72-3.59.53-7.17-1.36-10.4-1.64-2.8-4.85-5.47-8.07-6.2-3.46-.79-7.33-.62-10.4,1.36-2.85,1.84-5.49,4.64-6.2,8.07-2.04,9.84-5.04,19.46-8.92,28.72l1.36-3.22c-4.42,10.47-9.95,20.43-16.52,29.7,8.22,1.07,16.45,2.15,24.67,3.22-3.72-16.52-8.43-32.82-14.12-48.77-1.63-4.57-3.34-9.11-5.13-13.62-.42-1.76-1.22-3.29-2.42-4.59-.95-1.47-2.21-2.63-3.79-3.48-2.89-1.69-7.16-2.41-10.4-1.36s-6.42,3.08-8.07,6.2-2.46,6.91-1.36,10.4c4.56,14.5,8.65,29.15,12.25,43.92.76,3.1,3.37,6.57,6.2,8.07s5.54,2.01,8.61,1.6c2.83-.38,5.76-1.54,7.75-3.71,2.25-2.45,4.38-6.08,3.95-9.55-2.04-16.75-4.04-33.75-1.82-50.6l-.48,3.59c.65-4.74,1.63-9.41,3.02-13.98h-26.04c2.75,7.64,4.61,15.56,5.71,23.61l-.48-3.59c2.1,15.8,1.31,31.81-.8,47.57l.48-3.59c-.92,6.75-2.07,13.47-3.37,20.16-.64,3.29-1.32,6.57-2.02,9.84-.59,2.76-1.24,5.5-2.31,8.12l1.36-3.22c-.62,1.46-1.36,2.83-2.32,4.1l2.11-2.73c-.68.85-1.43,1.62-2.28,2.3l2.73-2.11-.29.22c6.61,2.69,13.22,5.38,19.83,8.07-4.54-20.02-9.31-39.99-13.59-60.07-1.08-5.06-2.04-10.15-2.74-15.29l.48,3.59c-.99-7.54-1.38-15.19-.41-22.76l-.48,3.59c.63-4.65,1.78-9.19,3.58-13.52l-1.36,3.22c1.63-3.81,3.75-7.34,6.27-10.63l-2.11,2.73c5.24-6.76,11.78-12.64,18.52-17.88l-2.73,2.11c4.82-3.71,9.96-6.96,15.57-9.35l-3.22,1.36c9.35-3.89,19.4-5.45,29.36-6.95,3.12-.47,6.55-3.61,8.07-6.2,1.69-2.89,2.41-7.16,1.36-10.4s-3.08-6.42-6.2-8.07l-3.22-1.36c-2.39-.64-4.79-.64-7.18,0h0Z"/>
    <path class="cls-1" d="m126.2,281.3c20.28,5.04,41.48,7.24,62.36,6.15,6.68-.35,13.3-1.12,19.93-2.01,1.76-.42,3.29-1.22,4.59-2.42,1.47-.95,2.63-2.21,3.48-3.79,1.44-2.73,2.01-5.54,1.6-8.61-.38-2.83-1.54-5.76-3.71-7.75l-2.73-2.11c-2.11-1.22-4.38-1.84-6.81-1.84-.89-.12-1.77-.23-2.66-.35l3.59.48c-11.79-1.59-23.67-3.49-34.71-8.09l3.22,1.36c-2.88-1.22-5.64-2.64-8.35-4.18-3.5-1.99-6.96-3.74-10.72-5.24-3.99-1.59-8.23-2.09-12.47-2.59-5.08-.6-10.1-.79-14.73,1.93s-7.86,7.82-8.69,13.15c-.66,4.24-1.08,8.54-1.46,12.81-.6,6.68-.99,13.39-1.15,20.1-.19,7.61-.08,15.23.29,22.83,6.77-3.89,13.54-7.77,20.31-11.66-5.21-3.04-10.22-6.41-15.01-10.08l2.73,2.11c-7.85-6.06-15.04-12.93-21.45-20.5-3.04-3.59-8.79-4.67-13.13-3.47-2.29.64-4.27,1.8-5.96,3.47-1.67,1.68-2.83,3.67-3.47,5.96-1.35,3.32-1.89,7.22-1.59,10.78.42,5.04,1.57,9,3.74,13.57,3.17,6.67,8.77,12.08,14.77,16.22,2.81,1.94,5.92,3.33,9.05,4.65s6.44,2.53,9.84,3.37c6.92,1.7,14.12,2.46,21.23,2.82,6.17.31,12.36.28,18.54.39,7.2.12,14.43.61,21.5-1.21,4.84-1.25,9-3.57,12.74-6.84,3.45-3.01,5.63-6.97,7.25-11.17s1.73-9.18.58-13.51c-1.44-5.45-5.03-9.77-9.62-12.88-6.61-4.49-15.28-4.8-22.94-3.86-8.73,1.07-17.24,2.75-25.53,5.75-4.08,1.47-7.04,3.77-8.75,7.82-.85,1.61-1.23,3.34-1.16,5.2,0,2.44.62,4.71,1.84,6.81,2.38,3.13,4.93,6.08,8.61,7.74,2.74,1.24,5.39,2.25,8.3,2.92,4.85,1.13,9.73,2.19,14.6,3.2,9.84,2.05,19.72,3.89,29.64,5.53,3.27.54,6.64,1.34,9.97,1.24,2.05-.06,4.26-.27,6.21-.97,1.36-.49,2.83-1.04,4.07-1.81s2.68-1.83,3.69-2.99c1.51-1.74,2.85-3.71,3.47-5.96.81-2.94.49-6.02-.68-8.79-.94-2.22-2.25-3.93-4.16-5.4-2.23-1.72-5.28-3.11-8.18-2.9-12.8.92-24.95,4.29-36.31,10.28-3.71,1.96-5.91,5.85-6.45,9.86s.51,8.63,3.71,11.34c2.68,2.26,4.88,3.76,8.02,5.08s5.81,1.84,9.32,2.27c4.33.53,8.72-.14,12.99-.87,3.34-.57,6.61-1.43,9.9-2.23,4.17-1.01,8.39-1.75,12.64-2.32l-3.59.48c24.03-3.17,49.08-1.14,72.23-9.46,11.48-4.12,22.51-10.22,30.72-19.42s13.57-20.09,16.5-31.87c3.07-12.34,3.8-25.29,3.3-37.95h-27c.66,8.24,1.33,16.48,1.99,24.71.33,4.12.66,8.24,1,12.36.31,3.9.77,7.83.27,11.73l.48-3.59c-.26,1.72-.72,3.37-1.38,4.97l1.36-3.22c-1.01,2.31-2.37,4.42-3.91,6.42l2.11-2.73c-4.07,5.18-8.93,9.76-14.12,13.8l2.73-2.11c-5.06,3.89-10.53,7.39-16.41,9.9l3.22-1.36c-2.86,1.19-5.8,2.09-8.87,2.53l3.59-.48c-2.07.26-4.14.32-6.22.07l3.59.48c-1.78-.25-3.49-.7-5.16-1.37l3.22,1.36c-1.53-.65-2.96-1.46-4.3-2.46l2.73,2.11c-1.1-.86-2.09-1.82-2.96-2.92l2.11,2.73c-.7-.92-1.29-1.9-1.77-2.96l1.36,3.22c-.23-.54-.42-1.08-.59-1.64-.99-3.3-3.2-6.31-6.2-8.07s-7.16-2.41-10.4-1.36-6.42,3.08-8.07,6.2-2.42,6.88-1.36,10.4c.83,2.75,1.99,5.52,3.72,7.83,1.13,1.51,2.25,3.09,3.62,4.4s3.04,2.54,4.61,3.68c4.82,3.46,10.74,4.91,16.55,5.44,3.32.3,6.71-.22,9.97-.77,2.24-.37,4.44-1.02,6.56-1.83,5.3-2.02,10.32-4.51,15.08-7.59,8.36-5.41,16.35-12.02,22.59-19.83,4-5,7.81-10.53,8.92-17,.59-3.43.93-6.81.75-10.28-.14-2.57-.38-5.13-.59-7.7-.94-11.7-1.89-23.4-2.83-35.09-.29-3.63-1.31-6.9-3.95-9.55-2.34-2.34-6.18-4.1-9.55-3.95s-7.11,1.3-9.55,3.95-4.1,5.94-3.95,9.55c.32,8.14.15,16.3-.93,24.38l.48-3.59c-.97,7.05-2.63,14-5.38,20.58l1.36-3.22c-1.89,4.45-4.27,8.66-7.21,12.51l2.11-2.73c-2.7,3.49-5.82,6.59-9.31,9.29l2.73-2.11c-4.23,3.23-8.87,5.82-13.76,7.91l3.22-1.36c-8.29,3.48-17.1,5.5-25.99,6.71l3.59-.48c-20.14,2.7-40.63,1.74-60.58,6.11-4.59,1.01-9.11,2.34-13.77,3l3.59-.48c-2.61.35-5.24.49-7.86.15l3.59.48c-1.42-.21-2.79-.57-4.12-1.11l3.22,1.36c-1.11-.49-2.13-1.09-3.1-1.82l2.73,2.11c-.2-.15-.39-.31-.58-.48-.91,7.07-1.82,14.14-2.73,21.2,1.98-1.05,4-2,6.07-2.88l-3.22,1.36c5.94-2.47,12.16-4.16,18.53-5.06l-3.59.48c1.63-.22,3.26-.39,4.9-.5-3.18-7.68-6.36-15.36-9.55-23.05-.22.26-.44.47-.7.69l2.73-2.11c-.35.26-.71.46-1.11.64l3.22-1.36c-.52.2-1.04.32-1.59.41l3.59-.48c-1.28.15-2.55.06-3.83-.11l3.59.48c-9.03-1.31-18.03-3.05-26.97-4.83-4.49-.89-8.97-1.83-13.44-2.81-3.98-.87-8.19-1.51-11.99-3.01l3.22,1.36c-1-.42-1.93-.93-2.79-1.58l2.73,2.11c-.46-.38-.87-.79-1.25-1.24l2.11,2.73-.22-.29c-2.69,6.61-5.38,13.22-8.07,19.83,6.8-2.46,13.84-4.18,21.01-5.15l-3.59.48c3.55-.46,7.13-.82,10.7-.38l-3.59-.48c1.46.21,2.88.54,4.24,1.1l-3.22-1.36c.9.39,1.73.86,2.5,1.45l-2.73-2.11c.59.48,1.11,1,1.58,1.6l-2.11-2.73c.4.54.73,1.1,1.02,1.71l-1.36-3.22c.3.7.5,1.4.62,2.16l-.48-3.59c.11.86.1,1.69,0,2.55l.48-3.59c-.15.98-.41,1.92-.78,2.85l1.36-3.22c-.5,1.16-1.13,2.22-1.89,3.21l2.11-2.73c-.79.99-1.68,1.87-2.69,2.65l2.73-2.11c-.99.73-2.04,1.3-3.18,1.79l3.22-1.36c-1.84.75-3.75,1.21-5.71,1.5l3.59-.48c-3.64.48-7.32.36-10.98.26s-7.21-.13-10.82-.18c-7.22-.08-14.45-.23-21.61-1.19l3.59.48c-5.48-.76-10.87-2.02-15.99-4.14l3.22,1.36c-3.05-1.29-5.99-2.85-8.64-4.84l2.73,2.11c-2.19-1.69-4.14-3.62-5.83-5.81l2.11,2.73c-1.33-1.76-2.46-3.64-3.33-5.68l1.36,3.22c-.67-1.64-1.15-3.32-1.39-5.08l.48,3.59c-.16-1.38-.16-2.75.01-4.14l-.48,3.59c.19-1.3.53-2.53,1.03-3.75l-22.56,5.96c11.01,13,24.48,24.12,39.19,32.69,4.17,2.43,9.46,2.44,13.63,0,3.95-2.31,6.92-6.97,6.69-11.66-.85-17.26-.34-34.66,1.8-51.81l-.48,3.59c.16-1.15.38-2.26.83-3.33l-1.36,3.22c.19-.4.4-.77.65-1.13l-2.11,2.73c.21-.25.41-.47.66-.68l-2.73,2.11c.27-.2.53-.35.83-.5l-3.22,1.36c.41-.15.78-.24,1.21-.31l-3.59.48c2.35-.17,4.85.26,7.18.56l-3.59-.48c2.88.4,5.68,1.04,8.37,2.16l-3.22-1.36c4.36,1.89,8.3,4.59,12.59,6.62,5.13,2.43,10.46,4.5,15.92,6.04,10.15,2.86,20.67,4.14,31.1,5.51-1.2-8.84-2.39-17.68-3.59-26.52l-.47.06,3.59-.48c-17.63,2.33-35.53,2.29-53.15-.08l3.59.48c-7.23-.99-14.41-2.36-21.49-4.12-3.45-.86-7.3-.45-10.4,1.36-2.8,1.64-5.47,4.85-6.2,8.07-.79,3.46-.62,7.33,1.36,10.4s4.62,5.35,8.07,6.2h0Z"/>
    <path class="cls-1" d="m316.63,228.39c-4.97,6.06-10.69,11.42-16.88,16.22l2.73-2.11c-18.62,14.33-40.56,23.09-61.59,33.17-6.25,2.99-12.43,6.13-18.44,9.56-2.93,1.67-5.31,4.83-6.2,8.07s-.49,7.53,1.36,10.4,4.63,5.42,8.07,6.2l3.59.48c2.44,0,4.71-.62,6.81-1.84,18.15-8.58,36.3-17.15,54.45-25.73,5.1-2.41,10.2-4.82,15.3-7.23-6.16-6.16-12.31-12.31-18.47-18.47-2.11,4.2-4.62,8.18-7.5,11.9l2.11-2.73c-3.78,4.84-8.13,9.2-12.98,12.97l2.73-2.11c-3.83,2.95-7.92,5.52-12.26,7.67l16.36,21.2c3.8-4.21,8.13-7.86,12.6-11.32l-2.73,2.11c8.22-6.35,17.12-12.15,24.27-19.73,3.73-3.95,7.15-8.38,9.78-13.14,1.55-2.79,2.81-5.77,3.93-8.75.76-2.04,1.36-4.14,1.72-6.29,1.15-6.87,1.29-13.95-1.22-20.58-1.22-3.22-3.01-6.38-6.2-8.07s-6.97-2.54-10.4-1.36c-16.78,5.76-31.73,15.59-47.08,24.27-15.11,8.54-30.38,16.79-45.81,24.74-8.68,4.47-17.42,8.85-26.19,13.13,6.61,2.69,13.22,5.38,19.83,8.07-.46-1.15-.76-2.33-.93-3.56l.48,3.59c-.15-1.35-.12-2.67.05-4.02l-.48,3.59c.25-1.61.69-3.16,1.31-4.66l-1.36,3.22c.76-1.76,1.72-3.39,2.87-4.93l-2.11,2.73c1.37-1.77,2.97-3.3,4.73-4.67l-2.73,2.11c3.33-2.53,7.07-4.39,10.9-6.02l-3.22,1.36c4.32-1.81,8.71-3.42,13.04-5.21,5.6-2.3,11.17-4.69,16.67-7.22,8.12-3.74,16.29-7.63,23.87-12.4,8.53-5.37,16.28-11.95,21.75-20.5,2.87-4.48,4.9-9.65,6.12-14.82,1.14-4.86,1.71-9.84,2.42-14.78,1.67-11.62,3.35-23.23,5.02-34.85.56-1.79.64-3.59.24-5.38-.08-1.8-.62-3.47-1.6-5.02-1.64-2.8-4.85-5.47-8.07-6.2-3.46-.79-7.33-.62-10.4,1.36-2.74,1.77-5.72,4.69-6.2,8.07-1.39,9.64-2.78,19.28-4.17,28.92-.68,4.7-1.32,9.41-2.04,14.1-.69,4.5-1.58,8.97-3.34,13.19l1.36-3.22c-1.2,2.78-2.75,5.36-4.6,7.76l2.11-2.73c-2.58,3.29-5.62,6.15-8.92,8.71l2.73-2.11c-5.45,4.18-11.47,7.51-17.58,10.61-7.5,3.81-15.14,7.35-22.89,10.63l3.22-1.36c-8.3,3.5-17.08,6.24-25.01,10.55-9.1,4.95-16.37,12.7-19.51,22.68-.28.89-.49,1.79-.63,2.71-.31,1.95-.66,3.97-.67,5.97s.34,4.13.7,6.13c.17.98.46,1.92.82,2.84.64,2.29,1.8,4.27,3.47,5.96,1.22,1.32,2.67,2.25,4.34,2.79,4.15,1.75,8.02,1.27,12.01-.68,14.73-7.19,29.32-14.64,43.78-22.36,14.36-7.67,28.57-15.61,42.64-23.79,7.63-4.44,15.28-8.88,23.42-12.34l-3.22,1.36c1.98-.83,3.98-1.6,6.01-2.3-5.54-3.14-11.07-6.29-16.61-9.43.68,1.79,1.14,3.63,1.4,5.53l-.48-3.59c.27,2.25.25,4.5-.02,6.74l.48-3.59c-.41,3.06-1.28,6.02-2.46,8.86l1.36-3.22c-1.57,3.67-3.63,7.08-6.05,10.25l2.11-2.73c-4.23,5.48-9.51,9.93-14.96,14.14l2.73-2.11c-8.74,6.72-18.09,12.92-25.52,21.15-2.29,2.54-4.11,6.01-3.95,9.55.14,3.05,1.02,5.75,2.9,8.18,1.72,2.23,4.19,4.19,7.01,4.84l3.59.48c2.44,0,4.71-.62,6.81-1.84,8-3.96,15.43-9.43,21.75-15.72s11.83-13.7,15.83-21.67c1.39-2.77,2.02-5.5,1.6-8.61-.38-2.83-1.54-5.76-3.71-7.75-1.72-1.58-3.73-2.75-5.96-3.47-3.53-1.14-7.21-.15-10.4,1.36-18.15,8.58-36.3,17.15-54.45,25.73-5.1,2.41-10.2,4.82-15.3,7.23l13.63,23.31c13.76-7.86,28.35-14.07,42.64-20.87,13.05-6.22,25.9-13.02,37.39-21.86,7.15-5.5,13.88-11.33,19.61-18.33,1.32-1.22,2.25-2.67,2.79-4.34.85-1.61,1.23-3.34,1.16-5.2,0-3.31-1.47-7.27-3.95-9.55s-5.95-4.12-9.55-3.95c-3.37.15-7.31,1.23-9.55,3.95h0Z"/>
    <path class="cls-1" d="m262.21,200.73c.87,9.39.65,18.85-.59,28.2l.48-3.59c-1.54,11.28-4.56,22.31-8.98,32.79l1.36-3.22c-4.18,9.83-9.56,19.11-16.07,27.58l2.11-2.73c-.25.33-.51.66-.77.98-1.32,1.22-2.25,2.67-2.79,4.34-.85,1.61-1.23,3.34-1.16,5.2,0,3.31,1.47,7.27,3.95,9.55s5.95,4.12,9.55,3.95c3.33-.15,7.39-1.21,9.55-3.95,4.58-5.83,8.87-11.8,12.52-18.25,3.58-6.32,6.56-12.97,9.19-19.74,4.97-12.77,7.74-26.29,8.8-39.94.55-7.05.5-14.14-.16-21.18.07-1.86-.32-3.59-1.16-5.2-.54-1.67-1.47-3.12-2.79-4.34-2.34-2.34-6.18-4.1-9.55-3.95s-7.11,1.3-9.55,3.95c-2.29,2.5-4.28,6.03-3.95,9.55h0Z"/>
    <path class="cls-1" d="m222.62,314.12c1.16-.94,2.33-1.88,3.49-2.82,1.32-1.22,2.25-2.67,2.79-4.34.85-1.61,1.23-3.34,1.16-5.2.07-1.86-.32-3.59-1.16-5.2-.54-1.67-1.47-3.12-2.79-4.34l-2.73-2.11c-2.11-1.22-4.38-1.84-6.81-1.84l-3.59.48c-2.29.64-4.27,1.8-5.96,3.47-1.16.94-2.33,1.88-3.49,2.82-1.32,1.22-2.25,2.67-2.79,4.34-.85,1.61-1.23,3.34-1.16,5.2-.07,1.86.32,3.59,1.16,5.2.54,1.67,1.47,3.12,2.79,4.34l2.73,2.11c2.11,1.22,4.38,1.84,6.81,1.84l3.59-.48c2.29-.64,4.27-1.8,5.96-3.47h0Z"/>
    <path class="cls-1" d="m315.03,240.65c-.19-1.29-.37-2.58-.55-3.87l.48,3.59c-2.25-16.88-2.98-33.95-2.15-50.95.23-4.8.6-9.59,1.07-14.37-8.39,2.27-16.77,4.54-25.16,6.81,1.31,2.51,2.51,5.06,3.62,7.66l-1.36-3.22c7.34,17.39,10.19,36.18,12.96,54.73.42,1.76,1.22,3.29,2.42,4.59.95,1.47,2.21,2.63,3.79,3.48,2.73,1.44,5.54,2.01,8.61,1.6,2.83-.38,5.76-1.54,7.75-3.71l2.11-2.73c1.22-2.11,1.84-4.38,1.84-6.81,1.35-18.68,1.01-37.46-1.03-56.08-.69-6.32-1.55-12.62-2.55-18.9-.42-1.76-1.22-3.29-2.42-4.59-.95-1.47-2.21-2.63-3.79-3.48-2.73-1.44-5.54-2.01-8.61-1.6-2.83.38-5.76,1.54-7.75,3.71-2.44,2.66-3.92,5.88-3.95,9.55-.17,17.14,6.02,33.14,10.23,49.48,1.11,4.31,2.04,8.66,2.64,13.07l-.48-3.59c.4,3.12.63,6.26.61,9.41h27c-1.17-14.1-2.33-28.2-3.5-42.3s-2.18-29.58-4.26-44.25c-1.06-7.45-2.6-14.83-5.05-21.96-1.55-4.53-4.67-8.12-9.43-9.43-2.39-.64-4.79-.64-7.18,0-2.29.64-4.27,1.8-5.96,3.47-4.79,6.07-9.12,12.34-12.46,19.33s-6.06,14.19-7.78,21.7l24.67-3.22c-2.02-3.73-4.05-7.46-6.07-11.2-.86-1.59-1.65-3.26-2.71-4.72-1.79-2.46-3.27-4.18-5.84-5.85s-5.53-2.41-8.44-2.5c-4.93-.16-9.18,2.1-12.81,5.21-2.02,1.73-3.64,4.17-5.21,6.25-2.13,2.84-3.97,5.89-5.48,9.11-1.93,4.14-3.67,8.42-4.75,12.86-.43,1.76-.75,3.54-.99,5.34s-.6,3.73-.7,5.61c-.07,1.42.22,2.93.48,4.31s.9,2.86,1.58,4.06c1.62,2.86,4.16,4.99,7.15,6.25,2.1.89,4.28,1.51,6.61,1.32,3.51-.28,6.48-1.21,9.29-3.37,1.82-1.41,3.46-3.05,4.48-5.16,1.41-2.92,1.89-5.05,2.19-8.29.08-.87.08-1.75.06-2.63-.04-1.89-.19-3.76-.42-5.64-.59-4.68-1.33-9.26-2.8-13.76-1.46-4.48-3.34-8.88-5.57-13.03-1.91-3.55-4.2-6.8-6.66-9.98s-4.79-5.93-7.55-8.57c-5.48-5.24-11.77-9.89-18.5-13.4-6.77-3.54-14.08-6.37-21.58-7.9-16.65-3.4-34.43-2.26-50.3,3.99-2.65,1.04-5.28,2.16-7.86,3.36,6.61,2.69,13.22,5.38,19.83,8.07-.13-.51-.23-1.02-.31-1.55l.48,3.59c-.11-1.05-.1-2.08.03-3.12l-.48,3.59c.2-1.32.57-2.58,1.08-3.81l-1.36,3.22c.6-1.36,1.35-2.61,2.23-3.8l-2.11,2.73c1.38-1.76,3-3.28,4.76-4.66l-2.73,2.11c4.35-3.33,9.21-6.02,13.87-8.89,5.08-3.13,10.16-6.25,15.23-9.39,2.62-1.63,5.15-3.55,6.7-6.3,1.29-2.28,2.22-4.87,2.19-7.53s-.56-5.54-1.98-7.87c-2.1-3.45-5.34-6.6-9.06-8.26-3.99-1.78-7.86-2.96-12.33-2.82s-8.28,1.24-12.38,3.09c-6.79,3.06-11.87,9.15-15.98,15.15-2.39,3.5-2.25,8.29-.68,12.01s4.72,7.1,8.75,7.82c6.24,1.1,12.57,1.8,18.91,1.54,5.25-.21,10.58-1.65,15.83-1.01l-3.59-.48c1.82.26,3.56.76,5.26,1.46l-3.22-1.36c2.56,1.11,4.9,2.61,7.11,4.31l-2.73-2.11c2.56,2,4.92,4.21,7.25,6.47,3.12,3.02,7.08,4.29,11.34,3.71,1.8-.08,3.47-.62,5.02-1.6,2.03-1.2,3.64-2.81,4.84-4.84,1.22-2.89,2.81-5.58,4.72-8.06l-2.11,2.73c2-2.56,4.3-4.84,6.86-6.85l-2.73,2.11c2.86-2.21,5.97-4.03,9.28-5.45l-3.22,1.36c3.32-1.39,6.79-2.35,10.36-2.85l-3.59.48c3.22-.41,6.46-.44,9.68-.02l-3.59-.48c3.04.42,5.98,1.22,8.81,2.39l-3.22-1.36c3.05,1.29,5.89,2.97,8.52,4.99l-2.73-2.11c2.71,2.12,5.14,4.55,7.26,7.26l-2.11-2.73c2.17,2.82,3.98,5.88,5.38,9.15l-1.36-3.22c1.32,3.16,2.25,6.46,2.71,9.86l-.48-3.59c.35,2.77.42,5.59.08,8.36l.48-3.59c-.17,1.19-.44,2.35-.89,3.47l1.36-3.22c-.33.73-.71,1.4-1.19,2.04l2.11-2.73c-.46.55-.96,1.04-1.52,1.48l2.73-2.11c-.87.63-1.79,1.13-2.78,1.55l3.22-1.36c-1.6.65-3.26,1.12-4.91,1.63-2.59.81-5.14,1.82-7.55,3.07-3.41,1.77-6.39,4.26-9.94,5.8l3.22-1.36c-1.92.79-3.9,1.32-5.95,1.63l3.59-.48c-2.62.35-5.25.32-7.88-.01l3.59.48c-3.21-.45-6.32-1.33-9.31-2.57l3.22,1.36c-4.41-1.89-8.44-4.5-12.23-7.42l2.73,2.11c-2.37-1.84-4.65-3.8-6.89-5.8s-4.4-3.75-6.16-6.02l2.11,2.73c-.54-.74-1.01-1.5-1.38-2.34l1.36,3.22c-.18-.45-.31-.9-.41-1.38l.48,3.59c-.06-.46-.07-.9-.03-1.37l-.48,3.59c.06-.35.15-.66.27-1l-1.36,3.22c.15-.32.32-.61.52-.9l-2.11,2.73c.2-.24.39-.44.62-.64l-2.73,2.11c.32-.24.64-.43,1-.59l-3.22,1.36c.38-.14.75-.24,1.14-.31l-3.59.48c.63-.08,1.24-.07,1.87,0l-3.59-.48c.77.12,1.49.31,2.22.59l-3.22-1.36c.83.35,1.58.79,2.3,1.32l-2.73-2.11c1.4,1.08,2.66,2.33,4.03,3.45,3.2,2.64,5.79,4.36,9.79,5.67,3.23,1.06,7.52.33,10.4-1.36s5.47-4.85,6.2-8.07c.79-3.46.62-7.33-1.36-10.4s-4.6-5.07-8.07-6.2c-.24-.07-.47-.15-.7-.25l3.22,1.36c-1.03-.44-1.95-1.03-2.84-1.72l2.73,2.11c-1.19-.95-2.28-2-3.44-2.98-1.35-1.13-2.72-2.25-4.18-3.23-1.04-.69-2.21-1.11-3.35-1.6-5.78-2.44-12.69-2.6-18.13.91-3.78,2.44-6.47,6.01-7.68,10.36-1.32,4.73-.25,9.54,1.89,13.82,1.93,3.88,5.19,6.86,8.35,9.72,5.9,5.34,12.1,10.67,19.12,14.49,7.67,4.17,16.59,6.95,25.4,6.53,5.97-.28,11.43-1.68,16.75-4.41,3.43-1.76,6.41-4.28,9.96-5.81l-3.22,1.36c2.12-.86,4.35-1.39,6.5-2.16,4.04-1.44,7.97-3.25,10.98-6.42,5.54-5.84,7.2-14.02,6.64-21.85-.44-6.08-1.74-11.59-4.09-17.17s-5.39-10.27-9.3-14.88c-3.47-4.09-7.81-7.61-12.36-10.4s-9.76-4.97-15-5.99c-3.1-.6-6.29-1.04-9.45-1.12s-6.42.37-9.64.83c-5.27.75-10.21,2.63-15,4.9-5.18,2.45-10.02,6.03-14.07,10.06s-7.77,9.05-10.04,14.43l21.2-2.73c-3.65-3.52-7.44-6.85-11.6-9.77s-8.76-5.07-13.59-5.87c-3.48-.58-6.67-.86-10.15-.48-2.42.26-4.83.64-7.26.82-4.8.36-9.62.2-14.39-.41l3.59.48c-1.11-.15-2.22-.32-3.33-.52,2.69,6.61,5.38,13.22,8.07,19.83.53-.77,1.07-1.53,1.64-2.28l-2.11,2.73c1.56-2.01,3.27-3.88,5.26-5.47l-2.73,2.11c1.37-1.06,2.82-1.95,4.41-2.64l-3.22,1.36c1.22-.5,2.47-.84,3.78-1.04l-3.59.48c1.31-.17,2.6-.18,3.91-.02l-3.59-.48c1.05.15,2.06.41,3.04.8l-3.22-1.36c.86.36,1.65.81,2.41,1.36l-2.73-2.11c.57.44,1.08.92,1.55,1.47l-2.11-2.73c.17.2.31.42.42.66l-1.36-3.22.13.36-.48-3.59c.06.23.06.47.01.7l.48-3.59-.1.3,1.36-3.22c-.09.2-.2.38-.34.54l2.11-2.73c-.15.17-.31.33-.49.47l2.73-2.11c-1.51,1.16-3.25,2.07-4.87,3.07-1.83,1.13-3.67,2.26-5.5,3.39-3.53,2.17-7.05,4.35-10.58,6.52-3.19,1.97-6.44,3.87-9.43,6.15-4.39,3.35-8.44,6.9-11.14,11.85-3.41,6.25-4.66,13.37-2.86,20.33,1.05,4.07,4.04,7.15,7.82,8.75,1.61.85,3.34,1.23,5.2,1.16,2.44,0,4.71-.62,6.81-1.84.93-.43,1.86-.85,2.81-1.25l-3.22,1.36c6.5-2.73,13.31-4.59,20.29-5.53l-3.59.48c6.54-.85,13.15-.88,19.69-.04l-3.59-.48c6.21.84,12.27,2.46,18.05,4.88l-3.22-1.36c5.63,2.39,10.92,5.48,15.75,9.21l-2.73-2.11c4.4,3.44,8.36,7.37,11.79,11.78l-2.11-2.73c3.25,4.23,5.96,8.82,8.06,13.73l-1.36-3.22c1.97,4.7,3.35,9.6,4.05,14.65l-.48-3.59c.36,2.78.65,5.68.39,8.48l.48-3.59c-.07.51-.18.98-.35,1.47l1.36-3.22c-.16.36-.33.65-.56.97l2.11-2.73c-.13.16-.27.29-.44.41l2.73-2.11c-.17.12-.34.22-.53.3l3.22-1.36c-.19.08-.38.14-.58.18l3.59-.48c-.31.04-.57.05-.88.01l3.59.48c-.19-.03-.36-.09-.53-.18l3.22,1.36-.24-.15,2.73,2.11-.21-.19,2.11,2.73c-.15-.16-.26-.34-.33-.54l1.36,3.22c-.08-.22-.13-.45-.15-.68l.48,3.59c-.03-.91.11-1.83.22-2.73l-.48,3.59c.62-4.57,1.83-9.01,3.61-13.26l-1.36,3.22c1.7-3.98,3.87-7.72,6.5-11.16l-2.11,2.73c.92-1.18,1.84-2.36,3-3.32l-2.73,2.11c.42-.32.84-.58,1.31-.82l-3.22,1.36c.36-.14.68-.24,1.06-.3l-3.59.48c.24-.03.49-.03.74,0l-3.59-.48c.38.06.68.15,1.04.3l-3.22-1.36c.21.1.41.22.59.36l-2.73-2.11c.38.31.69.64,1,1.01l-2.11-2.73c1.7,2.3,2.9,5.06,4.26,7.57,1.51,2.78,3.02,5.56,4.53,8.34l2.11,2.73,2.73,2.11c2.63,1.54,5.63,2,8.61,1.6,2.43-.33,4.45-1.16,6.39-2.66,2.23-1.72,4.19-4.19,4.84-7.01,1.15-5.05,2.74-9.97,4.74-14.75l-1.36,3.22c2.98-7.02,6.83-13.62,11.49-19.65l-2.11,2.73c.18-.23.35-.45.53-.68l-22.56-5.96c2.6,7.58,4.16,15.43,5.24,23.36l-.48-3.59c1.38,10.32,2.06,20.73,2.91,31.1s1.77,21.44,2.66,32.16c.5,6.1,1.01,12.2,1.51,18.31.3,3.63,1.3,6.9,3.95,9.55,2.34,2.34,6.18,4.1,9.55,3.95s7.11-1.3,9.55-3.95,3.94-5.88,3.95-9.55c.07-17-6.03-32.85-10.21-49.06-1.11-4.31-2.05-8.66-2.65-13.06l.48,3.59c-.43-3.26-.65-6.54-.62-9.84-8.84,1.2-17.68,2.39-26.52,3.59.41,2.58.8,5.17,1.15,7.76l-.48-3.59c2.19,16.37,3.09,32.91,2.65,49.42-.13,4.74-.36,9.48-.71,14.21,8.84-1.2,17.68-2.39,26.52-3.59-2.49-16.72-5.03-33.62-10.91-49.56-2.02-5.48-4.33-10.88-7.03-16.06l-2.11-2.73c-1.22-1.32-2.67-2.25-4.34-2.79-2.68-1.13-5.94-1.6-8.79-.68-2.23.72-4.23,1.89-5.96,3.47-1.32,1.22-2.25,2.67-2.79,4.34-.85,1.61-1.23,3.34-1.16,5.2-1.8,18.08-1.87,36.32-.17,54.4.58,6.15,1.38,12.28,2.28,18.38.46,3.11,3.62,6.56,6.2,8.07,2.89,1.69,7.16,2.41,10.4,1.36s6.42-3.08,8.07-6.2l1.36-3.22c.64-2.39.64-4.79,0-7.18h0Z"/>
    <path class="cls-1" d="m214.48,90.85c3.21-1.27,6.55-2.02,9.96-2.49l-3.59.48c3.44-.45,6.91-.65,10.37-.85,4.58-.27,9.09-.72,13.63-1.38,7.24-1.05,14.29-3.02,21.31-4.99,2.14-.6,4.38-1.9,5.96-3.47,2.11-2.11,3.32-4.83,3.71-7.75.33-2.47.05-4.7-.92-7-1.12-2.66-2.96-4.99-5.52-6.46-5.32-3.04-11.21-3.92-17.26-4.12-4.36-.15-8.74-.23-13.1-.19-9.67.1-19.65.98-28.86,4.07-3.33,1.12-6.26,3.11-8.07,6.2-1.69,2.89-2.41,7.16-1.36,10.4s3.08,6.42,6.2,8.07,6.95,2.52,10.4,1.36c3.94-1.32,7.99-2.19,12.11-2.75l-3.59.48c5.14-.66,10.32-.86,15.49-.85s10.04-.11,14.96.5l-3.59-.48c1.65.23,3.24.6,4.79,1.23l-3.22-1.36c.5.23.99.47,1.47.75,1.07-8.22,2.15-16.45,3.22-24.67-7.18,2.02-14.38,4.02-21.79,5.06l3.59-.48c-5.13.69-10.3.8-15.46,1.21-6.07.49-12.33,1.18-18.03,3.44-1.76.42-3.29,1.22-4.59,2.42-1.47.95-2.63,2.21-3.48,3.79-1.69,2.89-2.41,7.16-1.36,10.4s3.08,6.42,6.2,8.07,7.09,2.67,10.4,1.36h0Z"/>
    <path class="cls-1" d="m272.91,79.8c3.46,0,7.1-1.51,9.55-3.95s4.1-6.18,3.95-9.55-1.3-7.11-3.95-9.55-5.89-3.95-9.55-3.95c-3.46,0-7.1,1.51-9.55,3.95s-4.1,6.18-3.95,9.55,1.3,7.11,3.95,9.55,5.89,3.95,9.55,3.95h0Z"/>
    <path class="cls-1" d="m191.06,166.75c-5.94,2.03-10.65,5.62-14.03,10.93-1.3,2.05-2.31,4.42-2.88,6.78-.96,3.96-.86,7.07-.22,11.02.75,4.65,3.49,9.11,6.72,12.45s8.02,6.15,12.7,7.4c4.89,1.31,10.34,1.28,15.19-.21s9.04-4.04,12.9-7.42c1.12-.98,2.11-2.08,3.04-3.25,1.65-2.09,3.31-4.16,4.5-6.55,2.88-5.82,4.64-12.61,2.46-19-1.87-5.49-5.55-10.09-10.68-12.89-3.35-1.83-7.06-3.09-10.82-3.74-2.42-.42-4.87-.72-7.32-1.01-1.92-.23-3.87-.39-5.8-.23-4.24.36-7.22,1.1-11.04,2.85-2.56,1.18-4.79,2.99-6.92,4.8-3.21,2.71-5.94,6.18-8.19,9.71s-4.13,7.81-5.01,12.01c-1.15,5.47-1.17,10.4-.07,15.87.27,1.34.68,2.63,1.19,3.9.97,2.44,1.96,4.94,3.5,7.09,3.04,4.25,6.68,8.13,11.48,10.41,2.42,1.15,4.95,2.24,7.57,2.84s5.45.95,8.19,1.14c1.69.12,3.4.12,5.1.02,2.89-.17,5.9-.44,8.61-1.51,3.54-1.39,6.64-3.11,9.27-5.95,1.91-2.07,3.6-4.42,5.16-6.77,2.47-3.73,4.25-7.75,5.93-11.89,1.34-3.29,2.32-6.73,2.92-10.23.94-5.49,1.76-11.36.01-16.81-1.87-5.83-5.57-10.37-10.72-13.62-3.32-2.09-7.28-3.44-11.1-4.32-4.63-1.07-9.42-1.87-14.16-2.13-9.68-.53-20.72,2.56-27.33,10.04-3.45,3.91-6.24,8.66-7.14,13.87s-1.06,10.58.48,15.84c2.5,8.57,8.31,15.75,15.81,20.49,3.28,2.07,7.12,3.72,10.95,4.43,5.33.99,9.98.98,15.31-.2,3.68-.81,7.16-2.33,10.72-3.54,4.2-1.44,8.31-2.91,12.39-4.69,8.73-3.83,16.34-11.42,18.75-20.84.59-2.32.99-4.83.86-7.23-.23-4.07-1.07-7.03-2.8-10.67-2.16-4.53-6.06-7.9-10.09-10.72-2.38-1.66-5.02-2.89-7.67-4.06-1.55-.99-3.22-1.52-5.02-1.6-1.79-.4-3.59-.32-5.38.24-3.13.86-6.53,3.28-8.07,6.2-1.66,3.13-2.49,6.93-1.36,10.4,1.01,3.13,3.06,6.68,6.2,8.07,2.97,1.31,5.92,2.72,8.53,4.69l-2.73-2.11c1.1.86,2.1,1.81,2.97,2.91l-2.11-2.73c.62.83,1.14,1.7,1.56,2.65l-1.36-3.22c.37.91.62,1.83.76,2.81l-.48-3.59c.11.98.09,1.95-.02,2.93l.48-3.59c-.19,1.24-.53,2.41-1.01,3.57l1.36-3.22c-.58,1.29-1.29,2.48-2.14,3.61l2.11-2.73c-1.03,1.32-2.2,2.49-3.53,3.52l2.73-2.11c-2.13,1.6-4.48,2.81-6.93,3.85l3.22-1.36c-3.34,1.38-6.8,2.42-10.2,3.63-3.66,1.31-7.27,2.78-11.15,3.3l3.59-.48c-1.63.19-3.24.17-4.86-.03l3.59.48c-1.85-.26-3.62-.75-5.35-1.46l3.22,1.36c-1.83-.78-3.54-1.77-5.13-2.97l2.73,2.11c-1.57-1.22-2.98-2.61-4.22-4.17l2.11,2.73c-1.14-1.48-2.09-3.06-2.84-4.77l1.36,3.22c-.68-1.61-1.15-3.28-1.4-5.01l.48,3.59c-.22-1.71-.22-3.42-.02-5.14l-.48,3.59c.23-1.61.63-3.16,1.25-4.66l-1.36,3.22c.55-1.24,1.21-2.38,2.04-3.45l-2.11,2.73c.83-1.02,1.76-1.91,2.79-2.71l-2.73,2.11c1.27-.94,2.63-1.69,4.09-2.31l-3.22,1.36c1.85-.74,3.76-1.23,5.73-1.5l-3.59.48c3.01-.36,6.03-.23,9.03.15l-3.59-.48c4.25.58,8.65,1.36,12.63,3.02l-3.22-1.36c1.27.55,2.46,1.21,3.57,2.05l-2.73-2.11c.7.56,1.33,1.18,1.89,1.88l-2.11-2.73c.5.67.89,1.35,1.23,2.11l-1.36-3.22c.36.92.59,1.84.73,2.82l-.48-3.59c.22,1.98.06,3.94-.19,5.91l.48-3.59c-.61,4.38-1.79,8.63-3.51,12.71l1.36-3.22c-1.63,3.79-3.7,7.36-6.21,10.64l2.11-2.73c-.78.98-1.61,1.9-2.59,2.68l2.73-2.11c-.57.42-1.15.77-1.79,1.07l3.22-1.36c-1.07.44-2.16.71-3.3.87l3.59-.48c-2.95.35-5.98.29-8.93-.08l3.59.48c-2.09-.3-4.11-.79-6.07-1.59l3.22,1.36c-1.37-.59-2.65-1.32-3.85-2.21l2.73,2.11c-1.16-.91-2.19-1.94-3.11-3.1l2.11,2.73c-1.05-1.38-1.9-2.86-2.58-4.46l1.36,3.22c-.7-1.73-1.17-3.52-1.43-5.37l.48,3.59c-.23-1.9-.21-3.77.04-5.66l-.48,3.59c.31-2.11.89-4.14,1.7-6.11l-1.36,3.22c1-2.34,2.3-4.51,3.84-6.53l-2.11,2.73c1.51-1.92,3.2-3.68,5.11-5.21l-2.73,2.11c1.11-.85,2.27-1.58,3.54-2.16l-3.22,1.36c1.09-.44,2.19-.74,3.35-.91l-3.59.48c2.83-.35,5.65-.02,8.45.36l-3.59-.48c2.76.38,5.5.92,8.09,1.98l-3.22-1.36c1.07.46,2.09,1.01,3.03,1.71l-2.73-2.11c.64.5,1.21,1.05,1.72,1.69l-2.11-2.73c.43.58.78,1.17,1.06,1.83l-1.36-3.22c.22.57.38,1.14.49,1.74l-.48-3.59c.11.87.11,1.7.01,2.57l.48-3.59c-.18,1.17-.51,2.27-.94,3.37l1.36-3.22c-.77,1.8-1.76,3.46-2.94,5.02l2.11-2.73c-1.22,1.57-2.61,2.97-4.18,4.18l2.73-2.11c-1.28.95-2.63,1.76-4.09,2.4l3.22-1.36c-1.35.56-2.74.95-4.19,1.17l3.59-.48c-1.29.16-2.55.17-3.84,0l3.59.48c-1.26-.19-2.47-.53-3.65-1.02l3.22,1.36c-1.17-.51-2.25-1.14-3.26-1.9l2.73,2.11c-.9-.71-1.7-1.49-2.41-2.37l2.11,2.73c-.61-.8-1.13-1.65-1.55-2.57l1.36,3.22c-.39-.94-.66-1.9-.81-2.91l.48,3.59c-.11-.94-.1-1.86.02-2.8l-.48,3.59c.15-.94.4-1.83.75-2.71l-1.36,3.22c.42-.98.95-1.89,1.59-2.75l-2.11,2.73c.66-.84,1.4-1.58,2.25-2.23l-2.73,2.11c.67-.49,1.36-.9,2.12-1.25l-3.22,1.36c.33-.14.65-.26.99-.38,3.34-1.14,6.25-3.09,8.07-6.2,1.69-2.89,2.41-7.16,1.36-10.4s-3.08-6.42-6.2-8.07-6.97-2.53-10.4-1.36h0Z"/>
  </g>
  <g id="Layer_1" data-name="Layer 1">
    <path class="cls-2" d="m93.99,82.12c3.68-1.89,7.42-3.63,11.22-5.24l-3.22,1.36c18.26-7.68,37.66-12.11,57.24-14.76l-3.59.48c13.27-1.77,26.64-2.76,40.01-3.39s27.71-1.2,41.55-1.05c8.19.09,16.38.52,24.5,1.58l-3.59-.48c10.07,1.36,19.97,3.75,29.36,7.67l-3.22-1.36c6.71,2.85,13.08,6.43,18.86,10.88l-2.73-2.11c4.38,3.42,8.35,7.31,11.78,11.69l-2.11-2.73c3.97,5.14,7.12,10.81,9.66,16.77l-1.36-3.22c6.84,16.23,9.74,34.15,12.08,51.5l-.48-3.59c4.69,35.31,4.51,71.02,3.33,106.55-.32,9.73-.38,19.56-1.63,29.22l.48-3.59c-.75,5.54-2,11-4.17,16.17l1.36-3.22c-1.72,3.99-3.94,7.71-6.57,11.16l2.11-2.73c-3.3,4.26-7.16,8.01-11.41,11.3l2.73-2.11c-5.28,4.03-11.07,7.3-17.17,9.89l3.22-1.36c-8.72,3.64-17.97,5.77-27.32,7.06l3.59-.48c-18.14,2.43-36.6,2-54.85,2.22-18.95.24-37.9.6-56.85.69-10.35.05-20.73-.18-31-1.54l3.59.48c-8.97-1.22-17.77-3.34-26.13-6.86l3.22,1.36c-5.83-2.49-11.36-5.61-16.39-9.49l2.73,2.11c-3.87-3.03-7.37-6.47-10.39-10.34l2.11,2.73c-3.17-4.15-5.71-8.69-7.75-13.49l1.36,3.22c-6.17-14.79-7.84-31.15-9.95-46.9l.48,3.59c-3.99-29.74-6.73-59.8-5.29-89.83.4-8.32,1.14-16.63,2.24-24.89l-.48,3.59c1.92-14.1,4.51-28.56,10.01-41.75l-1.36,3.22c2.19-5.19,4.87-10.17,8.31-14.65l-2.11,2.73c2.18-2.79,4.63-5.34,7.43-7.51l-2.73,2.11c2.16-1.64,4.49-3.01,6.98-4.08l-3.22,1.36c1.71-.71,3.47-1.26,5.28-1.66,3.21-.72,6.44-3.42,8.07-6.2s2.41-7.16,1.36-10.4c-2.34-7.24-9.21-11.08-16.61-9.43-15.85,3.53-27.78,16.46-34.53,30.66-7.24,15.21-10.64,31.81-12.91,48.42-2.58,18.89-3.51,37.85-2.93,56.91.55,18.12,2.27,36.19,4.55,54.17,1.22,9.65,2.5,19.3,4.02,28.9,1.24,7.86,2.75,15.73,5.29,23.29,1.62,4.81,3.58,9.58,5.95,14.07s5.13,8.21,8.21,11.99c5.24,6.44,12.02,11.8,19.12,16.04,15.92,9.5,34.27,13.26,52.56,14.52,9.03.62,18.09.58,27.14.48,9.49-.11,18.98-.24,28.48-.36,18.35-.23,36.73-.18,55.07-.8,10.01-.34,19.98-1.19,29.86-2.84,9.1-1.52,17.74-4.15,26.21-7.76,14.79-6.31,28.15-16.87,36.62-30.66,10.11-16.47,10.24-36.05,10.9-54.75,1.29-36.67,1.68-73.53-3.12-109.98-2.36-17.93-5.02-36.42-11.69-53.34-1.82-4.63-3.8-9.23-6.22-13.58s-5.5-8.58-8.73-12.54c-5.28-6.48-11.93-11.92-18.92-16.45s-14.95-8.09-22.92-10.84c-8.89-3.07-18.08-4.7-27.39-5.89-17.82-2.28-35.88-1.56-53.78-.93-16.76.58-33.54,1.5-50.18,3.66-17.59,2.28-35.04,5.53-51.82,11.39-8.55,2.98-16.94,6.53-24.99,10.67-2.92,1.5-5.35,4.98-6.2,8.07s-.49,7.53,1.36,10.4,4.63,5.42,8.07,6.2c3.65.83,7.05.36,10.4-1.36h0Z"/>
    <path class="cls-2" d="m190.85,135.23c-2.43-.4-4.94-.82-7.43-.78s-5.24.43-7.77.96c-3.88.82-7.73,2.48-11.12,4.5-7.06,4.19-12.85,10.49-16.77,17.67-3.59,6.56-5.98,13.81-7.48,21.13-1.86,9.03-2.66,18.1-.47,27.16,1.88,7.79,5.97,14.59,10.98,20.73,4.39,5.38,10.17,9.9,16.25,13.21,6.7,3.65,14.09,6.27,21.59,7.65s15.48,2.35,23.13,1.69c4.36-.38,8.75-.98,12.82-2.64,2.45-1,4.84-1.96,7.02-3.45s4.45-3.26,6.46-5.11c4.69-4.31,9.1-9.19,13.08-14.16,5.23-6.53,9.67-13.21,12.24-21.27s2.47-17.2.17-25.4c-2.34-8.34-6.7-15.56-12-22.3-4.07-5.16-8.99-9.37-14.29-13.23s-11.22-6.67-17.34-9.05-12.6-3.6-19.18-4.35c-13.02-1.49-26.26,1.26-37.96,7.04-11.65,5.76-21.44,15.29-28.42,26.17s-11.09,24.22-11.14,37.29c-.04,8.88,1.79,17.62,5.77,25.57,1.84,3.67,4.4,6.99,7.05,10.1,2.03,2.37,4.31,4.52,6.73,6.48,5.45,4.41,11.17,8.32,17.57,11.22,6.35,2.87,12.84,5.25,19.69,6.57,13.75,2.65,27.95,2.47,41.49-1.28,6.68-1.85,13.26-4.58,19.26-8.04,3.6-2.08,6.92-4.55,10.15-7.16,2.42-1.95,4.67-4.13,6.63-6.56,2.7-3.33,5.18-6.71,7.01-10.59s3.46-8.07,4.75-12.27c1.03-3.34,2-6.72,2.82-10.13,1.08-4.53,1.88-9.34,1.32-14-.34-2.77-.69-5.4-1.56-8.04s-2.08-5.34-3.21-7.96c-1.35-3.15-2.72-6.29-4.18-9.39-3.3-7.03-7.27-13.51-12.29-19.46-4.49-5.33-10.12-9.88-16.04-13.52s-12.65-6.47-19.42-8.16c-7.24-1.8-14.94-2.56-22.38-1.95-7.6.63-15.12,2.08-22.19,4.99-4,1.65-7.93,3.35-11.63,5.59-3.32,2.01-6.44,4.4-9.38,6.92-2.23,1.91-4.3,4.02-6.13,6.32-2.45,3.07-4.83,6.16-6.56,9.7-3.36,6.84-5.55,14.49-4.82,22.18.23,2.37.62,4.72,1.84,6.81,1.49,2.54,3.78,4.39,6.46,5.52,2.3.97,4.53,1.25,7,.92,3.08-.41,5.38-1.65,7.75-3.71,3.46-3.01,6.96-5.95,10.58-8.76l-2.73,2.11c6.77-5.21,13.97-9.91,21.84-13.29l-3.22,1.36c5.19-2.19,10.61-3.78,16.19-4.57l-3.59.48c4.38-.58,8.78-.66,13.17-.11l-3.59-.48c4.27.58,8.38,1.79,12.36,3.44l-3.22-1.36c3.37,1.42,6.61,3.12,9.77,4.95s6.13,3.55,8.92,5.69l-2.73-2.11c1.31,1.03,2.5,2.16,3.54,3.47l-2.11-2.73c.95,1.26,1.71,2.62,2.32,4.07l-1.36-3.22c.89,2.22,1.41,4.54,1.73,6.91l-.48-3.59c.47,3.71.51,7.45.55,11.19.05,4.07,0,8.15-.51,12.19l.48-3.59c-.44,3.26-1.19,6.45-2.43,9.5l1.36-3.22c-1.15,2.72-2.67,5.24-4.45,7.59l2.11-2.73c-4.39,5.67-10.07,10.13-15.71,14.5-2.53,1.96-3.95,6.52-3.95,9.55,0,3.31,1.47,7.27,3.95,9.55s5.95,4.12,9.55,3.95l3.59-.48c2.29-.64,4.27-1.8,5.96-3.47,4.59-3.55,9.2-7.15,13.13-11.44,5.41-5.89,9.66-12.65,11.8-20.41,2-7.24,2.23-14.92,2.11-22.38-.05-2.96-.08-5.93-.38-8.87-.39-3.87-.84-7.87-2.23-11.54-1.75-4.61-4.01-8.75-7.59-12.23-2.92-2.84-6.42-5.12-9.89-7.25-6.33-3.89-12.93-7.33-19.97-9.77-13.87-4.81-29.74-3.63-43.31,1.6-7.6,2.93-14.74,6.62-21.44,11.25s-13.05,9.83-19.21,15.19c7.68,3.18,15.36,6.36,23.05,9.55-.2-2.1-.16-4.19.12-6.28l-.48,3.59c.38-2.55,1.09-5.02,2.08-7.4l-1.36,3.22c1.24-2.88,2.86-5.55,4.76-8.05l-2.11,2.73c2.51-3.24,5.45-6.11,8.69-8.62l-2.73,2.11c3.8-2.89,7.98-5.22,12.37-7.1l-3.22,1.36c5.19-2.18,10.62-3.67,16.19-4.43l-3.59.48c5.29-.68,10.62-.7,15.91,0l-3.59-.48c4.97.7,9.8,2.04,14.43,3.98l-3.22-1.36c4.45,1.9,8.64,4.33,12.49,7.27l-2.73-2.11c3.72,2.88,7.07,6.19,9.95,9.91l-2.11-2.73c5.76,7.57,9.56,16.44,13.24,25.14l-1.36-3.22c1.13,2.7,2.12,5.43,2.56,8.33l-.48-3.59c.27,2.06.22,4.1-.03,6.16l.48-3.59c-.53,3.81-1.64,7.51-2.69,11.2-.98,3.46-2.05,6.89-3.43,10.22l1.36-3.22c-1.39,3.29-3.11,6.39-5.28,9.22l2.11-2.73c-2.35,2.99-5.09,5.62-8.09,7.95l2.73-2.11c-4.24,3.23-8.9,5.85-13.8,7.94l3.22-1.36c-5.92,2.49-12.13,4.15-18.49,5.02l3.59-.48c-6.76.89-13.59.87-20.35-.03l3.59.48c-6.49-.9-12.83-2.6-18.88-5.13l3.22,1.36c-5.59-2.37-10.85-5.41-15.65-9.12l2.73,2.11c-3.31-2.59-6.37-5.49-8.96-8.81l2.11,2.73c-1.84-2.41-3.39-4.99-4.58-7.78l1.36,3.22c-1.28-3.12-2.09-6.37-2.56-9.7l.48,3.59c-.6-4.61-.59-9.26.01-13.87l-.48,3.59c.69-4.98,2.04-9.83,3.98-14.47l-1.36,3.22c2.07-4.87,4.75-9.43,7.97-13.62l-2.11,2.73c3.17-4.08,6.82-7.75,10.9-10.92l-2.73,2.11c3.9-2.99,8.14-5.49,12.67-7.41l-3.22,1.36c4.32-1.79,8.82-3,13.45-3.65l-3.59.48c5.2-.69,10.45-.67,15.65,0l-3.59-.48c5.57.75,11.01,2.24,16.19,4.41l-3.22-1.36c4.95,2.1,9.62,4.81,13.88,8.09l-2.73-2.11c3.86,3.01,7.35,6.46,10.35,10.32l-2.11-2.73c2.64,3.44,4.87,7.16,6.58,11.14l-1.36-3.22c1.28,3.07,2.22,6.25,2.71,9.55l-.48-3.59c.36,2.71.41,5.42.07,8.13l.48-3.59c-.4,2.91-1.2,5.72-2.33,8.43l1.36-3.22c-1.76,4.1-4.18,7.84-6.9,11.36l2.11-2.73c-2.37,3.03-4.93,5.9-7.56,8.71s-5.45,5.92-8.61,8.4l2.73-2.11c-1.62,1.24-3.33,2.29-5.2,3.11l3.22-1.36c-2.41,1-4.92,1.61-7.5,1.97l3.59-.48c-5.76.72-11.67.34-17.4-.41l3.59.48c-6.03-.82-11.95-2.29-17.57-4.65l3.22,1.36c-3.93-1.69-7.66-3.8-11.05-6.41l2.73,2.11c-2.93-2.29-5.56-4.91-7.85-7.84l2.11,2.73c-2.01-2.63-3.7-5.45-5.01-8.49l1.36,3.22c-1.18-2.81-2-5.73-2.41-8.74l.48,3.59c-.47-3.81-.31-7.63.19-11.43l-.48,3.59c.91-6.46,2.49-12.93,5.03-18.95l-1.36,3.22c1.44-3.33,3.2-6.5,5.41-9.38l-2.11,2.73c1.64-2.09,3.5-3.97,5.59-5.6l-2.73,2.11c1.98-1.5,4.11-2.76,6.4-3.74l-3.22,1.36c1.91-.78,3.88-1.34,5.93-1.65l-3.59.48c1.92-.26,3.82-.28,5.74-.03l-3.59-.48c.26.03.51.07.77.12,1.79.56,3.59.64,5.38.24,1.8-.08,3.47-.62,5.02-1.6,2.8-1.64,5.47-4.85,6.2-8.07.79-3.46.62-7.33-1.36-10.4-1.79-2.78-4.67-5.64-8.07-6.2h0Z"/>
    <path class="cls-2" d="m272.17,80.23c-3.03,1.27-5.08,2.07-7.5,4.42-1.37,1.32-2.65,2.97-3.5,4.68-1.91,3.85-2.55,7.13-2.93,11.41-.46,5.19.81,10.45,4.58,14.25,2.96,2.99,7.16,4.89,11.3,5.56,4.41.72,8.98,1.01,13.25-.67,3.27-1.29,5.07-2.33,7.78-4.56,1.6-1.32,2.91-3.07,4-4.8,5.09-8.08,3.02-19.02-3.71-25.49-5.77-5.55-13.45-7.33-21.21-7.71-2.15-.1-4.32.21-6.43.58-.57.1-1.12.24-1.67.43-1.55.54-3.21,1.17-4.6,2.07-4.04,2.6-6.83,6.17-8.67,10.55-1.56,3.7-2.17,7.65-2.14,11.68.01,1.2.04,2.42.15,3.62.39,4.4,1.61,8.6,4.89,11.77,2.32,2.24,5.41,4.21,8.3,5.72,4.09,2.14,8.02,3.42,12.63,3.71.7.04,1.38.02,2.08-.06,1.63-.18,3.34-.31,4.93-.77,2.03-.6,4.13-1.46,5.92-2.62,3.97-2.56,6.56-5.54,9.38-9.23s4.77-7.92,4.74-12.66c-.03-4.33-1.79-8.11-4.57-11.34-.99-1.15-2.36-2.14-3.63-2.93-2.65-1.64-4.68-1.71-7.69-2.09-3.18-.4-7.39,1.8-9.55,3.95-2.34,2.34-4.1,6.18-3.95,9.55s1.3,7.11,3.95,9.55l2.73,2.11c2.11,1.22,4.38,1.84,6.81,1.84l.31.04-3.59-.48.29.08-3.22-1.36c.19.07.37.16.53.28l-2.73-2.11c.25.21.44.4.65.66l-2.11-2.73c.12.17.23.36.31.55l-1.36-3.22c.12.31.21.59.27.92l-.48-3.59c.04.36.03.67,0,1.03l.48-3.59c-.07.4-.17.76-.31,1.14l1.36-3.22c-.62,1.46-1.59,2.74-2.55,3.99l2.11-2.73c-1.12,1.42-2.33,2.74-3.77,3.85l2.73-2.11c-.81.6-1.66,1.1-2.59,1.49l3.22-1.36c-.73.28-1.45.47-2.22.6l3.59-.48c-.84.1-1.65.1-2.49.02l3.59.48c-1.26-.17-2.46-.52-3.64-1l3.22,1.36c-2.38-1.02-4.61-2.41-6.71-3.91l2.73,2.11c-.33-.26-.6-.52-.88-.83l2.11,2.73c-.17-.22-.3-.45-.4-.71l1.36,3.22c-.1-.26-.17-.52-.21-.8l.48,3.59c-.31-2.37-.31-4.9-.04-7.27l-.48,3.59c.16-1.12.41-2.19.81-3.25l-1.36,3.22c.35-.82.76-1.57,1.29-2.3l-2.11,2.73c.47-.59.97-1.11,1.56-1.58l-2.73,2.11c.41-.29.82-.54,1.27-.76l-3.22,1.36c.68-.28,1.35-.47,2.07-.59l-3.59.48c2-.26,4.03-.06,6.02.19l-3.59-.48c1.81.25,3.56.64,5.25,1.35l-3.22-1.36c.85.39,1.64.83,2.39,1.39l-2.73-2.11c.69.55,1.29,1.15,1.84,1.84l-2.11-2.73c.44.6.8,1.22,1.1,1.9l-1.36-3.22c.22.57.38,1.13.48,1.74l-.48-3.59c.07.61.07,1.19,0,1.8l.48-3.59c-.1.58-.26,1.12-.48,1.66l1.36-3.22c-.25.53-.54,1.02-.89,1.49l2.11-2.73c-.45.56-.93,1.05-1.49,1.5l2.73-2.11c-.57.43-1.17.79-1.82,1.09l3.22-1.36c-.9.38-1.82.61-2.79.74l3.59-.48c-1.03.1-2.03.08-3.06-.04l3.59.48c-1.29-.19-2.54-.52-3.76-.99l3.22,1.36c-.45-.19-.86-.4-1.27-.67l2.73,2.11c-.29-.23-.51-.45-.74-.74l2.11,2.73-.18-.3,1.36,3.22c-.16-.39-.25-.72-.31-1.14l.48,3.59c-.08-1.27.02-2.56.17-3.83l-.48,3.59c.16-1.2.42-2.36.87-3.48l-1.36,3.22c.25-.56.55-1.09.92-1.58l-2.11,2.73c.26-.31.52-.59.83-.85l-2.73,2.11c.33-.25.66-.45,1.03-.64l-3.22,1.36.29-.12c1.76-.42,3.29-1.22,4.59-2.42,1.47-.95,2.63-2.21,3.48-3.79,1.69-2.89,2.41-7.16,1.36-10.4s-3.08-6.42-6.2-8.07-7.15-2.73-10.4-1.36h0Z"/>
  </g>
</svg>