<?xml version="1.0" encoding="UTF-8"?>
<svg id="lives" xmlns="http://www.w3.org/2000/svg" viewBox="0 0 45 40.75">
  <defs>
    <style>
      .cls-1 {
        fill: #fff;
        stroke: #603813;
        stroke-miterlimit: 10;
      }
    </style>
  </defs>
  <path class="cls-1" d="M18.9,23.54c-.62-.19-.9-.59-.82-1.2,.1-.61,.47-1.21,1.13-1.8,.27-.3,.64-.66,1.12-1.08s.94-.85,1.4-1.3c1.2-1.14,1.89-2.02,2.06-2.66-.72,.19-1.33,.37-1.82,.54-.5,.17-.92,.29-1.27,.36-.35,.07-.65,.08-.9,.04-.25-.05-.46-.16-.62-.34s-.29-.39-.37-.65-.12-.52-.12-.79c0-.66,.3-1.06,.89-1.2,.16-.03,.28-.1,.37-.22s.17-.23,.25-.36c.24-.37,.53-.58,.86-.65,.4-.14,.85-.31,1.36-.5,.5-.19,1.03-.36,1.57-.5,1.79-.48,3.22-.19,4.27,.87,.75,.75,1.05,1.78,.89,3.1-.08,.67-.31,1.43-.7,2.28-.35,.56-.73,1.02-1.13,1.37-.4,.35-.76,.65-1.09,.89s-.69,.51-1.09,.82c.85,.1,1.49,.41,1.92,.95,.43,.54,.69,1.19,.77,1.96,.14,1.57-.33,3.28-1.42,5.14-1.23,2.05-3.88,3.26-7.94,3.62-1.12,.08-2.06-.04-2.81-.36-.75-.32-1.19-.77-1.32-1.34-.14-.38-.16-.78-.04-1.19,.12-.41,.31-.76,.58-1.07,.26-.3,.57-.52,.92-.66,.35-.14,.7-.12,1.03,.06,.91,.11,1.53,.14,1.85,.1,.56-.06,1.33-.33,2.3-.79,.32-.16,.66-.4,1.01-.73,.35-.33,.63-.66,.83-1.01s.28-.64,.23-.9c-.05-.26-.26-.39-.65-.41-.38-.02-.87-.02-1.46-.02s-1.27-.11-2.04-.34Z"/>
</svg>