<?xml version="1.0" encoding="UTF-8"?>
<svg id="lives" xmlns="http://www.w3.org/2000/svg" viewBox="0 0 39 42">
  <defs>
    <style>
      .cls-1 {
        fill: #fff;
        stroke: #603813;
        stroke-miterlimit: 10;
      }
    </style>
  </defs>
  <path class="cls-1" d="M17.45,15.83c-.08-.31-.04-.61,.12-.9s.44-.58,.85-.88c.41-.3,.78-.47,1.12-.52l.02-.02c.08-.03,.16-.07,.23-.12s.15-.1,.23-.14c.67-.58,1.28-1.22,1.82-1.92,.02-.02,.02-.03,.02-.05,0-.02,.02-.04,.05-.07,.22-.51,.62-.89,1.2-1.14s1.13-.36,1.66-.34c.53,.02,1,.18,1.43,.47,.42,.29,.68,.71,.78,1.27-.06,.45-.28,.99-.65,1.63,.1,.21,.22,.45,.38,.73s.19,.56,.1,.85c-.42,.85-.84,1.7-1.26,2.54-.42,.85-.77,1.59-1.04,2.23-.27,.64-.52,1.22-.73,1.74-.22,.52-.44,1.04-.66,1.57-.77,1.92-1.32,3.48-1.67,4.69-.34,1.21-.7,2.19-1.07,2.94v.07h-.02c-.14,.37-.42,.64-.83,.8s-.83,.23-1.26,.19c-.43-.04-.81-.18-1.13-.42-.32-.24-.46-.58-.42-1.02,.04-.44,.1-.86,.19-1.27s.23-1.16,.42-2.24c.38-2.19,1.12-5.28,2.21-9.26-.46-.06-.91-.24-1.33-.53s-.68-.59-.76-.9Z"/>
</svg>