<?xml version="1.0" encoding="UTF-8"?>
<svg id="lives" xmlns="http://www.w3.org/2000/svg" viewBox="0 0 40 40.5">
  <defs>
    <style>
      .cls-1 {
        fill: #fff;
        stroke: #603813;
        stroke-miterlimit: 10;
      }
    </style>
  </defs>
  <path class="cls-1" d="M22.85,18.81c-.18,.69-.85,1.2-2.02,1.54-1.06,.29-2,.26-2.83-.1-.38-.18-.66-.43-.83-.77s-.15-.77,.06-1.3c.75-1.44,1.62-2.66,2.59-3.65,.34-.35,.67-.63,1.01-.84,.45-.35,1.02-.64,1.72-.88,.7-.23,1.42-.36,2.17-.37,1.74-.03,3.11,.45,4.1,1.44,.91,.79,1.31,1.8,1.2,3.05-.14,1.58-1.31,3.73-3.5,6.43-.91,1.12-1.96,2.21-3.13,3.25-1.18,1.05-2.29,2.08-3.35,3.08-.45-.26-.62-.48-.53-.66,.1-.18,.35-.33,.77-.44s.94-.19,1.56-.23c.62-.04,1.24-.04,1.85-.01,1.46,.08,2.3,.29,2.54,.62,.21,.13,.34,.37,.4,.72,.06,.35,.04,.74-.06,1.15-.22,.94-.64,1.66-1.25,2.14-.42,.42-1.53,.74-3.34,.96s-3.41,.25-4.8,.07c-.67-.1-1.21-.25-1.61-.46-.4-.21-.54-.46-.43-.76s.11-.52,0-.68-.23-.33-.36-.5c-.3-.46-.29-1.01,.05-1.63,.5-.83,.94-1.46,1.32-1.87s.78-.86,1.19-1.34c.41-.48,.88-1,1.42-1.56,.54-.56,1.07-1.11,1.6-1.66,1.18-1.25,2.19-2.44,3.02-3.58,.38-.56,.68-1.08,.89-1.56,.21-.48,.3-1.02,.26-1.61-.19,.21-.37,.38-.53,.52-.16,.14-.3,.28-.43,.42-.34,.32-.58,.67-.72,1.06Z"/>
</svg>