<?xml version="1.0" encoding="UTF-8"?>
<svg id="fald" xmlns="http://www.w3.org/2000/svg" viewBox="0 0 200 211">
  <defs>
    <style>
      .cls-1 {
        fill: #754c24;
        stroke-width: .5px;
      }

      .cls-1, .cls-2 {
        stroke: #42210b;
        stroke-miterlimit: 10;
      }

      .cls-3, .cls-2 {
        fill: #42210b;
      }
    </style>
  </defs>
  <g>
    <g>
      <path class="cls-1" d="M121.62,74.01c-9.42-5.28-19.89-9.22-30.49-8.91-10.6,.32-21.3,5.54-26,14.94-2.73,5.45-3.29,11.77-3.8,17.92-.92,11-1.83,22.01-2.75,33.01,.78,8.14,1.61,16.27,2.26,24.41,2.19,9.4,5.16,18.6,9.45,27.46,.55,1.06,1.08,2.12,1.59,3.16,.26,.53,.4,1.04,.44,1.53,.18,.06,.36,.1,.54,.15,.44-.34,.99-.6,1.66-.74,3.84-.78,7.54-1.95,11.14-3.36,8.08-6.34,16.72-11.94,25.46-17.38,8.36-8.28,16.28-17.01,23.68-26.17,7.13-8.83,14.09-18.95,13.81-30.52-.19-7.69-3.68-15.16-8.7-21.14-5.02-5.97-11.5-10.56-18.28-14.36Z"/>
      <path class="cls-1" d="M122.26,73.01c-9.35-5.22-19.75-9.27-30.42-9.13-10.19,.14-20.64,4.47-26.33,13.04-3.03,4.56-4.24,10.01-4.88,15.45-.71,6.04-1.08,12.14-1.58,18.21-.54,6.5-1.08,12.99-1.62,19.49-.12,1.41,.13,2.84,.26,4.26,.17,1.71,.33,3.41,.5,5.12,.31,3.15,.61,6.3,.89,9.45,.16,1.84,.32,3.68,.47,5.51,.13,1.63,.57,3.2,.98,4.79,.83,3.23,1.76,6.45,2.82,9.62,1.05,3.17,2.22,6.31,3.52,9.39,.68,1.62,1.4,3.23,2.17,4.81,.72,1.49,1.88,3.08,2.1,4.72,.05,.41,.43,.82,.82,.94,.69,.21,1.08,.27,1.71-.06,.51-.27,.89-.42,1.46-.55,1.47-.33,2.94-.68,4.39-1.1,1.3-.38,2.59-.79,3.87-1.23s2.6-.84,3.69-1.69c4.67-3.63,9.53-7.02,14.47-10.28,2.47-1.63,4.96-3.22,7.46-4.79,1.18-.74,2.48-1.4,3.47-2.38,1.05-1.05,2.1-2.1,3.14-3.17,4.07-4.16,8.03-8.43,11.86-12.8,3.61-4.12,7.16-8.31,10.52-12.65,2.85-3.69,5.53-7.55,7.64-11.74,2.03-4.04,3.54-8.36,4.02-12.93,.51-4.86-.29-9.78-2.07-14.4-4.52-11.69-14.72-19.91-25.32-25.88-1.37-.77-2.68,1.23-1.3,2,9.23,5.2,18.12,11.96,23.01,21.65,2.2,4.36,3.51,9.15,3.41,13.98-.09,4.39-1.26,8.61-3.02,12.55-3.85,8.61-10.27,15.95-16.31,23.01-3.63,4.24-7.39,8.38-11.24,12.42-1.92,2.01-3.86,4-5.83,5.96-.99,.98-2.23,1.64-3.41,2.38s-2.42,1.53-3.63,2.31c-5.24,3.36-10.41,6.83-15.4,10.54-.63,.47-1.25,.93-1.87,1.41s-1.22,1.07-1.93,1.39c-1.34,.61-2.83,1.05-4.23,1.5-1.51,.48-3.05,.9-4.59,1.27-1.4,.33-2.7,.52-3.88,1.37l1.18-.22c-.18-.05-.36-.1-.54-.15l.82,.94c-.18-1.41-.96-2.67-1.6-3.92-.69-1.37-1.35-2.74-1.97-4.14-1.17-2.62-2.24-5.29-3.22-7.99s-1.85-5.44-2.65-8.19c-.41-1.43-.8-2.86-1.17-4.3-.37-1.45-.83-2.91-.95-4.39-.5-6.11-1.09-12.21-1.68-18.31-.15-1.51-.35-3.02-.44-4.53-.1-1.61,.18-3.26,.31-4.85,.25-3.05,.51-6.1,.76-9.15,.52-6.23,1.04-12.46,1.56-18.69,.45-5.39,.84-10.88,2.74-15.93,3.56-9.47,12.92-15.06,22.68-16.34,11.43-1.5,23.06,2.83,33.09,8.43,1.37,.76,2.68-1.23,1.3-2Z"/>
    </g>
    <path class="cls-2" d="M139.51,65.02c-.75-9.59,5.96-17.32,13.33-22.5,1.54-1.08-.03-3.43-1.62-2.43-4.51,2.86-7.42,7.4-9.92,12-2.32,4.27-4.93,8.83-3.88,13.85,.33,1.58,2.47,1.02,2.81-.21,1.86-6.63,3.91-13.91,9.42-18.5,1.18-.98,2.5-1.83,3.92-2.4,1.32-.53,2.78-.99,3.07-2.59s-1.12-2.62-2.61-2.76c-1.56-.14-2.97,.23-4.35,.95,.71,.62,1.41,1.23,2.12,1.85,.59-1.65,2.45-2.03,3.43-.45,.88,1.42,3.12,.27,2.59-1.28-.94-2.77-4.21-4.29-6.88-2.99-1.62,.79-2.92,2.33-4.18,3.58-1.47,1.48-2.9,3-4.26,4.58-4.33,4.98-9.28,11.24-8.09,18.29,.21,1.26,2.21,2.03,2.76,.53,1.84-4.99,4.39-9.74,7.7-13.91,1.44-1.81,3.06-3.5,5.06-4.69,2.06-1.22,4.44-1.79,6.76-2.27,.88-.18,1.28-1.51,.74-2.19-1.98-2.48-5.35-3.15-8.11-1.55-1.63,.94,0,3.36,1.62,2.43,1.3-.75,3.12-.45,4.07,.74l.74-2.19c-2.45,.51-4.86,1.17-7.07,2.4-2.24,1.24-4.12,3.09-5.73,5.06-3.61,4.43-6.42,9.53-8.4,14.89,.92,.18,1.84,.35,2.76,.53-.93-5.5,2.56-10.36,5.87-14.38,2.02-2.44,4.16-4.78,6.42-7,.83-.81,1.92-2.27,3.16-2.42,1.03-.13,1.98,.55,2.3,1.5,.86-.43,1.73-.86,2.59-1.28-2.05-3.31-7.12-2.96-8.47,.79-.5,1.39,.8,2.55,2.12,1.85,.52-.27,1.09-.44,1.68-.48,.2-.02,.68,.07,.87,.02,.41,.11,.39-.15-.04-.78l-.31,.14c-1.14,.17-2.47,1.03-3.44,1.61-2.25,1.36-4.19,3.26-5.76,5.36-3.63,4.86-5.32,10.73-6.94,16.49,.94-.07,1.87-.14,2.81-.21-.87-4.15,2.04-8.52,3.94-11.98,2.21-4.03,4.77-7.98,8.72-10.49l-1.62-2.43c-8.23,5.79-15.46,14.48-14.62,25.15,.15,1.87,3.06,1.66,2.91-.22h0Z"/>
    <g>
      <path class="cls-2" d="M62.04,68.15c12.94,7.28,25.89,14.57,38.83,21.85,6.25,3.52,12.57,7.06,19.44,9.21,3.88,1.21,7.91,1.97,11.68,3.46,2.76,1.09,5.34,2.55,8.11,3.63,2.76,1.07,5.67,1.75,8.57,2.41,2.08,.48,4.22,.96,6.35,.62,3.83-.62,6.78-3.75,9.13-6.88,1.44-1.92,2.8-3.96,3.46-6.25,1.75-6.08-1.83-12.34-6.26-16.69-2.94-2.89-6.29-5.31-9.63-7.73-7.16-5.18-14.35-10.38-22.12-14.62-6.85-3.74-14.25-6.74-22.08-7.5-5.6-.54-11.29,.08-16.87,1.11-11.01,2.03-22.29,5.99-29.86,14.36-.36,.4-.72,.84-.8,1.36-.14,.97,.74,1.74,1.54,2.27,2.34,1.54,4.88,2.78,7.55,3.68"/>
      <path class="cls-2" d="M61.43,69.21c8.72,4.91,17.45,9.82,26.17,14.73,4.33,2.43,8.65,4.87,12.98,7.3,4.1,2.31,8.21,4.61,12.52,6.52,4.19,1.86,8.52,3.1,12.94,4.3,2.28,.62,4.54,1.29,6.7,2.24s4.22,2.04,6.4,2.92,4.4,1.51,6.67,2.07c2.03,.49,4.08,1.04,6.16,1.27,4.21,.46,7.79-1.42,10.68-4.47s5.73-6.84,6.41-10.96c.57-3.46-.3-6.9-1.89-9.93-1.83-3.49-4.57-6.37-7.55-8.89-3.65-3.1-7.63-5.83-11.53-8.62-7.63-5.46-15.47-10.83-24.1-14.65-3.92-1.74-8.01-3.16-12.25-3.97-4.28-.82-8.67-.97-13.04-.61-8.66,.71-17.56,2.69-25.53,6.37-4,1.85-7.78,4.23-11.03,7.23-1.35,1.24-3.63,2.99-3.36,5.03,.25,1.91,2.35,2.95,3.84,3.8,1.94,1.12,4,2.01,6.13,2.74,1.46,.5,2.09-1.85,.63-2.35-2.1-.72-4.12-1.65-6.02-2.79-.61-.37-1.65-.8-2.02-1.46-.43-.76,.86-1.69,1.37-2.21,2.89-2.91,6.28-5.23,9.91-7.08,7.4-3.77,15.8-5.74,23.96-6.67,4.09-.47,8.26-.6,12.32-.03,4.01,.56,7.92,1.68,11.66,3.17,8.08,3.23,15.46,7.98,22.56,12.93,3.74,2.61,7.45,5.26,11.1,7.98,3.21,2.4,6.42,4.98,8.86,8.19,1.91,2.52,3.52,5.58,3.73,8.82,.26,3.92-1.74,7.23-4.12,10.26s-5.38,5.93-9.43,5.84c-1.95-.04-3.86-.59-5.74-1.03-2.11-.5-4.21-1.03-6.25-1.75-4.14-1.47-7.89-3.74-12.11-5.03-4.16-1.26-8.41-2.15-12.46-3.77-8.24-3.29-15.86-8.06-23.56-12.39-8.15-4.58-16.29-9.17-24.44-13.75-2.02-1.14-4.04-2.28-6.07-3.41-1.34-.75-2.56,1.37-1.21,2.12h0Z"/>
    </g>
    <path class="cls-3" d="M60.53,66.73c-.89-1.16-1.78-2.74-1.24-4.25,.47-1.3,1.97-2.4,2.97-3.29,2.4-2.12,5.09-3.91,8-5.25,5.08-2.34,13.27-3.93,17.69,.53l1.06-2.56c-3.54-.03-7.03-.47-10.46-1.39-1.39-.37-2.76-.8-4.2-.41-1.33,.36-2.38,1.29-3.39,2.19-3.89,3.49-11.56,3.98-12.43,10.21-.22,1.59,1.79,2.72,2.74,1.16,1.75-2.86,4.19-6.69,8.06-6.14,2.07,.3,3.98,1.08,6.07,.34,1.8-.64,3.11-2.09,4.3-3.52,1.01-1.23-.28-3.35-1.82-2.36-1.01,.65-2.09,1.05-3.29,1.07s-2.24-.21-3.29,.54c-.88,.63-1.48,1.6-2.29,2.32-.88,.78-1.89,1.42-2.96,1.92-.48,.22-.97,.4-1.47,.55-.3,.09-.68,.11-.95,.25-.39,.2-.56-.28-.07,.54,.37,.63,.3,.46,.82,.21,.35-.17,.7-.33,1.05-.49,.59-.26,1.18-.52,1.78-.76,2.59-1.04,5.25-1.86,7.97-2.51,1.61-.38,1.31-3.15-.4-2.95-2.97,.36-5.98,.73-8.83,1.66-1.27,.41-2.51,.93-3.67,1.59-1.09,.62-2.76,1.58-3.44,2.7l-.31,.27c.38,1.03,.64,1.25,.78,.64,.18-.19,.28-.66,.39-.91,.29-.66,.59-1.32,.93-1.96,.7-1.33,1.54-2.59,2.75-3.51,1.14-.87,2.5-1.42,3.82-1.94,1.77-.7,3.56-1.38,5.35-2.05,3.24-1.2,6.5-2.43,9.82-3.42,1.61-.48,3.26-.87,4.95-.85,1.81,.02,3.42,.63,5.02,1.43,2.96,1.47,5.92,2.85,9.07,3.88,.73,.24,1.46,.45,2.19,.66,.1,.03,1.29,.4,1.33,.35l-.42-.74c-.18,.1-.37,.17-.57,.2-1.35,.29-2.96-.2-4.26-.53-3.53-.89-6.89-2.42-10.48-3.12-4.06-.79-7.97-.14-11.97,.7l1.16,2.74c3.5-2.05,8.17-1.78,11.32,.84,.95,.79,2.59,.33,2.56-1.06-.01-.73-.2-1.33-.64-1.92-.19-.26-.41-.48-.63-.7l-.28-.25c-.37-.55-.83-.42-1.38,.38l1.51-2.59c-2.79-1.39-5.83-1.18-8.76-.37-1.6,.44-3.15,1.02-4.76,1.42s-3.35,.56-5.03,.75c-2.84,.33-5.74,.79-8.13,2.49-2.18,1.55-3.73,3.77-3.78,6.51-.02,1.15,1.29,1.85,2.26,1.3,2.68-1.53,5.36-3.12,7.85-4.94,.88-.64,1.56-1.6,1.04-2.71-.57-1.21-1.97-1.32-2.91-.52-1.41,1.19,.39,2.98,1.82,2.36,8.27-3.6,17.73-3.82,26.21-.85l.4-2.95c-2.71-.1-5.09-1.85-7.85-1.63-2.23,.18-4.32,1.29-4.97,3.55l2.89,.8c.34-2.07,2.21-3.15,4.14-3.54,2.76-.56,5.65,.22,8.28,1.06,4.72,1.5,9.76,3.08,13.72,6.15l1.82-2.36c-3.77-1.9-7.54-3.8-11.32-5.69-3.48-1.75-6.99-3.86-10.82-4.72-7.1-1.58-14.99,.44-21.5,3.38-3.48,1.58-6.56,3.81-8.85,6.89l2.74,.36c-.95-4.01,5.31-5.31,7.94-6.15,4.13-1.33,8.43-3.12,12.82-3.25,1.98-.06,3.92,.25,5.8,.89,2.01,.69,3.79,1.89,5.62,2.93,3.54,2.01,7.49,3.05,10.85,5.38s6.46,5.22,10.54,6.4l.4-2.95c-2.78,.22-5.16-1.01-7.42-2.5-2.39-1.58-4.62-3.39-7.15-4.76-5.37-2.91-11.36-4.35-17.26-5.74l.36,2.74c5.81-4.4,12.83-.75,18.44,2.15,5.65,2.93,10.16,7.49,12.49,13.47l1.85-1.85c-4.59-1.14-8.9-3.08-13.28-4.82s-9.05-3.09-13.88-3.65-9.78-.46-14.66-.23c-4.35,.2-8.76,.2-12.35,2.99s-5.39,6.68-7.15,10.52c-.8,1.74,1.79,3.27,2.59,1.51,1.46-3.19,3.02-6.55,5.61-9,3.12-2.95,7.27-2.84,11.3-3.03,4.57-.21,9.16-.31,13.73,.13s8.92,1.65,13.18,3.31c4.67,1.82,9.23,3.94,14.11,5.15,1.01,.25,2.28-.73,1.85-1.85-2.67-6.88-7.7-12.15-14.26-15.47-1.8-.91-3.65-1.71-5.5-2.51s-3.55-1.49-5.47-1.78c-3.52-.53-7.23,.17-10.1,2.34-.95,.72-1.02,2.42,.36,2.74,6.06,1.43,12.27,2.87,17.68,6.08,4.7,2.8,9.02,7.5,14.95,7.03,1.64-.13,2.1-2.46,.4-2.95-3.97-1.15-6.95-4.19-10.31-6.44-1.81-1.21-3.76-2.07-5.77-2.89-2.22-.92-4.29-1.97-6.36-3.19-4.01-2.35-8.34-3.62-13.01-3.04s-9.32,2.42-13.84,3.88c-2.13,.69-4.33,1.43-5.99,3.01s-2.51,3.9-1.97,6.17c.33,1.37,2.03,1.32,2.74,.36,2.36-3.19,5.97-5.21,9.62-6.58,3.99-1.49,8.27-2.64,12.55-2.74,2.31-.05,4.58,.23,6.77,.98s4.12,1.84,6.12,2.85c4.44,2.23,8.88,4.46,13.31,6.7,1.42,.71,3.24-1.25,1.82-2.36-4.82-3.74-11.04-5.91-16.89-7.47-2.94-.79-6.3-1.24-9.23-.18-2.4,.87-4.59,2.66-5.03,5.3-.31,1.87,2.35,2.69,2.89,.8,.41-1.43,2.39-1.5,3.59-1.27,2.17,.43,4.09,1.46,6.34,1.55,1.77,.07,1.93-2.41,.4-2.95-9.29-3.26-19.52-2.77-28.52,1.15l1.82,2.36,.13-.11-1.46,.39h0c-.23-.3-.46-.6-.69-.9,.44-.82,.47-1.06,.07-.73-.19,.13-.38,.26-.57,.39-.26,.17-.51,.35-.77,.52-.71,.47-1.42,.94-2.14,1.39-1.37,.87-2.77,1.7-4.18,2.51l2.26,1.3c.1-5.15,7-5.77,10.73-6.21,2.65-.31,5.1-.96,7.64-1.74s5.18-1.46,7.59-.27c1.74,.86,3.11-1.5,1.51-2.59-1.19-.82-2.81-.09-3.28,1.21-.25,.7-.16,1.45,.21,2.1,.23,.41,1.47,1.36,1.48,1.77l2.56-1.06c-4.19-3.49-10.22-4.09-14.95-1.31-1.51,.89-.48,3.09,1.16,2.74,4.19-.88,8.09-1.38,12.28-.25,3.73,1,7.29,2.62,11.14,3.18,1.59,.23,3.3,.33,4.71-.57s2.13-2.86,.75-4.07c-.68-.6-1.66-.7-2.51-.93-1.03-.28-2.05-.6-3.06-.95-1.9-.65-3.75-1.42-5.56-2.31s-3.38-1.81-5.22-2.35-3.76-.55-5.65-.27c-4.04,.6-7.99,2.28-11.81,3.68-2.02,.74-4.03,1.5-6.02,2.28-1.66,.65-3.38,1.27-4.87,2.27-2.85,1.9-4.72,5.22-5.79,8.42-.58,1.75,.78,3.41,2.64,3.09,.97-.17,1.63-.84,2.31-1.5s1.43-1.23,2.25-1.72c3.35-1.96,7.37-2.48,11.15-2.94l-.4-2.95c-3.52,.84-6.94,2-10.25,3.47-1.31,.58-3.03,1.23-3.31,2.84-.26,1.52,1,2.63,2.45,2.64,2.79,0,5.85-1.87,7.86-3.66,.59-.52,1.05-1.15,1.6-1.69s1.3-.26,2.06-.29c1.65-.06,3.22-.59,4.6-1.47l-1.82-2.36c-1.33,1.61-2.66,3.23-4.95,2.93-2.04-.27-3.85-.98-5.94-.49-3.72,.88-6.14,4.42-8.01,7.48l2.74,1.16c.35-2.48,2.48-3.84,4.58-4.82,2.41-1.12,4.77-2.01,6.8-3.81,.82-.73,1.71-1.74,2.88-1.74,1.35,0,2.84,.69,4.15,.98,3.01,.65,6.09,.97,9.17,.99,1.31,0,1.97-1.64,1.06-2.56-5.57-5.62-15.29-3.88-21.69-.83-3.54,1.69-6.77,4.06-9.58,6.79-1.3,1.26-2.44,2.64-2.63,4.5-.2,1.96,.59,3.89,1.76,5.42s3.76,.02,2.59-1.51h0Z"/>
  </g>
  <path class="cls-3" d="M101.68,46.95c1.38,1.28,3.1,2.2,4.96,2.54,.74,.13,1.46-.14,1.77-.87,.29-.68,.04-1.5-.61-1.87-.69-.4-1.45-.64-2.23-.76-.44-.07-.88-.12-1.33-.18-.11-.01-.58-.08-.25-.03-.19-.03-.37-.06-.56-.09-.33-.06-.66-.14-.99-.23-.16-.05-.32-.1-.48-.15-.08-.03-.16-.06-.24-.09-.21-.07,.21,.1,.01,0-.3-.14-.59-.29-.87-.48-.03-.02-.25-.17-.1-.06s-.06-.05-.09-.08c-.06-.05-.12-.11-.18-.17-.42-.4,.32,.12,.09,.85l-.39,.66-.17,.13-.76,.2c-.27-.02,.3,.09,.36,.1,.2,.05,.41,.1,.61,.14,.38,.09,.76,.18,1.14,.27,.79,.18,1.57,.37,2.36,.55s1.66-.24,1.85-1.05c.17-.77-.23-1.65-1.05-1.85-1.47-.34-2.94-.69-4.41-1.03-.59-.14-1.14-.23-1.69,.1s-.84,.93-.82,1.54c.03,.99,.89,1.68,1.64,2.2,1.04,.73,2.32,1.13,3.57,1.34,.38,.07,.77,.11,1.15,.16,.18,.02,.35,.04,.53,.06,.04,0,.47,.08,.13,.02,.31,.05,.61,.1,.91,.18,.17,.05,.34,.1,.5,.16-.31-.12,.17,.1,.23,.14l1.16-2.74c-.37-.07-.73-.15-1.09-.27-.19-.06-.37-.13-.56-.2,.14,.05,.12,.05,0,0-.1-.05-.2-.09-.3-.14-.33-.17-.66-.36-.97-.57-.07-.05-.14-.1-.22-.15-.11-.08-.12-.1-.01,0-.17-.14-.34-.28-.5-.43-.57-.53-1.56-.61-2.12,0s-.61,1.55,0,2.12h0Z"/>
</svg>