<?xml version="1.0" encoding="UTF-8"?>
<svg id="fald" xmlns="http://www.w3.org/2000/svg" viewBox="0 0 200 262">
  <defs>
    <style>
      .cls-1 {
        fill: #8c6239;
      }

      .cls-2 {
        fill: #b58c52;
      }
    </style>
  </defs>
  <g>
    <path class="cls-2" d="M115.89,69.31c-3.7-14.12,7.52-30.19,22.05-31.56,10.95-1.04,21.96,5.7,26.91,15.53s4.05,22.1-1.4,31.66c-6.33,11.1-18.21,18.86-22.16,31.02-3.26,10.04-.46,21.36-4.08,31.28-5.41,14.8-22.98,21.57-30.89,35.2-3.9,6.73-5.14,14.62-7.27,22.11-3.96,13.94-12.32,27.85-25.91,32.89-16.18,5.99-36.39-4.6-40.66-21.31-2.41-9.42-.2-19.59,4.4-28.16s11.43-15.72,18.63-22.26c4.12-3.74,8.55-7.54,10.52-12.75,1.71-4.54,1.31-9.54,1.4-14.39,.27-14.67,5.36-29.2,14.3-40.83,11.22-14.6,28.4-24.97,35.31-42.03"/>
    <path class="cls-1" d="M116.25,69.21c-3.94-15.52,9.67-32.34,25.74-31.13,8.62,.65,16.68,5.85,21.25,13.12,5,7.95,5.61,18.08,2.78,26.91s-9,15.03-14.82,21.67c-2.73,3.11-5.39,6.33-7.49,9.91-2.2,3.76-3.53,7.83-4.1,12.14-1.26,9.46,.43,19.51-4.1,28.3-3.55,6.9-9.69,11.95-15.47,16.92s-11.86,10.38-15.28,17.52c-4.04,8.43-4.93,17.95-8.36,26.62-3.1,7.85-7.73,15.39-14.38,20.73-6.23,5-13.96,7.55-21.95,6.64-7.43-.85-14.57-4.37-19.82-9.69-5.99-6.07-8.79-14.14-8.34-22.62,.53-10.11,5.18-19.45,11.38-27.27,3.03-3.82,6.42-7.33,9.96-10.67,3.25-3.07,6.79-5.89,9.63-9.36s4.42-7.57,4.77-12.16c.37-4.85,.02-9.7,.57-14.55,1.08-9.6,4.22-18.97,9.11-27.3,8.9-15.14,24.13-24.72,34.29-38.82,2.31-3.21,4.28-6.65,5.78-10.31,.18-.45-.54-.64-.72-.2-6.86,16.72-23,26.76-34.04,40.38-6.04,7.45-10.5,16.12-13.06,25.37-1.27,4.58-2.08,9.3-2.39,14.04-.35,5.29,.39,10.79-1.04,15.95-1.31,4.75-4.72,8.39-8.24,11.66s-7.29,6.63-10.66,10.24c-6.66,7.13-12.34,15.41-14.83,24.96-2.22,8.52-1.77,17.88,2.87,25.53,3.8,6.25,9.86,10.99,16.66,13.59,6.89,2.63,14.69,3,21.63,.34,7.84-3.02,14.01-9.06,18.43-16.08,2.26-3.59,4.1-7.45,5.58-11.42,1.66-4.45,2.74-9.06,3.92-13.65,1.29-5,2.77-10.03,5.47-14.47,2.13-3.5,4.91-6.54,7.86-9.35,5.75-5.46,12.33-10.1,17.37-16.27,2.42-2.96,4.43-6.27,5.62-9.92,1.57-4.79,1.75-9.87,1.9-14.86s.26-10.41,1.83-15.38c1.37-4.34,3.84-8.21,6.64-11.76,5.37-6.8,12.06-12.69,16.14-20.45s5.38-17.84,2.61-26.56c-2.59-8.13-8.73-14.81-16.6-18.12-7.32-3.08-15.61-2.78-22.43,1.4-6.37,3.91-11.08,10.59-12.6,17.9-.74,3.55-.7,7.21,.19,10.73,.12,.47,.84,.27,.72-.2h0Z"/>
  </g>
  <path class="cls-1" d="M162.93,52.06c-14.86,24.16-29.66,48.35-44.4,72.57-14.01,23.02-28.95,45.84-39.17,70.88-5.89,14.43-10.68,29.32-15.77,44.05-.16,.46,.57,.65,.72,.2,4.51-13.06,8.82-26.21,13.8-39.1,4.91-12.7,10.95-24.86,17.68-36.69,6.75-11.87,13.96-23.47,21.06-35.14s14.58-23.94,21.89-35.89c8.26-13.51,16.54-27.01,24.84-40.5,.25-.41-.39-.79-.65-.38h0Z"/>
  <path class="cls-1" d="M51.21,231.61c7.9-26.64,22.03-51.01,35.37-75.21,13.97-25.33,28.44-50.37,43.09-75.32,4.07-6.93,8.13-13.86,12.13-20.82,1.97-3.42,4.11-6.81,5.74-10.41,1.39-3.09,2.25-6.36,1.56-9.74-.1-.47-.82-.27-.72,.2,.75,3.64-.46,7.17-2.07,10.4s-3.4,6.14-5.15,9.17c-3.56,6.18-7.15,12.34-10.76,18.49-7.27,12.39-14.56,24.77-21.71,37.22s-14.15,24.88-21.08,37.4c-6.73,12.17-13.48,24.34-19.79,36.73-6.84,13.42-13.03,27.22-17.33,41.69-.14,.46,.59,.66,.72,.2h0Z"/>
  <path class="cls-1" d="M131.6,44.32c-3.17,26.47-20.72,47.76-35.68,68.69-7.39,10.34-14.01,21.13-20.16,32.26-6.03,10.91-11.71,22.02-17.75,32.93-6.84,12.37-14.18,24.52-22.9,35.67-.29,.38,.23,.91,.53,.53,15.58-19.92,26.62-42.78,38.65-64.89,6.09-11.2,12.52-22.2,19.83-32.66,7.78-11.13,16.22-21.8,23.32-33.4,7.33-11.98,13.22-25.07,14.91-39.13,.06-.48-.69-.47-.75,0h0Z"/>
  <path class="cls-1" d="M37.36,198.51c9.29,2.85,18.35,6.47,27.03,10.85,7.49,3.77,15.54,8.07,19.74,15.69,.23,.42,.88,.05,.65-.38-3.15-5.73-8.52-9.65-14.1-12.82-6.53-3.72-13.42-6.88-20.4-9.63-4.18-1.64-8.42-3.12-12.71-4.44-.46-.14-.66,.58-.2,.72h0Z"/>
  <path class="cls-1" d="M48.15,179.67c15.4,1.94,29.96,9.53,40.32,21.09,1.74,1.94,5.4,6.92,8.27,3.52,.31-.37-.22-.9-.53-.53-1.71,2.03-4.15,.03-5.4-1.42-1.17-1.35-2.32-2.7-3.57-3.98-2.51-2.58-5.24-4.94-8.14-7.07-5.78-4.24-12.24-7.55-19.07-9.74-3.87-1.24-7.85-2.11-11.89-2.61-.48-.06-.47,.69,0,.75h0Z"/>
  <path class="cls-1" d="M63.27,160.34c15.63,6.47,32.54,9.59,49.45,9.15,.48-.01,.48-.76,0-.75-16.85,.44-33.68-2.68-49.25-9.12-.45-.18-.64,.54-.2,.72h0Z"/>
  <path class="cls-1" d="M73.41,127.83c4.39-.08,8.51,1.4,12.54,2.97s8.09,2.99,12.38,3.81c8.32,1.59,17.02,1.82,24.91,5.21,4.04,1.74,7.73,4.27,10.33,7.86,.28,.39,.93,.01,.65-.38-4.5-6.23-11.91-9.26-19.21-10.79-4.6-.96-9.29-1.43-13.92-2.18s-9.09-1.99-13.49-3.7-9.2-3.64-14.19-3.56c-.48,0-.48,.76,0,.75h0Z"/>
  <path class="cls-1" d="M86.57,99.96c9.43,2.47,18.63,5.82,27.43,10.02,4.31,2.06,8.52,4.32,12.63,6.77,3.74,2.23,7.66,4.66,12.18,4.45,.48-.02,.48-.77,0-.75-4.86,.22-8.97-2.7-12.98-5.05s-8.36-4.64-12.69-6.66c-8.48-3.96-17.32-7.14-26.38-9.51-.47-.12-.67,.6-.2,.72h0Z"/>
  <path class="cls-1" d="M103.5,81.58c17.48,.32,31.05,12.91,45.81,20.54,.43,.22,.81-.43,.38-.65-14.89-7.7-28.55-20.32-46.19-20.64-.48,0-.48,.74,0,.75h0Z"/>
  <path class="cls-1" d="M120.54,61.11c8.06,1.24,14.8,6.04,22.05,9.41,3.4,1.58,6.89,2.59,10.5,3.51s7.45,2.04,10.16,4.86c.34,.35,.87-.18,.53-.53-2.48-2.58-5.82-3.81-9.21-4.72-3.98-1.07-7.85-2.02-11.61-3.76-7.31-3.39-14.11-8.24-22.23-9.48-.47-.07-.68,.65-.2,.72h0Z"/>
  <path class="cls-1" d="M131.32,47.6c12.47,3.28,24.17,9.17,34.23,17.24,.37,.3,.91-.23,.53-.53-10.16-8.16-21.96-14.12-34.56-17.44-.47-.12-.67,.6-.2,.72h0Z"/>
</svg>