<?xml version="1.0" encoding="UTF-8"?>
<svg id="play" xmlns="http://www.w3.org/2000/svg" viewBox="0 0 323 236">
  <defs>
    <style>
      .cls-1 {
        fill: #fff;
        stroke: #754c24;
        stroke-miterlimit: 10;
      }
    </style>
  </defs>
  <path class="cls-1" d="M101.43,147.23c-2.37,2.34-4.94,4.15-7.69,5.43-2.75,1.28-5.58,1.91-8.47,1.9-2.89-.01-5.5-.9-7.83-2.68-1.05,6.13-1.53,12.11-1.41,17.95-.12,1.09-.46,2.12-1,3.06-.72,3.66-3.01,6.36-6.88,8.09-3.81,1.66-7.54,1.96-11.18,.91-1.68-.51-3.15-1.39-4.39-2.64-1.24-1.24-2-2.86-2.27-4.84,2.42-16.41,5.07-29.95,7.93-40.63,.64-2.24,1.15-4.06,1.53-5.46,.38-1.4,.74-2.59,1.08-3.58,.34-.99,.64-1.85,.91-2.6,.27-.74,.61-1.58,1.02-2.51,.92-2.14,1.98-4.66,3.17-7.54,1.19-2.88,2.24-5.06,3.15-6.53,.91-1.47,1.91-2.76,3.01-3.89s2.32-2.21,3.7-3.28c1.37-1.06,3.08-2.44,5.14-4.12,2.06-1.69,4.34-2.86,6.84-3.5,2.5-.64,4.96-.75,7.37-.34,5.09,.86,9.15,3.77,12.18,8.75,2.64,4.62,3.86,11.15,3.66,19.59-.34,12.9-3.53,22.38-9.58,28.44Zm-21.9-6.02c5.26-1.92,8.54-5.96,9.86-12.13,1.11-5.2,.72-10.86-1.19-16.99-1.17,2.78-2.18,5.64-3.03,8.58s-1.62,5.57-2.31,7.88c-1.52,5.18-2.63,9.4-3.33,12.66Z"/>
  <path class="cls-1" d="M144.67,168.48c-1.25,.2-2.52,.42-3.8,.66-1.28,.24-3.04,.51-5.29,.82-2.25,.3-5.62,.69-10.13,1.17-1.05,.21-2.1,.38-3.16,.53-1.06,.14-2.07,.08-3.05-.19-2.16-.58-3.82-2.38-4.96-5.38-.53-1.41-1.05-2.38-1.55-2.92s-.93-1.05-1.27-1.54c-.8-.97-.99-2.72-.56-5.27,.43-2.55,1-5.7,1.7-9.46,.7-3.76,1.54-7.76,2.52-12,2.27-10.06,4.45-18.09,6.53-24.09,.78-2.66,1.46-4.97,2.04-6.94,.58-1.96,1.1-3.66,1.58-5.11,.48-1.44,.71-2.2,.7-2.27,.32-2.6,2.58-5.06,6.77-7.37,4.05-2.36,7.89-3.35,11.51-2.97,4.03,.46,6.1,2.81,6.2,7.03-.37,4.22-1.19,8.5-2.45,12.84-1.26,4.34-2.75,8.92-4.45,13.72-1.71,4.81-3.57,9.9-5.6,15.29-2.03,5.39-3.97,11.2-5.82,17.44-.03,.27,.13,.49,.49,.64,.85-.18,2.02-.61,3.51-1.28,1.49-.67,3.05-1.3,4.69-1.89,1.64-.59,3.28-1,4.93-1.22,1.65-.22,3.09,.02,4.33,.72,.09,1.2,.52,2.1,1.27,2.7,.75,.61,1.51,1.19,2.26,1.76,1.88,1.5,2.32,3.76,1.32,6.79-.95,2.95-3.07,5.16-6.37,6.61-1.33,.58-2.63,.98-3.88,1.18Z"/>
  <path class="cls-1" d="M205.51,86.34c2.41,.89,4.06,2.45,4.97,4.68-.32,7.58-.52,15.09-.59,22.53-.07,7.44-.27,13.69-.59,18.75-.32,5.05-.5,8.83-.54,11.32-.03,2.49-.12,4.99-.25,7.5l-.31,2.16c-.04,.75-.08,1.44-.12,2.08-.05,.65-.09,1.34-.12,2.09-1.57,2.36-3.93,3.76-7.1,4.19-3.37,.46-6.16-.04-8.38-1.49-1.31-.76-1.78-2.69-1.38-5.77,.17-1.23,.18-2.8,.02-4.7-.16-1.9-.25-3.48-.29-4.75l-.03-.2c-1.88,1-3.54,2.18-4.97,3.55-1.43,1.37-2.32,2.23-2.68,2.58-.36,.35-.86,.66-1.49,.91-.64,.26-1.22,.45-1.74,.59-1.25,.24-2.08,.55-2.5,.94-2.9,7.39-5.82,11.69-8.75,12.89-1.83,.85-3.73,1.26-5.69,1.22-1.96-.04-3.63-.97-5.02-2.8-2.38-1.7-2.59-7.18-.61-16.47,1.08-4.92,2.78-10.89,5.1-17.89,2.31-7.01,4.63-13.16,6.94-18.45,4.99-11.37,10.83-21.17,17.52-29.41,1.18-.7,2.46-1.49,3.82-2.38,1.36-.89,2.74-1.46,4.16-1.72,1.41-.26,2.9-.29,4.48-.1,1.57,.19,2.94,.61,4.11,1.26,2.69,1.52,3.38,3.82,2.04,6.89Zm-17.68,28.93c-.85,4.15-1.75,7.99-2.68,11.51-.94,3.52-1.73,6.61-2.38,9.25l7.79-1.36c-.04-4.3-.02-8.58,.08-12.83s.16-8.5,.2-12.74l-3,6.16Zm0,20.18c.92-.12,1.84-.31,2.75-.57v-.1c-.86,.18-1.65,.36-2.37,.52-.72,.16-.85,.21-.38,.15Z"/>
  <path class="cls-1" d="M222.49,114.21c-2.42-9.43-3.93-17.16-4.55-23.2-.52-2.82,.27-5.69,2.37-8.6,1.98-2.76,4.21-4.44,6.68-5.04,2.75-.57,4.74,.74,5.98,3.93,.78,1.78,1.73,3.84,2.85,6.17,1.12,2.34,2.23,4.81,3.32,7.42,.59-1.09,1.51-2.99,2.76-5.72,1.25-2.72,2.43-5.17,3.55-7.34,2.72-5.28,5.24-9.05,7.55-11.31,2.38-1.33,4.5-1.9,6.38-1.72,1.87,.18,3.29,.68,4.24,1.49,.95,.82,1.45,2.13,1.49,3.94,.43,4.18-1.86,11.15-6.86,20.91-1.18,2.24-2.32,4.82-3.45,7.73-1.12,2.91-2.43,6.17-3.93,9.76-1.5,3.6-2.91,7.17-4.25,10.72-3.09,8.02-5.33,15.55-6.73,22.61,.05-.14,.33-.03,.85,.34,.52,.37,1.03,.92,1.54,1.66,1.33,1.84,1.45,3.5,.37,5-2.72,3.73-6.41,6.11-11.04,7.14-4.25,.91-8.06,.62-11.42-.88-3.35-1.37-4.67-3.44-3.97-6.22l-.3,.04c.94-3.96,2.12-7.74,3.51-11.32,1.4-3.59,2.85-7.3,4.35-11.13l3.39-8.53c-1.09,.42-2.12-.25-3.1-2-.73-1.45-1.27-3.39-1.6-5.84Z"/>
</svg>