<?xml version="1.0" encoding="UTF-8"?>
<svg id="talebobbel" xmlns="http://www.w3.org/2000/svg" viewBox="0 0 589 365">
  <defs>
    <style>
      .cls-1 {
        fill: #fff;
        stroke: #754c24;
        stroke-miterlimit: 10;
      }
    </style>
  </defs>
  <path class="cls-1" d="M81.49,171.93c-4.08,.16-7.82-.34-11.22-1.5-3.4-1.16-6.16-2.74-8.28-4.74s-3.46-4.34-4.02-7.02c-.56-2.68-.08-5.42,1.44-8.22,2.08-3.36,6.24-4.36,12.48-3,4.72,.96,7.98,1.48,9.78,1.56,1.8,.08,3.34-.16,4.62-.72,5.84-1.92,9.12-4,9.84-6.24,.48-1.68-.56-3.64-3.12-5.88-1.04-.96-2.2-1.92-3.48-2.88-1.28-.96-2.36-1.92-3.24-2.88-4-2.96-7.14-6.38-9.42-10.26-2.28-3.88-3.22-8.1-2.82-12.66,.4-4.56,1.16-8.34,2.28-11.34,1.12-3,2.52-5.66,4.2-7.98,2.96-4.08,6.8-7.4,11.52-9.96,5.44-2.8,9.8-4.6,13.08-5.4,6.48-1.44,13.04-1.56,19.68-.36,2.24,.4,4.16,1.16,5.76,2.28,1.6,1.12,3.2,2.28,4.8,3.48,2.8,2.8,3.48,5.64,2.04,8.52-.56,1.28-1.44,2.32-2.64,3.12-1.2,.8-2.48,1.24-3.84,1.32,.16,2.16-.24,3.76-1.2,4.8-1.84,1.84-5.04,3.04-9.6,3.6-6.56-.48-11-.12-13.32,1.08-2.72,1.44-3.72,4.56-3,9.36,.16,1.04,.82,2.12,1.98,3.24,1.16,1.12,2.52,2.32,4.08,3.6,1.56,1.28,3.2,2.72,4.92,4.32,1.72,1.6,3.22,3.44,4.5,5.52,4.48,7.36,4.12,15.96-1.08,25.8-3.84,7.36-10.4,12.88-19.68,16.56-4.8,1.92-10.48,2.88-17.04,2.88Z"/>
  <path class="cls-1" d="M194.17,83.61c2.72,1.44,4.44,3.56,5.16,6.36-1.6,8.96-3.04,17.86-4.32,26.7-1.28,8.84-2.52,16.24-3.72,22.2-1.2,5.96-2.02,10.42-2.46,13.38-.44,2.96-.94,5.92-1.5,8.88l-.72,2.52c-.16,.88-.32,1.7-.48,2.46-.16,.76-.32,1.58-.48,2.46-2.24,2.56-5.28,3.84-9.12,3.84-4.08,0-7.32-1.04-9.72-3.12-1.44-1.12-1.68-3.48-.72-7.08,.4-1.44,.66-3.3,.78-5.58,.12-2.28,.26-4.18,.42-5.7v-.24c-2.4,.88-4.56,2.02-6.48,3.42-1.92,1.4-3.12,2.28-3.6,2.64-.48,.36-1.12,.64-1.92,.84-.8,.2-1.52,.34-2.16,.42-1.52,.08-2.56,.32-3.12,.72-4.64,8.32-8.8,12.96-12.48,13.92-2.32,.72-4.64,.9-6.96,.54-2.32-.36-4.16-1.74-5.52-4.14-2.56-2.4-1.92-8.96,1.92-19.68,2.08-5.68,5.06-12.5,8.94-20.46,3.88-7.96,7.62-14.9,11.22-20.82,7.76-12.72,16.28-23.44,25.56-32.16,1.52-.64,3.16-1.38,4.92-2.22,1.76-.84,3.5-1.3,5.22-1.38,1.72-.08,3.5,.12,5.34,.6,1.84,.48,3.4,1.2,4.68,2.16,2.96,2.24,3.4,5.08,1.32,8.52Zm-25.68,31.56c-1.68,4.8-3.36,9.22-5.04,13.26-1.68,4.04-3.12,7.58-4.32,10.62l9.48-.36c.64-5.12,1.36-10.2,2.16-15.24,.8-5.04,1.56-10.08,2.28-15.12l-4.56,6.84Zm-3.24,24c1.12,0,2.24-.08,3.36-.24v-.12c-1.04,.08-2,.16-2.88,.24-.88,.08-1.04,.12-.48,.12Z"/>
  <path class="cls-1" d="M204.97,161.01l-.84-77.52c0-1.92,.78-3.58,2.34-4.98,1.56-1.4,3.34-2.38,5.34-2.94,2-.56,3.88-.64,5.64-.24,1.76,.4,2.88,1.44,3.36,3.12,1.52,3.04,2.56,7.24,3.12,12.6,1.04,10,1.56,18.64,1.56,25.92,.8,1.28,1.8,1.88,3,1.8,3.44-8.4,7.24-16.48,11.4-24.24,4.16-7.76,6.84-12.74,8.04-14.94,1.2-2.2,2.64-3.74,4.32-4.62,1.68-.88,3.48-1.44,5.4-1.68,4.16-.48,8.08,.24,11.76,2.16,2.8,.96,4.44,2.6,4.92,4.92,1.84,3.68,.6,7.92-3.72,12.72-5.04,8-10.12,16.84-15.24,26.52-9.76,18.64-15.96,30.12-18.6,34.44-2.64,4.32-4.56,7.38-5.76,9.18-1.2,1.8-2.56,3.3-4.08,4.5-2.72,2.16-6,3.04-9.84,2.64-6.72-.24-10.64-2.36-11.76-6.36-.24-1.12-.36-2.12-.36-3Z"/>
  <path class="cls-1" d="M284.41,149.85c4.64,.48,8.1,.72,10.38,.72s5.74-.32,10.38-.96c1.44,.48,2.28,1.08,2.52,1.8,.24,.72,.32,1.46,.24,2.22-.08,.76-.04,1.5,.12,2.22,.16,.72,.92,1.32,2.28,1.8,.72,.24,.94,.94,.66,2.1-.28,1.16-.94,2.42-1.98,3.78-2.64,3.44-5.76,5.84-9.36,7.2-5.76,1.44-10.28,2.28-13.56,2.52-5.44,.4-11.36,.2-17.76-.6-7.04-1.28-10.44-4.2-10.2-8.76,0-16.8,3.68-33.68,11.04-50.64,2.4-5.52,5.12-11.32,8.16-17.4,.64-1.28,1.02-2.72,1.14-4.32,.12-1.6,.22-3.16,.3-4.68,.08-1.52,.32-2.88,.72-4.08,.4-1.2,1.24-2.04,2.52-2.52,16.64-6.64,29.8-9.2,39.48-7.68,3.36,.08,5.58,1.22,6.66,3.42,1.08,2.2,1.2,4.66,.36,7.38-.84,2.72-2.48,5.28-4.92,7.68-2.44,2.4-5.5,3.88-9.18,4.44-4.72,1.36-7.6,2.28-8.64,2.76-2,.96-3.44,2.24-4.32,3.84-1.12,1.76-2.16,3.44-3.12,5.04-.96,1.6-1.64,3.32-2.04,5.16l-.48,2.64c1.52,.72,3.38,.94,5.58,.66,2.2-.28,4.24-.56,6.12-.84,1.88-.28,3.4-.3,4.56-.06,1.16,.24,1.4,1.42,.72,3.54-.68,2.12-1.92,4.5-3.72,7.14-1.8,2.64-4.34,4.56-7.62,5.76-2.08,.4-3.5,.7-4.26,.9-.76,.2-1.34,.34-1.74,.42-.56,.08-2.16,.2-4.8,.36-3.76,6.4-6.04,11.36-6.84,14.88-.32,1.44-.12,2.16,.6,2.16Z"/>
  <path class="cls-1" d="M399.42,134.19c-2.2,6.28-4.42,12.3-6.66,18.06-2.24,5.76-4.1,10.14-5.58,13.14-1.48,3-2.78,5.06-3.9,6.18-1.12,1.12-2.26,1.88-3.42,2.28-1.16,.4-2.32,.56-3.48,.48-1.16-.08-2.34-.16-3.54-.24-6.72-1.04-8.8-5.88-6.24-14.52,1.68-6.88,3.04-12.5,4.08-16.86,1.04-4.36,1.9-7.96,2.58-10.8,.68-2.84,1.26-5.2,1.74-7.08,.48-1.88,1-3.74,1.56-5.58,.56-1.84,1.26-3.92,2.1-6.24,.84-2.32,1.94-5.4,3.3-9.24-3.04,.4-5.76,.08-8.16-.96-3.52-1.52-4.96-4.8-4.32-9.84,.32-2.32,1.56-4.48,3.72-6.48,1.12-1.04,2.44-2.16,3.96-3.36,3.12-2.48,9.32-5.12,18.6-7.92,9.6-2.88,17.84-4.24,24.72-4.08,1.84-.32,3.74-.1,5.7,.66,1.96,.76,3.54,1.78,4.74,3.06,1.2,1.28,1.82,2.68,1.86,4.2,.04,1.52-.94,2.88-2.94,4.08-.96,.64-1.64,1.7-2.04,3.18-.4,1.48-.84,3.04-1.32,4.68-.48,1.64-1.18,3.14-2.1,4.5-.92,1.36-2.38,2.16-4.38,2.4-1.04,.56-2.5,.96-4.38,1.2-1.88,.24-3.12,.42-3.72,.54-.6,.12-.94,.34-1.02,.66-1.44,4.24-3.16,9.38-5.16,15.42-2,6.04-4.1,12.2-6.3,18.48Zm-16.26-31.74c-.16,0-.24,.02-.24,.06s.08,.06,.24,.06v-.12Z"/>
  <path class="cls-1" d="M446.52,138.81l-5.76,14.64c-.8,2.24-1.52,4.56-2.16,6.96-.64,2.4-1.32,4.5-2.04,6.3-.72,1.8-1.82,3.22-3.3,4.26-1.48,1.04-3.14,1.82-4.98,2.34-1.84,.52-3.74,.74-5.7,.66-1.96-.08-3.7-.44-5.22-1.08-3.44-1.6-4.64-4.24-3.6-7.92,3.68-16.16,7.14-29.12,10.38-38.88,3.24-9.76,5.92-17.44,8.04-23.04,2.12-5.6,4.34-11.52,6.66-17.76,.24-2.32,1.2-4.4,2.88-6.24,1.68-1.84,3.66-3.36,5.94-4.56,2.28-1.2,4.66-2.06,7.14-2.58,2.48-.52,4.68-.58,6.6-.18,1.92,.4,3.34,1.28,4.26,2.64,.92,1.36,.98,3.32,.18,5.88-2.88,7.36-4.92,12.56-6.12,15.6-1.2,3.04-2.28,5.76-3.24,8.16l-3.36,7.92c1.68,.08,3.8-.16,6.36-.72,4.64-1.04,8-1.4,10.08-1.08,0-.4,.2-1.08,.6-2.04,2.24-9.76,4.76-18.72,7.56-26.88,2-6.72,7.16-10.24,15.48-10.56,3.28,0,5.76,.8,7.44,2.4,1.84,1.68,2.08,3.96,.72,6.84-7.36,20.64-12.56,36.92-15.6,48.84-3.44,13.76-5.7,23.04-6.78,27.84s-2.02,7.64-2.82,8.52c-.8,.88-1.62,1.5-2.46,1.86-.84,.36-1.66,.7-2.46,1.02-.8,.32-1.44,1.12-1.92,2.4h-.36c-.64,1.44-2.04,2.56-4.2,3.36-2.16,.8-4.34,1.1-6.54,.9-2.2-.2-4.04-1-5.52-2.4-1.48-1.4-1.86-3.54-1.14-6.42,.8-4.56,2.12-9.46,3.96-14.7,1.84-5.24,3.3-9.34,4.38-12.3,1.08-2.96,1.98-5.72,2.7-8.28-.64,.32-1.26,.56-1.86,.72-.6,.16-1.34,.46-2.22,.9-.88,.44-1.78,.82-2.7,1.14-.92,.32-1.82,.64-2.7,.96-2.24,.88-4.08,1.76-5.52,2.64l-1.08,1.92Zm13.56-8.04c.08,0,.48-.12,1.2-.36-.48,.16-.88,.28-1.2,.36Z"/>
  <path class="cls-1" d="M515.52,149.85c4.64,.48,8.1,.72,10.38,.72s5.74-.32,10.38-.96c1.44,.48,2.28,1.08,2.52,1.8,.24,.72,.32,1.46,.24,2.22-.08,.76-.04,1.5,.12,2.22,.16,.72,.92,1.32,2.28,1.8,.72,.24,.94,.94,.66,2.1-.28,1.16-.94,2.42-1.98,3.78-2.64,3.44-5.76,5.84-9.36,7.2-5.76,1.44-10.28,2.28-13.56,2.52-5.44,.4-11.36,.2-17.76-.6-7.04-1.28-10.44-4.2-10.2-8.76,0-16.8,3.68-33.68,11.04-50.64,2.4-5.52,5.12-11.32,8.16-17.4,.64-1.28,1.02-2.72,1.14-4.32,.12-1.6,.22-3.16,.3-4.68,.08-1.52,.32-2.88,.72-4.08,.4-1.2,1.24-2.04,2.52-2.52,16.64-6.64,29.8-9.2,39.48-7.68,3.36,.08,5.58,1.22,6.66,3.42,1.08,2.2,1.2,4.66,.36,7.38-.84,2.72-2.48,5.28-4.92,7.68-2.44,2.4-5.5,3.88-9.18,4.44-4.72,1.36-7.6,2.28-8.64,2.76-2,.96-3.44,2.24-4.32,3.84-1.12,1.76-2.16,3.44-3.12,5.04-.96,1.6-1.64,3.32-2.04,5.16l-.48,2.64c1.52,.72,3.38,.94,5.58,.66,2.2-.28,4.24-.56,6.12-.84,1.88-.28,3.4-.3,4.56-.06,1.16,.24,1.4,1.42,.72,3.54-.68,2.12-1.92,4.5-3.72,7.14-1.8,2.64-4.34,4.56-7.62,5.76-2.08,.4-3.5,.7-4.26,.9-.76,.2-1.34,.34-1.74,.42-.56,.08-2.16,.2-4.8,.36-3.76,6.4-6.04,11.36-6.84,14.88-.32,1.44-.12,2.16,.6,2.16Z"/>
  <path class="cls-1" d="M144.61,262.41c1.6-5.36,2.9-9.5,3.9-12.42,1-2.92,1.98-5.54,2.94-7.86,.96-2.32,2.06-4.56,3.3-6.72,1.24-2.16,2.6-4.14,4.08-5.94,1.48-1.8,3.06-3.22,4.74-4.26,1.68-1.04,3.44-1.56,5.28-1.56s3.76,.72,5.76,2.16c3.2,8,5.16,13.36,5.88,16.08,.96,4,1.84,9.64,2.64,16.92,.72-1.84,1.54-3.78,2.46-5.82,.92-2.04,1.82-4.1,2.7-6.18,2.48-5.28,4.04-9.28,4.68-12,1.76-5.6,5.4-9.8,10.92-12.6,4.8-2.4,9.28-3.16,13.44-2.28,1.68,.32,2.86,1,3.54,2.04,.68,1.04,.68,2.12,0,3.24-.68,1.12-.92,2.18-.72,3.18,.2,1,.38,2.18,.54,3.54,.24,3.68-.4,6.94-1.92,9.78-1.52,2.84-3.08,6.36-4.68,10.56-1.6,4.2-3.22,8.66-4.86,13.38-1.64,4.72-3.3,9.52-4.98,14.4-1.68,4.88-3.32,9.32-4.92,13.32-3.52,9.2-6.4,14.28-8.64,15.24-3.04,1.84-5.28,2.92-6.72,3.24-1.84,.32-4.44,.32-7.8,0-2.08-.16-3.88-2.84-5.4-8.04-.88-2.8-1.68-6.68-2.4-11.64-1.28-8.64-2.16-13.4-2.64-14.28-3.2,10.4-5.46,16.96-6.78,19.68-1.32,2.72-2.32,4.52-3,5.4-.68,.88-1.5,2.04-2.46,3.48-1.04,2.88-3.52,5-7.44,6.36-3.36,1.28-6.4,1.48-9.12,.6-2.96-.96-3.84-2.8-2.64-5.52,.88-9.6,4.32-24.76,10.32-45.48Z"/>
  <path class="cls-1" d="M253.21,222.09v.24c0,.08,.02,.12,.06,.12s.06,.04,.06,.12v.24h.12l.72,1.92c.8,2.32-1.28,9.52-6.24,21.6-5.28,12.88-7.72,22.92-7.32,30.12,.88,5.12,5.16,1,12.84-12.36,6.08-10.4,11.96-21.8,17.64-34.2,.72-1.68,1.48-3.42,2.28-5.22,.8-1.8,1.8-3.3,3-4.5,2.64-2.88,5.84-3.64,9.6-2.28,1.28-1.52,2.78-2.56,4.5-3.12,1.72-.56,3.36-.68,4.92-.36,1.56,.32,2.9,1.06,4.02,2.22,1.12,1.16,1.72,2.7,1.8,4.62,.24,1.6-.58,5.4-2.46,11.4-1.88,6-3.62,11.48-5.22,16.44-1.6,4.96-3.24,10.36-4.92,16.2-4.08,13.84-7.32,26.88-9.72,39.12-.08,2.56-1.18,4.68-3.3,6.36-2.12,1.68-4.48,2.78-7.08,3.3-2.6,.52-5.06,.42-7.38-.3-2.8-.8-4.28-2.8-4.44-6,0-.88-.04-1.76-.12-2.64,.16,2.72-1.8,5.04-5.88,6.96-1.12,.56-2.16,1.08-3.12,1.56-5.6,1.68-11.48,1.32-17.64-1.08-2.88-1.2-5.46-2.82-7.74-4.86-2.28-2.04-3.86-4.46-4.74-7.26-2.8-8.96-2.28-20.72,1.56-35.28,1.6-6.24,3.56-12.32,5.88-18.24,2.32-5.92,4.02-10.2,5.1-12.84,1.08-2.64,1.86-4.46,2.34-5.46,.48-1,1-1.98,1.56-2.94,1.36-2.72,2.52-4.56,3.48-5.52l1.44-1.32c.16-.16,.32-.26,.48-.3,.16-.04,.36-.14,.6-.3,.64-.4,1.32-.68,2.04-.84l1.68-.36h.72c2.32-.32,4.32,.16,6,1.44,0,.08,.08,.12,.24,.12l.96,.84,.36,.36,.36,.48c0,.08,.02,.12,.06,.12s.06,.04,.06,.12l.12,.12v.24c.08,0,.12,.04,.12,.12v.12c.08,.08,.16,.12,.24,.12v.12c0,.08,.02,.12,.06,.12,.04,0,.06,.02,.06,.06s.04,.1,.12,.18v.12c0,.08,.04,.16,.12,.24Zm3.24,79.92v-.36c-.08,.08-.12,.4-.12,.96,0-.24,.04-.4,.12-.48v-.12Z"/>
  <path class="cls-1" d="M336.07,278.19c-2.2,6.28-4.42,12.3-6.66,18.06-2.24,5.76-4.1,10.14-5.58,13.14-1.48,3-2.78,5.06-3.9,6.18-1.12,1.12-2.26,1.88-3.42,2.28-1.16,.4-2.32,.56-3.48,.48-1.16-.08-2.34-.16-3.54-.24-6.72-1.04-8.8-5.88-6.24-14.52,1.68-6.88,3.04-12.5,4.08-16.86,1.04-4.36,1.9-7.96,2.58-10.8,.68-2.84,1.26-5.2,1.74-7.08,.48-1.88,1-3.74,1.56-5.58,.56-1.84,1.26-3.92,2.1-6.24,.84-2.32,1.94-5.4,3.3-9.24-3.04,.4-5.76,.08-8.16-.96-3.52-1.52-4.96-4.8-4.32-9.84,.32-2.32,1.56-4.48,3.72-6.48,1.12-1.04,2.44-2.16,3.96-3.36,3.12-2.48,9.32-5.12,18.6-7.92,9.6-2.88,17.84-4.24,24.72-4.08,1.84-.32,3.74-.1,5.7,.66,1.96,.76,3.54,1.78,4.74,3.06,1.2,1.28,1.82,2.68,1.86,4.2,.04,1.52-.94,2.88-2.94,4.08-.96,.64-1.64,1.7-2.04,3.18-.4,1.48-.84,3.04-1.32,4.68-.48,1.64-1.18,3.14-2.1,4.5-.92,1.36-2.38,2.16-4.38,2.4-1.04,.56-2.5,.96-4.38,1.2-1.88,.24-3.12,.42-3.72,.54-.6,.12-.94,.34-1.02,.66-1.44,4.24-3.16,9.38-5.16,15.42-2,6.04-4.1,12.2-6.3,18.48Zm-16.26-31.74c-.16,0-.24,.02-.24,.06s.08,.06,.24,.06v-.12Z"/>
  <path class="cls-1" d="M374.41,315.93c-4.08,.16-7.82-.34-11.22-1.5-3.4-1.16-6.16-2.74-8.28-4.74s-3.46-4.34-4.02-7.02c-.56-2.68-.08-5.42,1.44-8.22,2.08-3.36,6.24-4.36,12.48-3,4.72,.96,7.98,1.48,9.78,1.56,1.8,.08,3.34-.16,4.62-.72,5.84-1.92,9.12-4,9.84-6.24,.48-1.68-.56-3.64-3.12-5.88-1.04-.96-2.2-1.92-3.48-2.88-1.28-.96-2.36-1.92-3.24-2.88-4-2.96-7.14-6.38-9.42-10.26-2.28-3.88-3.22-8.1-2.82-12.66,.4-4.56,1.16-8.34,2.28-11.34,1.12-3,2.52-5.66,4.2-7.98,2.96-4.08,6.8-7.4,11.52-9.96,5.44-2.8,9.8-4.6,13.08-5.4,6.48-1.44,13.04-1.56,19.68-.36,2.24,.4,4.16,1.16,5.76,2.28,1.6,1.12,3.2,2.28,4.8,3.48,2.8,2.8,3.48,5.64,2.04,8.52-.56,1.28-1.44,2.32-2.64,3.12-1.2,.8-2.48,1.24-3.84,1.32,.16,2.16-.24,3.76-1.2,4.8-1.84,1.84-5.04,3.04-9.6,3.6-6.56-.48-11-.12-13.32,1.08-2.72,1.44-3.72,4.56-3,9.36,.16,1.04,.82,2.12,1.98,3.24,1.16,1.12,2.52,2.32,4.08,3.6,1.56,1.28,3.2,2.72,4.92,4.32,1.72,1.6,3.22,3.44,4.5,5.52,4.48,7.36,4.12,15.96-1.08,25.8-3.84,7.36-10.4,12.88-19.68,16.56-4.8,1.92-10.48,2.88-17.04,2.88Z"/>
  <path class="cls-1" d="M448.56,312.93c-.88,3.28-2.7,5.74-5.46,7.38-2.76,1.64-5.7,2.52-8.82,2.64-3.12,.12-6.02-.48-8.7-1.8-2.68-1.32-4.36-3.36-5.04-6.12s-.24-5.12,1.32-7.08c1.56-1.96,3.42-3.24,5.58-3.84,2.16-.6,4.7-1.02,7.62-1.26,2.92-.24,5.58-.08,7.98,.48,2.4,.56,4.24,1.6,5.52,3.12,1.28,1.52,1.28,3.68,0,6.48Zm28.68-90.48c.32,.96,.68,1.62,1.08,1.98,.4,.36,.68,.62,.84,.78,.4,.4,.2,1.12-.6,2.16-.72,1.44-1.72,3.12-3,5.04-2.32,3.44-3.8,5.96-4.44,7.56-3.28,6.56-5.84,12.58-7.68,18.06-1.84,5.48-3.4,10.42-4.68,14.82-1.28,4.4-2.52,8.28-3.72,11.64-1.44,3.92-3.12,6.84-5.04,8.76-.96,1.6-2.68,2.68-5.16,3.24-2.48,.56-5,.66-7.56,.3-2.56-.36-4.74-1.18-6.54-2.46-1.8-1.28-2.46-2.96-1.98-5.04,.88-7.52,2.22-13.84,4.02-18.96,1.8-5.12,3.36-9.36,4.68-12.72,1.32-3.36,2.46-6.38,3.42-9.06,.96-2.68,1.86-5,2.7-6.96,.84-1.96,1.82-4.04,2.94-6.24,1.12-2.2,2.34-4.44,3.66-6.72,1.32-2.28,2.66-4.38,4.02-6.3,3.12-4.4,5.76-7.02,7.92-7.86,2.16-.84,4.34-1.34,6.54-1.5,2.2-.16,4.12,.08,5.76,.72,1.64,.64,2.78,1.68,3.42,3.12,.64,1.44,.44,3.32-.6,5.64Z"/>
</svg>