<?xml version="1.0" encoding="UTF-8"?>
<svg id="timer" xmlns="http://www.w3.org/2000/svg" viewBox="0 0 165 200">
  <defs>
    <style>
      .cls-1 {
        fill: #603813;
      }

      .cls-2 {
        fill: #42210b;
      }
    </style>
  </defs>
  <g>
    <g>
      <path class="cls-1" d="M125.96,82.6c-.32-1.55-.68-3.15-1.66-4.39-1.69-2.15-4.69-2.63-7.4-2.94-22.15-2.56-44.41-4.1-66.7-4.61-4.8-.11-10.24,.09-13.45,3.65-2.1,2.33-2.74,5.58-3.2,8.68-2.35,15.65-2.28,31.65,.21,47.28,1,6.28,2.42,12.59,5.45,18.17,3.07,5.67,7.56,10.23,12.45,14.49,4.28,5.29,9.13,10.23,13.91,15.04,2.87,2.89,5.81,5.83,9.45,7.66,5.73,2.89,12.7,2.67,18.7,.38,5.99-2.29,11.1-6.49,15.41-11.24,10.9-12.01,17.15-27.76,19.41-43.82,2.26-16.06,.71-32.46-2.56-48.34Zm-.33,50.7c-.18,3.48-.14,6.98-1.04,10.4-1.12,4.26-3.19,8.36-5.67,11.99-.05,.07-.1,.14-.15,.21-.41,1.32-.93,2.6-1.54,3.85-.36,3.16-2.34,5.87-4.7,8.14-.91,1.35-1.91,2.65-3.05,3.78-2.75,3.84-6.01,7.24-10.19,9.73-9.01,5.37-17.89,5-26.54-.81-5.34-3.58-12.5-8.65-15.34-14.95-2.21-1.3-4.34-2.71-6.29-4.22-5.21-4.04-10.91-10.91-11.29-17.95-4.35-6.31-5.86-14.73-6.1-22.21-.13-4.08-.24-8.22,.36-12.26-.1-.43-.16-.88-.14-1.39,.03-.45,.03-.91,.04-1.36-1.07-4.81-1.23-10.04,.77-14.18,.03-.07,.07-.12,.1-.18,.05-.75,.04-1.46-.1-2.09-.44-2,.27-4.17,1.87-5.36,1.09-1.79,3.07-2.92,5.34-1.97,.65,.27,1.31,.51,1.97,.74,8.28-.49,16.58,.86,24.81,1.61,1.67,.15,3.44,.2,5.25,.25,3.47-.31,6.99-.26,10.39-.06,3.32,.19,6.64,.53,9.95,.88,1.26,.1,2.49,.22,3.63,.35,.65,.07,1.29,.15,1.94,.24,2.34,.24,4.67,.45,7.02,.59,3.89,.24,9.94-.72,14.02,.76,3.02,.13,6.01,2.73,4.78,6.2-.02,.05-.03,.11-.05,.16,.09,.75,.16,1.49,.2,2.24,.49,1.43,1.07,3.13,1.05,4.14,0,.41-.04,.82-.1,1.22,.26,2.07,.31,4.14,.22,6.21,2.11,8.3,1.91,17.49-1.44,25.32Z"/>
      <g>
        <path class="cls-2" d="M127.4,82.2c-.55-2.62-1.42-5.05-3.76-6.56-2.13-1.38-4.77-1.65-7.24-1.93-6.56-.76-13.13-1.42-19.72-1.99-13.24-1.16-26.52-1.95-39.8-2.38-5.31-.17-11.34-.96-16.47,.88-2.3,.83-4.29,2.21-5.69,4.24-1.48,2.16-2.1,4.8-2.51,7.35-2.08,12.8-2.41,25.94-1.18,38.85,1.14,11.97,3.01,24.44,10.61,34.17,1.75,2.24,3.7,4.31,5.75,6.27,1.04,.98,2.19,1.87,3.19,2.89,1.13,1.15,2.09,2.52,3.15,3.73,4.08,4.64,8.41,9.1,12.86,13.39,4.08,3.94,8.62,7.08,14.35,7.89,5.63,.8,11.33-.43,16.38-2.97,9.88-4.98,17.43-14.48,22.67-24,11.8-21.43,12.84-46.63,9.14-70.33-.5-3.18-1.08-6.34-1.72-9.49-.39-1.89-3.28-1.09-2.89,.8,4.66,22.74,5.72,46.93-3.02,68.86-3.88,9.73-9.74,18.98-17.6,25.99-7.74,6.9-19.48,11.6-29.24,5.88-4.73-2.77-8.49-7.23-12.27-11.12-2.06-2.12-4.09-4.27-6.05-6.48-.93-1.04-1.84-2.1-2.73-3.18-.95-1.15-2.04-2.08-3.13-3.09-3.99-3.68-7.64-7.74-10.18-12.57-2.69-5.12-3.99-10.85-4.94-16.52-2-12.03-2.49-24.32-1.58-36.47,.23-3.09,.55-6.17,.98-9.23,.35-2.53,.64-5.23,1.72-7.58,2.12-4.6,7.18-5.32,11.72-5.35,6.03-.04,12.08,.3,18.1,.57s12.53,.65,18.79,1.09c6.18,.44,12.35,.96,18.51,1.55,3.12,.3,6.24,.63,9.36,.97,2.56,.28,5.34,.35,7.79,1.23s3.25,2.99,3.76,5.45c.39,1.89,3.29,1.09,2.89-.8Z"/>
        <path class="cls-2" d="M124.12,133.3c-.15,3.02-.12,6.09-.76,9.06-.59,2.72-1.63,5.34-2.9,7.81-.58,1.12-1.2,2.22-1.88,3.28-.35,.56-.81,1.11-1.12,1.69-.34,.65-.49,1.41-.76,2.09s-.63,1.28-.85,1.94c-.18,.55-.22,1.16-.38,1.72-.35,1.21-.97,2.32-1.69,3.34s-1.65,1.8-2.43,2.75c-.9,1.1-1.67,2.25-2.63,3.31-1.72,1.91-3.15,4.02-5.01,5.83-3.8,3.67-8.67,6.44-13.92,7.33s-10.57-.62-15.09-3.38c-3.98-2.43-7.89-5.29-11.2-8.59-1.68-1.68-3.21-3.52-4.33-5.63-.22-.42-.38-.92-.71-1.27-.45-.48-1.29-.82-1.85-1.17-1.2-.75-2.38-1.53-3.52-2.36-3.99-2.9-7.54-6.63-9.82-11.03-.56-1.07-1.02-2.17-1.36-3.33-.17-.56-.31-1.13-.41-1.71-.11-.62-.05-1.32-.23-1.91-.33-1.07-1.29-2.12-1.82-3.13-.64-1.22-1.18-2.47-1.64-3.77-1.71-4.78-2.41-9.85-2.58-14.91-.1-2.91-.17-5.83,0-8.74,.08-1.34,.43-2.76,.27-4.08-.07-.58-.02-1.15-.02-1.74,0-.74-.17-1.41-.3-2.13-.49-2.68-.68-5.51-.21-8.2,.2-1.15,.53-2.29,1-3.36,.54-1.22,.41-2.31,.24-3.61-.13-1.03-.04-2.04,.55-2.93,.33-.49,.8-.83,1.17-1.28,.35-.42,.62-.86,1.1-1.17,1-.64,1.91-.34,2.93,.05,.51,.2,1.05,.48,1.58,.58,.81,.15,1.77-.02,2.59-.03,6.11-.14,12.19,.61,18.26,1.25,2.88,.31,5.74,.58,8.63,.66s6.02-.25,9.04-.14c5.79,.2,11.61,.81,17.36,1.51,2.74,.33,5.53,.62,8.3,.69,2.31,.06,4.62-.13,6.94-.12s4.55,.47,6.86,.92c1.86,.36,3.37,1.9,2.88,3.86-.28,1.11-.21,2.43,.03,3.57,.27,1.26,.97,2.42,1,3.74,.01,.57-.07,1.13-.04,1.7,.04,.8,.15,1.59,.18,2.39,.06,1.46-.14,2.95,.2,4.38,1.27,5.33,1.58,10.99,.61,16.41-.46,2.57-1.2,5.08-2.21,7.48-.32,.75,.34,1.64,1.05,1.85,.86,.25,1.53-.3,1.85-1.05,2.25-5.37,3.1-11.26,2.81-17.06-.07-1.45-.23-2.9-.44-4.34s-.62-2.86-.83-4.3,0-3.06-.11-4.56c-.05-.7-.14-1.38-.12-2.08,.02-.76,.04-1.43-.11-2.18-.26-1.32-.85-2.55-.97-3.89-.06-.63-.05-1.01,.08-1.62,.15-.72,.17-1.44,.05-2.16-.37-2.24-2.1-3.96-4.18-4.74-.93-.35-1.94-.47-2.9-.72-1.34-.34-2.74-.49-4.11-.56-2.5-.12-5,.07-7.5,.09-5.89,.04-11.85-.98-17.71-1.55-3.14-.31-6.28-.57-9.44-.66s-6.36,.24-9.54,.13c-6.47-.23-12.88-1.35-19.34-1.74-1.54-.09-3.09-.15-4.63-.16-1.63-.01-3.39,.32-4.93-.27-2.42-.92-4.75-.97-6.73,.96-1.71,1.67-3.18,3.6-3.28,6.08-.02,.56,.06,1.1,.14,1.65,.05,.33,.05,.67,.1,.99,0,0,0,.75,.07,.31-.1,.59-.57,1.29-.77,1.86-.25,.71-.44,1.45-.58,2.19-.54,2.81-.47,5.67-.08,8.49,.09,.65,.22,1.29,.33,1.94,.12,.75,.05,1.44,.08,2.19,.02,.52,.1,.98,.07,1.49-.04,.78-.19,1.56-.25,2.35-.44,5.78-.21,11.8,.72,17.53,.44,2.73,1.1,5.42,2.06,8.01,.47,1.27,1,2.53,1.62,3.74,.51,1.01,1.5,2.2,1.71,3.14,.28,1.22,.37,2.43,.75,3.63,.42,1.33,.99,2.62,1.64,3.85,1.27,2.39,2.92,4.59,4.75,6.59s3.76,3.65,5.88,5.2c1.08,.79,2.19,1.54,3.31,2.25,.44,.28,1.21,.56,1.54,.96,.39,.48,.63,1.21,.96,1.75,2.66,4.29,6.64,7.62,10.67,10.57,4.41,3.23,9.06,6.28,14.54,7.27s11.34-.19,16.37-2.9c2.45-1.32,4.72-2.97,6.74-4.88s3.52-4.06,5.3-6.1c.87-.99,1.68-1.99,2.47-3.04,.92-1.21,2.04-2.24,2.93-3.47,1.63-2.24,2.05-4.75,3.09-7.24,.26-.63,.44-1.32,.73-1.94s.74-1.18,1.11-1.77c.83-1.32,1.59-2.68,2.28-4.08,1.26-2.6,2.34-5.35,2.89-8.19,.6-3.1,.62-6.26,.77-9.39,.1-1.93-2.9-1.92-3,0Z"/>
      </g>
    </g>
    <g>
      <path class="cls-2" d="M131.27,65.6c-10.06-8.94-24.23-11.17-37.55-13.03-10.79-1.5-21.68-3.01-32.54-2.1-11.55,.96-22.86,4.7-32.71,10.81-2.37,1.47-4.78,3.23-5.75,5.84-1.6,4.28,1.51,9.15,5.63,11.12,4.01,1.92,8.64,1.82,13.09,1.62,3.83,1.78,7.87,2.85,12.06,3.46,2.25,.15,4.5,.37,6.75,.61,10.94,.48,22.53-1.14,33.51-.66,10.34,.45,20.62,2.86,30.93,1.99,4.54-.38,9.64-1.88,11.54-6.02,2.15-4.72-1.08-10.19-4.95-13.63Z"/>
      <path class="cls-2" d="M132.33,64.54c-6.06-5.33-13.55-8.45-21.31-10.4-8.39-2.1-17.09-3.13-25.66-4.19-9.77-1.21-19.61-1.84-29.39-.37-8.75,1.32-17.28,4.24-25.03,8.51-3.36,1.85-7.43,3.99-9.22,7.57-1.65,3.29-.9,7.08,1.24,9.96,2.43,3.28,6.12,4.95,10.09,5.52,2.14,.3,4.29,.34,6.44,.28,.48-.01,1.04-.13,1.52-.06,.41,.06,.86,.3,1.27,.48,1.04,.43,2.09,.82,3.16,1.17,4.55,1.47,9.13,1.82,13.85,2.3s9.46,.16,14.13-.05,9.66-.53,14.49-.59,9.71,.27,14.56,.81,9.64,1.18,14.49,1.38c4.22,.18,8.68,.19,12.77-1,3.26-.95,6.43-2.84,7.86-6.06,1.61-3.62,.59-7.63-1.47-10.85-1.05-1.64-2.35-3.12-3.79-4.43s-3.56,.82-2.12,2.12c2.52,2.28,5.06,5.46,5.2,9.02s-2.3,5.79-5.31,6.91c-3.55,1.32-7.46,1.4-11.2,1.33-4.45-.08-8.87-.58-13.28-1.09s-8.97-1.02-13.48-1.14-8.83,.07-13.24,.29-8.85,.47-13.28,.51-8.8-.13-13.06-.85c-2.07-.35-4.11-.83-6.11-1.46s-3.87-1.88-5.87-1.8c-3.92,.16-8.21,.26-11.78-1.61-2.75-1.43-5.19-4.42-4.99-7.67,.23-3.67,4.13-5.81,6.93-7.46,7.05-4.13,14.77-7.04,22.78-8.62,8.8-1.73,17.78-1.57,26.67-.68,8.31,.83,16.7,1.93,24.9,3.53,7.21,1.41,14.43,3.47,20.69,7.43,1.57,.99,3.04,2.1,4.43,3.32s3.58-.84,2.12-2.12Z"/>
    </g>
    <g>
      <path class="cls-2" d="M97.81,49.43c2.19-6.33,4.38-12.66,6.57-18.99,.44-1.26,.92-2.59,1.97-3.42,1.59-1.24,3.9-.89,5.77-.14s3.68,1.86,5.69,1.95c-3.92,7.96-7.85,15.92-11.77,23.89"/>
      <path class="cls-2" d="M99.25,49.83c2.06-5.94,4.11-11.89,6.17-17.83,.39-1.12,.69-2.48,1.47-3.42s2.05-.99,3.18-.76c2.71,.56,4.92,2.28,7.75,2.52l-1.3-2.26c-3.92,7.96-7.85,15.92-11.77,23.89-.85,1.73,1.74,3.25,2.59,1.51,3.92-7.96,7.85-15.92,11.77-23.89,.53-1.07-.13-2.16-1.3-2.26-3.07-.25-5.53-2.55-8.69-2.63s-4.87,1.84-5.89,4.47c-2.53,6.52-4.6,13.25-6.88,19.85-.63,1.83,2.26,2.61,2.89,.8h0Z"/>
    </g>
  </g>
  <path class="cls-2" d="M98.16,49.28v5.03c-.01,.87-.02,1.71,.68,2.34,.63,.56,1.49,.58,2.23,.24,2.46-1.14,4.34-5.18,1.87-7.24-.52-.43-1.2-.59-1.82-.23-1.02,.59-1.49,1.74-1.16,2.88,.45,1.54,2.36,1.3,2.89,0-.38,.68-.8,.73-1.24,.16,0,.11,0,.21,.05,.31,.04,.25,.17,.56,.31,.77,.38,.62,1.09,1.02,1.82,1s1.32-.39,1.77-.9c.39-.44,.42-1.11,.77-1.53,1.01-1.21,.03-2.72-1.46-2.51-.63,.09-1.47-.4-2.05-.59-.88-.29-1.77-.41-2.69-.27-1.82,.27-3.29,1.39-4.69,2.5,.84,.22,1.67,.44,2.51,.66-.06-.26,.91-.89,1.15-1.08,.61-.48,1.09-1.07,1.52-1.72,.76-1.18,1.29-2.47,2.14-3.59,1.74-2.28,3.95-4.18,5.24-6.79,.85-1.73-1.74-3.25-2.59-1.51-1.4,2.85-3.97,4.85-5.72,7.46-.82,1.22-1.28,2.78-2.4,3.77-.6,.53-1.27,.94-1.73,1.61-.55,.8-.71,1.7-.49,2.64,.28,1.21,1.68,1.32,2.51,.66,1-.79,2.31-1.87,3.68-1.68,.72,.1,1.39,.47,2.07,.67,.8,.23,1.54,.25,2.35,.14l-1.46-2.51c-.3,.36-.51,.69-.69,1.12-.03,.07-.21,.39-.18,.47,.08,.26-.63-.11,.25-.05l.76,.2c.21,.32,.26,.32,.15,0l-.06-.23c-.09-.26-.2-.48-.35-.7-.35-.53-.92-.84-1.54-.93-1.22-.16-2.15,.53-2.6,1.62h2.89c0,.2-.07,.37-.22,.51l-1.82-.23c.38,.32,.33,.67,.12,1.1s-.79,1.23-1.24,1.31h.8l-.19-.04,.66,.39-.16-.14,.39,.66c-.13-.36-.04-.86-.04-1.25v-1.51c0-1.01,0-2.01,0-3.02,0-1.93-3-1.93-3,0h0Z"/>
</svg>