<?xml version="1.0" encoding="UTF-8"?>
<svg id="timer-fyld" xmlns="http://www.w3.org/2000/svg" viewBox="0 0 165 200">
  <defs>
    <style>
      .cls-1 {
        fill: #8c6239;
      }
    </style>
  </defs>
  <path class="cls-1" d="M42.41,69.17c-.67,.25-1.17,.55-1.72,.99l2.36,1.82-.28,.11-.76-2.8c-3.51,1.82-4.02,6.75-.8,9.14,1.74,1.29,3.49,.64,4.39-1.24s.76-3.75-.08-5.52c-.48-1.01-2.09-.94-2.59,0-.63,1.17-.94,2.39-.9,3.73l2.8-.76c-.26-.47-.4-.91-.44-1.44-.13-1.93-2.88-1.94-3,0-.18,3.01,4.11,2.78,6.06,2.55,.56-.07,1.18-.27,1.69,0,.4,.22,.71,.68,1.01,1.01,.74,.81,1.5,1.46,2.56,1.8,.82,.26,1.57-.31,1.85-1.05,.75-2.02-1.74-3.71-3.14-4.69-1.75-1.21-3.77-2.03-5.85-2.43-1.67-.32-2.6,1.77-1.16,2.74,1.83,1.23,3.94,1.77,6.05,2.27,1.8,.43,4.11,.77,5.09,2.54l2.05-2.05c-1.05-.79-2.22-1.34-3.49-1.68-.84-.23-2.03,.45-1.9,1.45,.19,1.45,.74,2.7,1.92,3.62,1.06,.83,2.66,1.4,3.9,.62,3.05-1.9-.08-5.76-2.21-6.77-.78-.37-2.03-.14-2.2,.9-.63,3.82,6.04,4.03,5.34,.31-.65-3.48-5.69-4.23-8.5-4.66v2.89c1.07-.34,2.19-.18,3.29-.11s2.28,.16,3.41,.28c2.36,.25,4.67,.72,6.89,1.56l.4-2.95c-1.68-.22-4.44-.72-5.7,.76-1.34,1.57,.15,4.21,1.11,5.6,.89,1.3,3.4,.53,2.74-1.16s-1.58-2.85-2.99-3.88c-.87-.64-1.87,.1-2.2,.9-.87,2.07-.16,4.85,1.81,6.05,2.83,1.72,4.02-2.02,4.93-3.93,.69-1.47-1.1-3.11-2.36-1.82s-1.87,3.5,.09,4.45c1.53,.74,4.06,.34,5.25-.86,1.53-1.54,.39-3.47-1.34-4.12s-4.27-.84-5.97,.05-1.57,3.17,.08,4.03c1.52,.79,4.35,.22,5.59-.91,1.35-1.23,.9-3.8-1.16-3.87-2.24-.07-2.72,2.49-1.83,4.07,1.05,1.87,3.2,2.71,5.03,3.6,2.54,1.23,5.08,2.47,7.62,3.7,1.73,.84,3.25-1.75,1.51-2.59-2.32-1.13-4.63-2.25-6.95-3.38-.99-.48-2-.93-2.96-1.46-.4-.22-.8-.45-1.14-.76-.16-.14-.31-.3-.43-.48-.18-.62-.51-.5-.97,.35l-.9-.69c.26-.59,.22-.79-.13-.6-.21,.08-.43,.15-.66,.2-.11,.03-1.26,.07-1.31,.13l.11,1.28c.2-.06,.41-.1,.61-.13,.41-.06,.83-.08,1.24-.05,.35,.02,.69,.07,1.03,.15,.2,.05,.39,.1,.58,.17,.37,.19,.41-.06,.11-.73-.03-.02-1.17,.21-1.19,.22l-.41-.02c.13,.72,.34,.84,.63,.36l-2.36-1.82c-.28,.58-.55,1.17-.83,1.75-.12,.26-.24,.52-.37,.78-.05,.11-.11,.23-.17,.34-.18,.29-.04,.26,.45-.09,.01-.03-.54-.9-.58-1.08-.11-.54,.02-1.01,.23-1.5l-2.2,.9c.72,.53,1.28,1.25,1.61,2.09l2.74-1.16c-.31-.44-.6-.9-.82-1.4-.11-.24-.15-.56-.29-.78l-.11-.39c-.53,.44-.64,.63-.33,.56,.28,.16,1.26-.03,1.61-.02,.65,.02,1.3,.09,1.94,.17,1.79,.24,1.86-2.4,.4-2.95-2.48-.93-5.06-1.39-7.69-1.66-2.36-.25-5.19-.8-7.5-.06-1.28,.41-1.57,2.65,0,2.89,1.44,.22,2.89,.5,4.27,.96,.49,.16,.99,.36,1.42,.66,.12,.09,.46,.53,.58,.54l.64-.66c-.51-.19-.53,.07-.07,.76l-2.2,.9c.47,.22,.89,.46,1.26,.83,.19,.17,.34,.37,.47,.59,.05,.29,.18,.35,.41,.2,.6,.08-.48-.41-.62-.54-.31-.3-.56-.71-.62-1.14l-1.9,1.45c1.04,.28,1.91,.74,2.77,1.38,1.27,.96,2.72-.85,2.05-2.05-2.43-4.39-8.49-3.38-12.22-5.89l-1.16,2.74c1.39,.27,2.71,.7,3.95,1.39,.58,.32,1.15,.69,1.67,1.1,.26,.21,.52,.43,.76,.66l.29,.28c.28,.39,.35,.39,.23,0l1.85-1.05c-.7-.22-1.16-.97-1.65-1.48-.52-.55-1.1-1.03-1.81-1.31-.95-.37-1.84-.21-2.82-.1-.6,.07-1.21,.09-1.82,.07-.3,0-.61-.03-.91-.06-.46-.16-.49-.02-.1,.41h-3c.07,1.07,.33,2.01,.85,2.95,.71,1.29,2.84,.73,2.8-.76-.03-.81,.1-1.49,.49-2.21h-2.59c.33,.68,.39,1.45,.18,2.18-.04,.17-.1,.33-.17,.48-.31,.33-.23,.43,.23,.31-.28-.17-.53-.4-.72-.67-.93-1.34-.28-2.9,1.07-3.6,1.27-.65,.74-2.96-.76-2.8-1.04,.11-1.74,.48-2.31,1.37-.99,1.54,1.12,2.82,2.36,1.82l.4-.22c1.79-.68,1.01-3.58-.8-2.89h0Z"/>
  <path class="cls-1" d="M60.15,73.06c5.62,.13,11.16,1.24,16.78,1.28s11.53,.2,17.31,.92c1.62,.2,1.83-2.05,.76-2.8-1.79-1.24-4.33-1.1-6.41-1.26-2.59-.2-5.19-.31-7.79-.25-5.22,.13-10.41,.9-15.57,1.65-1.8,.26-1.14,2.79,.4,2.95,5.34,.54,10.68,1.08,16.01,1.62v-3c-2.88-.16-5.76-.32-8.64-.48-2.04-.11-5.58-.85-6.34,1.85s2.34,3.23,4.18,3.47c2.91,.39,5.86,.58,8.78,.76,1.67,.1,2.06-2.61,.4-2.95-2.96-.61-5.96-.85-8.97-.67-1.3,.08-1.97,1.58-1.06,2.56,1.29,1.38,3.35,1.15,5.08,1.18,2.21,.03,4.42,.04,6.63,.03s4.3-.08,6.44-.37c1.8-.24,3.99-.39,4.2-2.6,.06-.61-.5-1.33-1.1-1.45-3.45-.67-6.95-1.04-10.46-1.09v3c2.72-.06,5.43-.06,8.15,.02,1.65,.05,2.1-2.68,.4-2.95l-11.26-1.79-.4,2.95,6.97,.37c2.22,.12,4.42,.18,6.56,.83l-.66-2.51c-.84,1.02-1.5,2.39-.58,3.61s2.72,.95,4.06,.96c1.93,.01,1.93-2.99,0-3-.48,0-.97,0-1.45-.02-.21,0-.41-.01-.62-.02,.21,.93,.45,1.13,.71,.6,.71-.87,.49-2.15-.66-2.51-2.23-.68-4.56-.79-6.88-.91l-7.45-.4c-1.66-.09-2.08,2.68-.4,2.95l11.26,1.79,.4-2.95c-2.72-.08-5.43-.08-8.15-.02-1.93,.05-1.94,2.97,0,3,3.25,.04,6.47,.36,9.67,.98l-1.1-1.45-.03,.28,.44-1.06c-.33,.38-1.63,.39-2.08,.45-.79,.1-1.58,.16-2.38,.21-1.52,.09-3.04,.1-4.56,.1s-3.11,0-4.67-.02c-.82-.01-1.64-.02-2.46-.04-.47-.01-1.14,.1-1.49-.27l-1.06,2.56c2.75-.16,5.48,0,8.18,.56l.4-2.95c-1.99-.12-3.98-.27-5.96-.46-.96-.09-1.92-.16-2.87-.32-.19-.03-1.14-.35-1.31-.29-.28-.16-.31-.03-.09,.38-.06,.43,.1,.58,.49,.43,.76,.28,2.06,.11,2.87,.16l2.96,.17c1.98,.11,3.95,.22,5.93,.33s1.89-2.81,0-3c-5.34-.54-10.68-1.08-16.01-1.62l.4,2.95c4.74-.69,9.49-1.37,14.28-1.53,2.29-.07,4.58-.01,6.87,.13,1.1,.07,2.2,.16,3.3,.25s2.12,.08,3.01,.69l.76-2.8c-5.78-.72-11.5-.89-17.31-.92-5.62-.04-11.16-1.15-16.78-1.28-1.93-.04-1.93,2.96,0,3h0Z"/>
  <path class="cls-1" d="M93.32,77.97l8.2-.24c1.49-.04,2.03-2,.76-2.8-1.39-.86-2.95-1.12-4.56-1.23s-3.2-.02-4.6-.81l-.36,2.74c2.67-.88,5.84-.17,8.58,.06,3.05,.26,6.09,.52,9.14,.77l-.4-2.95c-4.33,.66-8.62-.6-12.75,1.34-1.11,.52-.9,2.54,.36,2.74,1.57,.25,3.32,.24,4.77-.52,1.31-.69,1.7-2.28,.57-3.35s-3.22-1.1-4.67-1.31c-1.85-.27-3.7-.46-5.57-.56v3c5.94,.3,11.81,1.2,17.58,2.66l.4-2.95c-7.46,.2-15.18-1.36-22.35,1.41-1.25,.48-1.59,2.56,0,2.89,7.81,1.63,16.06,.93,23.98,.85,1.63-.01,2.12-2.66,.4-2.95-1.53-.25-3.06-.5-4.59-.75l.66,2.51c2.13-1.66,5.67-.39,8.1-.42,1.94-.02,1.92-2.9,0-3-2.22-.12-9.16-.03-8.26,3.65,.17,.7,.79,1.03,1.45,1.1,2.4,.27,4.78,.27,7.18,0,.75-.09,1.37-.5,1.47-1.3,.09-.66-.34-1.55-1.07-1.65-1.59-.22-3.18-.43-4.78-.65l.36,2.74c1.25-.54,2.5-1.08,3.76-1.62s.77-2.41-.36-2.74c-2.64-.78-5.37-1.16-8.13-1.11l.4,2.95c1.81-.57,3.86-.38,5.74-.33,2.06,.05,4.12,.18,6.17,.38,.9,.09,1.87,.13,2.75,.35,.82,.21,.92,.6,.93,1.4,.02,1.91-.45,3.76-1.17,5.52h2.89c-.69-1.94-1.13-3.92-1.25-5.97-.12-1.93-2.87-1.93-3,0-.09,1.33,.2,2.52,.73,3.74,.69,1.57,3.21,.45,2.74-1.16-.49-1.7-1.69-4.67-3.92-4.38-2.08,.27-3,3.35-2.52,5.08,.35,1.25,2.07,1.46,2.74,.36,1.15-1.89,1.22-4.86-1.21-5.81-2.89-1.14-3.06,2.44-3.27,4.29s2.4,1.86,2.95,.4,.15-2.89-.81-4.07-2.44-.08-2.56,1.06c-.29,2.67,.97,5.61,3.3,7.05,1.29,.79,2.6,.2,3.26-1.06s.51-2.73-.09-4.01c-.53-1.12-2.52-.89-2.74,.36-.5,2.88-.59,5.71,1.92,7.65,.93,.72,2.27-.26,2.26-1.3s-.03-2.14-.04-3.21l-2.95,.4c.5,1.5,.91,3.02,1.23,4.56,.27,1.3,2.11,1.41,2.74,.36,1.23-2.05,1.34-4.4,1.31-6.74l-2.8,.76c1.74,3.45,1.09,7.5,.48,11.15-.31,1.88,2.52,2.71,2.89,.8,.73-3.75,1.42-7.55,.83-11.37-.4-2.63-2.09-8-5.76-5.64-2.91,1.87-2.67,6.54-2.9,9.54-.31,4.19-.46,8.38-.45,12.58,0,1.94,2.93,1.93,3,0s.14-3.93,.2-5.89,0-3.99,.53-5.9l-2.2,.9c-.25-.19-.05,0-.04,.21,0,.26,.08,.54,.12,.81,.1,.7,.19,1.4,.28,2.11,.18,1.33,.36,2.65,.54,3.98,.19,1.44,2.68,1.43,2.89,0,.32-2.22,.54-4.44,.62-6.68h-3c-.08,3.08-.16,6.16-.24,9.23-.05,1.94,2.91,1.92,3,0,.14-2.9,.58-5.74,1.33-8.54l-2.95-.4c.21,2.18,.41,4.37,.62,6.55,.15,1.58,2.52,2.16,2.95,.4,.52-2.15,.84-4.34,.96-6.55l-2.8,.76c1.1,1.9,1.02,4.1,.96,6.22-.05,1.94,2.88,1.91,3,0,.21-3.57,.02-7.1-.52-10.63-.25-1.64-2.42-1.19-2.89,0-1.5,3.75-2.39,7.66-2.75,11.67-.17,1.92,2.83,1.91,3,0,.33-3.74,1.25-7.39,2.64-10.88h-2.89c.5,3.26,.61,6.55,.41,9.84h3c.07-2.67,0-5.36-1.37-7.74-.77-1.34-2.72-.68-2.8,.76-.11,1.95-.39,3.86-.85,5.75l2.95,.4c-.21-2.18-.41-4.37-.62-6.55-.15-1.6-2.49-2.14-2.95-.4-.81,3.06-1.28,6.18-1.43,9.34h3c.08-3.08,.16-6.16,.24-9.23,.05-1.93-2.93-1.93-3,0s-.23,3.93-.51,5.88h2.89c-.23-1.72-.46-3.43-.69-5.15-.21-1.52-.29-2.76-1.58-3.75-.79-.6-1.97,.06-2.2,.9-.56,2.03-.55,4.14-.62,6.22s-.15,4.24-.22,6.37h3c0-3.07,.07-6.13,.23-9.2,.15-2.83,.09-5.96,.82-8.71,.14-.53,.32-1.11,.72-1.52,.06-.08,.14-.14,.23-.18,.14-.09,.14-.07,.02,.05,.15,.11,.27,.53,.34,.69,.55,1.28,.84,2.7,.94,4.08,.21,3-.35,5.95-.92,8.88l2.89,.8c.75-4.53,1.36-9.21-.78-13.46-.68-1.35-2.81-.68-2.8,.76,.02,1.8,.06,3.63-.9,5.22l2.74,.36c-.33-1.55-.73-3.06-1.23-4.56s-2.97-1.36-2.95,.4c.01,1.07,.03,2.14,.04,3.21l2.26-1.3c-1.21-.93-.76-3.02-.55-4.26l-2.74,.36c.11,.24,.3,.99-.05,1.16l1.16-.15c-.72-.12-1.36-1.24-1.63-1.85-.39-.86-.45-1.73-.35-2.65l-2.56,1.06c.3,.37,.19,.76,.04,1.15l2.95,.4c.02-.17,.37-1.98,.25-2.07l-1.05,.6,.11,.27c-.15,.48-.15,.74-.42,1.2l2.74,.36c-.16-.58,.21-.72,.28-1.23l.15-.27c-.83-.14-1.09-.05-.78,.28,.03,.21,.45,.7,.54,.88,.2,.4,.33,.81,.46,1.24l2.74-1.16c-.32-.72-.37-1.45-.32-2.22h-3c.14,2.32,.57,4.58,1.36,6.77,.53,1.47,2.33,1.36,2.89,0,.87-2.1,1.45-4.54,1.26-6.83s-1.65-3.58-3.87-3.91c-2.55-.38-5.15-.56-7.73-.67s-5.33-.38-7.77,.39c-1.57,.5-1.35,2.98,.4,2.95,2.51-.04,4.93,.29,7.33,1l-.36-2.74c-1.25,.54-2.5,1.08-3.76,1.62-1.13,.49-.89,2.57,.36,2.74,1.59,.22,3.18,.43,4.78,.65l.4-2.95c-2.4,.28-4.78,.28-7.18,0l1.45,1.1-.07-.28-.15,1.16c.22-.42,2.28-.6,2.67-.65,.97-.13,1.94-.13,2.92-.08v-3c-3.63,.05-7.09-1.14-10.22,1.3-.86,.67-.39,2.33,.66,2.51,1.53,.25,3.06,.5,4.59,.75l.4-2.95c-3.94,.04-7.89,.09-11.83,.1s-7.62-.07-11.35-.85v2.89c6.91-2.67,14.37-1.11,21.56-1.3,1.66-.04,2.08-2.52,.4-2.95-6.02-1.53-12.17-2.46-18.37-2.77-1.93-.1-1.92,2.9,0,3,1.42,.08,2.83,.19,4.23,.37,.65,.08,1.29,.19,1.94,.3,.39,.07,.78,.14,1.16,.21,.15,.03,.31,.06,.46,.09,.34,.14,.37,0,.1-.42l.44-1.06c-.48,.55-2.02,.45-2.64,.35l.36,2.74c1.86-.87,3.92-.86,5.93-.82s4.06,.09,6.1-.22c1.78-.27,1.17-2.81-.4-2.95-3.21-.27-6.42-.54-9.62-.81-2.91-.25-6.06-.85-8.9,.08-1.19,.39-1.53,2.08-.36,2.74,1.44,.81,2.99,1.04,4.62,1.14s3.17,.04,4.55,.9l.76-2.8-8.2,.24c-1.93,.06-1.93,3.06,0,3h0Z"/>
  <path class="cls-1" d="M121.17,100.32c-.7,1.96-1.08,3.98-1.17,6.06h3c.1-2.99,.31-5.97,.63-8.95,.18-1.71-2.51-1.99-2.95-.4-.66,2.42-2.41,4.27-2.56,6.87-.08,1.44,2.16,2.11,2.8,.76,1.09-2.32,2.18-4.64,3.26-6.96l-2.8-.76c.24,2.89-.29,5.95-.5,8.84-.13,1.78,2.41,1.9,2.95,.4,1.05-2.97,1.74-6.01,2.14-9.13h-3c-.06,2.58-.05,5.16,.04,7.74,.06,1.67,2.48,2.06,2.95,.4l2.1-7.43-2.95-.4-.07,5.8c-.02,1.93,2.98,1.93,3,0,.02-1.82,.17-3.63,.47-5.43l-2.95-.4c.1,1.89,.14,3.78,.12,5.68s2.81,1.88,3,0c.23-2.3,.25-4.59,.07-6.89l-2.95,.4c.52,2.43,.78,4.86,.81,7.35,.02,1.94,2.92,1.92,3,0,.14-3.14-.15-6.27-.82-9.34l-2.89,.8c2.01,6.54,.65,13.32-.71,19.84-.35,1.69,1.77,2.57,2.74,1.16,2.33-3.4,3.33-7.88,3.06-11.97-.14-2.2-1.01-3.81-2.25-5.58-1.34-1.92-2.54-3.91-3.63-5.98-.75-1.43-2.66-.6-2.8,.76-.37,3.64,.49,7.24,.32,10.88s-1.45,7.18-1.65,10.85c-.09,1.68,2.57,2.05,2.95,.4,1.16-5.03,2.33-10.07,3.49-15.1l-2.95-.4c.23,4.01-.29,7.97-.86,11.93-.27,1.86,2.47,2.73,2.89,.8,.7-3.21,1.64-6.35,2.81-9.41l-2.95-.4c-.17,4.37-1.39,8.56-2.62,12.73h2.89c-.67-4.72-1.33-9.43-2-14.15-.2-1.43-2.69-1.43-2.89,0-.65,4.61-1.64,9.14-2.97,13.6h2.89c-.68-1.85-.52-4.09-.63-6.04-.12-2.15-.44-4.41,0-6.54l-2.95-.4c-.04,3.56-.52,7.09-1.04,10.61-.27,1.85,2.44,2.72,2.89,.8,1.12-4.8,1.81-9.68,2.07-14.6,.09-1.67-2.63-2.07-2.95-.4-.73,3.89-1.45,7.78-2.18,11.66-.35,1.87,2.46,2.7,2.89,.8l2.07-9.13c.62-2.75,1.77-5.81,1.59-8.65-.1-1.57-2.7-2.17-2.95-.4-.35,2.45-.34,4.89,.19,7.32,.2,.89,.5,1.76,1.3,2.28,1.02,.66,2.14,.41,3.27,.52,.94,.09,1.64,.83,2.57,1,.99,.19,1.98-.15,2.58-.97,1.16-1.58,.29-3.99-.14-5.69-.56-2.23-1.3-4.4-2.2-6.51-.43-1.02-.89-2.02-1.39-3.01-.43-.85-.87-1.81-1.78-2.25-4.32-2.13-4.77,7.32-5.34,9.53-1.27,4.91-3.77,9.43-3.86,14.6-.03,1.68,2.53,2.05,2.95,.4,.27-1.07,.55-2.14,.85-3.2,.13-.45,.26-.91,.4-1.36,.09-.3,.18-.6,.28-.9,.22-.6,.19-.6-.08-.02l-1.46,.39,.13,.04-1.1-1.45v.11c.1,1.92,3.1,1.93,3.01,0v-.11c-.04-.69-.45-1.23-1.11-1.45-1.53-.51-2.07,1.01-2.42,2.13-.51,1.66-.97,3.33-1.39,5.01l2.95,.4c.08-4.2,1.96-8.02,3.22-11.95,.61-1.9,.95-3.8,1.27-5.77,.15-.94,.32-1.9,.65-2.79,.03-.07,.57-1.06,.54-1.11-.82-.12-1.05,.04-.7,.45,.14,.26,.28,.53,.41,.79,.95,1.87,1.76,3.81,2.42,5.81,.33,.99,.62,1.99,.87,3,.22,.87,.25,1.99,.59,2.81,0,.12,0,.24,0,.36,.4-.19,.41-.33,.03-.43-.19-.2-.66-.39-.91-.5-1.01-.45-1.95-.21-2.97-.39-.63-.11-.52-.4-.64-1.06-.09-.48-.15-.97-.19-1.46-.11-1.26-.08-2.55,.1-3.81l-2.95-.4c.09,1.37-.31,2.69-.61,4.01l-.98,4.32-1.96,8.65,2.89,.8c.73-3.89,1.45-7.78,2.18-11.66l-2.95-.4c-.25,4.66-.91,9.26-1.97,13.8l2.89,.8c.56-3.78,1.1-7.57,1.15-11.4,.02-1.66-2.59-2.08-2.95-.4-.51,2.43-.26,4.88-.11,7.34,.13,2.21-.04,4.72,.74,6.83,.5,1.35,2.45,1.49,2.89,0,1.33-4.46,2.32-9,2.97-13.6h-2.89c.67,4.72,1.33,9.43,2,14.15,.22,1.55,2.51,1.3,2.89,0,1.3-4.43,2.55-8.89,2.73-13.52,.07-1.8-2.38-1.89-2.95-.4-1.17,3.07-2.11,6.21-2.81,9.41l2.89,.8c.61-4.22,1.21-8.46,.96-12.73-.09-1.61-2.55-2.13-2.95-.4-1.16,5.03-2.33,10.07-3.49,15.1l2.95,.4c.2-3.67,1.48-7.17,1.65-10.85s-.69-7.24-.32-10.88l-2.8,.76c.91,1.73,1.9,3.42,2.99,5.05s2.33,2.99,2.48,5c.26,3.61-.6,7.47-2.65,10.46l2.74,1.16c1.47-7.04,2.88-14.37,.71-21.43-.57-1.85-3.3-1.09-2.89,.8,.62,2.82,.84,5.66,.72,8.54h3c-.03-2.74-.34-5.46-.92-8.14-.35-1.63-3.08-1.3-2.95,.4,.18,2.3,.15,4.59-.07,6.89h3c.02-1.89-.02-3.79-.12-5.68-.08-1.59-2.65-2.16-2.95-.4-.35,2.06-.55,4.13-.57,6.22h3l.07-5.8c.02-1.7-2.49-2.02-2.95-.4l-2.1,7.43,2.95,.4c-.09-2.58-.1-5.16-.04-7.74,.05-1.99-2.76-1.85-3,0-.37,2.85-1.08,5.63-2.03,8.34l2.95,.4c.22-2.89,.74-5.95,.5-8.84-.11-1.33-2.1-2.23-2.8-.76-1.09,2.32-2.18,4.64-3.26,6.96l2.8,.76c.12-2.16,1.89-4,2.45-6.08l-2.95-.4c-.31,2.97-.52,5.96-.63,8.95-.07,1.93,2.92,1.92,3,0,.08-1.82,.45-3.55,1.06-5.26,.65-1.82-2.24-2.6-2.89-.8h0Z"/>
  <path class="cls-1" d="M118.21,114.96c-.59,2.97-1.18,5.95-1.77,8.92-.32,1.61,1.85,2.7,2.74,1.16,1.87-3.24,3.38-6.65,4.55-10.2l-2.89-.8c-.86,2.92-1.72,5.84-2.59,8.76-.56,1.9,2.2,2.55,2.89,.8,.96-2.42,1.98-4.79,3.56-6.88l-2.74-1.16-1.88,8.17c-.36,1.58,1.98,2.76,2.74,1.16,1.19-2.5,2.17-5.08,2.91-7.75l-2.95-.4-.54,5.91c-.16,1.77,2.43,1.91,2.95,.4,.63-1.85,1.13-3.72,1.49-5.64s-2.49-2.7-2.89-.8l-.75,3.54c-.4,1.89,2.29,2.64,2.89,.8l.81-2.48c.12-.38,.24-.75,.37-1.13,.1-.28,.46-.75,.06-.6l-1.85-1.85c-.3,1.65-.72,3.26-.97,4.92s-.47,3.42-.82,5.12c-.57,2.84-1.54,5.62-3.65,7.69h2.12c.23,.48,.35,.53,.37,.15,.05-.23,.11-.47,.16-.7,.11-.47,.21-.94,.32-1.41,.2-.86,.4-1.72,.6-2.58,.42-1.8,.84-3.6,1.27-5.39,.38-1.58-2-2.76-2.74-1.16-1.47,3.17-2.67,6.43-3.56,9.8l2.95,.4c-.13-2.86-.25-5.73,.37-8.54,.41-1.88-2.36-2.66-2.89-.8-.73,2.54-1.46,5.08-2.18,7.62l2.89,.8c.65-2.35,1.02-4.75,1.14-7.18,.08-1.67-2.6-2.07-2.95-.4-.29,1.39-.61,2.78-.99,4.15-.35,1.27-.64,2.63-1.39,3.73l2.74,.36c-.12-.84,.19-1.81,.31-2.64,.13-.87,.27-1.75,.41-2.62,.29-1.83,.59-3.65,.86-5.48,.55-3.63,1.01-7.27,1.21-10.94,.1-1.76-2.43-1.94-2.95-.4-1.75,5.26-3.49,10.53-4.9,15.89l2.89,.8c.8-5.55,1.6-11.11,2.4-16.66l-2.95-.4c-.7,5.83-2.72,11.41-3.22,17.28-.14,1.67,2.67,2.07,2.95,.4,.8-4.77,1.9-9.48,3.31-14.11l-2.95-.4c-.02,5.78-.7,11.51-1.41,17.24-.22,1.79,2.4,1.86,2.95,.4,1.11-2.95,1.72-6.04,1.86-9.19,.08-1.78-2.4-1.92-2.95-.4-1.21,3.39-2.35,6.8-3.42,10.24l2.89,.8c.31-2.2,.69-4.39,1.15-6.57l-2.95-.4c-.16,1.42-.31,2.83-.46,4.25-.14,1.32-.36,2.64,.06,3.92,.32,.96,1.31,1.34,2.2,.9,.76-.38,1.52-.76,2.28-1.14,.35-.17,.69-.35,1.04-.52l.41-.21c.52-.21,.56-.26,.12-.16l-.9-.69c-.02-.62-.11-.65-.28-.09-.13,.26-.25,.52-.39,.78-.26,.52-.55,1.03-.83,1.53l2.59,1.51c.49-.89,1.04-1.73,1.68-2.51l-2.51-1.46c-.2,.71-.45,1.37-.77,2.03-.85,1.72,1.66,3.23,2.59,1.51,.47-.88,1-1.7,1.59-2.51,1.14-1.56-1.46-3.06-2.59-1.51-.59,.8-1.11,1.63-1.59,2.51l2.59,1.51c.44-.89,.8-1.79,1.07-2.75,.39-1.36-1.52-2.65-2.51-1.46-.81,.98-1.53,2-2.15,3.12-.94,1.69,1.63,3.2,2.59,1.51,.81-1.43,3.1-4.49,.96-5.79-.94-.57-1.92-.12-2.79,.31-1.25,.62-2.48,1.25-3.73,1.87l2.2,.9c-.37-1.11-.02-2.45,.1-3.6,.13-1.26,.27-2.52,.41-3.78,.19-1.68-2.6-2.04-2.95-.4-.46,2.18-.84,4.37-1.15,6.57-.26,1.86,2.3,2.7,2.89,.8,1.07-3.44,2.21-6.85,3.42-10.24l-2.95-.4c-.13,2.89-.74,5.69-1.76,8.39l2.95,.4c.7-5.73,1.39-11.46,1.41-17.24,0-1.71-2.46-2.01-2.95-.4-1.41,4.63-2.51,9.34-3.31,14.11l2.95,.4c.5-5.85,2.53-11.45,3.22-17.28,.2-1.66-2.71-2.07-2.95-.4-.8,5.55-1.6,11.11-2.4,16.66-.27,1.85,2.39,2.72,2.89,.8,1.41-5.36,3.15-10.63,4.9-15.89l-2.95-.4c-.21,3.88-.72,7.73-1.32,11.57-.3,1.91-.61,3.81-.91,5.72-.26,1.71-.7,3.47-.46,5.19,.19,1.39,2.11,1.3,2.74,.36,.81-1.2,1.18-2.64,1.57-4.02,.43-1.51,.79-3.04,1.11-4.58l-2.95-.4c-.1,2.18-.45,4.29-1.03,6.39-.52,1.86,2.36,2.65,2.89,.8l2.18-7.62-2.89-.8c-.68,3.08-.61,6.2-.47,9.34,.07,1.65,2.5,2.09,2.95,.4,.83-3.12,1.9-6.16,3.26-9.09l-2.74-1.16c-.56,2.34-1.11,4.69-1.65,7.03-.25,1.09-.53,2.19-.75,3.29-.19,.92-.35,1.85,.45,2.53,.62,.53,1.5,.6,2.12,0,2.26-2.2,3.53-5.13,4.24-8.17,.42-1.81,.65-3.66,.93-5.49s.72-3.58,1.04-5.38c.18-1-.68-2.3-1.85-1.85s-1.61,1.15-2,2.24c-.48,1.34-.89,2.71-1.33,4.06l2.89,.8,.75-3.54-2.89-.8c-.36,1.92-.86,3.79-1.49,5.64l2.95,.4,.54-5.91c.16-1.72-2.5-1.99-2.95-.4-.67,2.42-1.53,4.76-2.61,7.03l2.74,1.16,1.88-8.17c.4-1.75-1.74-2.47-2.74-1.16-1.73,2.29-2.81,4.95-3.86,7.6l2.89,.8c.86-2.92,1.72-5.84,2.59-8.76,.55-1.86-2.29-2.62-2.89-.8-1.09,3.31-2.51,6.47-4.25,9.48l2.74,1.16c.59-2.97,1.18-5.95,1.77-8.92,.37-1.89-2.52-2.69-2.89-.8h0Z"/>
  <path class="cls-1" d="M118.37,137.17c-.93,3.85-1.87,7.87-4.23,11.13-1.26,1.74-2.99,3.05-4.39,4.66s-2.61,3.45-3.8,5.26c-.96,1.47,1.15,2.95,2.36,1.82,2.59-2.43,5.1-5.04,6.34-8.44,1.3-3.57,1.01-7.48,1.5-11.19h-3c-.33,2.6-1.09,5.12-1.83,7.62-.48,1.63,1.9,2.64,2.74,1.16,1.62-2.87,3.26-5.74,5.23-8.39l-2.74-.36c.21,1.4-.67,2.75-1.41,3.86-.83,1.23-1.73,2.41-2.65,3.58l2.51,1.46c.35-1.57,.8-3.11,1.36-4.62s-2-2.69-2.74-1.16c-1.91,3.96-5.2,6.92-7.89,10.33l2.36,1.82c.8-1.84,1.62-3.67,2.47-5.49,.74-1.57,1.4-3.38,2.66-4.61l-2.51-1.46c-.48,3.18-2.72,5.46-5.13,7.41l2.56,1.06c0-.6,.76-1.38,1.07-1.86,.39-.61,.78-1.21,1.17-1.81,.79-1.21,1.58-2.41,2.38-3.6,1.6-2.39,3.24-4.76,4.9-7.11l-2.74-1.16c-1.73,4.27-4.21,8.22-7.84,11.11l2.51,1.46c.33-2.44,1.4-4.76,2.42-6.98s2.17-4.39,3.42-6.49c.99-1.67-1.54-3.12-2.59-1.51-2.46,3.76-5.13,7.52-8.95,10l2.2,1.69c1.19-3.68,2.99-7.08,5.31-10.18l-2.74-1.16c-1.3,3.18-3.61,5.87-6.5,7.72l2.05,.54c.22,.53,.67-.5,.79-.68,.23-.34,.46-.68,.69-1.02,.51-.74,1.03-1.47,1.6-2.17,1.13-1.38,2.38-2.61,3.89-3.56l-2.05-2.05c-.87,1.77-1.92,3.44-3.2,4.94-.62,.72-1.27,1.4-1.97,2.04-.36,.33-1.59,1.72-2.08,1.69l1.06,.44c.09,.96,.2,1.1,.31,.43,.07-.26,.15-.53,.24-.79,.13-.39,.27-.78,.42-1.16,.34-.83,.76-1.63,1.22-2.4s.97-1.51,1.55-2.2c.26-.31,.54-.62,.82-.92,.18-.19,.95-.79,.73-.83l-1.1-1.45c.42,3.92-1.58,7.29-3.53,10.51-1.01,1.67,1.51,3.09,2.59,1.51,2.3-3.34,5.1-6.27,8.29-8.76l-2.36-1.82c-2.12,3.78-4.28,7.56-7.66,10.36l2.36,1.82c1.82-4.23,5.18-8.04,8.42-11.26l-2.36-1.82c-2.92,5.07-6.24,9.9-9.94,14.42-1.23,1.51,.61,3.33,2.12,2.12,2.06-1.64,4.12-3.29,6.17-4.93l-2.12-2.12c-2.08,2.21-4.34,4.22-6.8,5.99l2.05,2.05c1.26-2.39,3.26-4.16,5.27-5.92,1.46-1.27-.67-3.38-2.12-2.12-2.51,2.19-5.49,3.65-8.73,4.39l1.69,2.2c1.35-2.59,3.4-4.62,5.47-6.64l-2.12-2.12c-2.78,2.99-5.58,5.98-8.76,8.55l2.36,1.82c1.73-2.24,3.88-4.11,6.29-5.57l-2.2-.9c.09,.41-.91,1.51-1.12,1.81-.44,.65-.88,1.29-1.33,1.93-.9,1.28-1.82,2.54-2.76,3.8-1.16,1.55,1.45,3.04,2.59,1.51,1.22-1.63,2.41-3.28,3.56-4.95,1.03-1.5,2.35-2.96,1.95-4.89-.2-.95-1.42-1.37-2.2-.9-2.88,1.75-5.32,3.98-7.37,6.65-1.12,1.45,1.15,2.79,2.36,1.82,3.19-2.57,5.98-5.56,8.76-8.55,1.31-1.41-.73-3.48-2.12-2.12-2.25,2.19-4.47,4.44-5.94,7.25-.62,1.18,.4,2.5,1.69,2.2,3.75-.86,7.16-2.64,10.06-5.16l-2.12-2.12c-2.2,1.92-4.36,3.91-5.74,6.52-.64,1.22,.75,2.99,2.05,2.05,2.67-1.92,5.15-4.06,7.41-6.46,1.35-1.44-.64-3.3-2.12-2.12-2.06,1.64-4.12,3.29-6.17,4.93l2.12,2.12c3.87-4.73,7.36-9.74,10.41-15.03,.85-1.47-1.14-3.03-2.36-1.82-1.78,1.78-3.43,3.66-4.96,5.67s-2.97,3.96-3.93,6.2c-.67,1.56,.99,2.95,2.36,1.82,3.56-2.95,5.9-6.99,8.13-10.97,.89-1.58-1.07-2.82-2.36-1.82-3.4,2.66-6.31,5.82-8.76,9.37l2.59,1.51c2.21-3.65,4.42-7.6,3.94-12.03-.07-.61-.41-1.33-1.1-1.45-2.77-.47-4.85,2.76-6.16,4.8-.77,1.2-1.4,2.49-1.92,3.83-.42,1.07-1.18,2.67-.54,3.78,1.55,2.67,5.07-1.05,6.26-2.23,2.07-2.04,3.77-4.43,5.06-7.03,.62-1.27-.7-2.91-2.05-2.05-2.14,1.35-3.84,3.14-5.36,5.14-1.32,1.74-3.66,4.11-2.68,6.4,.31,.73,1.43,.93,2.05,.54,3.61-2.29,6.27-5.56,7.88-9.51,.28-.69-.25-1.51-.87-1.77-.74-.31-1.42,0-1.87,.61-2.48,3.3-4.35,6.97-5.61,10.89-.4,1.22,1.12,2.4,2.2,1.69,4.27-2.78,7.28-6.87,10.03-11.08l-2.59-1.51c-1.33,2.24-2.54,4.54-3.61,6.91s-2.19,4.74-2.53,7.28c-.2,1.51,1.28,2.44,2.51,1.46,4.04-3.22,6.69-7.7,8.61-12.44,.68-1.68-1.83-2.44-2.74-1.16-1.85,2.61-3.66,5.25-5.43,7.91-.84,1.27-1.68,2.54-2.5,3.81s-2,2.6-2,4.19c0,1.41,1.6,1.84,2.56,1.06,2.78-2.23,5.35-5.08,5.9-8.73,.21-1.4-1.35-2.6-2.51-1.46-1.36,1.34-2.12,3.09-2.93,4.79-.93,1.96-1.82,3.93-2.68,5.92-.3,.7-.25,1.44,.39,1.94,.53,.41,1.51,.47,1.97-.12,2.85-3.6,6.34-6.75,8.36-10.93l-2.74-1.16c-.55,1.51-1.01,3.05-1.36,4.62-.3,1.32,1.51,2.73,2.51,1.46,2.33-2.98,5.44-6.29,4.83-10.35-.22-1.43-2.07-1.26-2.74-.36-1.97,2.65-3.61,5.51-5.23,8.39l2.74,1.16c.82-2.78,1.57-5.54,1.94-8.42,.1-.81-.76-1.49-1.5-1.5-.9,0-1.39,.7-1.5,1.5-.44,3.31-.2,6.77-1.25,9.98s-3.42,5.38-5.71,7.52l2.36,1.82c1.2-1.84,2.4-3.69,3.91-5.3s3.23-3.07,4.51-4.95c2.32-3.42,3.34-7.55,4.3-11.52,.45-1.88-2.44-2.68-2.89-.8h0Z"/>
  <path class="cls-1" d="M103.88,149.91c-2.21,1.68-4.51,3.21-6.92,4.59l2.05,2.05c1.23-2.34,2.58-4.62,4.04-6.83l-2.59-1.51c-1.2,2.27-2.55,4.45-4.06,6.53-.86,1.18,.87,2.95,2.05,2.05,1.87-1.41,3.78-2.76,5.75-4.04l-2.05-2.05c-.96,1.52-1.74,3.12-2.38,4.8-.51,1.32,1.15,2.22,2.2,1.69,1.52-.76,2.9-1.68,4.23-2.74l-2.12-2.12c-1.58,1.99-3.38,3.77-5.39,5.34l2.36,1.82c1.32-1.88,3-3.41,4.96-4.6l-2.05-2.05c-1.3,2.27-2.98,4.19-5.03,5.82-1.32,1.05,.43,3.34,1.82,2.36,2.29-1.62,4.61-3.18,6.98-4.68l-1.82-2.36c-1.87,1.45-3.44,3.2-5,4.97-1.27,1.44,.74,3.49,2.12,2.12,1.05-1.04,2.24-1.75,3.66-2.18l-1.46-2.51c-1.23,1.27-2.6,2.27-4.17,3.08l1.82,2.36c1.17-1.34,2.46-2.5,3.95-3.47l-2.05-2.05c-.74,1.25-1.68,2.35-2.85,3.23l2.05,2.05c.85-1.58,2.04-2.76,3.63-3.6l-2.05-.54c.6,1.06-1.63,2.8-2.33,3.36-1.16,.94-2.47,1.76-3.77,2.5-1.43,.81-2.97,1.07-4.56,1.38-1.79,.35-3.59,.71-5.38,1.06-1.69,.33-1.26,2.94,.4,2.95,3.68,.02,7.23-.78,10.58-2.3,1.32-.6,.7-2.97-.76-2.8-2.57,.31-4.91,1.59-7.47,2.03s-5.37,.25-7.94-.62c-4.84-1.66-9.54-3.93-12.84-7.94l-1.82,2.36c4.58,2.79,9.45,5.44,14.83,6.22,4.97,.72,11.03,.37,15.48-2.15,2.02-1.15,3.89-2.89,4.84-5.04,1.12-2.54-1.99-3.41-3.9-2.76-2.33,.8-3.3,3.35-5.55,4.22-2.47,.96-5.37,.28-7.9-.05-2.91-.38-6.16-.44-8.94-1.48-2.58-.96-4.24-3.94-7.36-2.95-1.47,.46-1.38,2.39,0,2.89,1.2,.44,2.11,1.4,3.08,2.19s2.07,1.43,3.28,1.91c2.69,1.06,5.64,1.59,8.51,1.81,2.66,.21,5.48,.12,7.86-1.22s3.88-3.57,5.3-5.75c1.01-1.55-1.12-2.78-2.36-1.82-1.38,1.07-2.84,2.19-4.5,2.78-1.93,.69-3.86,.27-5.8-.14-4.1-.86-8.15-1.95-12.14-3.23l-.4,2.95c2.39-.31,4.68,.17,7.01,.63s4.62,.74,6.98,.68c3.3-.09,9.74-.47,10.57-4.66,.38-1.96-1.21-3.67-3.19-3.36-.93,.15-1.73,.69-2.55,1.12-1.03,.54-2.1,.99-3.23,1.29-4.52,1.21-9.3,.1-13.75-.9l.66,2.51c.47-.5,1.53-.39,2.16-.43,.97-.06,1.93-.08,2.9-.09,2.01,0,4.02,.07,6.03,.04,3.61-.04,7.14-.49,10.49-1.9l-1.82-2.36c-1.71,1.7-3.56,3.2-5.59,4.5-1.24,.79-.77,2.78,.76,2.8,3.52,.03,8.03-.92,8.16-5.28,.05-1.93-2.95-1.93-3,0-.07,2.39-3.51,2.3-5.16,2.28l.76,2.8c2.24-1.43,4.32-3.09,6.2-4.97,1.3-1.29-.34-2.98-1.82-2.36-3.57,1.52-7.56,1.53-11.37,1.49-2.02-.02-4.04-.08-6.05,.02-1.63,.08-3.57,.05-4.77,1.34-.73,.79-.48,2.25,.66,2.51,3.71,.84,7.53,1.68,11.36,1.5,1.78-.09,3.58-.39,5.26-1,.78-.28,1.55-.63,2.29-1,.38-.19,.74-.41,1.12-.6,.23-.14,.47-.25,.72-.34-.1-.22-.17-.25-.2-.09-1.09,1.28-2.61,1.57-4.23,1.84-1.89,.32-3.83,.39-5.74,.27-3.9-.24-7.68-1.78-11.62-1.26-1.61,.21-2.12,2.39-.4,2.95,4.57,1.47,9.26,2.79,14,3.6,2.18,.37,4.21,.34,6.27-.52,1.88-.79,3.48-2.02,5.08-3.26l-2.36-1.82c-1.2,1.84-2.52,3.87-4.57,4.85-2.22,1.05-5,.79-7.36,.49s-5.02-.8-7.14-1.94-3.37-2.92-5.58-3.72v2.89c1.25-.39,2.34,.99,3.25,1.66,1.11,.81,2.39,1.33,3.72,1.65,3,.73,6.19,.92,9.25,1.33,2.86,.38,5.8,.79,8.54-.37,1.26-.53,2.24-1.37,3.16-2.37,.44-.47,.87-1,1.4-1.36,.23-.16,.5-.32,.78-.37,.21-.04,.66,.11,.46-.07l-.44-1.06c0,.13-.63,.99-.82,1.23-.39,.5-.86,.96-1.35,1.36-1.04,.85-2.28,1.48-3.56,1.9-2.79,.92-5.84,1.14-8.77,1.07-6.03-.13-11.37-3.01-16.4-6.07-1.54-.94-2.85,1.1-1.82,2.36,3.55,4.31,8.58,6.69,13.73,8.56,2.63,.96,5.43,1.3,8.22,1.02,1.42-.15,2.82-.41,4.19-.8s2.78-1.18,4.23-1.36l-.76-2.8c-2.86,1.3-5.93,1.91-9.07,1.89l.4,2.95c2.4-.47,4.82-.89,7.2-1.42,1.92-.43,3.56-1.33,5.2-2.39,2.67-1.72,7.56-5.16,5.43-8.9-.41-.73-1.34-.91-2.05-.54-2.01,1.06-3.63,2.68-4.71,4.68-.65,1.21,.77,3.01,2.05,2.05,1.6-1.19,2.9-2.58,3.92-4.3,.74-1.25-.77-2.89-2.05-2.05-1.7,1.11-3.22,2.41-4.55,3.94-1.12,1.28,.27,3.15,1.82,2.36,1.78-.92,3.38-2.11,4.78-3.55,1.02-1.05,0-2.95-1.46-2.51-1.9,.57-3.57,1.55-4.98,2.95l2.12,2.12c1.56-1.77,3.13-3.52,5-4.97,1.35-1.05-.4-3.26-1.82-2.36-2.36,1.5-4.69,3.06-6.98,4.68l1.82,2.36c2.23-1.77,4.08-3.95,5.5-6.42,.74-1.28-.75-2.84-2.05-2.05-2.41,1.46-4.42,3.37-6.04,5.68-1.07,1.52,1.13,2.77,2.36,1.82,2.01-1.57,3.8-3.35,5.39-5.34,1.21-1.52-.6-3.34-2.12-2.12-1.12,.9-2.34,1.64-3.62,2.27l2.2,1.69c.55-1.43,1.26-2.79,2.08-4.08s-.8-2.87-2.05-2.05c-1.96,1.28-3.88,2.63-5.75,4.04l2.05,2.05c1.51-2.08,2.86-4.26,4.06-6.53,.91-1.72-1.53-3.12-2.59-1.51-1.46,2.21-2.8,4.49-4.04,6.83-.69,1.31,.71,2.82,2.05,2.05,2.41-1.38,4.71-2.91,6.92-4.59,1.52-1.15,.02-3.76-1.51-2.59h0Z"/>
  <path class="cls-1" d="M71.3,156.92c-3.25-2.55-6.76-5.3-7.65-9.57l-2.74,1.16c2.95,4.49,6.56,9.29,12.45,9.43,1.07,.03,1.96-1.32,1.3-2.26-1.44-2.05-3.59-3.21-5.6-4.63-2.29-1.63-4.41-3.47-6.4-5.45l-1.46,2.51c6.3,2,10.8,7.71,17.76,7.96,1.32,.05,1.95-1.66,1.06-2.56-2.17-2.18-5.07-3.1-7.74-4.5-1.39-.73-2.74-1.56-4.02-2.48-1.08-.77-2.86-1.84-3.32-3.14l-1.85,1.85c1.14,.42,1.96,1.44,2.86,2.21,1.08,.92,2.26,1.7,3.51,2.37,2.47,1.32,5.12,2.29,7.53,3.74l1.51-2.59c-5.23-2.88-10.46-5.75-15.69-8.63-.68-.37-1.68-.2-2.05,.54-.51,1.01-.44,1.98,.08,2.98,.08,.15,.22,.54,.37,.63,.07,.23,.2,.23,.39,0,.34-.1,.4-.15,.17-.18-.05-.14-1.29-.59-1.52-.74-2.01-1.27-3.76-3.11-5.44-4.77-3.54-3.49-5.98-7.55-7.22-12.38-.25-.97-1.37-1.35-2.2-.9-2.99,1.61-.34,6.05,.84,7.99,1.79,2.96,4.03,5.91,6.4,8.42,2.51,2.66,5.76,4.31,9.01,5.88,1.64,.79,3.31,1.54,4.99,2.24,1.55,.65,2.9,1.32,4.36,.17,1-.79,.18-2.67-1.06-2.56-2.29,.21-4.56-.18-6.58-1.31-2.2-1.23-3.38-2.84-4.04-5.24-1.37-4.94-4.68-9.33-7.43-13.58-1.07-1.65-3.38-.22-2.59,1.51,2.89,6.34,7.58,11.71,13.41,15.52,.88,.57,2.4-.16,2.26-1.3-.29-2.24-1.94-3.53-3.64-4.84s-3.44-2.45-4.89-3.99-2.56-3.38-3.79-5.1c-.91-1.27-2.8-3.19-4.34-1.46-1.26,1.42-.24,4,.63,5.35,1.18,1.85,2.97,3.09,4.52,4.6,1.41,1.37,2.5,3.02,3.73,4.54s2.9,3.49,4.98,3.48c1.07,0,1.58-.95,1.45-1.9-.44-3.03-2.92-5.15-4.85-7.33-2.24-2.53-4.3-5.21-6.2-8.01l-2.36,1.82c2.57,2.66,5.13,5.33,7.7,7.98,2.43,2.51,5.06,4.52,8,6.38,5.29,3.36,10.83,8.66,17.64,6.88,1.32-.35,1.38-2.04,.36-2.74-.78-.54-1.57-.75-2.51-.85-1.92-.2-1.9,2.8,0,3,.39,.04,.68,.23,.99,.44l.36-2.74c-3,.79-5.94-.42-8.48-1.98s-5.05-3.44-7.62-5.09c-5.53-3.54-9.8-8.71-14.33-13.41-1.16-1.2-3.33,.38-2.36,1.82,1.78,2.63,3.7,5.17,5.76,7.59,1.79,2.09,4.56,4.17,4.98,7.04l1.45-1.9c-.63,0-1.46-1.03-1.85-1.44-.44-.47-.85-.96-1.25-1.47-.88-1.12-1.7-2.29-2.65-3.36-1.06-1.19-2.34-2.15-3.48-3.25-.62-.59-1.2-1.22-1.62-1.97-.17-.3-.31-.61-.41-.94-.22-.75,.21-1.23-.74-.59-.79,.54-.54,.43-.11,1.02,.25,.34,.48,.69,.72,1.04,.44,.64,.87,1.28,1.32,1.91,.89,1.24,1.83,2.46,2.96,3.5s2.36,1.93,3.58,2.83c.63,.46,1.25,.93,1.84,1.44,.46,.4,1.39,1.04,1.48,1.69l2.26-1.3c-5.42-3.54-9.65-8.56-12.33-14.44l-2.59,1.51c1.59,2.46,3.19,4.93,4.67,7.46,.74,1.27,1.51,2.57,2.02,3.96,.46,1.26,.68,2.58,1.24,3.8,2.1,4.61,7.93,6.83,12.71,6.4l-1.06-2.56c.41-.32,.32-.23-.16-.42-.29-.11-.57-.23-.86-.35-.66-.27-1.32-.56-1.98-.85-1.27-.56-2.52-1.16-3.76-1.77-2.46-1.23-4.95-2.48-6.91-4.43-1.8-1.79-3.33-3.89-4.81-5.94-.76-1.05-1.49-2.14-2.11-3.28-.32-.58-.61-1.17-.86-1.78-.1-.26-.22-.54-.29-.81-.11-.4,.01-.49-.23-.36l-2.2-.9c.74,2.91,1.89,5.73,3.49,8.27s3.82,4.84,6.08,6.95c1.93,1.8,4.2,4.28,6.9,4.83,1.31,.26,2.73-.27,3.15-1.64,.18-.58,.08-1.24-.11-1.8-.13-.36-.32-.67-.5-1-.15-.27-.19-.74-.35-.43l-2.05,.54c5.23,2.88,10.46,5.75,15.69,8.63,1.69,.93,3.17-1.59,1.51-2.59-2.52-1.53-5.31-2.51-7.88-3.94-2.41-1.34-4.13-3.73-6.73-4.69-1.04-.39-2.21,.81-1.85,1.85,.57,1.6,1.73,2.63,3.03,3.67s2.72,2.05,4.19,2.92c2.8,1.66,6.3,2.53,8.63,4.87l1.06-2.56c-3.23-.12-6.06-1.78-8.71-3.48s-5.24-3.41-8.25-4.37c-1.45-.46-2.49,1.48-1.46,2.51,1.85,1.85,3.82,3.55,5.91,5.12,1.81,1.37,4.28,2.47,5.61,4.36l1.3-2.26c-4.69-.11-7.55-4.43-9.86-7.94-.94-1.44-3.09-.52-2.74,1.16,1,4.79,4.76,8.01,8.43,10.89,1.5,1.18,3.64-.93,2.12-2.12h0Z"/>
  <path class="cls-1" d="M52.09,129.08c-1.94-3.08-3.94-6.21-5.16-9.65s-1.16-7.12-2.38-10.53c-.5-1.4-2.41-1.45-2.89,0-.6,1.81-.75,3.7-.4,5.58s1.28,3.71,2.03,5.48,1.54,3.62,2.34,5.43,1.56,3.53,1.49,5.51l1.5-1.5c.45,.06,.1,.08,.03-.15-.05-.18-.33-.56-.4-.68-.26-.46-.52-.92-.76-1.39-.58-1.08-1.12-2.19-1.56-3.34-.84-2.23-1.34-4.59-1.82-6.91-.51-2.44-.96-4.9-1.46-7.35-.31-1.48-.53-5.02-2.94-4.32-2.15,.63-1.49,3.98-1.27,5.57,.34,2.46,.74,4.93,1.24,7.37,.46,2.2,1.02,4.38,2.03,6.4s2.26,3.86,3.61,5.59c.79,1.02,1.71,1.84,2.76,2.59,.92,.66,1.98,1.54,3.18,1.45,1.04-.08,1.73-.81,2.23-1.66,.68-1.16,1.24-2.26,2.14-3.28,1.27-1.45-.84-3.58-2.12-2.12-.87,.99-1.64,2.04-2.26,3.21-.12,.22-.26,.45-.35,.68-.24,.63,.03-.06,.13,.09-.28-.41-1.2-.78-1.62-1.09-2.07-1.56-3.56-4.13-4.79-6.38-1.29-2.37-1.83-5.06-2.32-7.69-.25-1.35-.47-2.7-.68-4.05-.11-.73-.24-1.46-.32-2.2-.02-.23-.27-1.83-.13-1.95l-1.06,.44h.22c-.35-.15-.71-.29-1.06-.44-.18-.38-.18-.29-.01,.25,.07,.31,.14,.63,.21,.94,.14,.63,.27,1.26,.4,1.89,.26,1.26,.5,2.53,.75,3.79,.46,2.37,.93,4.74,1.53,7.07s1.41,4.33,2.46,6.37c.93,1.82,1.77,4.03,4.03,4.31,.83,.1,1.47-.77,1.5-1.5,.13-3.67-1.97-7.13-3.37-10.41-1.5-3.5-3.5-6.92-2.2-10.79h-2.89c1.28,3.55,1.2,7.4,2.54,10.95s3.31,6.76,5.31,9.95c1.03,1.63,3.62,.13,2.59-1.51h0Z"/>
  <path class="cls-1" d="M45.49,108.91c-.01-1.51,.62-2.93,.93-4.39s.48-3.09,.6-4.64c.24-3.17,.26-6.35,1.12-9.44l-2.89-.8c-.83,3.84-1.69,7.69-2.99,11.41-.61,1.74-1.37,3.42-1.69,5.24-.35,1.99-.28,3.95,.02,5.94,.26,1.73,2.89,1.22,2.95-.4,.24-6.49,.82-12.96,1.76-19.39,.22-1.51-1.97-2.85-2.74-1.16-2.39,5.27-2.88,11.1-4.94,16.47l2.95,.4c.61-4.78,.77-9.55,.81-14.37,.02-2.4,.05-4.81,.37-7.18s.96-4.53,1.4-6.81c.31-1.61,1.28-4.83-1.04-5.41-1.87-.47-3.1,1.35-3.5,2.9-1.13,4.36-1.65,9.03-1.4,13.53,.31,5.38,1.45,10.67,1.62,16.05,.05,1.64,2.53,2.09,2.95,.4,.55-2.25-.64-4.05-1-6.2s-.02-4.27,.53-6.31c1.14-4.21,3.27-8.08,4.07-12.38l-2.95-.4c-.22,3.45-.7,6.86-1.43,10.25-.41,1.88,2.42,2.68,2.89,.8,1.3-5.21,2.66-10.41,4.1-15.59,.48-1.75-1.77-2.45-2.74-1.16s-1.77,2.59-2.49,4l2.74,1.16c.73-2.02,1.75-3.88,3-5.62l-2.59-1.51c-1.59,3.49-2.82,7.09-3.63,10.83-.16,.75,.22,1.68,1.05,1.85,2.33,.47,3.64-1.39,4.82-3.11,1.29-1.88,2.37-3.88,3.39-5.91l-2.74-1.16c-1.21,3.42-2.55,6.79-4.03,10.11l2.74,1.16c.75-4.36,3.31-8.12,4.08-12.47,.34-1.93-2.16-2.57-2.89-.8-1.67,4.05-3.67,7.96-5.94,11.71l2.59,1.51c2.02-3.96,4.05-7.93,6.07-11.89l-2.74-1.16c-1.19,5.43-3.1,10.63-5.74,15.52l2.74,1.16c1.39-4.04,3.67-7.66,6.67-10.7l-2.51-1.46c-1.44,3.89-3.09,7.7-4.92,11.42l2.59,1.51c2.13-4.68,4.6-9.19,7.4-13.51l-2.74-1.16c-1.36,3.82-3.52,7.28-6.34,10.21l2.36,1.82c1.72-3.9,3.81-7.6,6.25-11.09,1.11-1.58-1.49-3.09-2.59-1.51-2.44,3.49-4.53,7.19-6.25,11.09-.64,1.45,1.08,3.14,2.36,1.82,3.18-3.31,5.57-7.21,7.11-11.53,.59-1.66-1.85-2.52-2.74-1.16-2.8,4.32-5.27,8.83-7.4,13.51-.79,1.73,1.73,3.26,2.59,1.51,1.95-3.95,3.69-8.01,5.23-12.14,.54-1.45-1.51-2.47-2.51-1.46-3.37,3.41-5.88,7.49-7.44,12.02-.56,1.61,1.94,2.64,2.74,1.16,2.76-5.11,4.8-10.57,6.04-16.24,.35-1.58-1.93-2.74-2.74-1.16-2.02,3.96-4.05,7.93-6.07,11.89-.87,1.71,1.58,3.18,2.59,1.51,2.41-3.98,4.47-8.13,6.24-12.42l-2.89-.8c-.77,4.35-3.34,8.12-4.08,12.47-.26,1.53,1.99,2.83,2.74,1.16,1.58-3.55,3.03-7.16,4.33-10.82,.57-1.59-1.98-2.67-2.74-1.16-.69,1.38-1.41,2.74-2.21,4.06-.28,.47-2,3.71-2.62,3.58l1.05,1.85c.76-3.48,1.85-6.87,3.33-10.12,.8-1.76-1.45-3.09-2.59-1.51-1.41,1.95-2.49,4.07-3.31,6.34-.57,1.6,1.97,2.66,2.74,1.16,.72-1.41,1.55-2.73,2.49-4l-2.74-1.16c-1.44,5.18-2.8,10.37-4.1,15.59l2.89,.8c.79-3.64,1.3-7.33,1.54-11.04,.11-1.67-2.63-2.07-2.95-.4-.81,4.31-2.94,8.18-4.07,12.38-.54,2-.89,4.11-.75,6.18,.07,1.02,.24,2.04,.53,3.02,.32,1.06,.96,2.18,.69,3.31l2.95,.4c-.25-8.19-2.53-16.15-1.19-24.36,.15-.92,.32-1.84,.51-2.75,.15-.73,.53-1.61,.58-2.33,.04-.55-.93-1.3-1.15-.61-.07,.23-.05,.54-.09,.78-.06,.47-.15,.94-.24,1.41-.2,1.01-.43,2.02-.66,3.03-.91,3.98-1.2,7.93-1.22,12-.03,4.73-.2,9.43-.8,14.13-.23,1.8,2.39,1.85,2.95,.4,1.97-5.12,2.36-10.75,4.64-15.76l-2.74-1.16c-.98,6.69-1.62,13.42-1.87,20.18l2.95-.4c-.27-1.82-.24-3.7,.23-5.48s1.19-3.33,1.74-5c1.13-3.44,1.92-6.98,2.69-10.52,.41-1.88-2.37-2.67-2.89-.8-.89,3.19-.97,6.5-1.19,9.79-.11,1.67-.28,3.33-.67,4.96-.37,1.51-.9,2.95-.89,4.53,.01,1.93,3.01,1.93,3,0h0Z"/>
  <path class="cls-1" d="M43.51,109.59c2.63,7.1,5.87,13.95,9.74,20.45l2.36-1.82c-1.42-1.53-3.21-2.54-4.29-4.39-.85-1.47-1.32-3.11-1.73-4.75-.87-3.48-1.47-7.14-3.63-10.11-.96-1.32-3.19-.59-2.74,1.16,1.6,6.19,4.68,11.87,8.95,16.63,.81,.9,2.73,.24,2.56-1.06-.46-3.58-2.53-6.38-3.98-9.59s-2.21-6.85-2.37-10.41c-.33-7.49,1.88-14.79,5.17-21.44,.86-1.73-1.52-3.13-2.59-1.51-1.31,1.97-2.26,4.15-2.83,6.45-.47,1.87,2.37,2.66,2.89,.8,1.31-4.68,4.26-10.01,9.82-9.88,2.6,.06,5.22,.48,7.83,.61,2.47,.13,4.92,.38,7.07,1.7l1.16-2.74c-3.56-1.28-7.39-1.1-11.03-.27-1.84,.42-3.64,1-5.43,1.6s-3.48,1.17-4.95,2.37,.64,3.33,2.12,2.12c1.19-.98,2.86-1.35,4.3-1.83,1.57-.52,3.15-1.01,4.76-1.38,3.14-.71,6.37-.83,9.44,.27,1.64,.59,2.56-1.88,1.16-2.74-2.54-1.56-5.46-1.94-8.38-2.1-1.42-.08-2.85-.11-4.26-.24-1.72-.17-3.42-.51-5.16-.32-6.27,.68-9.78,6.48-11.33,12.02l2.89,.8c.52-2.07,1.35-3.95,2.53-5.73l-2.59-1.51c-3.39,6.86-5.77,14.36-5.61,22.08,.07,3.6,.67,7.24,1.92,10.63,.65,1.76,1.48,3.41,2.38,5.05s1.84,3.32,2.08,5.19l2.56-1.06c-3.93-4.37-6.71-9.62-8.18-15.31l-2.74,1.16c2.21,3.05,2.61,6.87,3.59,10.41,.48,1.74,1.11,3.51,2.12,5.02,1.2,1.8,2.96,2.87,4.4,4.43,1.16,1.26,3.22-.36,2.36-1.82-3.73-6.29-6.9-12.88-9.44-19.74-.66-1.8-3.56-1.02-2.89,.8h0Z"/>
  <path class="cls-1" d="M68.54,90.16c-3.39,3.42-5.01,8.39-2.42,12.8,2.87,4.9,9.94,5.2,13.78,1.31,2.85-2.89,3.75-7.31,3.34-11.25-.45-4.34-2.36-8.5-6.37-10.65-8.54-4.58-17.88,4.17-18.33,12.69-.2,3.78,2.52,7.18,6.42,7.27,2.08,.05,4.18-.88,5.84-2.07,3.07-2.2,5.46-5.42,6.07-9.22,.53-3.29-.3-6.81-3.42-8.56-2.09-1.18-4.53-1.05-6.62-.01-.78,.38-1.5,.88-2.23,1.34-3.71,2.34-7.74,4.41-10.23,8.16-1.66,2.49-.69,6.01,1.55,7.74s5.77,1.68,7.88-.47c4.29-4.37,5.28-11.57,1.87-16.77-2.37-3.61-8.12-4.15-10.36,0-1.34,2.48-2.36,5.15-2.79,7.95-.37,2.41,.19,5.63,2.76,6.78,1.87,.83,3.6,1.28,5.65,.77,1.01-.25,1.94-.72,2.78-1.31,1.94-1.37,3.52-3.26,4.75-5.28,.96-1.59,1.76-3.41,2.2-5.21,.91-3.71-.71-7.73-4.63-8.84-4.55-1.29-8.44,2.03-11.06,5.35-1.67,2.11-3.16,4.3-3.24,7.11-.09,3.4,2.23,6.72,5.6,7.54,3.83,.93,7.67-.91,10.74-3.08,3.25-2.31,6.11-5.3,7.04-9.32,1.21-5.21-1.19-10.77-6.61-12.26-5.05-1.39-9.14,2.6-12.32,5.91-2.92,3.04-5.77,6.51-6.86,10.68-1.2,4.59-.19,9.81,3.32,13.15,3.35,3.18,8.65,1.69,10.03-2.65,1.97-6.22,.19-12.95-3.96-17.84-.99-1.17-2.28-2.27-3.61-3.01-3.32-1.84-7.48-.67-9.44,2.55-1.66,2.73-2.23,6.52-2.71,9.63-.53,3.47-.86,6.94-.91,10.45-.04,3.26-.23,7,.85,10.11,1.52,4.35,5.12,7.75,9.92,7.77s7.93-3.62,9.31-7.72c1.21-3.6,.95-7.8,.26-11.47s-2.53-8.34-6.29-9.98c-1.83-.8-3.44-1.1-5.34-.3-1.67,.7-3.02,2.08-3.47,3.89-1.22,4.91-1.37,9.83-.64,14.81,.3,2.01,.76,3.98,1.43,5.89,.87,2.46,1.89,5.33,3.75,7.24,2.89,2.97,7.87,3.11,10.75,.03,1.87-2,2.44-4.53,3.03-7.1,1.05-4.6,2.09-9.2,3.14-13.8l-11.79-1.6c-.41,3.43-.67,6.87-.76,10.32s-.32,7.4,1.01,10.69c.97,2.39,2.95,4.53,5.79,4.4,2.65-.12,5.06-1.78,5.79-4.4,.79-2.86,1.04-5.84,1.38-8.78,.03-.28,.11-.57,.1-.85,0,.36-.17,1.12-.04,.32,.1-.63,.21-1.26,.34-1.88s.29-1.23,.49-1.83c.06-.19,.53-1.3,.14-.47s.2-.37,.23-.43l-5.18,2.97-4.11-2.22-.36-.88c-.07,.23,.22,.73,.28,.96,.16,.61,.32,1.22,.46,1.83,.16,.69,.3,1.38,.43,2.07,.07,.38,.47,1.52,.31,1.86l-.09-.66c.03,.23,.06,.47,.08,.7,.04,.31,.07,.62,.1,.94,.06,.63,.11,1.25,.14,1.88,.08,1.41,.1,2.83,.05,4.24,0,.28-.18,1.05,.03,.07,.01-1.14,.76-1.88,2.24-2.2,.66-1.34,1.54-1.9,2.65-1.67,.52,.09,.62,.09,.3,0-.3-.1-.22-.07,.24,.11,1.01,.4-.16-.13-.37-.24-1.09-.59-2.15-1.23-3.18-1.92-.48-.32-.96-.66-1.43-1.01-1.06-.78,.02-.03,0,0,0,0-.62-.51-.68-.55-1.01-.84-1.96-1.74-2.89-2.67-1.93-1.96-4.92-2.19-7.27-.94-5.35,2.84-4.8,10.18-4.41,15.29,.16,2.16,1.04,4.05,2.97,5.18s4.02,.88,6.06,0c1.7-.74,3.22-1.88,4.55-3.16,2.16-2.07,2.25-5.58,.47-7.88s-5.21-3.18-7.74-1.55c-3.46,2.23-4.06,5.65-4.15,9.47-.06,2.83,.06,5.84,.94,8.55,1.37,4.19,4.45,8.21,9.37,7.54,2.81-.38,5.22-2.23,6.04-5.01,.61-2.04,.52-4.1,.17-6.17-.77-4.46-4.05-8.4-8.93-7.75-2.79,.38-5.1,2.5-5.9,5.18-.69,2.32-.15,4.77,1,6.84,3.11,5.56,10.3,8.37,16.32,6.21,1.73-.62,3.26-1.43,4.64-2.64,1.88-1.65,2.25-4.25,2.18-6.64-.1-3.28-.94-7.79-3.54-10.07-4.16-3.64-9.45-1.29-12.04,2.9-1.83,2.97-2.05,6.51-1.44,9.86,.55,3,1.9,6.22,3.87,8.55,2.79,3.31,7.79,3.93,11.47,1.75,3.22-1.91,5.42-5.91,5.21-9.68-.28-4.97-4.83-9.23-9.97-7.71-3.95,1.17-6.54,5.57-7.34,9.4-.46,2.21-.65,4.46,.24,6.59,.83,1.97,2.19,3.36,3.86,4.64,3.13,2.42,7.14,3.65,11.03,2.37,3.23-1.06,5.83-3.22,8.14-5.63-3.41-1.41-6.83-2.83-10.24-4.24,.04,.33-.09,1.21,.04,1.46,.15-.99,.16-1.16,.02-.51-.16,.48-.14,.47,.06-.02,.71-.85-.46,.37-.38,.58,.58-.72,.66-.84,.23-.37-.17,.17-.36,.33-.55,.48l7.27-.94c-2.27-1.15-4.49-2.38-6.66-3.7s-5.51-.98-7.27,.94-2.48,5.03-.94,7.27c1.34,1.95,2.79,3.41,4.76,4.73,2.62,1.74,6.76,.6,8.21-2.15,1.59-3.02,.64-6.35-2.15-8.21-.98-.65,.85,.86-.23-.21s.44,.76-.23-.21c-2.74,2.74-5.47,5.47-8.21,8.21,2.17,1.32,4.39,2.56,6.66,3.7,2.61,1.32,5.08,.85,7.27-.94,2.81-2.3,4.55-6.48,4.1-10.1-.31-2.46-1.26-4.46-3.69-5.48-2.16-.91-4.88-.5-6.55,1.24-.58,.61-1.18,1.21-1.81,1.77-.15,.13-.29,.26-.45,.39-.5,.41-.4,.33,.29-.22,.02,.03-.93,.59-.97,.61-.91,.63,1.21-.31,.08,0-.17,.06-.35,.11-.53,.15-.46,.1-.23,.08,.7-.07-.25,.02-.49,.02-.74,0l.82,.1c-.26-.06-.52-.14-.77-.23l.7,.27c-.13,.13-1.54-1.17-.75-.44,.69,.65-.33-.33-.46-.46-.13-.13-.26-.26-.38-.39,.71,.68,1.06,1.54,1.05,2.59v-.38c.05-.64,.02-.5-.09,.42,.14-.33,.17-.83,.27-1.18,.05-.19,.12-.39,.19-.58,.15-.42,.08-.26-.23,.5-.07-.15,.46-.88,.57-1.07,.14-.23,.29-.45,.45-.67-.18,.38-.44,.67-.78,.88-2.07,1.75-5.39,.66-6.34-1.58-.2-.37-.3-.76-.3-1.19,.17-.93,.17-1.07,.03-.42-.33,1.12,.58-1.13,0,0l-.21,.32c.24-.48,.59-.83,1.07-1.08-.45,.25-.44,.26,.02,.04,.36-.21,.76-.3,1.19-.26,.86,.02,1.57,.43,2.18,1-.83-.76,.48,1.03,.06,.05-.17-.4-.39-.8-.58-1.2-.18-.41-.12-.26,.18,.44-.08-.2-.16-.4-.23-.61-.17-.47-.33-.95-.46-1.44l-.1-.42c-.13-.67-.13-.56,0,.33,.06-.28-.04-.91-.05-1.21,.04-.5,.02-.48-.04,.09-.09,.56-.08,.59,0,.09,.05-.23,.12-.46,.19-.69l-.34,.77s.53-.8,.53-.91c-.6,.74-.68,.88-.25,.43-1.09,.99-2.46,1.31-4.11,.94l-2.65-1.54c-.16-.14-.7-1.15-.34-.42-.18-.36-.33-.94-.12-.23,.19,.63,.33,1.25,.49,1.88,.2,.77-.04-1.1-.05-.31,0,.29,.04,.58,.04,.87,0,.65-.04,1.3-.13,1.94l1.76-4.24c.25-.2,.96-.63,.29-.27-.16,.08-.57,.23-.67,.37,.24-.31,1.22-.43,.19-.12-.24,.07-.5,.11-.74,.18-.67,.2,1.16-.01,.46-.08-.23-.02-.53-.02-.76,0-.69,.06,1.1,.28,.47,.07-.28-.09-.59-.15-.87-.23-.81-.23,.28,.02,.43,.19-.12-.13-.47-.26-.63-.35-.69-.36,.15,.08,.33,.31-.14-.18-.37-.32-.54-.48s-.31-.4-.49-.53c.52,.7,.65,.87,.4,.49-.07-.1-.13-.2-.19-.31-.37-.39,.2,.95,.12,.36-.22-.88-.43-.25-.62,1.9,.08,1.19-.33,2.09-1.23,2.7l-3.03,.82c-1.44-.1-2.54-.65-3.31-1.65-.29-.28-.47-.61-.55-1.02,.19,.1,.24,.88,.31,1.06,.23,.65,0-1.18-.01-.07,.01,.22,0,.44,0,.66-.03,.47,0,.3,.1-.54l6.7-2.71c.36,.18,.65,.42,.88,.74,.76,.47-.17-.04-.12-.43,.3,.72,.37,.88,.22,.45-.07-.2-.13-.4-.19-.6-.1-.34-.18-.68-.25-1.02-.03-.14-.06-.28-.08-.41-.08-.46-.06-.28,.06,.55-.15-.21-.08-.82-.09-1.06-.05-.79-.06-1.57-.05-2.36,0-.71,.02-1.43,.06-2.14,.03-.51,.28-1.43-.07,.3l.08-.31c-.29,1.02-.9,1.82-1.85,2.41-2.42-3.14-4.85-6.28-7.27-9.42-.11,.1-.56,.41-.59,.55,.07-.33,1.03-.71,.08-.1-.51,.33-1.05,.59-1.61,.84,3.01,1.73,6.02,3.45,9.03,5.18-.14-1.8-.19-3.6-.14-5.41,.01-.41,.03-.82,.05-1.23,.06-1.12,.11,.05-.1,.39,.03-.16,.06-.32,.1-.48,.13-.45,.01-.22-.34,.69,.7-1.25-2.44,1.81-1.12,1.11l-7.27-.94c2.8,2.84,6.01,5.37,9.46,7.38,2.04,1.19,4.16,2.29,6.57,2.37,3.8,.12,6.9-2.83,7.39-6.48,.57-4.23,0-8.71-.69-12.89-.31-1.84-.67-3.73-1.24-5.51-.45-1.4-1.07-2.63-2.04-3.73-1.37-1.55-3.19-2.06-5.16-2.26s-4.31,1.26-5.18,2.97c-1.62,3.19-2.29,6.4-2.74,9.91-.16,1.23-.48,2.6-.46,3.84-.03-1.41,.08-.55,0-.11-.05,.35-.11,.71-.18,1.06-.13,.7-.3,1.39-.48,2.08h11.57c-.13-.32-.8-1.75-.6-2.05,.1,.82,.12,.99,.08,.53-.02-.21-.04-.43-.05-.65-.02-.29-.03-.58-.03-.86-.04-1.65-.01-3.31,.04-4.96,.1-3.29,.36-6.57,.75-9.84,.16-1.36-.78-3.34-1.76-4.24s-2.11-1.47-3.45-1.65c-2.82-.38-5.92,1.37-6.58,4.3-.83,3.65-1.66,7.3-2.49,10.95-.4,1.74-.75,3.5-1.19,5.24-.14,.56-.55,1.12,.18-.17l-.15,.3c.34-.53,.79-.95,1.34-1.26l5.57,.66c.52,.74,.66,.92,.41,.53-.17-.35-.37-.68-.54-1.04-.15-.31-.37-.65-.45-.98,.35,1.44,.08,.17-.04-.18-.28-.75-.52-1.5-.74-2.27s-.4-1.54-.56-2.32c-.07-.33-.3-.94-.23-1.28,.1,.81,.12,.98,.07,.52-.03-.22-.05-.43-.07-.65-.15-1.58-.18-3.18-.09-4.77,.03-.43,.07-.86,.11-1.3,.13-1.48-.26,1.34,.02-.12,.16-.85,.32-1.7,.54-2.55l-8.81,3.59c.21,.08,.42,.18,.61,.31-.75-.62-.9-.71-.45-.28-1.04-1.14-.42-.51-.16-.06,.28,.57,.22,.42-.17-.47,.1,.25,.19,.49,.27,.74,.14,.42,.27,.84,.38,1.27s.18,.87,.29,1.3c.11,.67,.11,.58,0-.28,.04,.29,.06,.59,.09,.88,.08,1.04,.02,2.06,0,3.1-.03,1.21,.25-.99,0,.06-.09,.39-.17,.79-.29,1.17-.43,1.38,.59-.96,0,0s.91-.91,.16-.16c-.46,.42-.3,.3,.47-.35,.96-.35,1.14-.43,.53-.25l.87-.14c.99,.18,1.17,.18,.53,0,.86,.39,1.01,.42,.45,.09,.65,.53,.82,.64,.5,.32-.31-.33-.19-.17,.35,.48-.29-.53-.27-.42,.06,.33-.24-.29-.25-.87-.36-1.24-.12-.67-.11-.57,.02,.31-.03-.29-.05-.58-.07-.87-.06-.99-.08-1.98-.09-2.97-.03-2.11,.01-4.22,.16-6.32,.07-1.05,.07-2.23,.31-3.26-.37,1.56,.02-.13,.08-.48,.09-.54,.18-1.07,.29-1.61,.21-1.07,.45-2.13,.74-3.18,.12-.45,.25-.9,.39-1.34,.09-.3,.19-.59,.28-.89-.31,1-.93,1.8-1.85,2.4l-3.03,.82c-.95,.01-1.74-.27-2.38-.85-.37-.3-.43-.35-.19-.14,.22,.2,.45,.39,.66,.6s.41,.42,.61,.65c.75,.86-.19,.01-.17-.24-.02,.28,.76,1.21,.92,1.52,.1,.2,.55,1.18,.14,.25s.02,.14,.07,.28c.18,.57,.31,1.14,.43,1.72,.17,.83-.1-.33-.07-.54-.04,.26,.04,.62,.05,.89,0,.3,0,.59,0,.89,0,.16-.13,1.35,0,.26s-.02,0-.08,.25c-.08,.35-.18,.69-.29,1.03l10.03-2.65c-.18-.16-.35-.33-.5-.51,.56,.76,.67,.88,.32,.35-.29-.56-.24-.4,.15,.48-.09-.22-.16-.45-.22-.68-.06-.23-.11-.47-.15-.7,.11,.94,.15,1.17,.11,.69,0-.28,.13-1.04,.02-1.27-.15,.99-.17,1.16-.05,.52,.06-.25,.12-.5,.2-.75,.08-.26,.17-.52,.27-.78-.34,.8-.37,.9-.09,.3,.5-.8,.9-1.78,1.57-2.46-1.17,1.17,.16-.14,.39-.41,.29-.33,.59-.66,.89-.98,.82-.89,1.68-1.74,2.56-2.57,.33-.31,.68-.6,1.01-.92,.49-.42,.41-.36-.25,.16,.22-.16,.45-.3,.7-.43-.46,.29-.96,.44-1.5,.45-.6,.02-1.17-.11-1.7-.38-.49-.27-.88-.65-1.15-1.14-.28-.82-.36-1-.22-.56,.12,.45,.11,.25-.03-.61,.02,.27,.02,.54,0,.81,.14-.91,.14-1.06,0-.44-.06,.23-.14,.46-.23,.69,.39-.87,.44-1.03,.15-.46-.09,.16-.18,.31-.28,.46-.78,1.22,.78-.71-.05,.08-.36,.34-.71,.69-1.06,1.03-.49,.4-.38,.33,.33-.24-.2,.15-.41,.3-.62,.44-.73,.5-1.5,.94-2.28,1.36-.22,.12-.44,.23-.66,.34,.93-.37,1.1-.44,.5-.22-.66,.18-1.2,.04,.28,.03,1.1,.04,2.05,.46,2.87,1.27,1.47,1.7,1.75,3.29,.85,4.79-.05-.16,.73-1.31,.88-1.39-.52,.66-.58,.74-.17,.24l.27-.31c.36-.42,.75-.81,1.15-1.19,.33-.31,1.81-1.36,.28-.32,.54-.3,.35-.23-.58,.22-.7,.17-1.41,.18-2.12,.04l-2.65-1.54c-2.66-2.15-.64-6.16-1.45-3.63-.07,.21-.28,.56-.27,.77,.32-.73,.39-.9,.2-.49-.09,.19-.18,.37-.28,.55-.16,.3-.33,.6-.52,.89-.13,.21-.54,.64-.58,.85,.08-.46,.7-.85,.03-.1-.05,.05-.67,.77-.72,.74l.61-.45c-1.59,.89-.25,.99,4,.31l2.76,6.78c.16-1.07,.4-2.12,.73-3.15,.12-.36,.47-1.92,.08-.38,.13-.52,.51-1.07,.77-1.55h-10.36c.13,.19,.33,.77,.52,.89-.36-.91-.44-1.07-.23-.48l.1,.33c.32,1.23-.19,.15,.01-.24-.11,.21,0,.95,0,1.21,0,.6,.33-1.55,0-.23-.05,.21-.45,1.43-.09,.42s-.14,.13-.26,.35c-.25,.38-.11,.2,.43-.52-.15,.18-.3,.34-.47,.5l9.42,7.27c.36-.53,.29-.44-.22,.27,.18-.19,.36-.38,.56-.55,.79-.84-1,.65,.04-.04,.79-.52,1.59-1.03,2.39-1.54,.91-.58,1.82-1.15,2.74-1.73,.42-.27,.84-.53,1.26-.8,.28-.18,.56-.35,.84-.53,.54-.32,.35-.22-.59,.28h-3.19c-.84-.17-4.46-3.22-3.32-5.19-.14,.24-.19,.74-.25,1.03-.24,1.13,.63-1.06,.07-.13-.21,.35-.42,.71-.64,1.06-.29,.46,.96-1.07,.03-.13-.15,.15-1.06,1.07-.33,.34,.68-.68-.17,.07-.43,.2-.15,.09-.31,.17-.47,.24,.53-.31,1.1-.47,1.72-.47l3.03,.82-.27-.15,2.15,2.15c.42,2.22,.64,2.85,.67,1.91,.02-.34,.01-.28-.03,.18,0,1.07-.02-.3,.2-.41-.26,.12-.54,1.1,.03,.1,.18-.31,.37-.6,.57-.9,.44-.69,.07,.05-.21,.24,.22-.15,.43-.51,.62-.71,.22-.23,.46-.44,.68-.66,.74-.73-.77,.43-.17,.15,.1-.07,.21-.13,.32-.19,.41-.21,.2-.14-.6,.23,.15,0,.56-.12,.7-.19-.93,.1-1.16,.14-.69,.15,.48,.02,.24-.01-.71-.1,.81,.17-.28-.05-.43-.24,.02,.03,1.19,.78,.3,.12-.96-.71,.21,.26,.19,.27,.03,0-1.04-1.14-.2-.18,.36,.41-.36-1.27-.04-.14,.07,.26,.14,.53,.22,.79,.36,1.24,0-.89,0-.17s.05,1.38,0,2.07c0,.14-.02,.27-.03,.41-.05,.47-.02,.27,.08-.6,.01,0-.23,.92-.23,.97-.1,.31-.07,.26,.1-.16,.22-.47,.2-.47-.03,0,.16-.21,.79-.8,.25-.33,.74-.52,.92-.67,.53-.43-.28,.15-.19,.12,.25-.09,.33-.1,1.95-.22,1.01-.26,1.12,.05,1.73,.37,2.53,1.17,.7,.83,.92,1.03,.66,.6-.23-.4-.13-.17,.3,.68,.06,.2,.07,1.44,.11,.61-.18,1-.21,1.25-.08,.75,.1-.31,.06-.26-.09,.16-.42,1.01,.14-.33,.28-.33l-.44,.58c.18-.2,.36-.4,.56-.58,2.21-2.23,2.39-6.29,0-8.49s-6.12-2.38-8.49,0h0Z"/>
  <path class="cls-1" d="M87.85,151.51c4.54-.09,8.7-1.17,12.83-3,2.3-1.02,3.5-4.47,2.76-6.78-.8-2.48-3.07-4.47-5.79-4.4-3.27,.08-5.9,1.58-8.56,3.3-2.23,1.44-4.44,2.91-6.62,4.43l8.21,2.15c-1.98-3.11-4.97-4.77-8.62-5.01-2.61-.17-5.11,1.99-5.79,4.4-.88,3.13,.44,6.62,3.25,8.32,1.88,1.14,3.91,1.34,6.05,1.57,3.39,.37,6.85,.2,10.2-.45,3.93-.76,7.01-3.02,9.32-6.21,1.73-2.38,2.95-5.19,4.11-7.88,2.79-6.42,5.2-13.24,5.15-20.34-.01-1.69-.1-3.54-.59-5.15-.92-3.03-3.63-5.35-6.88-5.29-4.72,.09-6.48,4.5-8.24,8.08-1.27,2.58-2.53,5.17-4.03,7.63-.4,.66-.83,1.31-1.27,1.94-.15,.21-.3,.42-.45,.62-.74,1.02,.76-.88,0,0-1.03,1.16-2.06,2.26-3.27,3.25l10.03,5.84c.77-3.65,1.7-7.26,2.81-10.82,.54-1.74,1.13-3.47,1.76-5.18,.14-.38,.36-.81,.45-1.21l-.34,.8c.09-.21,.19-.41,.3-.62,.11-.21,.69-1.06,.08-.24-.35,.42-.36,.46-.04,.11-.43,.44-.95,.73-1.56,.86l-7.6-5.79c.04,.97,.05,1.93-.01,2.9-.02,.28-.04,.55-.06,.83-.07,.67-.05,.55,.07-.36,.06,.35-.14,.87-.2,1.23-.18,.95-.42,1.89-.7,2.82-.16,.53-.34,1.05-.54,1.57-.1,.26-.2,.52-.3,.77l.28-.67c.03,.36-.56,1.17-.73,1.49-.19,.37-.4,.73-.61,1.09-.45,.76-.95,1.82-1.61,2.41,.51-.65,.57-.74,.19-.27-.16,.19-.33,.38-.5,.56-.04,.05-.83,.74-.81,.78,.74-.54,.84-.63,.32-.28-.56,.31-.41,.27,.46-.12-.23,.09-.46,.15-.7,.2,.45-.16,.91-.19,1.36-.06,1.41,.22,2.65,1.37,3.06,2.76,.46,1.53,.16,.62,.22-.08,.05-.55,.12-1.11,.18-1.66,.09-.69,.08-.63-.03,.18,.03-.24,.07-.47,.1-.71,.32-2.2,.73-4.39,1.19-6.57,.94-4.44,2.1-8.83,3.26-13.21l-11.57-3.19c-2.63,10.41-5.22,20.82-7.76,31.25l11.79,1.6c1.06-10.85-2.26-21.53-5.6-31.72-.94-2.86-3.55-4.7-6.58-4.3s-5.22,2.89-5.2,5.89c.04,5.95,.08,11.9,.12,17.86h12c-.73-8.56-1.83-17.09-3.27-25.55-.5-2.93-3.9-4.66-6.58-4.3s-5.4,2.9-5.2,5.89c.54,8.02,.61,16.06,.22,24.08l11.79-1.6c-.4-2.22-.76-4.45-1.07-6.69-.05-.32-.09-.64-.13-.96,.11,.8,.11,.85,.02,.16-.06-.48-.12-.96-.18-1.44-.14-1.12-.26-2.24-.38-3.37-.21-2.06-.46-4.15-.51-6.22-.01-.48-.01-.95,.01-1.43,.01-.24,.03-.47,.06-.71l-.12,.9c.1-.14,.36-1.15,.34-1.32-.41,.91-.48,1.09-.2,.53,.25-.4,.22-.38-.11,.06-.35,.42-.37,.46-.05,.1,.45-.41,.31-.32-.4,.28,.99-.67-1.32,.5,.06-.02,.46-.11,.23-.08-.7,.07,.25-.02,.49-.03,.74-.03,.25,0,.5,.02,.75,.04-.9-.13-1.11-.16-.64-.08,1.92,.46,3.75,1.07,5.62,1.71,1.03,.35,2.07,.71,3.1,1.06,.49,.17,.97,.35,1.46,.5,1.16,.35-1.29-.48,.12,.08,.39,.23,.23,.1-.47-.4,.43,.45,.35,.34-.26-.34-.32-.49-.48-1.02-.46-1.61,.01,.19,0,.38,0,.57-.03,.47,0,.26,.08-.63-.05,.26-.12,.52-.19,.77-.07,.25-.15,.51-.23,.76-.64,1.72,.34,.81,2.96-2.74h3.19c.75,.4,.84,.46,.28,.17l-.34-.19c-.34-.2-.66-.42-.99-.63-1.05-.66,.8,.78-.02-.03-.28-.28-.58-.53-.85-.81-.08-.08-.81-.75-.77-.88,.53,.7,.62,.79,.24,.27l-.21-.33c-.03-.05-.63-.98-.58-1.03,.32,.82,.37,.93,.15,.31-.12-.52-.14-.51-.05,.02,.05,.54,.07,.54,.06,.02,.04,.43-.03,.84-.21,1.22-.18,.46-1.05,1.53-.25,.63,.34-.3,.17-.18-.48,.36,.16-.11,.32-.22,.49-.33,.37-.24,.75-.45,1.14-.66,.19-.1,.39-.2,.59-.29-.7,.28-.84,.34-.43,.18,.42-.14,.82-.3,1.24-.42s.85-.23,1.28-.32c1.58-.33-.9,.05,.36-.06-1.73-3.01-3.45-6.02-5.18-9.03-1.37,2.99-2.77,5.96-4.21,8.92-.63,1.28-1.27,2.56-2,3.78-.4,.67-.85,1.31-1.29,1.95s.96-1.04,.01-.05c-.29,.31-.57,.63-.87,.93l7.27-.94c1.59,4.35,2.36,5.61,2.31,3.76l-.12,.98c.16-.16,.24-.76,.33-1,.11-.27,.21-.55,.33-.82l-.26,.62c.1-.4,.37-.82,.55-1.2,.75-1.55,1.62-3.03,2.52-4.49,2.15-3.52,4.07-7.2,4.34-11.39,.38-6.07-4.63-11.41-10.83-10.25-1.97,.37-3.76,1.47-5.46,2.5s-3.2,2.03-4.75,3.13c-2.55,1.81-4.02,5.32-2.15,8.21s5.21,3.67,8.21,2.15c3.25-1.65,6.48-3.41,9.5-5.45,2.53-1.71,4.63-4.07,4.51-7.34-.11-2.96-1.89-5.44-4.46-6.81-2.07-1.11-4.43-1.34-6.73-1.53-.43-.04-.86-.06-1.28-.1l-.43-.04c-.68-.07-.57-.05,.33,.07-.23,.09-.8-.14-1.03-.2-.2-.05-.4-.1-.6-.16-.51-.18-.53-.18-.06,0,.44,.19,.44,.18,.02-.04l-.31-.19c-.22-.14-.64-.58-.9-.63,.73,.56,.84,.65,.34,.26l-.29-.23c-.59-.47-1.18-.94-1.79-1.38-1.87-1.36-3.92-1.96-6.2-2.2l1.6,11.79c.37-.1,.74-.16,1.11-.26,.77-.2-1.43,.05-.02,.03,.69-.01,1.36-.03,2.05,0,.45,.03,1.72-.09,2.07,.2-.75-.1-.9-.12-.44-.05,.15,.02,.31,.05,.46,.07,.38,.06,.77,.12,1.15,.18,3.36,.51,6.65,.81,10.05,.78,1.43-.01,2.85-.05,4.28-.03,.79,0,1.58,.03,2.37,.07,.31,.02,.63,.04,.94,.07,.04,0,1.54,.16,.61,.05s.4,.08,.59,.11c.38,.07,.76,.15,1.13,.24,.68,.16,1.35,.33,2.02,.53,1.49,.43,2.95,.93,4.42,1.43l-4.19-4.19c.19,1.07,.45,2.19,.53,3.28-.12-1.57,0,.04,.02,.29,.05,.47,.1,.94,.13,1.41,.17,2.14,.14,4.28-.09,6.42-.02,.24-.05,.48-.08,.71,.11-.8,.11-.86,0-.17-.09,.47-.16,.94-.25,1.42-.2,1.02-.42,2.04-.67,3.05s-.51,2.02-.79,3.03c-.13,.46-.26,.93-.39,1.39-.09,.31-.17,.62-.26,.93-.36,1.13-.05,.67,.95-1.37l2.65-1.54,1.09-.13,3.03,.82c.46,.2,1.04,.91,1.3,1.34,.2,.34,.43,1.29,.23,.39-.14-.61-.33-1.2-.47-1.81-.32-1.29-.6-2.58-.84-3.88-.11-.61-.22-1.23-.31-1.84-.02-.16-.16-1.2-.06-.36s-.02-.21-.04-.36c-.16-1.32-.27-2.63-.35-3.96-.19-3.13-2.62-6.15-6-6-3.08,.14-6.21,2.65-6,6,.28,4.57,.94,9.15,2.04,13.59,.72,2.9,1.68,5.73,4.46,7.25,2.53,1.39,5.69,.98,7.78-1.03,1.2-1.15,1.76-2.59,2.2-4.15,1.28-4.54,2.4-9.08,2.85-13.78s-.26-9.46-1.08-14.11c-.37-2.09-2.33-3.55-4.19-4.19-2.93-1-5.87-1.98-8.95-2.42-3.54-.51-7.03-.51-10.6-.48-1.58,.01-3.17,0-4.75-.11-.32-.02-.63-.05-.95-.08-.23-.02-.46-.05-.69-.08-.45-.06-.31-.04,.44,.06-.28,.2-1.72-.26-2.08-.32-3.93-.6-7.71-1.04-11.61,0-2.89,.77-4.69,3.68-4.3,6.58,.42,3.15,2.88,4.88,5.89,5.2l-.9-.11c.47,.15,.45,.12-.06-.08-.87-.44-.11-.03,.07,.07,.26,.15,.5,.32,.75,.48,.67,.42-.16-.09-.34-.28,.96,1.02,2.35,1.96,3.58,2.66,2.94,1.67,6.43,2.02,9.75,2.16,.82,.03-1.13-.23-.33-.05,.34,.08,.7,.16,1.04,.22,.75,.12-.33-.15-.53-.26,.83,.44-.52-.49-.71-.76-.65-.69-.75-1.58-.3-2.65-.46-1.04-.38-1.92,.23-2.61,.21-.29,1.38-1.1,.58-.61-.61,.37-1.2,.77-1.81,1.15-2.5,1.55-5.07,2.98-7.69,4.31l6.06,10.36c1.36-.97,2.75-1.89,4.16-2.77,.71-.44,1.43-.87,2.15-1.28,.11-.06,.79-.56,.92-.5-.75,.29-.91,.37-.49,.24,.86-.21,.24-.23-1.87-.06-.85-.43-1.07-.53-.67-.3,.39,.23,.21,.09-.55-.43l-.51-.69c.23,.41,.23,.39,.01-.08-.19-.5-.21-.49-.06,.04l-.11-.76c.01,.21,0,.42,0,.63-.03,.47,0,.28,.1-.55,.21,.23-.53,1.94-.6,2.19-.2,.71,.54-1.1,.05-.1-.18,.37-.36,.75-.56,1.11-3.11,5.86-11.46,16.23-3.05,21.46,2.24,1.39,5.44,.91,7.27-.94,2.48-2.5,4.29-5.52,5.84-8.66s2.97-6.18,4.4-9.3c.92-2,1.17-4.06,0-6.06-.99-1.7-3.13-3.16-5.18-2.97-3.92,.36-7.8,1.42-11.03,3.77-1.97,1.42-3.64,3.17-4.33,5.58-.78,2.71-.17,5.41,1.03,7.88,1.54,3.17,4.25,5.89,7.23,7.72,2.56,1.57,5.67,2.3,8.41,.68,2.26-1.34,3.37-3.92,3.88-6.41s.46-4.92-.68-7.24c-.95-1.93-2.62-3.43-4.56-4.32-3.25-1.48-6.82-2.59-10.24-3.63-3.71-1.13-7.92-1.43-11.38,.61-3.73,2.2-5.26,6.14-5.59,10.27-.27,3.42,.34,7.02,.74,10.41,.51,4.38,1.14,8.74,1.91,13.08,.52,2.93,3.88,4.66,6.58,4.3,3.02-.41,5.05-2.88,5.2-5.89,.39-8.03,.32-16.06-.22-24.08l-11.79,1.6c.33,1.94,.64,3.89,.94,5.84,.15,.98,.29,1.95,.42,2.93,.03,.22,.31,1.87,.05,.36,.08,.48,.13,.98,.19,1.47,.5,3.91,.91,7.84,1.24,11.77,.27,3.12,2.57,6.15,6,6,3.23-.14,6.02-2.64,6-6-.04-5.95-.08-11.9-.12-17.86l-11.79,1.6c1.58,4.83,3.16,9.68,4.24,14.66,.27,1.23,.51,2.48,.71,3.72,.05,.31,.1,.62,.14,.93-.11-.82-.12-.88-.03-.19,.06,.62,.13,1.25,.18,1.87,.2,2.51,.18,5.02-.07,7.53-.29,2.96,2.51,5.53,5.2,5.89,2.85,.38,5.87-1.38,6.58-4.3,2.54-10.43,5.13-20.85,7.76-31.25,.77-3.04-.99-6.65-4.19-7.38s-6.52,.94-7.38,4.19c-1.1,4.16-2.2,8.31-3.11,12.51-.45,2.1-.86,4.21-1.2,6.33-.38,2.38-.86,4.87-.9,7.28-.05,3.63,2.33,7.04,5.9,7.96,2.74,.71,5.78,.12,8.12-1.46,3.58-2.42,6.19-6.36,7.91-10.27,2.05-4.66,3.18-9.64,2.95-14.76-.08-1.93-.84-3.53-2.36-4.71-1.36-1.05-3.53-1.79-5.23-1.07-2.68,1.12-4.7,2.71-5.95,5.39-1,2.14-1.75,4.41-2.49,6.64-1.37,4.14-2.5,8.36-3.4,12.63-.53,2.53,.33,5.49,2.76,6.78s5.12,.83,7.27-.94c3.32-2.72,5.88-6.36,7.95-10.09,.96-1.72,1.83-3.48,2.7-5.25,.43-.88,.87-1.77,1.31-2.65,.23-.47,.47-.93,.71-1.39,.12-.23,.24-.46,.36-.69,.32-.55,.22-.41-.31,.42l-2.65,1.54-2.37-.03-2.65-1.54c.75,.63,.45,.06-.9-1.71,.11,.44,.12,.4,.03-.11-.07-.57-.07-.55,0,.05,.03,.31,.05,.62,.06,.94,.04,.94,.03,1.87-.03,2.81-.03,.43,0,.99-.13,1.4,.47-1.46-.03,.11-.1,.5-.18,1.01-.41,2.01-.67,3-.52,1.99-1.18,3.93-1.91,5.85-.17,.44-.34,.89-.52,1.33-.08,.2-.62,1.71-.13,.32-.34,.96-.85,1.9-1.29,2.81-.78,1.63-1.6,3.23-2.59,4.74-.68,1.03,.8-.73-.05,.02-.18,.19-.37,.38-.56,.55,.66-.48,.8-.59,.43-.33-.17,.12-.34,.23-.52,.32-.59,.29-.48,.26,.32-.09-.1,.19-1.01,.33-1.18,.37-.4,.1-.81,.18-1.22,.25-1.3,.25,1.22-.07-.1,0-1.09,.06-2.16,.15-3.25,.14-.93,0-1.86-.08-2.78-.15-1.4-.11,1.02,.23-.25-.02-.23-.03-.46-.08-.69-.14,2.05,.74,2.97,2.54,2.75,5.41l-5.79,4.4c-1.01-.18-1.2-.2-.57-.05-.88-.42-1.04-.48-.48-.19-.73-.62-.86-.72-.39-.3-.55-.79-.65-.92-.3-.39,1.64,2.57,5.46,4.06,8.21,2.15,1.92-1.33,3.85-2.63,5.81-3.9,.91-.59,1.82-1.19,2.76-1.76,.23-.14,1.01-.75,1.26-.69-.81,.33-.91,.39-.3,.19-.94,.08-1.08,.1-.4,.07-1.01-3.73-2.02-7.45-3.03-11.18,1.27-.56,.24-.1-.05,.01-.36,.13-.72,.26-1.08,.38-.73,.24-1.47,.44-2.22,.6-.3,.07-.6,.13-.9,.18-.07,.01-1.48,.32-.57,.1s-.36,.01-.57,.03c-.46,.03-.92,.04-1.38,.05-3.14,.06-6.15,2.72-6,6s2.64,6.07,6,6h0Z"/>
  <path class="cls-1" d="M95.97,91.15c-.09,1.24,.33,2.71,1.01,3.76,1.33,2.04,4.26,3.75,6.78,2.76,1.84-.73,3.64-1.5,5.27-2.63,1.2-.83,2.29-1.75,2.99-3.06,1.21-2.31,.91-4.35-.08-6.63-1.06-2.43-4.42-3.35-6.78-2.76s-4.62,1.49-6.56,2.82c-3.71,2.53-5.11,6.88-3.04,10.98,1.21,2.4,3.42,3.8,5.52,5.34,1.06,.78-.8-.7,.11,.1,.42,.37,.86,.72,1.27,1.1,.73,.66,1.38,1.38,2.04,2.11,.8,.88-.66-.98,.2,.29,.27,.41,.53,.83,.76,1.26,.13,.25,.26,.5,.38,.76-.29-.73-.36-.88-.2-.46,.14,.47,.32,.92,.43,1.4,.07,.27,.12,.54,.17,.82-.11-.91-.14-1.02-.08-.35-.02,.41-.01,.84-.02,1.25-.07,.67-.05,.57,.05-.3-.05,.29-.09,.58-.14,.86-.13,.82-.25,1.64-.34,2.46-.45,4.29,1.61,8.9,6.43,9.2,2.72,.17,5.86-2.18,8.2-3.45,2.22-1.2,3.58-4.34,2.76-6.78-.73-2.18-1.34-4.4-1.79-6.65-.09-.45-.17-.9-.25-1.36-.05-.32-.41-2.37-.13-.68-.17-1.05-.24-2.14-.32-3.2-.15-2.14-.16-4.29-.05-6.43,.06-1.07,.17-2.14,.27-3.21,.08-.68,.07-.61-.04,.23,.04-.3,.09-.61,.14-.91,.05-.3,.1-.61,.15-.91,.24-1-.12-.45-1.07,1.66l-2.65,1.54c1.93-.8,3.62-1.53,4.71-3.44,.95-1.67,1.1-3.59,.7-5.44-.66-3.01-3.48-5-6.14-6.12-2.98-1.26-6.13-.94-8.93,.65-1.92,1.09-3.91,2.53-5.31,4.23-1.04,1.26-1.76,2.55-1.76,4.24,0,1.47,.65,3.23,1.76,4.24,2.2,2.02,6.36,2.59,8.49,0,.27-.33,.56-.65,.87-.95,.21-.19,.43-.38,.66-.56l-.52,.42c.2-.29,.73-.52,1.03-.73,.22-.15,.44-.3,.67-.44,.47-.24,.46-.26-.01-.06-.48,.18-.48,.18,.01,.02-.41,.13-.82,.14-1.22,.03-.53-.1-.53-.09-.01,.03-.74-.34-.91-.41-.5-.2,.2,.13,1.36,.96,.54,.26-.42-.35-.45-.36-.09-.04-1.7-2.14-1.7-4.3,0-6.47l2.65-1.54c-2.57,.93-4.53,2.35-5.32,5.05-.46,1.57-.56,3.37-.75,4.97-.32,2.66-.43,5.35-.34,8.03,.19,5.73,1.19,11.48,3.02,16.92l2.76-6.78c-1.62,.88-3.24,1.92-4.94,2.64l3.03-.82h-.23c1.73,.98,3.45,1.97,5.18,2.96,.2,.36,.3,.74,.3,1.14,.04,.46,.04,.51,.02,.18,.01-.35,0-.71,.02-1.06,.04-1.39-.17,.88-.01,.09,.07-.36,.12-.72,.17-1.08,.34-2.3,.39-4.24-.01-6.55-.63-3.59-2.61-6.8-4.95-9.53-2.05-2.39-4.64-4.31-7.2-6.1-.61-.43,1.28,.72,.18,.09l-.26-.28c.31,.26,.53,.57,.67,.94,.63,1.32,.15,3.08-.81,4.14-.37,.41-.93,.64-.13,.18,.3-.18,.61-.35,.93-.5,.21-.1,1.3-.44,.44-.22s.28-.07,.47-.14c.4-.13,.81-.24,1.22-.34l-6.78-2.76,.12,.28-.82-3.03-.04,.3,.82-3.03c.23-.35,.51-.65,.85-.88,.42-.31,.4-.32-.04,0-.3,.17-.59,.36-.89,.53s-.61,.32-.92,.48c-1.07,.57,1.14-.43-.09,.06l6.78,2.76,.63,2.3c.23-3.14-2.92-6.14-6-6-3.44,.15-5.76,2.64-6,6h0Z"/>
  <path class="cls-1" d="M46.51,74.35l3.75-.81c1.79-.39,1.15-2.76-.4-2.95-1.82-.22-3.64-.43-5.46-.65v3c2.67-.17,5.34-.05,7.98,.41l.8-2.89c-3.49-.59-6.99-1.02-10.52-1.3v3c2.66-.03,5.33,.02,7.98,.27s5.07,1.25,7.53,2.22c4.66,1.83,9.28,3.84,13.33,6.83,1.55,1.15,3.05-1.45,1.51-2.59-4.26-3.15-9.15-5.21-14.05-7.13-2.52-.99-4.96-1.94-7.66-2.26-2.86-.34-5.77-.37-8.65-.34-1.95,.02-1.9,2.85,0,3,3.26,.25,6.5,.65,9.72,1.19,1.89,.32,2.7-2.56,.8-2.89-2.91-.51-5.83-.7-8.78-.52-1.97,.12-1.89,2.77,0,3s3.64,.43,5.46,.65l-.4-2.95-3.75,.81c-1.89,.41-1.09,3.3,.8,2.89h0Z"/>
  <path class="cls-1" d="M112.53,128.95c-1.66,3.29-2.17,6.85-1.57,10.48,.22,1.31,2.15,1.41,2.74,.36,1.39-2.45,2.74-4.92,4.04-7.42l-2.74-.36c.34,2.14,.12,4.25-.54,6.31-.52,1.64,1.88,2.59,2.74,1.16,1.14-1.91,2.56-3.55,4.24-5l-2.51-1.46c-.47,1.72-1.28,3.24-2.48,4.56l2.36,1.82c1.23-2.39,2.39-4.82,3.5-7.27l-2.74-1.16c-.46,2.88-.95,5.75-2.05,8.46-.68,1.67,1.84,2.45,2.74,1.16,1.73-2.47,2.52-5.39,3.35-8.24,.89-3.07,1.92-6.14,2.5-9.3s.69-6.45,.88-9.68,.35-6.72,.35-10.09c0-1.93-3-1.93-3,0,0,3.21-.14,6.41-.33,9.61s-.24,6.29-.8,9.36-1.52,5.91-2.36,8.83-1.5,5.6-3.18,8l2.74,1.16c1.1-2.71,1.59-5.58,2.05-8.46,.24-1.52-1.98-2.84-2.74-1.16-1.1,2.45-2.27,4.88-3.5,7.27-.74,1.45,1.15,3.14,2.36,1.82,1.54-1.7,2.65-3.67,3.25-5.88,.42-1.52-1.41-2.4-2.51-1.46-1.87,1.6-3.45,3.49-4.71,5.61l2.74,1.16c.82-2.59,.96-5.23,.54-7.9-.2-1.28-2.18-1.44-2.74-.36-1.3,2.5-2.64,4.97-4.04,7.42l2.74,.36c-.46-2.79,0-5.65,1.27-8.17,.87-1.72-1.72-3.24-2.59-1.51h0Z"/>
</svg>