<?xml version="1.0" encoding="UTF-8"?>
<svg id="button" xmlns="http://www.w3.org/2000/svg" viewBox="0 0 189 173">
  <defs>
    <style>
      .cls-1 {
        fill: #e28d24;
      }
    </style>
  </defs>
  <g>
    <circle cx="94.5" cy="88.5" r="69.5"/>
    <path class="cls-1" d="M110.05,110.7c5.86,.26,11.71,.52,17.57,.78s11.81,.57,17.7,.14l-1.45-1.9c-.77,2.17-3.28,3.33-4.86,4.84-.97,.92-1.69,2.05-2.5,3.1-.96,1.23-2.19,2.13-3.33,3.16-4.03,3.65-5.99,8.91-9.66,12.85l2.51,.66c-.89-4.96-4.63-8.41-7.45-12.36s-6.12-8.09-8.3-12.63l-.9,2.2c1.54-.29,3.47,1.57,4.53,2.51,1.26,1.12,2.39,2.38,3.43,3.7,2.14,2.7,4.4,5.71,5.81,8.86l2.36-1.82c-1.57-1.22-3.15-2.44-4.72-3.67-1.33-1.03-2.86-2.02-3.93-3.34-1.84-2.29-2.31-5.34-4.64-7.29-.86-.72-2.74-.37-2.56,1.06,.31,2.41,2.61,3.16,3.89,5.01,1.37,1.99,1.32,4.64,3.1,6.38,1.46,1.42,3.72,1.94,4.53,3.95s.96,4.06,2.55,5.65c1.02,1.02,2.99,0,2.51-1.46-1.09-3.26-4.44-4.15-6.42-6.67-.76-.98-2.73-.19-2.56,1.06,.26,1.96,1.29,3.39,2.69,4.75,1.06,1.03,2.83,2.23,2.98,3.84s2.61,2.19,2.95,.4c.65-3.47,2.67-6.41,4.39-9.42s3.06-5.95,3.39-9.35c.15-1.52-2.1-1.98-2.8-.76-2.84,5-5.68,10.01-8.52,15.01l2.8,.76c.06-2.71,.32-5.39,.8-8.05l-2.95-.4c.01,1.59,.03,3.19,.04,4.78l1.9-1.45c-3.95-1.5-7.46-4.25-9.81-7.77-2.56-3.83-4.01-8.51-8.75-10.18l-.4,2.95c1.91,.25,3.83,.46,5.75,.64,.96,.09,1.92,.17,2.88,.24s1.96,.27,2.89,.18l.48,.02c-.28-.3-.35-.27-.2,.09-.06,.35,.22,.99,.31,1.32,.22,.88,.49,1.74,.79,2.59,.59,1.69,1.33,3.32,2.17,4.89l2.36-1.82c-2.51-2.6-5.01-5.22-7.5-7.83l-.3,2.36c1.48-.69,3.07,.27,3.65,1.64l.9-2.2c-1.19,.22-2.42-.4-3.5-.81-1.28-.48-2.57-.84-3.95-.71-.87,.08-2.74,.8-3.44,.01-.28-.32-.29-1.04-.48-1.43-.26-.55-.62-.99-1.2-1.24-1.37-.59-2.75,.63-2.05,2.05,1.14,2.32,2.36,4.46,4.19,6.31s2.62,4.41,4.51,6.24c.86,.83,1.83,1.53,2.66,2.4,.88,.92,1.53,2.02,2.14,3.13,1.38,2.49,2.68,5.03,4.01,7.55l2.36-1.82c-2.25-2.57-3.18-5.99-4.81-8.93-.84-1.51-1.88-2.87-3.17-4.03-.64-.58-1.15-1.08-1.38-1.93-.29-1.02-.36-2.12-.51-3.16s-.29-2.06-.44-3.09c-.14-.95-.14-2.02-.58-2.9-.75-1.49-2.89-1.81-3.78-.25s-.01,3.18,1.2,4.14c1.53,1.21,3.4,1.31,5.25,1.6s3.68,1.03,5.17,2.23c.75,.6,1.44,1.31,2,2.1,.23,.33,1.26,1.74,.94,2.05l2.36,.3c-.95-1.53-1.86-3.09-2.72-4.67s-2.96-.4-2.74,1.16c.41,2.99,2.76,5.75,5.9,5.89,3.51,.15,7.12-2.7,9.57-4.93,1.15-1.05-.07-2.85-1.46-2.51-1.59,.39-3.19,.78-4.78,1.18l1.69,2.2c1.18-2.2,2.84-3.98,4.98-5.28l-2.05-2.05c-1.11,1.86-2.39,3.56-3.88,5.14l2.36,1.82c1.11-1.44,2.43-2.74,3.89-3.82l-2.05-2.05-1.21,1.88c-.92,1.42,1.2,3.07,2.36,1.82s2.34-2.55,3.51-3.82c.52-.57,.63-1.57,0-2.12-2.57-2.26-5.75-1.69-8.81-.95-3.39,.81-6.8,.6-9.97-.94l-1.51,2.59c2.54,1.18,4.17,3.6,4.14,6.42h3c-.11-1.4-.23-2.81-.34-4.21-.09-1.09,.04-2.61-.78-3.46-1.55-1.61-4.82-.54-6.42,.41-.86,.51-.96,1.64-.3,2.36,1.69,1.84,5.49,1.06,5.85,4.17,.14,1.17,1.16,1.81,2.26,1.3,1.04-.49,1.99-1.12,2.84-1.9,.75-.69,1.83-1.72,1.88-2.81,.06-1.18-.73-1.65-1.69-2.05s-1.76-1.28-1.88-2.37l-1.9,1.45c1.15,.31,.26,2.21-.04,2.86l2.36-.3c-.56,1.08-.55,1.53,.03,1.38,.13-.03,.27-.05,.4-.07,.4-.07,.81-.13,1.21-.19,.81-.13,1.61-.25,2.42-.38,1.61-.25,3.22-.51,4.84-.76l-1.16-2.74c-1.73,.79-3.46,1.58-5.19,2.37-1.53,.7-.44,3.35,1.16,2.74,3.98-1.51,8.67-.62,11.44-4.52,.7-.98-.25-2.21-1.3-2.26-1.73-.08-3.44,.12-5.12,.57-1.86,.5-1.07,3.4,.8,2.89,1.43-.39,2.84-.53,4.32-.46l-1.3-2.26c-.91,1.28-2.56,1.73-4.02,2-1.9,.35-3.81,.45-5.63,1.14l1.16,2.74c1.73-.79,3.46-1.58,5.19-2.37s.38-2.98-1.16-2.74c-2.66,.42-5.32,.84-7.98,1.26-.98,.15-2.01,.31-2.57,1.24-.51,.85-.35,1.85,.34,2.54,.62,.62,1.96,.59,2.36-.3,.63-1.42,1.26-2.93,.87-4.51-.33-1.35-1.29-2.4-2.63-2.76-.85-.23-2.01,.45-1.9,1.45,.15,1.31,.55,2.45,1.42,3.48,.39,.46,.84,.85,1.35,1.18,.25,.16,.51,.29,.78,.4,.19,.08,1.03,.57,.44,.09l-.44-1.06c.1-.15,.08-.13-.06,.05-.12,.15-.24,.29-.37,.43-.26,.28-.53,.55-.83,.79-.59,.49-1.26,.85-1.95,1.18l2.26,1.3c-.21-1.76-.93-3.29-2.36-4.39-.66-.51-1.39-.85-2.19-1.07-.75-.2-1.63-.23-2.18-.83l-.3,2.36c.55-.33,1.1-.57,1.73-.68,.16-.03,.89-.2,1.03-.06-.3-.3-.12,.56-.11,.71,.13,1.57,.25,3.14,.38,4.7,.15,1.9,2.98,1.96,3,0,.04-3.8-2.16-7.41-5.62-9.01-1.73-.8-3.26,1.74-1.51,2.59,2.87,1.4,6.05,2.08,9.25,1.78,1.64-.16,3.19-.64,4.8-.95,1.37-.27,2.99-.39,4.12,.6v-2.12l-3.51,3.82,2.36,1.82,1.21-1.88c.78-1.21-.83-2.96-2.05-2.05-1.9,1.41-3.53,3.02-4.97,4.89-1.04,1.36,1.2,3.04,2.36,1.82,1.65-1.76,3.11-3.68,4.35-5.75,.76-1.28-.77-2.83-2.05-2.05-2.56,1.55-4.64,3.72-6.05,6.35-.62,1.16,.4,2.52,1.69,2.2,1.59-.39,3.19-.78,4.78-1.18l-1.46-2.51c-1.77,1.61-4.16,3.52-6.58,3.99-2.27,.44-3.61-1.63-3.89-3.62l-2.74,1.16c.87,1.58,1.77,3.14,2.72,4.67,.51,.82,1.65,.99,2.36,.3,2.45-2.4-.52-6.18-2.39-7.91-1.17-1.08-2.51-1.96-3.98-2.58-1.67-.71-3.33-.88-5.11-1.17-.74-.12-1.57-.29-2.17-.77-.11-.09-.27-.36-.39-.41l-.75,.17c-.6-.13-.85-.02-.72,.33-.06,.2,.1,.66,.13,.87,.29,2.04,.57,4.09,.87,6.14,.26,1.72,.82,3.12,2.12,4.31,1.21,1.11,2.19,2.23,2.99,3.67,1.78,3.21,2.83,6.73,5.28,9.54,1.16,1.33,3.13-.36,2.36-1.82-1.3-2.46-2.58-4.93-3.91-7.37-1.26-2.31-2.79-4.03-4.75-5.76s-2.64-4.12-4.35-6c-.86-.95-1.8-1.78-2.52-2.86-.77-1.16-1.38-2.4-1.99-3.65l-2.05,2.05c-.01-.2,.02-.14,.08,.2l.08,.31c.1,.32,.19,.65,.34,.94,.32,.61,.83,1.09,1.43,1.42,1.34,.74,2.81,.49,4.25,.27,1.58-.25,2.84,.26,4.31,.81s2.84,.82,4.38,.54c1.06-.19,1.24-1.4,.9-2.2-1.27-2.99-4.94-4.05-7.75-2.72-.9,.43-.92,1.71-.3,2.36,2.49,2.62,4.99,5.23,7.5,7.83,1.21,1.25,3.15-.34,2.36-1.82-1.01-1.88-1.83-3.84-2.42-5.9-.44-1.53-.45-3.78-2.28-4.33-.9-.28-1.94-.2-2.88-.26-1.12-.07-2.24-.15-3.36-.25-2.24-.19-4.48-.44-6.71-.73-1.77-.23-1.89,2.42-.4,2.95,2.2,.78,3.55,2.83,4.64,4.77s2.21,4.06,3.68,5.88c2.68,3.32,6.25,5.78,10.23,7.29,.92,.35,1.91-.55,1.9-1.45-.01-1.59-.03-3.19-.04-4.78s-2.64-2.11-2.95-.4c-.52,2.93-.84,5.88-.91,8.85-.04,1.49,2.07,2.04,2.8,.76,2.84-5,5.68-10.01,8.52-15.01l-2.8-.76c-.65,6.67-6.45,11.45-7.68,17.97l2.95,.4c-.18-1.95-1.21-3.41-2.59-4.75-1.05-1.03-2.88-2.25-3.09-3.83l-2.56,1.06c.86,1.1,2,1.89,3.12,2.69,.99,.71,2.12,1.45,2.52,2.66l2.51-1.46c-1.28-1.27-1.35-3.37-2.05-4.97-.87-1.98-2.52-2.89-4.25-4.02-1.87-1.23-1.86-3.53-2.83-5.39-.47-.9-1.09-1.75-1.79-2.49-.4-.42-.84-.79-1.29-1.15-.2-.16-.96-.6-.99-.85l-2.56,1.06c2.26,1.89,2.78,5.07,4.64,7.29,1.1,1.31,2.59,2.3,3.93,3.34,1.57,1.22,3.15,2.44,4.72,3.67,1.35,1.05,3.07-.21,2.36-1.82-.88-1.98-2.17-3.75-3.39-5.54-1.15-1.67-2.34-3.32-3.66-4.87-2.34-2.76-6.12-6.79-10.11-6.04-1.02,.19-1.28,1.41-.9,2.2,2.11,4.4,5.2,8.28,8.02,12.23,1.41,1.97,2.86,3.9,4.39,5.77s2.6,3.85,3.04,6.26c.2,1.11,1.78,1.44,2.51,.66,3.88-4.17,5.95-9.71,10.34-13.43,1.17-.99,2.21-1.97,3.14-3.19,.83-1.1,1.61-2.17,2.67-3.06,1.98-1.68,4.07-3.02,4.98-5.58,.31-.88-.52-1.97-1.45-1.9-5.9,.42-11.81,.12-17.7-.14s-11.71-.52-17.57-.78c-1.93-.09-1.93,2.91,0,3h0Z"/>
    <path class="cls-1" d="M62.51,127.6c5.62,3.09,11.66,5.45,17.91,6.89,2.2,.51,4.42-.5,5.31-2.61,.79-1.86,.21-4.72-1.84-5.62-1.33-.58-2.61-1.23-3.85-1.98-.56-.34-1.11-.7-1.65-1.08-.32-.23-.64-.46-.95-.7,.51,.39,.1,.07-.17-.16-1.06-.88-2.06-1.84-2.99-2.86-.44-.49-.86-.99-1.28-1.5,.61,.73-.19-.26-.25-.34-.23-.32-.45-.65-.67-.97l-7.07,5.45c3.86,3.42,8.57,5.05,12.99,7.55,.47,.26,.93,.54,1.37,.83,.25,.16,.49,.33,.73,.5,.39,.28,.52,.44,.07,.04,.44,.39,.89,.77,1.3,1.19,.21,.21,.39,.45,.6,.66,.45,.44-.57-.82,.1,.13,.88,1.25,1.72,2.52,2.68,3.71,.35,.44,.71,.86,1.13,1.24s.88,.73,1.33,1.07l.3,.22c.72,.51,.46,.23-.79-.84l-.45-3.47-.04,.25,1.16-1.99c.16-.21,.52-.27,.71-.44,.46-.4-.07,.13-.21-.02-.04-.04,.79,0,.17-.04-.2-.01-.42,0-.62,.01-.05,0-.74-.04-.23,0s-.17-.03-.23-.05c-.56-.13-1.1-.29-1.64-.48-.03-.01-.67-.29-.26-.1s-.23-.12-.25-.13c-.38-.2-.76-.4-1.13-.62-.8-.47-1.56-.99-2.32-1.51-1.46-1-2.91-2.03-4.5-2.82-1.05-.52-2.14-.97-3.25-1.33-.42-.13-.84-.25-1.27-.37-.21-.06-1.42-.48-.78-.21-.36-.15-.68-.36-1.02-.56-.71-.41,.29,.33-.32-.22s-1.22-1.17-1.77-1.82c-.3-.35-.58-.71-.87-1.07,.49,.62-.14-.19-.3-.4-.62-.82-1.24-1.63-1.85-2.45-2.39-3.2-4.65-6.5-6.52-10.04-1-1.91-1.9-3.86-2.76-5.83-.03-.08-.34-.79-.09-.2-.12-.28-.24-.57-.36-.85-.21-.5-.41-1-.61-1.5-.43-1.07-.86-2.14-1.28-3.22l-8.22,3.47c2.55,4.24,4.01,9.06,6.69,13.22s6.43,7.75,11.32,9.14c3.24,.92,6.53-2.25,5.54-5.54-2.03-6.7-6.67-12.04-9.6-18.3,.41,.88-.11-.29-.15-.39-.14-.37-.27-.75-.39-1.13-.27-.86-.47-1.73-.64-2.61-.06-.3-.11-.6-.15-.9,.05,.37,.05,.39,.01,.06-.04-.46-.1-.91-.14-1.37-.08-1-.13-1.99-.18-2.99-.18-4.07-.29-8.18-1.36-12.14-.91-3.36-5.08-4.27-7.52-1.99-3.1,2.89-5.38,6.85-6.25,11.01-.99,4.71-.21,9.1,1.22,13.63,2.7,8.54,4.91,18.11,11.54,24.59,3.91,3.82,8.8,5.49,14.01,6.7,2.29,.53,4.98-.71,5.54-3.14,.52-2.3-.69-4.96-3.14-5.54-1.9-.44-3.77-.91-5.61-1.55-.83-.29-.36-.12-.17-.04-.21-.09-.41-.18-.61-.28-.39-.19-.78-.39-1.16-.61s-.77-.48-1.15-.74c-.05-.03-.57-.42-.17-.11s-.24-.21-.3-.26c-.64-.55-1.25-1.15-1.81-1.78-.26-.29-.51-.6-.76-.9,.52,.62-.2-.29-.35-.51-1.07-1.56-1.95-3.23-2.73-4.96,0,0-.29-.69-.13-.29s-.12-.3-.12-.3c-.19-.49-.38-.99-.56-1.48-.34-.92-.65-1.85-.96-2.79-.65-1.97-1.26-3.96-1.89-5.94s-1.25-3.79-1.74-5.73c-.13-.51-.24-1.03-.34-1.55,0-.05-.12-.79-.05-.26,.06,.49,0-.14-.01-.2-.05-.9-.05-1.78,0-2.68,0-.08,.07-.72,0-.16s.05-.24,.07-.35c.09-.5,.21-1,.35-1.49,.12-.43,.27-.85,.41-1.28,.02-.07,.25-.66,.06-.17s.12-.25,.16-.34c.42-.87,.91-1.68,1.46-2.47,.04-.06,.43-.55,.11-.15-.37,.45,.31-.34,.38-.43,.34-.38,.71-.74,1.08-1.08l-7.52-1.99c.94,3.44,.88,6.58,1.09,10.67s.68,7.85,2.2,11.51c1.38,3.34,3.26,6.36,5.17,9.42,.85,1.36,1.69,2.72,2.44,4.14,.37,.7,.72,1.41,1.05,2.14-.4-.89,.15,.39,.22,.58,.16,.44,.3,.88,.43,1.32l5.54-5.54c-.21-.06-1.66-.63-.67-.17-.45-.21-.88-.44-1.3-.69-.18-.11-1.42-1.04-.6-.37-.29-.24-.57-.48-.84-.74-.37-.34-.72-.7-1.05-1.08-.12-.14-1.12-1.38-.5-.56-.57-.76-1.09-1.55-1.57-2.37-2.31-3.95-3.74-8.33-6.1-12.25-1.16-1.93-3.56-2.71-5.62-1.84-1.88,.79-3.43,3.22-2.61,5.31,2.71,6.84,5.48,13.64,9.64,19.76,2.1,3.09,4.36,6.1,6.69,9.02s4.98,4.84,8.48,5.88c.77,.23,1.55,.43,2.29,.73-.86-.35,.39,.22,.46,.25,.25,.13,.5,.27,.74,.41,1.47,.85,2.84,1.87,4.26,2.81,3.09,2.04,6.77,3.73,10.56,3.49,2.37-.15,4.91-.85,6.19-3.04,.88-1.5,.78-3.28,.04-4.8-.24-.5-.59-.94-1-1.32,.37,.35-2.15-1.8-1.12-.82-.22-.21-.45-.42-.66-.65-.16-.17-.68-.83-.13-.1-.46-.6-.87-1.25-1.31-1.87-.95-1.37-1.95-2.72-3.18-3.85-2.47-2.26-5.38-3.8-8.38-5.23-1.42-.68-2.85-1.35-4.24-2.11-.63-.35-1.25-.71-1.86-1.11-.3-.2-.59-.41-.88-.61,.91,.64-.32-.28-.48-.43-1.69-1.5-4.07-1.77-5.91-.35-1.68,1.3-2.41,3.93-1.16,5.81,3.72,5.56,8.86,10.14,15.02,12.81l3.47-8.22c-2.86-.66-5.68-1.5-8.43-2.54-.63-.24-1.27-.49-1.89-.75,.63,.26-.27-.12-.38-.17-.34-.15-.69-.31-1.03-.47-1.37-.64-2.71-1.32-4.03-2.05-2.06-1.13-5-.57-6.16,1.61s-.59,4.94,1.61,6.16h0Z"/>
    <path class="cls-1" d="M55.02,106.56c-.35-.36-.68-.73-1.02-1.1-.32-.39-.31-.38,.02,.03-.15-.2-.29-.4-.42-.61-.55-.82-.99-1.69-1.44-2.58-.21-.47-.2-.45,.01,.05-.09-.23-.18-.46-.27-.7-.17-.47-.33-.94-.47-1.42-.29-.97-.53-1.96-.72-2.95-.1-.5-.18-1.01-.26-1.51-.08-.52-.07-.51,0,.05-.03-.26-.06-.51-.09-.77-.09-.9-.16-1.79-.21-2.69-.12-2.18-.15-4.37-.09-6.56,.02-.59,.05-1.19,.09-1.78,.01-.16,.19-1.89,.07-1.01,.15-1.16,.41-2.32,.75-3.44,.05-.15,.63-1.7,.32-.99,.18-.42,.4-.84,.62-1.24,.59-1.09,1.27-2.12,1.96-3.14,1.32-1.97,2.62-3.95,3.98-5.89,.11-.16,1.1-1.39,.43-.6,.33-.38,.65-.76,1-1.11,.18-.17,.36-.34,.54-.5-.44,.32-.45,.33-.03,.04,.2-.13,.42-.26,.63-.37-.59,.28-1.23,.33-1.91,.14l-2.69-2.07,.18,.25-.61-2.27c.05-.32,.15-.62,.31-.9-.11,.26-.23,.51-.35,.77-.18,.38-.36,.76-.54,1.14-.43,.89-.88,1.77-1.34,2.65-.88,1.69-1.78,3.37-2.61,5.09-1.94,3.99-3.35,7.93-3.94,12.33-.23,1.73,1.32,3.5,2.77,4.11,1.69,.71,3.57,.32,4.92-.93s2.21-2.94,2.87-4.71c.23-.61,.41-1.24,.61-1.86,.11-.34,.23-.68,.34-1.02,.34-1.05-.45,.72,.1-.22,.19-.33,.37-.66,.6-.97-.46,.63,.14-.1,.32-.29,.5-.53,1.04-1.02,1.56-1.54,1.28-1.28,2.4-2.74,3.21-4.36,.4-.8,.74-1.62,1.09-2.45,.13-.31,.26-.62,.39-.93-.15,.36-.17,.4-.04,.11,.15-.32,.28-.64,.43-.96,.36-.75,.76-1.49,1.21-2.19,.22-.35,.45-.7,.69-1.04,.1-.14,.84-1.09,.3-.42,2.02-2.51,4.42-4.68,6.82-6.84,1.67-1.5,1.65-4.23,.35-5.91-1.47-1.91-3.71-2.07-5.81-1.16-2.75,1.19-5.65,2.24-8.24,3.77-1.29,.76-2.51,1.7-3.58,2.74-.51,.5-.98,1.03-1.5,1.53-.21,.2-.42,.39-.63,.58-.72,.68,.38-.19-.39,.29-2.8,1.76-5.35,3.54-7.33,6.23-1.65,2.24-3.05,4.72-4.4,7.14-2.91,5.2-5.68,11.46-4.86,17.56,.53,3.93,3.26,8.91,8.04,7.73,3.21-.79,5.31-4.49,6.58-7.31,.71-1.58,1.33-3.2,1.95-4.81,.1-.25,.19-.5,.29-.75,.04-.1,.56-1.33,.14-.38,.27-.62,.56-1.23,.88-1.83s.69-1.17,1.06-1.74c.63-.97-.41,.4,.07-.11,.25-.27,.47-.55,.73-.8,.21-.21,.45-.4,.65-.61-.63,.66-.04,.04,.23-.13,.2-.12,.41-.23,.61-.34,.46-.22,.42-.2-.1,.04,.23-.08,.46-.14,.69-.2l-5.08-2.07c-.48-.85-.49-1.72-.04-2.58-.26,.43-.25,.42,.04-.03,.74-.69-.42,.2-.69,.34-1.19,.61-2.23,1.23-3.23,2.14l7.68,3.18c.09-1.07-.18,.63,.04-.33,.09-.38,.16-.75,.27-1.12s.25-.73,.37-1.1c-.29,.91,.09-.18,.18-.33,.18-.34,.37-.68,.57-1,.11-.18,.78-1.1,.19-.35,.48-.61,1.03-1.15,1.6-1.67-2.51-.66-5.01-1.32-7.52-1.99,.09,.32,.23,1.19,.15,.38,.05,.47,0,.93,.02,1.41-.03,.33-.02,.27,.03-.2-.04,.2-.08,.39-.14,.59-.05,.2-.11,.39-.17,.58,.21-.45,.2-.44-.02,.03l8.22,3.47c.18-.48,.16-.45-.04,.1,.1-.21,.22-.41,.34-.61,.12-.2,.25-.39,.38-.58-.36,.45-.38,.48-.06,.09,.57-.6,1.14-1.19,1.78-1.73,.18-.16,.37-.31,.56-.46-.43,.33-.45,.34-.04,.04,.39-.29,.79-.58,1.19-.87,.9-.66,1.8-1.33,2.68-2.02,1.54-1.2,2.89-2.57,4.24-3.97,.73-.76,1.47-1.51,2.27-2.2,.2-.17,.4-.34,.6-.5-.39,.31-.38,.31,.03,0,.4-.24,.78-.5,1.19-.71,.19-.1,.38-.2,.58-.28-.42,.18-.39,.17,.11-.02,.55-.17,1.08-.35,1.64-.49,1.04-.27,2.11-.46,3.17-.66,2.2-.4,4.35-.88,6.46-1.61,4.62-1.6,8.93-3.92,13.19-6.27,3.33-1.84,2.68-7.33-1.07-8.22-12.64-3.01-25.01,1.81-35.72,8.29l5.45,7.07c1.07-.85-.69,.46,.43-.32,.35-.24,.69-.48,1.04-.71,.64-.42,1.3-.82,1.98-1.19s1.36-.73,2.05-1.07c.38-.18,.76-.36,1.15-.53,.05-.02,1.3-.55,.48-.21,3.02-1.22,6.12-2.22,9.23-3.19,2.91-.91,4.01-3.96,2.69-6.61-2.01-4.04-6.79-4.4-10.7-3.87s-7.81,1.91-11.45,3.68c-3.28,1.59-6.36,3.55-9.39,5.57-3.22,2.15-6.71,4.27-9.11,7.37-1.02,1.31-1.63,2.68-1.16,4.38,.37,1.36,1.65,2.94,3.14,3.14,1.76,.24,3.38,.27,5.08-.33,1.45-.51,2.85-1.2,4.25-1.84,2.53-1.14,5.06-2.28,7.6-3.43,2.15-.97,2.84-4.26,1.61-6.16-1.43-2.22-3.85-2.65-6.16-1.61-2.09,.94-4.17,1.88-6.26,2.82-1.04,.47-2.09,.94-3.13,1.41-.83,.37,.45-.05-.52,.2-.27,.09-.54,.17-.82,.22,.25-.09,.49-.08,.73,.03,.66,2.51,1.32,5.01,1.99,7.52,.47-.61,.98-1.19,1.54-1.73,.3-.29,.61-.57,.94-.85,.21-.18,.74-.61,.24-.22,1.24-.96,2.56-1.81,3.85-2.68,2.66-1.79,5.36-3.54,8.18-5.06,.64-.34,1.28-.67,1.93-.99,.39-.19,.78-.37,1.18-.55,1.27-.59-.79,.29,.51-.22,1.46-.57,2.96-1.07,4.49-1.44,.7-.17,1.4-.29,2.1-.42-.91,.17,.43-.04,.52-.05,.27-.02,.53-.04,.8-.04,.14,0,.71-.08,.82,.03-.65-.1-.73-.11-.23,0l.31,.08c.98,.22-.81-.4,.03,.06-.27-.15-1.02-1.17-.68-.48l2.69-6.61c-7.25,2.26-14.32,4.75-20.32,9.54-1.75,1.39-1.59,4.31-.35,5.91,1.34,1.73,3.87,2.33,5.81,1.16,2.3-1.39,4.65-2.72,7.08-3.9,.61-.29,1.21-.58,1.83-.85,.07-.03,.84-.37,.49-.22-.42,.18,.61-.25,.71-.28,1.25-.49,2.52-.94,3.81-1.32s2.51-.69,3.79-.94c.38-.07,.76-.14,1.14-.21,.25-.04,.67-.11,.17-.04,.68-.09,1.38-.15,2.07-.2,1.38-.09,2.76-.09,4.14,0,.38,.03,.76,.06,1.14,.1,.27,.03,.66,.11,.17,.02,.76,.13,1.51,.28,2.25,.45-.36-2.74-.72-5.48-1.07-8.22-2.13,1.18-4.27,2.35-6.46,3.42s-3.46,1.64-6.09,2.43c-4.56,1.37-9.52,1.4-13.62,4.08-1.93,1.26-3.57,2.85-5.17,4.5-.74,.76-1.47,1.53-2.25,2.24-.37,.34-.76,.66-1.15,.99-.39,.31-.38,.3,.05-.03-.2,.15-.39,.29-.59,.44-3.83,2.83-7.41,5.41-9.13,10.05-.78,2.1,.7,4.5,2.61,5.31s4.63,.18,5.62-1.84c1.51-3.07,1.96-6.39,1.04-9.72s-5.04-4.22-7.52-1.99c-3.54,3.18-5.44,7.58-5.85,12.27-.15,1.76,1.26,3.48,2.77,4.11,1.71,.72,3.55,.31,4.92-.93-.68,.61,.3-.17,.53-.29,.35-.19,.71-.35,1.06-.53,.95-.49,1.86-1.14,2.58-1.93,2.1-2.3,2.51-5.24,1.16-8.02-.87-1.78-3.26-2.55-5.08-2.07-4.61,1.22-7.93,4.99-9.89,9.19-1,2.15-1.76,4.39-2.66,6.58,.37-.91-.28,.6-.36,.76-.23,.48-.48,.95-.74,1.4s-.55,.9-.86,1.32c.3-.39,.29-.38-.04,.01-.77,.75-.22,.59,1.62-.49l2.27,.61c.2,.17,.37,.36,.53,.57-.14-.22-.26-.44-.37-.68,.41,.94-.06-.56-.1-.77,.19,1.02,.03-.2,.03-.37,0-.53,.03-1.05,.08-1.58-.09,1.02,.13-.71,.17-.9,.09-.42,.19-.84,.3-1.26,.26-.98,.6-1.92,.94-2.87,.2-.49,.21-.54,.04-.13,.11-.27,.23-.53,.35-.8,.24-.53,.5-1.05,.76-1.57,.46-.91,.95-1.81,1.46-2.7,1.04-1.81,2.12-3.61,3.25-5.37,.26-.41,.53-.82,.83-1.2-.54,.69,.54-.53,.66-.64,.08-.07,1.07-.82,.35-.33,.45-.31,.9-.62,1.36-.91,1.92-1.23,3.72-2.52,5.31-4.16,.35-.36,.69-.72,1.06-1.06,.21-.19,.42-.38,.64-.56-.36,.28-.32,.27,.1-.04,.86-.49,1.68-.99,2.58-1.42,2.09-.99,4.25-1.87,6.37-2.8l-5.45-7.07c-2.39,2.15-4.79,4.32-6.82,6.84-1.15,1.43-2.26,2.91-3.13,4.54-.36,.68-.68,1.38-.99,2.08-.27,.61-.51,1.24-.78,1.85,.36-.82-.19,.42-.21,.47-.32,.69-.66,1.38-1.07,2.02-.11,.18-.22,.35-.35,.52,.25-.32,.27-.36,.07-.12-.24,.23-.45,.49-.68,.73-1.3,1.32-2.63,2.55-3.66,4.12-.86,1.32-1.36,2.88-1.83,4.38-.11,.34-.21,.68-.32,1.02-.09,.26-.56,1.12-.05,.23-.17,.29-.33,.6-.49,.89,.35-.61,.2-.24-.19,.12l7.68,3.18c-.14,1.01,.09-.35,.11-.45,.05-.27,.11-.54,.18-.81,.16-.67,.35-1.34,.56-2s.46-1.31,.7-1.96c.31-.82,.1-.26,.02-.08,.19-.45,.39-.9,.6-1.34,1.18-2.56,2.56-5.03,3.83-7.55,.6-1.19,1.19-2.4,1.72-3.62,.48-1.11,.79-2.04,.75-3.26-.06-2.11-1.47-3.95-3.49-4.59-3.41-1.07-6.94,1.61-9,4.11s-3.58,5-5.3,7.55c-1.84,2.74-3.53,5.5-4.44,8.71-1.57,5.51-1.41,11.79-.81,17.45,.69,6.57,2.52,13.03,7.28,17.86,1.65,1.68,4.73,1.78,6.36,0s1.77-4.57,0-6.36h0Z"/>
    <path class="cls-1" d="M93.13,57.66c4.32,.16,8.66,.26,12.98,.54,.17,.01,.88,.12,.05-.01,.21,.03,.41,.07,.62,.11,.41,.08,.81,.18,1.21,.29,.2,.06,.39,.13,.59,.19-.71-.24-.1-.04,.06,.05,.17,.1,.35,.2,.52,.3,.07,.05,.74,.52,.36,.22-.42-.33,.22,.2,.31,.29,.15,.14,.29,.27,.43,.41,.28,.28,.55,.58,.82,.88,.31,.36,.6,.73,.9,1.09,.32,.4-.04-.05-.09-.11,.17,.23,.35,.46,.52,.69,1.3,1.72,2.58,3.45,3.58,5.37,.2,.39,.4,.79,.57,1.2-.28-.67,.18,.55,.24,.74,.32,.96,.57,1.93,.77,2.92,.09,.42,.14,.86,.23,1.28,.11,.52,0-.03,0-.12,.04,.29,.07,.58,.1,.87,.11,1.02,.17,2.04,.22,3.07,.08,1.98,.08,3.96,.07,5.94-.01,4.4,.03,8.79,.13,13.19,.05,2.2,.11,4.4,.19,6.6,.11,2.85,.9,5.32,3.45,6.87,1.69,1.02,3.87,1.25,5.79,1.03,2.79-.32,5.42-1.16,6.61-3.97,.61-1.45,.48-3.01-.05-4.46-.18-.48-.35-.96-.47-1.46-.05-.21-.1-.43-.15-.64-.08-.32-.12-.59-.05-.1-.3-2.04-.13-4.17-.03-6.22,.48-10.16-1.26-20.19-3.05-30.15l-7.52,4.38c.33,.33,.63,.7,.96,1.02,.2,.24,.18,.2-.08-.13,.16,.21,.31,.43,.46,.65,.45,.67,.82,1.37,1.19,2.08,.48,.92-.14-.5,.18,.4,.16,.44,.32,.88,.46,1.33,.26,.83,.47,1.68,.62,2.54,0,.01,.19,1.25,.1,.55,.06,.48,.1,.96,.13,1.43,.08,1.12,.09,2.24,.07,3.36-.04,2.09-.22,4.17-.43,6.25l8.84-1.2c-1.61-5.44-3.2-10.89-4.82-16.33-.72-2.43-1.54-4.86-2.7-7.13-1.23-2.42-3-4.4-5.05-6.16-1.92-1.64-3.35-3.56-5.01-5.45s-3.72-3.39-5.94-4.53-4.59-2.01-6.93-2.87c-.99-.37-1.99-.73-2.97-1.15,.69,.3-.04-.03-.15-.08-.36-.17-.72-.32-1.07-.48-.86-.39-1.72-.76-2.58-1.11-6.1-2.51-13.05-2.3-19.46-1.42-1.85,.25-3.38,2.56-3.3,4.34,.09,1.91,1.32,3.9,3.3,4.34,4.72,1.04,9.38,.65,14.14,.23,2.28-.2,4.58-.36,6.87-.23,.53,.03,1.07,.07,1.6,.14-.76-.1,.65,.13,.84,.17,1.13,.22,2.24,.51,3.34,.83,2.18,.64,4.32,1.41,6.45,2.19,.47,.17,.93,.36,1.4,.53,.68,.25-.54-.27,.11,.04,.19,.09,.39,.18,.58,.27,.45,.21,.88,.44,1.31,.69,.24,.14,.48,.29,.72,.44,.13,.08,.87,.64,.29,.17,.38,.31,.75,.65,1.09,1.01,.15,.15,1,1.15,.53,.54,.65,.84,1.21,1.76,1.74,2.68,1.13,1.93,2.17,3.92,3.09,5.96,.09,.21,.19,.41,.28,.62-.27-.62,.11,.28,.16,.39,.22,.56,.43,1.12,.63,1.69,.41,1.2,.77,2.42,1.04,3.66,.13,.58,.24,1.16,.33,1.74-.03-.2-.07-.79,0,.12,.03,.29,.05,.59,.07,.88,.04,.66,.05,1.32,.03,1.99,0,.22-.01,.44-.03,.66,0,.04-.14,1.45-.02,.57-.31,2.25,.35,4.36,2.61,5.31,1.86,.78,4.73,.22,5.62-1.84,1.42-3.29,2.42-6.5,1.72-10.12-.53-2.76-2.17-5.27-3.56-7.67-2.64-4.59-5.63-9.2-9.78-12.57l.7,5.45c-.16,.33-.4,.59-.72,.77-.62,.22-.69,.25-.22,.1,.49-.1,.41-.09-.25,.03,.51,.02,.43,0-.22-.08,.22,.04,.43,.09,.64,.16-.51-.24-.62-.28-.33-.13,.14,.07,.28,.16,.42,.25-.41-.32-.42-.32-.04,.02,.18,.18,.35,.36,.51,.56-.32-.41-.33-.41-.03,.01,.25,.45,.53,.88,.77,1.34,.45,.86,.85,1.75,1.26,2.63,.26,.56,.51,1.12,.76,1.68,.6,1.37-.28-.76,.26,.63,.44,1.14,.85,2.3,1.16,3.48,.12,.44,.22,.88,.31,1.32,.06,.29,.11,.59,.16,.88-.06-.46-.06-.41,0,.13,.02,.6,.06,1.18,.03,1.78-.01,.3-.03,.59-.07,.89,.06-.45,.04-.41-.05,.14l8.68,2.39c.71-4.51,.08-8.86-1.27-13.2s-3.07-8-6.74-10.55c-3.29-2.28-7.64-3.27-11.38-4.57-4.14-1.44-8.27-2.87-12.41-4.31,.36,2.74,.72,5.48,1.07,8.22-.01,0,1.12-.58,.51-.32s.58-.15,.57-.15c.77-.24,.19-.06-.04-.04,.33-.04,.66-.05,.99-.05s.67,.02,1.01,.03c.86,.03,.22,0,.02-.02,.82,.11,1.63,.3,2.43,.5,2.67,.66,5.37,1.38,7.98,2.25,.25,.08,.51,.17,.76,.27-.92-.38,.25,.18,.36,.23,.2,.1,.57,.51,.05,0,.18,.17,.35,.35,.52,.52-.63-.62-.11-.15,.05,.11s.3,.53,.44,.8c.38,.74,.04,.11-.02-.06,.13,.35,.25,.71,.37,1.06,.91,2.82,1.84,5.53,3.17,8.2,.57,1.14,1.15,2.27,1.67,3.43-.31-.7-.02-.04,.03,.1,.14,.4,.29,.79,.41,1.2,.22,.72,.38,1.46,.51,2.21-.13-.75,.03,.22,.04,.4,.04,.38,.07,.77,.09,1.15,.04,.62,.07,1.23,.09,1.85,.07,1.63,.11,3.26,.29,4.88,.11,.95,.24,1.9,.37,2.85-.02-.14,.19,1.41,.11,.82s.11,.96,.09,.82c.16,1.57,.14,3.11,.03,4.68,0,.11-.1,.88,0,.18-.05,.38-.12,.76-.18,1.14-.12,.69-.24,1.37-.37,2.05-.3,1.61-.6,3.22-.9,4.84-1.33,7.09-2.65,14.19-3.98,21.28-.43,2.31,.64,4.96,3.14,5.54,2.21,.5,5.07-.67,5.54-3.14,1.28-6.85,2.56-13.7,3.84-20.55,.67-3.61,1.46-7.22,1.87-10.87,.17-1.56,.21-3.1,.07-4.67-.09-1.03-.24-2.06-.38-3.09-.04-.32-.09-.63-.13-.94-.08-.56-.09-.63-.03-.22-.04-.32-.08-.63-.11-.95-.37-3.48-.23-6.98-.82-10.44-.55-3.24-2.07-6.17-3.52-9.08-.32-.63-.62-1.27-.92-1.91-.57-1.23,.23,.79-.19-.49-.08-.25-.18-.5-.26-.75-.44-1.31-.77-2.66-1.25-3.96-.63-1.68-1.38-3.17-2.55-4.55-1.28-1.51-2.96-2.46-4.76-3.19-3.13-1.26-6.62-2.13-9.91-2.86-3.93-.87-8.06-1.02-11.62,1.15s-2.53,6.97,1.07,8.22,7.18,2.49,10.77,3.74c1.87,.65,3.75,1.3,5.62,1.95,.79,.27,1.57,.54,2.36,.82,.13,.05,1.25,.46,.78,.28s.62,.29,.74,.36c.3,.15,.57,.34,.87,.49,.85,.42-.26-.35,.37,.25,.29,.27,.54,.56,.82,.84-.61-.63,.1,.17,.21,.35,.21,.33,.4,.68,.58,1.03,.09,.18,.55,1.25,.19,.37,.27,.67,.51,1.36,.73,2.05,.54,1.67,.99,3.36,1.33,5.08,.28,1.41-.04-.81,.1,.62,.04,.45,.08,.91,.09,1.36,.01,.38,0,.76,0,1.14,0,.18-.18,1.64-.05,.84-.37,2.32,.59,4.95,3.14,5.54,2.23,.51,5.06-.67,5.54-3.14,1.37-7.07-1.33-13.57-4.38-19.82-1.46-2.99-3.52-5.56-6.7-6.76-1.57-.6-3.47-.67-5.1-.26-2.01,.51-3.37,1.69-4.59,3.3-1.09,1.43-.7,4.32,.7,5.45,.86,.7,1.69,1.45,2.46,2.25,.38,.4,.75,.81,1.11,1.24,.1,.12,1.13,1.41,.6,.72,1.31,1.73,2.47,3.58,3.57,5.45,.53,.91,1.05,1.82,1.57,2.74,.28,.49,.55,.97,.82,1.47,.08,.15,.75,1.66,.44,.82,.19,.51,.37,1.05,.46,1.59-.18-1.18-.1,1.37,0,.3-.06,.6-.25,1.22-.44,1.79-.09,.3-.2,.59-.31,.88-.2,.51-.23,.58-.08,.21l8.22,3.47c.72-5.29,.08-10.46-1.81-15.47s-4.15-9.67-7.38-13.68-8.17-5.8-12.94-7.48-9.86-2.95-15.09-2.78c-2.68,.09-5.35,.42-8.03,.61-1.36,.1-2.73,.16-4.1,.13-.68-.01-1.36-.06-2.03-.12-.13-.01-.87-.14-.15-.01-.45-.08-.89-.17-1.34-.26v8.68c-.62,.08,.19-.02,.26-.02,.33-.03,.65-.07,.97-.09,.65-.06,1.3-.1,1.96-.12,1.3-.05,2.61-.05,3.92,.02,.6,.03,1.19,.07,1.78,.13,.3,.03,.59,.06,.89,.1-.2-.03-.77-.13,.13,.04,1.17,.22,2.33,.49,3.45,.88,.3,.1,.59,.21,.88,.33-.19-.07-.62-.28,.23,.1,.57,.25,1.14,.52,1.72,.77,1.24,.55,2.5,1.08,3.77,1.57,.93,.36,1.87,.7,2.8,1.05,.5,.19,.99,.38,1.49,.57,.12,.05,.89,.36,.38,.15s.56,.25,.55,.25c.89,.41,1.75,.86,2.58,1.38,.22,.14,.44,.28,.65,.42,.1,.07,.75,.57,.33,.22s.2,.19,.3,.27c.25,.23,.5,.46,.74,.71,1.61,1.66,2.85,3.64,4.58,5.2,.83,.75,1.72,1.44,2.53,2.22,.21,.2,.41,.41,.61,.62,.08,.09,.62,.73,.29,.31-.31-.38,.09,.14,.12,.18,.22,.33,.44,.66,.64,1.01,.23,.4,.45,.82,.65,1.23,.05,.11,.41,.87,.19,.38s.11,.28,.15,.4c.41,1.07,.76,2.17,1.1,3.27,1.7,5.62,3.33,11.27,4.99,16.91,.64,2.16,2.72,3.52,4.94,3.22,2.35-.32,3.68-2.16,3.9-4.42,.89-9.06,.61-19.03-6.31-25.85-1.37-1.35-3.78-1.78-5.45-.7-1.79,1.15-2.44,3.03-2.07,5.08,.61,3.37,1.21,6.74,1.72,10.13,.07,.48,.14,.97,.21,1.45l.07,.48c-.04-.31-.04-.3,0,.01,.11,.89,.22,1.78,.31,2.67,.18,1.7,.32,3.4,.41,5.1,.17,3.32,.03,6.61-.08,9.92-.05,1.56-.03,3.1,.17,4.64,.13,.98,.25,1.96,.52,2.91,.12,.43,.27,.83,.42,1.25l.15,.37c.17,.53,.16,.51-.03-.04l.61-2.27c-.16,.33,1.05-1.19,1.48-1.11-.14-.03-.66,.12-.81,.18-.53,.19,.81,.05,.24-.04-.25-.04-.56,.03-.82,.03-.12,0-.59,.02-.64-.03-.03-.03,1.13,.3,.29-.01,.11,.04,.9,.5,.29,.1,.32,.21,1.73,1.41,1.17,1.92,.16-.15-.06-1.64-.07-1.92-.02-.65-.04-1.3-.06-1.96-.05-1.55-.08-3.1-.12-4.65-.11-5.53,0-11.07-.13-16.61s-.87-11.4-3.63-16.45c-1.37-2.51-3.2-4.79-4.95-7.04-1.58-2.03-3.42-3.98-5.77-5.11-3.06-1.48-6.36-1.71-9.71-1.84s-6.64-.25-9.96-.38c-2.35-.09-4.61,2.13-4.5,4.5,.11,2.51,1.98,4.4,4.5,4.5h0Z"/>
  </g>
  <path class="cls-1" d="M86.45,43.03c2.21-.32,4.39-.69,6.64-.68,2.04,.01,4.09,.15,6.13,.24s4.17,.07,6.19,.47,3.25,1.71,4.56,3.19,3.39-.68,2.12-2.12c-1.44-1.64-2.98-3.17-5.14-3.79s-4.57-.61-6.82-.71-4.7-.26-7.05-.28c-2.5-.02-4.96,.43-7.43,.79-1.9,.28-1.09,3.17,.8,2.89h0Z"/>
  <path class="cls-1" d="M78.5,41.51c-1.78,.63-3.59,1.22-5.32,1.99-1.63,.72-2.93,2.02-4.54,2.7s-2.98,1.82-4.43,2.76-2.48,2.4-3.39,3.93c-.75,1.26,.77,2.87,2.05,2.05,1.55-.99,3.03-2.07,4.45-3.23,.62-.51,1.2-1.13,1.87-1.57,.83-.54,1.93-.65,2.87-.93,1.88-.56,3.7-1.27,5.53-1.96,.93-.35,1.87-.7,2.8-1.06,.86-.32,1.93-.56,2.67-1.11,1.58-1.17,.58-2.92-.59-3.91-1.54-1.3-3.11-1.16-4.94-.65-1.71,.47-3.49,.86-5.1,1.61s-2.81,1.93-4.33,2.73c-.94,.5-1.86,.81-2.57,1.65-.63,.75-1.02,1.33-1.93,1.77-1.83,.87-3.41,1.89-4.73,3.45s.63,3.35,2.12,2.12c2.33-1.93,4.75-3.75,7.28-5.42,1.15-.76,2.34-1.5,3.66-1.94s2.69-.64,3.95-1.24,2.12-1.3,3.49-1.49c1.45-.2,2.95-.18,4.41-.14,3.21,.08,6.41,.48,9.6,.88,1.91,.24,1.89-2.76,0-3-3.35-.42-6.7-.84-10.08-.89-1.58-.02-3.18,0-4.74,.26-1.48,.24-2.54,.92-3.83,1.61s-2.71,.78-4.01,1.26c-1.41,.52-2.71,1.27-3.96,2.1-2.73,1.81-5.35,3.8-7.88,5.89l2.12,2.12c.69-.82,1.44-1.53,2.36-2.09,.83-.51,1.77-.8,2.58-1.33s1.19-1.3,1.84-1.95,1.74-.94,2.54-1.44c1.67-1.04,3.07-2.22,4.99-2.79,1-.3,2.01-.56,3.02-.84,.48-.13,1.14-.44,1.64-.31,.27,.1,.49,.26,.69,.47,.3,.36,.37,.39,.21,.11l.44-1.06c-.26,.28-.89,.37-1.25,.5-.54,.21-1.09,.41-1.63,.62-.93,.35-1.86,.7-2.79,1.05-1.81,.68-3.63,1.34-5.5,1.84-1.68,.44-2.79,1.11-4.1,2.24-1.48,1.28-3.05,2.43-4.7,3.48l2.05,2.05c.86-1.44,1.64-2.43,3.08-3.3,.72-.43,1.33-.95,2-1.45s1.4-.68,2.11-1.05c1.37-.71,2.46-1.78,3.89-2.42,1.55-.69,3.19-1.2,4.8-1.77,1.81-.64,1.03-3.54-.8-2.89h0Z"/>
  <path class="cls-1" d="M60.99,51.8c-3.67,.98-6.86,3.08-9.2,6.06-2.65,3.37-4.43,7.32-6.3,11.15-.96,1.96-1.92,3.93-2.88,5.89s-1.93,3.81-2.5,5.86-.84,4.16-1.11,6.24-.41,4.21-.19,6.32c.47,4.43,2.23,8.49,5.05,11.93,1.23,1.49,3.34-.64,2.12-2.12-2.95-3.6-4.42-8.14-4.28-12.77,.07-2.37,.43-4.75,.89-7.07,.48-2.46,1.51-4.63,2.6-6.86,2.15-4.38,4.14-8.89,6.57-13.13s5.34-7.35,10.02-8.6c1.86-.5,1.07-3.39-.8-2.89h0Z"/>
  <path class="cls-1" d="M40.66,98.1c-.39,4,1.69,7.6,3.99,10.7,2.63,3.56,5.4,7.03,8.1,10.54,1.4,1.82,2.79,3.63,4.19,5.45,1.24,1.61,2.47,3.23,4.03,4.54,3.18,2.68,7,4.68,10.53,6.85s7.33,4.39,11.27,6.05c1.75,.74,3.78,1.72,5.7,1.84s3.29-1.28,4.5-2.51c1.34-1.37,2.51-2.94,3.41-4.63,.98-1.83,1.54-3.32-.06-4.94-2.56-2.58-5.71-4.54-8.87-6.29-3.67-2.03-7.5-3.81-10.98-6.18-1.78-1.21-3.3-2.71-5.01-4.01-1.89-1.43-4.01-2.2-5.63-4.01l-1.82,2.36c2.15,1.65,4.3,3.29,6.45,4.94,1.53,1.17,3.03-1.43,1.51-2.59-2.15-1.65-4.3-3.29-6.45-4.94-1.41-1.08-2.89,1.16-1.82,2.36,1.16,1.3,2.53,2.3,4.06,3.13,1.71,.92,3.04,2.16,4.53,3.38,2.59,2.12,5.47,3.8,8.41,5.38s5.95,3.06,8.76,4.88c1.36,.88,2.67,1.83,3.88,2.92,.28,.26,.61,.51,.85,.8,.28,.34,.25,.18-.04,.6-.53,.74-.87,1.65-1.39,2.42-.91,1.33-2.06,2.69-3.37,3.64-.7,.51-1.3,.21-2.06-.03-.93-.29-1.84-.62-2.75-.98-3.57-1.42-6.93-3.36-10.22-5.34s-6.68-3.94-9.85-6.13-5.38-5.53-7.73-8.57c-2.79-3.62-5.58-7.24-8.36-10.87-2.39-3.11-5.17-6.57-4.76-10.73,.19-1.92-2.81-1.91-3,0h0Z"/>
  <path class="cls-1" d="M64.64,70.51c-1.34,1.75-2.69,3.48-4.01,5.24-1.24,1.66-1.54,3.68-2.72,5.37s-1.69,3.43-1.96,5.43c-.31,2.28-.58,4.56-.87,6.84-.1,.81,.76,1.49,1.5,1.5,.89,0,1.4-.7,1.5-1.5,.27-2.09,.51-4.19,.8-6.28,.13-.94,.28-1.91,.63-2.79s.92-1.53,1.41-2.29c.52-.8,.82-1.67,1.12-2.57s.73-1.59,1.29-2.33c1.29-1.71,2.6-3.4,3.9-5.1,.5-.65,.1-1.67-.54-2.05-.77-.46-1.56-.1-2.05,.54h0Z"/>
  <path class="cls-1" d="M116.89,117.87c.67,1.95,1.31,3.91,1.92,5.89l2.2-1.69c-.11-.06-.22-.12-.32-.19,.17,.12,.07,.06-.02-.04-.07-.08-.14-.15-.21-.23-.27-.29,.15,.23-.08-.1-.29-.42-.59-.84-.91-1.23-.86-1.03-2.64-1.97-3.76-.75-1.04,1.13-.66,3.05,.21,4.15,.2,.26,.43,.51,.66,.74,.12,.13,.19,.23,.32,.49,.07,.14,.11,.27,.2,.56,.09,.32,.16,.64,.23,.96,.13,.62,.82,1.13,1.45,1.1s1.35-.44,1.45-1.1c.2-1.39-.16-2.59-.48-3.93-.27-1.14-.39-2.19-.4-3.37,0-.55,0-1.11,.07-1.66-.03,.29,.01-.02,.02-.09,.01-.07,.03-.13,.06-.2l-.05,.11c-.01-.13,.15-.11,0-.01,.02-.01-.19,.15-.18,.12-.1,.01-.06,.02,.11,0h.16c-.21,0,.11,.04,.17,.05,.28,.05,.56,.11,.83,.18,.61,.14,1.22,.31,1.82,.49,.75,.23,1.67-.27,1.85-1.05,.19-.81-.24-1.6-1.05-1.85-.66-.2-1.33-.39-2.01-.54s-1.39-.33-2.09-.28c-.88,.07-1.67,.49-2.14,1.24-.37,.58-.47,1.27-.52,1.94-.13,1.47-.02,2.94,.2,4.39,.1,.66,.25,1.31,.42,1.95,.15,.57,.38,1.24,.31,1.69h2.89c-.2-.94-.45-1.93-1.03-2.73-.19-.26-.39-.5-.6-.73-.07-.08-.15-.16-.22-.23-.03-.03-.16-.19-.07-.07-.06-.08-.12-.18-.16-.27,.07,.14,0-.02-.01-.08-.02-.08-.03-.22-.02-.06,0-.06-.05-.36,0-.27,.03,.05-1.19,.83-1.2,.73-.08-.04-.09-.03-.01,0,.04,.02,.07,.04,.1,.06,.07,.05,.07,.04,0,0-.07-.06-.08-.06-.01,0,.05,.06,.12,.12,.17,.17,.06,.06,.11,.12,.16,.19,.15,.16-.13-.19,0,0,.11,.16,.22,.31,.34,.47,.51,.72,1.06,1.43,1.86,1.84,1.11,.56,2.61-.37,2.2-1.69-.6-1.97-1.24-3.94-1.92-5.89-.26-.77-1.03-1.27-1.85-1.05-.74,.2-1.31,1.08-1.05,1.85h0Z"/>
  <path class="cls-1" d="M79.32,60.07c-.74,.38-1.34,.93-1.94,1.51-.72,.69-1.36,1.06-2.28,1.43-1.83,.75-3.21,2.06-4.55,3.47-.86,.9-.28,2.62,1.06,2.56,2.12-.09,2.87-2.06,4.61-2.9,1.97-.95,4.08-1.48,6.02-2.53,2.14-1.15,4.15-2.23,6.58-2.62s4.72-.47,7.07-.9c2.55-.46,4.81-.33,7.3,.43,2.05,.63,4.3,1.29,6.11,2.46,1.91,1.23,3.16,3.41,4.23,5.36,1.18,2.15,2.14,4.4,3.05,6.68,.49,1.22,1.02,2.44,1.38,3.71,.39,1.38,.33,2.76,.27,4.18-.1,2.77,.27,5.45,1.34,8.02,.55,1.33,2.4,1.51,2.89,0,1.42-4.31,1.31-9.1,1.1-13.58-.19-4.17-1.3-7.84-4.1-11-2.53-2.85-5.79-5.12-8.77-7.47-3.58-2.82-7.51-4.12-11.89-5.16v2.89c5.61-1.57,13.59-1.55,17,4.12l2.36-1.82c-4.95-3.85-10.24-7.21-15.87-9.97-2.76-1.35-5.6-2.59-8.5-3.63-2.51-.9-6.02-.81-6.78,2.36-.45,1.88,2.45,2.68,2.89,.8s5.12,.51,6.18,.95c2.4,.99,4.76,2.11,7.06,3.33,4.53,2.38,8.85,5.15,12.89,8.29,1.25,.97,3.31-.23,2.36-1.82-4.14-6.87-13.41-7.44-20.39-5.49-1.39,.39-1.47,2.54,0,2.89,4,.95,7.64,2.06,10.9,4.66,2.67,2.13,5.55,4.16,7.91,6.63,2.69,2.81,3.63,6.07,3.76,9.89,.15,4.1,.28,8.39-1.01,12.33h2.89c-1.06-2.53-1.31-4.99-1.21-7.7s-.46-4.89-1.44-7.36c-1.79-4.49-3.62-9.42-6.98-13.01-1.56-1.66-3.57-2.55-5.67-3.33-2.37-.88-4.77-1.73-7.31-1.93s-5.19,.59-7.78,.85-5.08,.43-7.48,1.43-4.64,2.58-7.17,3.45c-1.14,.39-2.35,.75-3.37,1.4-.52,.33-.99,.73-1.42,1.18-.23,.24-.65,.93-1.01,.94l1.06,2.56c1.33-1.39,2.53-2.38,4.32-3.13,1.55-.65,2.41-2.06,3.85-2.81,1.71-.89,.2-3.48-1.51-2.59h0Z"/>
  <path class="cls-1" d="M119.12,105.11c-.2,1.28-.54,2.51-1.02,3.71l2.89,.8c.4-2.9,1.23-5.68,2.54-8.29l-2.36,.3c2.5,2.49,4.85,5.12,7.04,7.89,.64,.81,1.87,.41,2.36-.3,.67-.99,1.25-2.01,1.74-3.1,.23-.52,.45-1.06,.64-1.6,.1-.28,.19-.56,.28-.85,.24-.56,.15-.58-.29-.05l-1.16-.15c-.13-.26-.17-.24-.12,.06,0,.25,.01,.49,0,.74,0,.41,0,.82-.03,1.23-.04,.9-.12,1.8-.23,2.7-.23,1.92,2.76,1.89,3,0,.94-7.39,2.34-14.88,2.34-22.35,0-3.8,0-7.61-.02-11.41,0-1.52-.04-3.09-.75-4.47s-2.02-2.2-2.91-3.42c-1.12-1.55-3.73-.05-2.59,1.51,.8,1.11,2.02,1.94,2.72,3.09,.78,1.28,.52,3.09,.53,4.52,0,3.71,.04,7.42,.01,11.12-.03,3.49-.5,6.94-.94,10.4-.47,3.67-.93,7.33-1.4,11h3c.22-1.83,1.28-7.77-2.08-7.5-1.46,.12-1.76,1.43-2.13,2.6-.51,1.58-1.29,3.04-2.22,4.41l2.36-.3c-2.19-2.77-4.54-5.4-7.04-7.89-.65-.65-1.92-.57-2.36,.3-1.43,2.85-2.41,5.85-2.84,9.01-.26,1.91,2.16,2.61,2.89,.8,.49-1.2,.83-2.43,1.02-3.71,.29-1.89-2.6-2.7-2.89-.8h0Z"/>
</svg>