<?xml version="1.0" encoding="UTF-8"?>
<svg id="fald" xmlns="http://www.w3.org/2000/svg" viewBox="0 0 194 151">
  <defs>
    <style>
      .cls-1 {
        opacity: .33;
      }

      .cls-2 {
        fill: #603813;
      }

      .cls-3 {
        fill: #42210b;
      }

      .cls-4 {
        fill: #754c24;
      }
    </style>
  </defs>
  <g>
    <path class="cls-4" d="M21.86,87.29l-4.21-4.69c-.41-.46-.83-.93-1.1-1.48-.36-.74-.42-1.59-.39-2.41,.09-2.29,.89-4.54,2.26-6.37,.41-.55,.88-1.07,1.48-1.4,.82-.45,1.78-.51,2.71-.56,1.35-.07,2.7-.14,4.05-.21"/>
    <path class="cls-2" d="M22.92,86.22c-1.46-1.63-2.95-3.24-4.39-4.89-1.19-1.36-.98-3.13-.53-4.77,.39-1.44,1.2-3.45,2.55-4.27,.75-.45,1.73-.4,2.57-.45,1.18-.06,2.36-.12,3.54-.19,1.92-.1,1.93-3.1,0-3-1.4,.07-2.79,.14-4.19,.22-1.18,.07-2.4,.2-3.44,.82-1.96,1.18-3.22,3.66-3.85,5.79s-.95,4.87,.33,6.83c.66,1.03,1.59,1.91,2.4,2.81l2.88,3.21c1.29,1.44,3.41-.69,2.12-2.12h0Z"/>
  </g>
  <g>
    <g>
      <path class="cls-4" d="M24.74,71.13c10.26-5.13,18.26-13.13,27.26-20.13,12-8,25-9,39-11,9-1,18,0,27,3,12,3,25,4,34,13,7,8,15,13,22,20,5,6,2,15-3,20-11,10-23,17-37,22-39,14-84,0-110.71-31.09"/>
      <path class="cls-2" d="M25.5,72.42c5.5-2.77,10.46-6.41,15.24-10.26,4.78-3.86,9.3-8.4,14.63-11.49,10.45-6.05,22.56-7.35,34.3-8.98,6.68-.93,13.5-.7,20.11,.66,3.29,.67,6.45,1.8,9.72,2.56,2.68,.62,5.38,1.17,8.07,1.76,5.39,1.18,10.87,2.48,15.82,5,2.41,1.23,4.68,2.73,6.68,4.56,2.29,2.11,4.29,4.53,6.6,6.64,4.56,4.18,9.53,7.88,14.08,12.08,2.06,1.9,3.69,3.71,4.18,6.57,.43,2.53-.1,5.21-1.08,7.56-2.14,5.14-6.76,8.56-11.07,11.83-4.7,3.57-9.71,6.74-14.95,9.46-9.89,5.15-20.57,8.89-31.61,10.55-10.37,1.56-21.06,1.31-31.37-.56-20.74-3.76-40.24-13.88-55.18-28.77-1.85-1.85-3.63-3.76-5.33-5.74-1.26-1.46-3.38,.67-2.12,2.12,14.36,16.65,34,28.6,55.34,33.89,10.57,2.62,21.58,3.63,32.44,2.77,11.47-.91,22.49-3.97,33-8.62,5.53-2.45,10.87-5.34,15.91-8.68,2.52-1.68,4.97-3.47,7.35-5.34s4.81-3.7,6.75-5.94c3.49-4.05,5.73-9.59,4.88-14.98-.43-2.75-1.76-5.12-3.75-7.04-2.27-2.19-4.67-4.23-7.09-6.24s-4.89-4.03-7.26-6.14-4.66-4.65-7-6.98c-4.06-4.06-9.38-6.64-14.78-8.4s-11.28-2.78-16.93-4.07c-3.29-.75-6.47-1.87-9.77-2.59s-6.87-1.21-10.35-1.39c-6.64-.35-13.17,.7-19.72,1.64-6.16,.89-12.32,1.98-18.21,4.05-2.9,1.02-5.73,2.26-8.41,3.75s-5.24,3.5-7.71,5.53c-4.87,4-9.61,8.18-14.8,11.78-2.59,1.8-5.29,3.44-8.12,4.87-1.72,.87-.21,3.46,1.51,2.59h0Z"/>
    </g>
    <path class="cls-3" d="M16.89,79.61c9.79,.25,18.7,4.67,27.78,7.81,4.42,1.53,8.96,2.78,13.64,3.13,5.54,.41,11.06-.45,16.57-.88,11.14-.87,22.33,.12,33.44-1.36,5.51-.73,10.97-1.82,16.51-2.33s11.04-.15,16.53,1.17c2.85,.69,5.69,1.46,8.61,1.85s5.93,.32,8.87-.06c5.99-.79,11.72-2.84,17.38-4.88,.45-.16,.26-.89-.2-.72-5.12,1.85-10.28,3.7-15.66,4.62-2.73,.47-5.52,.68-8.29,.51s-5.52-.8-8.23-1.46c-5.23-1.28-10.3-2.2-15.71-1.98s-10.49,1.14-15.7,1.95c-5.59,.87-11.17,1.39-16.83,1.51s-11.36-.02-17.03,.23-11.08,1.14-16.65,1.2c-5.03,.05-9.89-.9-14.67-2.41-10.03-3.17-19.63-8.36-30.36-8.63-.48-.01-.48,.74,0,.75h0Z"/>
    <g class="cls-1">
      <path class="cls-3" d="M58.38,59.99c6.13-5.75,14.57-2.61,21.69-1.15,1.71,.35,3.46,.58,5.2,.44s3.32-.66,4.95-1.11c3.82-1.06,7.67-.92,11.36,.58,.45,.18,.64-.54,.2-.72-3.39-1.39-7.09-1.71-10.66-.87-2.03,.48-3.98,1.26-6.08,1.39-2.24,.14-4.45-.33-6.61-.86-6.8-1.67-14.84-3.61-20.57,1.76-.35,.33,.18,.86,.53,.53h0Z"/>
    </g>
    <g class="cls-1">
      <path class="cls-3" d="M108.59,72.67c4.07-1.21,8.21-2.44,12.49-2.47,1.97-.01,3.95,.23,5.82,.83s3.41,1.65,5.07,2.65c2.86,1.72,5.76,2.01,9.02,1.48,3.68-.61,7.28-1.93,11.06-1.47,.48,.06,.47-.69,0-.75-3.57-.43-7.01,.69-10.47,1.35-1.91,.37-3.9,.6-5.83,.19s-3.48-1.53-5.13-2.53c-6.94-4.22-14.97-2.14-22.23,0-.46,.14-.27,.86,.2,.72h0Z"/>
    </g>
    <g class="cls-1">
      <path class="cls-3" d="M59.31,106.27c3.33,.67,6.75,1.35,10.17,1.03,3.1-.3,5.67-1.66,8.4-3.03,3.09-1.55,5.95-2.24,9.27-.93,2.6,1.02,4.98,2.57,7.85,2.64,.48,.01,.48-.74,0-.75-2.98-.08-5.46-1.85-8.18-2.82-2.57-.91-5.03-.68-7.52,.37-2.87,1.2-5.46,3.03-8.58,3.59-3.74,.67-7.55-.09-11.22-.83-.47-.09-.67,.63-.2,.72h0Z"/>
    </g>
    <g class="cls-1">
      <path class="cls-3" d="M117.71,100.95c6.4,1.8,13.08,3.65,19.79,2.84,3.27-.4,6.33-1.62,9.56-2.2,3.73-.67,7.53-.23,11.22,.46,.47,.09,.67-.63,.2-.72-3.32-.63-6.72-1.06-10.1-.68s-6.35,1.62-9.58,2.2c-7.04,1.27-14.15-.73-20.88-2.62-.47-.13-.66,.59-.2,.72h0Z"/>
    </g>
    <g class="cls-1">
      <path class="cls-3" d="M49,75.48c3.89-1.11,7.62,.92,11.2,2.19,1.75,.62,3.54,1.09,5.4,1.15,2.14,.07,4.25-.32,6.37-.58,4.27-.53,8.21,.17,12.3,1.37,3.78,1.1,7.54,2.35,11.51,2.57,.48,.03,.48-.72,0-.75-4.19-.23-8.14-1.65-12.14-2.78-4.07-1.15-7.92-1.64-12.13-1.09-2.18,.28-4.39,.66-6.6,.48-2.03-.17-3.96-.86-5.84-1.58-3.29-1.26-6.7-2.7-10.25-1.69-.46,.13-.27,.86,.2,.72h0Z"/>
    </g>
  </g>
  <path class="cls-4" d="M22.96,85.89c1.93,0,1.93-3,0-3s-1.93,3,0,3h0Z"/>
  <path class="cls-4" d="M23.25,84.84c1.93,0,1.93-3,0-3s-1.93,3,0,3h0Z"/>
  <path class="cls-4" d="M23.49,83.5c1.93,0,1.93-3,0-3s-1.93,3,0,3h0Z"/>
  <path class="cls-4" d="M21.18,83.88c.16,.07,.66,.33,.65,.32-.11-.14,.08,.31,.1,.37,.07,.19,.15,.37,.25,.54,.43,.68,1.1,.95,1.74,1.37,.69,.45,1.27,1.07,1.97,1.53,.79,.52,1.59,1.03,2.39,1.53,3.16,1.99,6.42,3.84,9.97,5.04,1.83,.62,2.62-2.27,.8-2.89-3.4-1.16-6.49-2.99-9.51-4.91-.71-.45-1.43-.9-2.13-1.37s-1.26-1.09-1.97-1.53c-.23-.15-.56-.24-.76-.43-.04-.03,.19,.28,.04,.02-.08-.14-.11-.34-.18-.49-.36-.82-1.06-1.32-1.85-1.68-.74-.33-1.61-.21-2.05,.54-.38,.64-.2,1.72,.54,2.05h0Z"/>
</svg>